%TF.GenerationSoftware,KiCad,Pcbnew,9.0.0+1*%
%TF.CreationDate,2025-04-22T17:22:07+02:00*%
%TF.ProjectId,ts13a_dev_kit,74733133-615f-4646-9576-5f6b69742e6b,rev?*%
%TF.SameCoordinates,Original*%
%TF.FileFunction,Paste,Top*%
%TF.FilePolarity,Positive*%
%FSLAX46Y46*%
G04 Gerber Fmt 4.6, Leading zero omitted, Abs format (unit mm)*
G04 Created by KiCad (PCBNEW 9.0.0+1) date 2025-04-22 17:22:07*
%MOMM*%
%LPD*%
G01*
G04 APERTURE LIST*
G04 Aperture macros list*
%AMRoundRect*
0 Rectangle with rounded corners*
0 $1 Rounding radius*
0 $2 $3 $4 $5 $6 $7 $8 $9 X,Y pos of 4 corners*
0 Add a 4 corners polygon primitive as box body*
4,1,4,$2,$3,$4,$5,$6,$7,$8,$9,$2,$3,0*
0 Add four circle primitives for the rounded corners*
1,1,$1+$1,$2,$3*
1,1,$1+$1,$4,$5*
1,1,$1+$1,$6,$7*
1,1,$1+$1,$8,$9*
0 Add four rect primitives between the rounded corners*
20,1,$1+$1,$2,$3,$4,$5,0*
20,1,$1+$1,$4,$5,$6,$7,0*
20,1,$1+$1,$6,$7,$8,$9,0*
20,1,$1+$1,$8,$9,$2,$3,0*%
%AMFreePoly0*
4,1,14,0.314644,0.085355,0.385355,0.014644,0.400000,-0.020711,0.400000,-0.050000,0.385355,-0.085355,0.350000,-0.100000,-0.350000,-0.100000,-0.385355,-0.085355,-0.400000,-0.050000,-0.400000,0.050000,-0.385355,0.085355,-0.350000,0.100000,0.279289,0.100000,0.314644,0.085355,0.314644,0.085355,$1*%
%AMFreePoly1*
4,1,14,0.385355,0.085355,0.400000,0.050000,0.400000,0.020711,0.385355,-0.014644,0.314644,-0.085355,0.279289,-0.100000,-0.350000,-0.100000,-0.385355,-0.085355,-0.400000,-0.050000,-0.400000,0.050000,-0.385355,0.085355,-0.350000,0.100000,0.350000,0.100000,0.385355,0.085355,0.385355,0.085355,$1*%
%AMFreePoly2*
4,1,14,0.085355,0.385355,0.100000,0.350000,0.100000,-0.350000,0.085355,-0.385355,0.050000,-0.400000,-0.050000,-0.400000,-0.085355,-0.385355,-0.100000,-0.350000,-0.100000,0.279289,-0.085355,0.314644,-0.014644,0.385355,0.020711,0.400000,0.050000,0.400000,0.085355,0.385355,0.085355,0.385355,$1*%
%AMFreePoly3*
4,1,14,0.014644,0.385355,0.085355,0.314644,0.100000,0.279289,0.100000,-0.350000,0.085355,-0.385355,0.050000,-0.400000,-0.050000,-0.400000,-0.085355,-0.385355,-0.100000,-0.350000,-0.100000,0.350000,-0.085355,0.385355,-0.050000,0.400000,-0.020711,0.400000,0.014644,0.385355,0.014644,0.385355,$1*%
%AMFreePoly4*
4,1,14,0.385355,0.085355,0.400000,0.050000,0.400000,-0.050000,0.385355,-0.085355,0.350000,-0.100000,-0.279289,-0.100000,-0.314644,-0.085355,-0.385355,-0.014644,-0.400000,0.020711,-0.400000,0.050000,-0.385355,0.085355,-0.350000,0.100000,0.350000,0.100000,0.385355,0.085355,0.385355,0.085355,$1*%
%AMFreePoly5*
4,1,14,0.385355,0.085355,0.400000,0.050000,0.400000,-0.050000,0.385355,-0.085355,0.350000,-0.100000,-0.350000,-0.100000,-0.385355,-0.085355,-0.400000,-0.050000,-0.400000,-0.020711,-0.385355,0.014644,-0.314644,0.085355,-0.279289,0.100000,0.350000,0.100000,0.385355,0.085355,0.385355,0.085355,$1*%
%AMFreePoly6*
4,1,14,0.085355,0.385355,0.100000,0.350000,0.100000,-0.279289,0.085355,-0.314644,0.014644,-0.385355,-0.020711,-0.400000,-0.050000,-0.400000,-0.085355,-0.385355,-0.100000,-0.350000,-0.100000,0.350000,-0.085355,0.385355,-0.050000,0.400000,0.050000,0.400000,0.085355,0.385355,0.085355,0.385355,$1*%
%AMFreePoly7*
4,1,14,0.085355,0.385355,0.100000,0.350000,0.100000,-0.350000,0.085355,-0.385355,0.050000,-0.400000,0.020711,-0.400000,-0.014644,-0.385355,-0.085355,-0.314644,-0.100000,-0.279289,-0.100000,0.350000,-0.085355,0.385355,-0.050000,0.400000,0.050000,0.400000,0.085355,0.385355,0.085355,0.385355,$1*%
G04 Aperture macros list end*
%ADD10RoundRect,0.225000X-0.225000X-0.250000X0.225000X-0.250000X0.225000X0.250000X-0.225000X0.250000X0*%
%ADD11RoundRect,0.140000X-0.170000X0.140000X-0.170000X-0.140000X0.170000X-0.140000X0.170000X0.140000X0*%
%ADD12RoundRect,0.150000X-0.150000X0.512500X-0.150000X-0.512500X0.150000X-0.512500X0.150000X0.512500X0*%
%ADD13R,1.600000X7.500000*%
%ADD14R,1.500000X6.500000*%
%ADD15RoundRect,0.135000X-0.185000X0.135000X-0.185000X-0.135000X0.185000X-0.135000X0.185000X0.135000X0*%
%ADD16RoundRect,0.135000X-0.135000X-0.185000X0.135000X-0.185000X0.135000X0.185000X-0.135000X0.185000X0*%
%ADD17R,2.180000X1.600000*%
%ADD18RoundRect,0.140000X0.140000X0.170000X-0.140000X0.170000X-0.140000X-0.170000X0.140000X-0.170000X0*%
%ADD19RoundRect,0.250000X-0.285000X-0.285000X0.285000X-0.285000X0.285000X0.285000X-0.285000X0.285000X0*%
%ADD20FreePoly0,0.000000*%
%ADD21RoundRect,0.050000X-0.350000X-0.050000X0.350000X-0.050000X0.350000X0.050000X-0.350000X0.050000X0*%
%ADD22FreePoly1,0.000000*%
%ADD23FreePoly2,0.000000*%
%ADD24RoundRect,0.050000X-0.050000X-0.350000X0.050000X-0.350000X0.050000X0.350000X-0.050000X0.350000X0*%
%ADD25FreePoly3,0.000000*%
%ADD26FreePoly4,0.000000*%
%ADD27FreePoly5,0.000000*%
%ADD28FreePoly6,0.000000*%
%ADD29FreePoly7,0.000000*%
%ADD30RoundRect,0.250000X0.350000X-0.450000X0.350000X0.450000X-0.350000X0.450000X-0.350000X-0.450000X0*%
%ADD31RoundRect,0.243750X0.456250X-0.243750X0.456250X0.243750X-0.456250X0.243750X-0.456250X-0.243750X0*%
%ADD32RoundRect,0.225000X0.225000X0.250000X-0.225000X0.250000X-0.225000X-0.250000X0.225000X-0.250000X0*%
%ADD33RoundRect,0.225000X0.250000X-0.225000X0.250000X0.225000X-0.250000X0.225000X-0.250000X-0.225000X0*%
%ADD34RoundRect,0.075000X0.662500X0.075000X-0.662500X0.075000X-0.662500X-0.075000X0.662500X-0.075000X0*%
%ADD35RoundRect,0.075000X0.075000X0.662500X-0.075000X0.662500X-0.075000X-0.662500X0.075000X-0.662500X0*%
%ADD36RoundRect,0.135000X0.185000X-0.135000X0.185000X0.135000X-0.185000X0.135000X-0.185000X-0.135000X0*%
%ADD37RoundRect,0.250000X-0.350000X-0.450000X0.350000X-0.450000X0.350000X0.450000X-0.350000X0.450000X0*%
%ADD38RoundRect,0.250000X0.250000X0.475000X-0.250000X0.475000X-0.250000X-0.475000X0.250000X-0.475000X0*%
%ADD39RoundRect,0.150000X0.150000X-0.512500X0.150000X0.512500X-0.150000X0.512500X-0.150000X-0.512500X0*%
%ADD40RoundRect,0.140000X-0.140000X-0.170000X0.140000X-0.170000X0.140000X0.170000X-0.140000X0.170000X0*%
%ADD41RoundRect,0.135000X0.135000X0.185000X-0.135000X0.185000X-0.135000X-0.185000X0.135000X-0.185000X0*%
%ADD42RoundRect,0.175000X-0.175000X-0.325000X0.175000X-0.325000X0.175000X0.325000X-0.175000X0.325000X0*%
%ADD43RoundRect,0.150000X-0.200000X-0.150000X0.200000X-0.150000X0.200000X0.150000X-0.200000X0.150000X0*%
G04 APERTURE END LIST*
D10*
%TO.C,C2*%
X133725000Y-58500000D03*
X135275000Y-58500000D03*
%TD*%
D11*
%TO.C,C13*%
X126500000Y-67020000D03*
X126500000Y-67980000D03*
%TD*%
D12*
%TO.C,IC3*%
X134950000Y-86112500D03*
X133050000Y-86112500D03*
X134000000Y-88387500D03*
%TD*%
D13*
%TO.C,J1*%
X133500000Y-99995000D03*
D14*
X131000000Y-99495000D03*
X129000000Y-99495000D03*
D13*
X126500000Y-99995000D03*
%TD*%
D15*
%TO.C,R7*%
X133250000Y-66990000D03*
X133250000Y-68010000D03*
%TD*%
%TO.C,R3*%
X129500000Y-66990000D03*
X129500000Y-68010000D03*
%TD*%
D16*
%TO.C,R1*%
X137240000Y-69250000D03*
X138260000Y-69250000D03*
%TD*%
D17*
%TO.C,SW1*%
X134590000Y-82250000D03*
X125410000Y-82250000D03*
%TD*%
D18*
%TO.C,C9*%
X135480000Y-79250000D03*
X134520000Y-79250000D03*
%TD*%
D19*
%TO.C,IC1*%
X133840000Y-54340000D03*
X133840000Y-55660000D03*
X135160000Y-54340000D03*
X135160000Y-55660000D03*
D20*
X132550000Y-53600000D03*
D21*
X132550000Y-54000000D03*
X132550000Y-54400000D03*
X132550000Y-54800000D03*
X132550000Y-55200000D03*
X132550000Y-55600000D03*
X132550000Y-56000000D03*
D22*
X132550000Y-56400000D03*
D23*
X133100000Y-56950000D03*
D24*
X133500000Y-56950000D03*
X133900000Y-56950000D03*
X134300000Y-56950000D03*
X134700000Y-56950000D03*
X135100000Y-56950000D03*
X135500000Y-56950000D03*
D25*
X135900000Y-56950000D03*
D26*
X136450000Y-56400000D03*
D21*
X136450000Y-56000000D03*
X136450000Y-55600000D03*
X136450000Y-55200000D03*
X136450000Y-54800000D03*
X136450000Y-54400000D03*
X136450000Y-54000000D03*
D27*
X136450000Y-53600000D03*
D28*
X135900000Y-53050000D03*
D24*
X135500000Y-53050000D03*
X135100000Y-53050000D03*
X134700000Y-53050000D03*
X134300000Y-53050000D03*
X133900000Y-53050000D03*
X133500000Y-53050000D03*
D29*
X133100000Y-53050000D03*
%TD*%
D30*
%TO.C,X1*%
X138350000Y-76600000D03*
X138350000Y-74400000D03*
X136650000Y-74400000D03*
X136650000Y-76600000D03*
%TD*%
D11*
%TO.C,C5*%
X131750000Y-88020000D03*
X131750000Y-88980000D03*
%TD*%
D31*
%TO.C,D1*%
X123000000Y-76687500D03*
X123000000Y-74812500D03*
%TD*%
D16*
%TO.C,R13*%
X122490000Y-73000000D03*
X123510000Y-73000000D03*
%TD*%
D32*
%TO.C,C1*%
X134275000Y-51500000D03*
X132725000Y-51500000D03*
%TD*%
D33*
%TO.C,C3*%
X138000000Y-54775000D03*
X138000000Y-53225000D03*
%TD*%
D18*
%TO.C,C11*%
X137980000Y-78500000D03*
X137020000Y-78500000D03*
%TD*%
D34*
%TO.C,IC2*%
X134162500Y-77250000D03*
X134162500Y-76750000D03*
X134162500Y-76250000D03*
X134162500Y-75750000D03*
X134162500Y-75250000D03*
X134162500Y-74750000D03*
X134162500Y-74250000D03*
X134162500Y-73750000D03*
X134162500Y-73250000D03*
X134162500Y-72750000D03*
X134162500Y-72250000D03*
X134162500Y-71750000D03*
D35*
X132750000Y-70337500D03*
X132250000Y-70337500D03*
X131750000Y-70337500D03*
X131250000Y-70337500D03*
X130750000Y-70337500D03*
X130250000Y-70337500D03*
X129750000Y-70337500D03*
X129250000Y-70337500D03*
X128750000Y-70337500D03*
X128250000Y-70337500D03*
X127750000Y-70337500D03*
X127250000Y-70337500D03*
D34*
X125837500Y-71750000D03*
X125837500Y-72250000D03*
X125837500Y-72750000D03*
X125837500Y-73250000D03*
X125837500Y-73750000D03*
X125837500Y-74250000D03*
X125837500Y-74750000D03*
X125837500Y-75250000D03*
X125837500Y-75750000D03*
X125837500Y-76250000D03*
X125837500Y-76750000D03*
X125837500Y-77250000D03*
D35*
X127250000Y-78662500D03*
X127750000Y-78662500D03*
X128250000Y-78662500D03*
X128750000Y-78662500D03*
X129250000Y-78662500D03*
X129750000Y-78662500D03*
X130250000Y-78662500D03*
X130750000Y-78662500D03*
X131250000Y-78662500D03*
X131750000Y-78662500D03*
X132250000Y-78662500D03*
X132750000Y-78662500D03*
%TD*%
D36*
%TO.C,R12*%
X125250000Y-68010000D03*
X125250000Y-66990000D03*
%TD*%
D37*
%TO.C,F1*%
X131959484Y-91208019D03*
X133959484Y-91208019D03*
%TD*%
D38*
%TO.C,C4*%
X130450000Y-88500000D03*
X128550000Y-88500000D03*
%TD*%
D15*
%TO.C,R5*%
X132000000Y-66990000D03*
X132000000Y-68010000D03*
%TD*%
D39*
%TO.C,IC4*%
X122050000Y-69637500D03*
X123000000Y-69637500D03*
X123950000Y-69637500D03*
X123950000Y-67362500D03*
X123000000Y-67362500D03*
X122050000Y-67362500D03*
%TD*%
D36*
%TO.C,R10*%
X126500000Y-91760000D03*
X126500000Y-90740000D03*
%TD*%
D40*
%TO.C,C12*%
X137020000Y-72500000D03*
X137980000Y-72500000D03*
%TD*%
D15*
%TO.C,R2*%
X128250000Y-66990000D03*
X128250000Y-68010000D03*
%TD*%
%TO.C,R11*%
X127750000Y-90740000D03*
X127750000Y-91760000D03*
%TD*%
D40*
%TO.C,C10*%
X137270000Y-70500000D03*
X138230000Y-70500000D03*
%TD*%
D11*
%TO.C,C8*%
X135000000Y-68520000D03*
X135000000Y-69480000D03*
%TD*%
D38*
%TO.C,C7*%
X130450000Y-86250000D03*
X128550000Y-86250000D03*
%TD*%
D11*
%TO.C,C6*%
X131750000Y-85770000D03*
X131750000Y-86730000D03*
%TD*%
D15*
%TO.C,R4*%
X130750000Y-66990000D03*
X130750000Y-68010000D03*
%TD*%
D36*
%TO.C,R9*%
X125250000Y-91760000D03*
X125250000Y-90740000D03*
%TD*%
D41*
%TO.C,R6*%
X123510000Y-79000000D03*
X122490000Y-79000000D03*
%TD*%
D42*
%TO.C,D2*%
X125000000Y-86500000D03*
D43*
X125000000Y-88200000D03*
X127000000Y-88200000D03*
X127000000Y-86300000D03*
%TD*%
M02*
