%TF.GenerationSoftware,KiCad,Pcbnew,9.0.0+1*%
%TF.CreationDate,2025-04-22T18:27:55+02:00*%
%TF.ProjectId,ts13a_dev_kit,74733133-615f-4646-9576-5f6b69742e6b,rev?*%
%TF.SameCoordinates,Original*%
%TF.FileFunction,Drillmap*%
%TF.FilePolarity,Positive*%
%FSLAX45Y45*%
G04 Gerber Fmt 4.5, Leading zero omitted, Abs format (unit mm)*
G04 Created by KiCad (PCBNEW 9.0.0+1) date 2025-04-22 18:27:55*
%MOMM*%
%LPD*%
G01*
G04 APERTURE LIST*
%ADD10C,0.050000*%
%ADD11C,0.120000*%
%ADD12C,0.200000*%
%ADD13C,0.145000*%
%ADD14C,0.220000*%
G04 APERTURE END LIST*
D10*
X13750000Y-5000000D02*
X12250000Y-5000000D01*
X13875000Y-8291506D02*
X13600000Y-8425000D01*
X13600000Y-9600000D02*
X13600000Y-8425000D01*
X12400000Y-8425000D02*
X12400000Y-9599500D01*
X12000000Y-5250000D02*
G75*
G02*
X12250000Y-5000000I250000J0D01*
G01*
X12125000Y-8291506D02*
G75*
G02*
X12000000Y-8075000I125000J216506D01*
G01*
X14000000Y-8075000D02*
G75*
G02*
X13875000Y-8291506I-250000J0D01*
G01*
X13750000Y-5000000D02*
G75*
G02*
X14000000Y-5250000I0J-250000D01*
G01*
X12000000Y-5250000D02*
X12000000Y-8075000D01*
X14000000Y-8075000D02*
X14000000Y-5250000D01*
X12125000Y-8291506D02*
X12400000Y-8425000D01*
D11*
X13600000Y-9599500D02*
X13600000Y-10399500D01*
X13600000Y-10399500D02*
X12400000Y-10399500D01*
X12400000Y-10399500D02*
X12400000Y-9599500D01*
D12*
D13*
X12036500Y-6227500D02*
X12181500Y-6372500D01*
X12181500Y-6227500D02*
X12036500Y-6372500D01*
X12290500Y-6227500D02*
X12435500Y-6372500D01*
X12435500Y-6227500D02*
X12290500Y-6372500D01*
X12544500Y-6227500D02*
X12689500Y-6372500D01*
X12689500Y-6227500D02*
X12544500Y-6372500D01*
X12798500Y-6227500D02*
X12943500Y-6372500D01*
X12943500Y-6227500D02*
X12798500Y-6372500D01*
X13052500Y-6227500D02*
X13197500Y-6372500D01*
X13197500Y-6227500D02*
X13052500Y-6372500D01*
X13306500Y-6227500D02*
X13451500Y-6372500D01*
X13451500Y-6227500D02*
X13306500Y-6372500D01*
X13560500Y-6227500D02*
X13705500Y-6372500D01*
X13705500Y-6227500D02*
X13560500Y-6372500D01*
X13814500Y-6227500D02*
X13959500Y-6372500D01*
X13959500Y-6227500D02*
X13814500Y-6372500D01*
D14*
X12310000Y-5550000D02*
G75*
G02*
X12090000Y-5550000I-110000J0D01*
G01*
X12090000Y-5550000D02*
G75*
G02*
X12310000Y-5550000I110000J0D01*
G01*
D12*
X12258277Y-10716984D02*
X12258277Y-10516984D01*
X12258277Y-10516984D02*
X12305896Y-10516984D01*
X12305896Y-10516984D02*
X12334467Y-10526508D01*
X12334467Y-10526508D02*
X12353515Y-10545555D01*
X12353515Y-10545555D02*
X12363039Y-10564603D01*
X12363039Y-10564603D02*
X12372562Y-10602698D01*
X12372562Y-10602698D02*
X12372562Y-10631270D01*
X12372562Y-10631270D02*
X12363039Y-10669365D01*
X12363039Y-10669365D02*
X12353515Y-10688412D01*
X12353515Y-10688412D02*
X12334467Y-10707460D01*
X12334467Y-10707460D02*
X12305896Y-10716984D01*
X12305896Y-10716984D02*
X12258277Y-10716984D01*
X12458277Y-10716984D02*
X12458277Y-10583650D01*
X12458277Y-10621746D02*
X12467801Y-10602698D01*
X12467801Y-10602698D02*
X12477324Y-10593174D01*
X12477324Y-10593174D02*
X12496372Y-10583650D01*
X12496372Y-10583650D02*
X12515420Y-10583650D01*
X12582086Y-10716984D02*
X12582086Y-10583650D01*
X12582086Y-10516984D02*
X12572562Y-10526508D01*
X12572562Y-10526508D02*
X12582086Y-10536031D01*
X12582086Y-10536031D02*
X12591610Y-10526508D01*
X12591610Y-10526508D02*
X12582086Y-10516984D01*
X12582086Y-10516984D02*
X12582086Y-10536031D01*
X12705896Y-10716984D02*
X12686848Y-10707460D01*
X12686848Y-10707460D02*
X12677324Y-10688412D01*
X12677324Y-10688412D02*
X12677324Y-10516984D01*
X12810658Y-10716984D02*
X12791610Y-10707460D01*
X12791610Y-10707460D02*
X12782086Y-10688412D01*
X12782086Y-10688412D02*
X12782086Y-10516984D01*
X13039229Y-10716984D02*
X13039229Y-10516984D01*
X13039229Y-10516984D02*
X13105896Y-10659841D01*
X13105896Y-10659841D02*
X13172562Y-10516984D01*
X13172562Y-10516984D02*
X13172562Y-10716984D01*
X13353515Y-10716984D02*
X13353515Y-10612222D01*
X13353515Y-10612222D02*
X13343991Y-10593174D01*
X13343991Y-10593174D02*
X13324943Y-10583650D01*
X13324943Y-10583650D02*
X13286848Y-10583650D01*
X13286848Y-10583650D02*
X13267801Y-10593174D01*
X13353515Y-10707460D02*
X13334467Y-10716984D01*
X13334467Y-10716984D02*
X13286848Y-10716984D01*
X13286848Y-10716984D02*
X13267801Y-10707460D01*
X13267801Y-10707460D02*
X13258277Y-10688412D01*
X13258277Y-10688412D02*
X13258277Y-10669365D01*
X13258277Y-10669365D02*
X13267801Y-10650317D01*
X13267801Y-10650317D02*
X13286848Y-10640793D01*
X13286848Y-10640793D02*
X13334467Y-10640793D01*
X13334467Y-10640793D02*
X13353515Y-10631270D01*
X13448753Y-10583650D02*
X13448753Y-10783650D01*
X13448753Y-10593174D02*
X13467801Y-10583650D01*
X13467801Y-10583650D02*
X13505896Y-10583650D01*
X13505896Y-10583650D02*
X13524943Y-10593174D01*
X13524943Y-10593174D02*
X13534467Y-10602698D01*
X13534467Y-10602698D02*
X13543991Y-10621746D01*
X13543991Y-10621746D02*
X13543991Y-10678889D01*
X13543991Y-10678889D02*
X13534467Y-10697936D01*
X13534467Y-10697936D02*
X13524943Y-10707460D01*
X13524943Y-10707460D02*
X13505896Y-10716984D01*
X13505896Y-10716984D02*
X13467801Y-10716984D01*
X13467801Y-10716984D02*
X13448753Y-10707460D01*
X13629705Y-10697936D02*
X13639229Y-10707460D01*
X13639229Y-10707460D02*
X13629705Y-10716984D01*
X13629705Y-10716984D02*
X13620182Y-10707460D01*
X13620182Y-10707460D02*
X13629705Y-10697936D01*
X13629705Y-10697936D02*
X13629705Y-10716984D01*
X13629705Y-10593174D02*
X13639229Y-10602698D01*
X13639229Y-10602698D02*
X13629705Y-10612222D01*
X13629705Y-10612222D02*
X13620182Y-10602698D01*
X13620182Y-10602698D02*
X13629705Y-10593174D01*
X13629705Y-10593174D02*
X13629705Y-10612222D01*
D13*
X11852500Y-10973000D02*
X11997500Y-11118000D01*
X11997500Y-10973000D02*
X11852500Y-11118000D01*
D12*
X12363039Y-11136984D02*
X12248753Y-11136984D01*
X12305896Y-11136984D02*
X12305896Y-10936984D01*
X12305896Y-10936984D02*
X12286848Y-10965555D01*
X12286848Y-10965555D02*
X12267801Y-10984603D01*
X12267801Y-10984603D02*
X12248753Y-10994127D01*
X12448753Y-11117936D02*
X12458277Y-11127460D01*
X12458277Y-11127460D02*
X12448753Y-11136984D01*
X12448753Y-11136984D02*
X12439229Y-11127460D01*
X12439229Y-11127460D02*
X12448753Y-11117936D01*
X12448753Y-11117936D02*
X12448753Y-11136984D01*
X12629705Y-11003650D02*
X12629705Y-11136984D01*
X12582086Y-10927460D02*
X12534467Y-11070317D01*
X12534467Y-11070317D02*
X12658277Y-11070317D01*
X12829705Y-10936984D02*
X12734467Y-10936984D01*
X12734467Y-10936984D02*
X12724943Y-11032222D01*
X12724943Y-11032222D02*
X12734467Y-11022698D01*
X12734467Y-11022698D02*
X12753515Y-11013174D01*
X12753515Y-11013174D02*
X12801134Y-11013174D01*
X12801134Y-11013174D02*
X12820182Y-11022698D01*
X12820182Y-11022698D02*
X12829705Y-11032222D01*
X12829705Y-11032222D02*
X12839229Y-11051270D01*
X12839229Y-11051270D02*
X12839229Y-11098889D01*
X12839229Y-11098889D02*
X12829705Y-11117936D01*
X12829705Y-11117936D02*
X12820182Y-11127460D01*
X12820182Y-11127460D02*
X12801134Y-11136984D01*
X12801134Y-11136984D02*
X12753515Y-11136984D01*
X12753515Y-11136984D02*
X12734467Y-11127460D01*
X12734467Y-11127460D02*
X12724943Y-11117936D01*
X12963039Y-10936984D02*
X12982086Y-10936984D01*
X12982086Y-10936984D02*
X13001134Y-10946508D01*
X13001134Y-10946508D02*
X13010658Y-10956031D01*
X13010658Y-10956031D02*
X13020182Y-10975079D01*
X13020182Y-10975079D02*
X13029705Y-11013174D01*
X13029705Y-11013174D02*
X13029705Y-11060793D01*
X13029705Y-11060793D02*
X13020182Y-11098889D01*
X13020182Y-11098889D02*
X13010658Y-11117936D01*
X13010658Y-11117936D02*
X13001134Y-11127460D01*
X13001134Y-11127460D02*
X12982086Y-11136984D01*
X12982086Y-11136984D02*
X12963039Y-11136984D01*
X12963039Y-11136984D02*
X12943991Y-11127460D01*
X12943991Y-11127460D02*
X12934467Y-11117936D01*
X12934467Y-11117936D02*
X12924943Y-11098889D01*
X12924943Y-11098889D02*
X12915420Y-11060793D01*
X12915420Y-11060793D02*
X12915420Y-11013174D01*
X12915420Y-11013174D02*
X12924943Y-10975079D01*
X12924943Y-10975079D02*
X12934467Y-10956031D01*
X12934467Y-10956031D02*
X12943991Y-10946508D01*
X12943991Y-10946508D02*
X12963039Y-10936984D01*
X13115420Y-11136984D02*
X13115420Y-11003650D01*
X13115420Y-11022698D02*
X13124943Y-11013174D01*
X13124943Y-11013174D02*
X13143991Y-11003650D01*
X13143991Y-11003650D02*
X13172563Y-11003650D01*
X13172563Y-11003650D02*
X13191610Y-11013174D01*
X13191610Y-11013174D02*
X13201134Y-11032222D01*
X13201134Y-11032222D02*
X13201134Y-11136984D01*
X13201134Y-11032222D02*
X13210658Y-11013174D01*
X13210658Y-11013174D02*
X13229705Y-11003650D01*
X13229705Y-11003650D02*
X13258277Y-11003650D01*
X13258277Y-11003650D02*
X13277324Y-11013174D01*
X13277324Y-11013174D02*
X13286848Y-11032222D01*
X13286848Y-11032222D02*
X13286848Y-11136984D01*
X13382086Y-11136984D02*
X13382086Y-11003650D01*
X13382086Y-11022698D02*
X13391610Y-11013174D01*
X13391610Y-11013174D02*
X13410658Y-11003650D01*
X13410658Y-11003650D02*
X13439229Y-11003650D01*
X13439229Y-11003650D02*
X13458277Y-11013174D01*
X13458277Y-11013174D02*
X13467801Y-11032222D01*
X13467801Y-11032222D02*
X13467801Y-11136984D01*
X13467801Y-11032222D02*
X13477324Y-11013174D01*
X13477324Y-11013174D02*
X13496372Y-11003650D01*
X13496372Y-11003650D02*
X13524943Y-11003650D01*
X13524943Y-11003650D02*
X13543991Y-11013174D01*
X13543991Y-11013174D02*
X13553515Y-11032222D01*
X13553515Y-11032222D02*
X13553515Y-11136984D01*
X13943991Y-10927460D02*
X13772563Y-11184603D01*
X14201134Y-10936984D02*
X14220182Y-10936984D01*
X14220182Y-10936984D02*
X14239229Y-10946508D01*
X14239229Y-10946508D02*
X14248753Y-10956031D01*
X14248753Y-10956031D02*
X14258277Y-10975079D01*
X14258277Y-10975079D02*
X14267801Y-11013174D01*
X14267801Y-11013174D02*
X14267801Y-11060793D01*
X14267801Y-11060793D02*
X14258277Y-11098889D01*
X14258277Y-11098889D02*
X14248753Y-11117936D01*
X14248753Y-11117936D02*
X14239229Y-11127460D01*
X14239229Y-11127460D02*
X14220182Y-11136984D01*
X14220182Y-11136984D02*
X14201134Y-11136984D01*
X14201134Y-11136984D02*
X14182086Y-11127460D01*
X14182086Y-11127460D02*
X14172563Y-11117936D01*
X14172563Y-11117936D02*
X14163039Y-11098889D01*
X14163039Y-11098889D02*
X14153515Y-11060793D01*
X14153515Y-11060793D02*
X14153515Y-11013174D01*
X14153515Y-11013174D02*
X14163039Y-10975079D01*
X14163039Y-10975079D02*
X14172563Y-10956031D01*
X14172563Y-10956031D02*
X14182086Y-10946508D01*
X14182086Y-10946508D02*
X14201134Y-10936984D01*
X14353515Y-11117936D02*
X14363039Y-11127460D01*
X14363039Y-11127460D02*
X14353515Y-11136984D01*
X14353515Y-11136984D02*
X14343991Y-11127460D01*
X14343991Y-11127460D02*
X14353515Y-11117936D01*
X14353515Y-11117936D02*
X14353515Y-11136984D01*
X14486848Y-10936984D02*
X14505896Y-10936984D01*
X14505896Y-10936984D02*
X14524944Y-10946508D01*
X14524944Y-10946508D02*
X14534467Y-10956031D01*
X14534467Y-10956031D02*
X14543991Y-10975079D01*
X14543991Y-10975079D02*
X14553515Y-11013174D01*
X14553515Y-11013174D02*
X14553515Y-11060793D01*
X14553515Y-11060793D02*
X14543991Y-11098889D01*
X14543991Y-11098889D02*
X14534467Y-11117936D01*
X14534467Y-11117936D02*
X14524944Y-11127460D01*
X14524944Y-11127460D02*
X14505896Y-11136984D01*
X14505896Y-11136984D02*
X14486848Y-11136984D01*
X14486848Y-11136984D02*
X14467801Y-11127460D01*
X14467801Y-11127460D02*
X14458277Y-11117936D01*
X14458277Y-11117936D02*
X14448753Y-11098889D01*
X14448753Y-11098889D02*
X14439229Y-11060793D01*
X14439229Y-11060793D02*
X14439229Y-11013174D01*
X14439229Y-11013174D02*
X14448753Y-10975079D01*
X14448753Y-10975079D02*
X14458277Y-10956031D01*
X14458277Y-10956031D02*
X14467801Y-10946508D01*
X14467801Y-10946508D02*
X14486848Y-10936984D01*
X14734467Y-10936984D02*
X14639229Y-10936984D01*
X14639229Y-10936984D02*
X14629706Y-11032222D01*
X14629706Y-11032222D02*
X14639229Y-11022698D01*
X14639229Y-11022698D02*
X14658277Y-11013174D01*
X14658277Y-11013174D02*
X14705896Y-11013174D01*
X14705896Y-11013174D02*
X14724944Y-11022698D01*
X14724944Y-11022698D02*
X14734467Y-11032222D01*
X14734467Y-11032222D02*
X14743991Y-11051270D01*
X14743991Y-11051270D02*
X14743991Y-11098889D01*
X14743991Y-11098889D02*
X14734467Y-11117936D01*
X14734467Y-11117936D02*
X14724944Y-11127460D01*
X14724944Y-11127460D02*
X14705896Y-11136984D01*
X14705896Y-11136984D02*
X14658277Y-11136984D01*
X14658277Y-11136984D02*
X14639229Y-11127460D01*
X14639229Y-11127460D02*
X14629706Y-11117936D01*
X14810658Y-10936984D02*
X14943991Y-10936984D01*
X14943991Y-10936984D02*
X14858277Y-11136984D01*
X15124944Y-11136984D02*
X15010658Y-11136984D01*
X15067801Y-11136984D02*
X15067801Y-10936984D01*
X15067801Y-10936984D02*
X15048753Y-10965555D01*
X15048753Y-10965555D02*
X15029706Y-10984603D01*
X15029706Y-10984603D02*
X15010658Y-10994127D01*
X15201134Y-10936984D02*
X15201134Y-10975079D01*
X15277325Y-10936984D02*
X15277325Y-10975079D01*
X15572563Y-11213174D02*
X15563039Y-11203650D01*
X15563039Y-11203650D02*
X15543991Y-11175079D01*
X15543991Y-11175079D02*
X15534468Y-11156031D01*
X15534468Y-11156031D02*
X15524944Y-11127460D01*
X15524944Y-11127460D02*
X15515420Y-11079841D01*
X15515420Y-11079841D02*
X15515420Y-11041746D01*
X15515420Y-11041746D02*
X15524944Y-10994127D01*
X15524944Y-10994127D02*
X15534468Y-10965555D01*
X15534468Y-10965555D02*
X15543991Y-10946508D01*
X15543991Y-10946508D02*
X15563039Y-10917936D01*
X15563039Y-10917936D02*
X15572563Y-10908412D01*
X15677325Y-11022698D02*
X15658277Y-11013174D01*
X15658277Y-11013174D02*
X15648753Y-11003650D01*
X15648753Y-11003650D02*
X15639229Y-10984603D01*
X15639229Y-10984603D02*
X15639229Y-10975079D01*
X15639229Y-10975079D02*
X15648753Y-10956031D01*
X15648753Y-10956031D02*
X15658277Y-10946508D01*
X15658277Y-10946508D02*
X15677325Y-10936984D01*
X15677325Y-10936984D02*
X15715420Y-10936984D01*
X15715420Y-10936984D02*
X15734468Y-10946508D01*
X15734468Y-10946508D02*
X15743991Y-10956031D01*
X15743991Y-10956031D02*
X15753515Y-10975079D01*
X15753515Y-10975079D02*
X15753515Y-10984603D01*
X15753515Y-10984603D02*
X15743991Y-11003650D01*
X15743991Y-11003650D02*
X15734468Y-11013174D01*
X15734468Y-11013174D02*
X15715420Y-11022698D01*
X15715420Y-11022698D02*
X15677325Y-11022698D01*
X15677325Y-11022698D02*
X15658277Y-11032222D01*
X15658277Y-11032222D02*
X15648753Y-11041746D01*
X15648753Y-11041746D02*
X15639229Y-11060793D01*
X15639229Y-11060793D02*
X15639229Y-11098889D01*
X15639229Y-11098889D02*
X15648753Y-11117936D01*
X15648753Y-11117936D02*
X15658277Y-11127460D01*
X15658277Y-11127460D02*
X15677325Y-11136984D01*
X15677325Y-11136984D02*
X15715420Y-11136984D01*
X15715420Y-11136984D02*
X15734468Y-11127460D01*
X15734468Y-11127460D02*
X15743991Y-11117936D01*
X15743991Y-11117936D02*
X15753515Y-11098889D01*
X15753515Y-11098889D02*
X15753515Y-11060793D01*
X15753515Y-11060793D02*
X15743991Y-11041746D01*
X15743991Y-11041746D02*
X15734468Y-11032222D01*
X15734468Y-11032222D02*
X15715420Y-11022698D01*
X15991610Y-11136984D02*
X15991610Y-10936984D01*
X16077325Y-11136984D02*
X16077325Y-11032222D01*
X16077325Y-11032222D02*
X16067801Y-11013174D01*
X16067801Y-11013174D02*
X16048753Y-11003650D01*
X16048753Y-11003650D02*
X16020182Y-11003650D01*
X16020182Y-11003650D02*
X16001134Y-11013174D01*
X16001134Y-11013174D02*
X15991610Y-11022698D01*
X16201134Y-11136984D02*
X16182087Y-11127460D01*
X16182087Y-11127460D02*
X16172563Y-11117936D01*
X16172563Y-11117936D02*
X16163039Y-11098889D01*
X16163039Y-11098889D02*
X16163039Y-11041746D01*
X16163039Y-11041746D02*
X16172563Y-11022698D01*
X16172563Y-11022698D02*
X16182087Y-11013174D01*
X16182087Y-11013174D02*
X16201134Y-11003650D01*
X16201134Y-11003650D02*
X16229706Y-11003650D01*
X16229706Y-11003650D02*
X16248753Y-11013174D01*
X16248753Y-11013174D02*
X16258277Y-11022698D01*
X16258277Y-11022698D02*
X16267801Y-11041746D01*
X16267801Y-11041746D02*
X16267801Y-11098889D01*
X16267801Y-11098889D02*
X16258277Y-11117936D01*
X16258277Y-11117936D02*
X16248753Y-11127460D01*
X16248753Y-11127460D02*
X16229706Y-11136984D01*
X16229706Y-11136984D02*
X16201134Y-11136984D01*
X16382087Y-11136984D02*
X16363039Y-11127460D01*
X16363039Y-11127460D02*
X16353515Y-11108412D01*
X16353515Y-11108412D02*
X16353515Y-10936984D01*
X16534468Y-11127460D02*
X16515420Y-11136984D01*
X16515420Y-11136984D02*
X16477325Y-11136984D01*
X16477325Y-11136984D02*
X16458277Y-11127460D01*
X16458277Y-11127460D02*
X16448753Y-11108412D01*
X16448753Y-11108412D02*
X16448753Y-11032222D01*
X16448753Y-11032222D02*
X16458277Y-11013174D01*
X16458277Y-11013174D02*
X16477325Y-11003650D01*
X16477325Y-11003650D02*
X16515420Y-11003650D01*
X16515420Y-11003650D02*
X16534468Y-11013174D01*
X16534468Y-11013174D02*
X16543991Y-11032222D01*
X16543991Y-11032222D02*
X16543991Y-11051270D01*
X16543991Y-11051270D02*
X16448753Y-11070317D01*
X16620182Y-11127460D02*
X16639230Y-11136984D01*
X16639230Y-11136984D02*
X16677325Y-11136984D01*
X16677325Y-11136984D02*
X16696372Y-11127460D01*
X16696372Y-11127460D02*
X16705896Y-11108412D01*
X16705896Y-11108412D02*
X16705896Y-11098889D01*
X16705896Y-11098889D02*
X16696372Y-11079841D01*
X16696372Y-11079841D02*
X16677325Y-11070317D01*
X16677325Y-11070317D02*
X16648753Y-11070317D01*
X16648753Y-11070317D02*
X16629706Y-11060793D01*
X16629706Y-11060793D02*
X16620182Y-11041746D01*
X16620182Y-11041746D02*
X16620182Y-11032222D01*
X16620182Y-11032222D02*
X16629706Y-11013174D01*
X16629706Y-11013174D02*
X16648753Y-11003650D01*
X16648753Y-11003650D02*
X16677325Y-11003650D01*
X16677325Y-11003650D02*
X16696372Y-11013174D01*
X16772563Y-11213174D02*
X16782087Y-11203650D01*
X16782087Y-11203650D02*
X16801134Y-11175079D01*
X16801134Y-11175079D02*
X16810658Y-11156031D01*
X16810658Y-11156031D02*
X16820182Y-11127460D01*
X16820182Y-11127460D02*
X16829706Y-11079841D01*
X16829706Y-11079841D02*
X16829706Y-11041746D01*
X16829706Y-11041746D02*
X16820182Y-10994127D01*
X16820182Y-10994127D02*
X16810658Y-10965555D01*
X16810658Y-10965555D02*
X16801134Y-10946508D01*
X16801134Y-10946508D02*
X16782087Y-10917936D01*
X16782087Y-10917936D02*
X16772563Y-10908412D01*
X17134468Y-11213174D02*
X17124944Y-11203650D01*
X17124944Y-11203650D02*
X17105896Y-11175079D01*
X17105896Y-11175079D02*
X17096373Y-11156031D01*
X17096373Y-11156031D02*
X17086849Y-11127460D01*
X17086849Y-11127460D02*
X17077325Y-11079841D01*
X17077325Y-11079841D02*
X17077325Y-11041746D01*
X17077325Y-11041746D02*
X17086849Y-10994127D01*
X17086849Y-10994127D02*
X17096373Y-10965555D01*
X17096373Y-10965555D02*
X17105896Y-10946508D01*
X17105896Y-10946508D02*
X17124944Y-10917936D01*
X17124944Y-10917936D02*
X17134468Y-10908412D01*
X17210658Y-11003650D02*
X17210658Y-11136984D01*
X17210658Y-11022698D02*
X17220182Y-11013174D01*
X17220182Y-11013174D02*
X17239230Y-11003650D01*
X17239230Y-11003650D02*
X17267801Y-11003650D01*
X17267801Y-11003650D02*
X17286849Y-11013174D01*
X17286849Y-11013174D02*
X17296373Y-11032222D01*
X17296373Y-11032222D02*
X17296373Y-11136984D01*
X17420182Y-11136984D02*
X17401134Y-11127460D01*
X17401134Y-11127460D02*
X17391611Y-11117936D01*
X17391611Y-11117936D02*
X17382087Y-11098889D01*
X17382087Y-11098889D02*
X17382087Y-11041746D01*
X17382087Y-11041746D02*
X17391611Y-11022698D01*
X17391611Y-11022698D02*
X17401134Y-11013174D01*
X17401134Y-11013174D02*
X17420182Y-11003650D01*
X17420182Y-11003650D02*
X17448754Y-11003650D01*
X17448754Y-11003650D02*
X17467801Y-11013174D01*
X17467801Y-11013174D02*
X17477325Y-11022698D01*
X17477325Y-11022698D02*
X17486849Y-11041746D01*
X17486849Y-11041746D02*
X17486849Y-11098889D01*
X17486849Y-11098889D02*
X17477325Y-11117936D01*
X17477325Y-11117936D02*
X17467801Y-11127460D01*
X17467801Y-11127460D02*
X17448754Y-11136984D01*
X17448754Y-11136984D02*
X17420182Y-11136984D01*
X17543992Y-11003650D02*
X17620182Y-11003650D01*
X17572563Y-10936984D02*
X17572563Y-11108412D01*
X17572563Y-11108412D02*
X17582087Y-11127460D01*
X17582087Y-11127460D02*
X17601134Y-11136984D01*
X17601134Y-11136984D02*
X17620182Y-11136984D01*
X17839230Y-11003650D02*
X17839230Y-11203650D01*
X17839230Y-11013174D02*
X17858277Y-11003650D01*
X17858277Y-11003650D02*
X17896373Y-11003650D01*
X17896373Y-11003650D02*
X17915420Y-11013174D01*
X17915420Y-11013174D02*
X17924944Y-11022698D01*
X17924944Y-11022698D02*
X17934468Y-11041746D01*
X17934468Y-11041746D02*
X17934468Y-11098889D01*
X17934468Y-11098889D02*
X17924944Y-11117936D01*
X17924944Y-11117936D02*
X17915420Y-11127460D01*
X17915420Y-11127460D02*
X17896373Y-11136984D01*
X17896373Y-11136984D02*
X17858277Y-11136984D01*
X17858277Y-11136984D02*
X17839230Y-11127460D01*
X18048754Y-11136984D02*
X18029706Y-11127460D01*
X18029706Y-11127460D02*
X18020182Y-11108412D01*
X18020182Y-11108412D02*
X18020182Y-10936984D01*
X18210658Y-11136984D02*
X18210658Y-11032222D01*
X18210658Y-11032222D02*
X18201135Y-11013174D01*
X18201135Y-11013174D02*
X18182087Y-11003650D01*
X18182087Y-11003650D02*
X18143992Y-11003650D01*
X18143992Y-11003650D02*
X18124944Y-11013174D01*
X18210658Y-11127460D02*
X18191611Y-11136984D01*
X18191611Y-11136984D02*
X18143992Y-11136984D01*
X18143992Y-11136984D02*
X18124944Y-11127460D01*
X18124944Y-11127460D02*
X18115420Y-11108412D01*
X18115420Y-11108412D02*
X18115420Y-11089365D01*
X18115420Y-11089365D02*
X18124944Y-11070317D01*
X18124944Y-11070317D02*
X18143992Y-11060793D01*
X18143992Y-11060793D02*
X18191611Y-11060793D01*
X18191611Y-11060793D02*
X18210658Y-11051270D01*
X18277325Y-11003650D02*
X18353515Y-11003650D01*
X18305896Y-10936984D02*
X18305896Y-11108412D01*
X18305896Y-11108412D02*
X18315420Y-11127460D01*
X18315420Y-11127460D02*
X18334468Y-11136984D01*
X18334468Y-11136984D02*
X18353515Y-11136984D01*
X18496373Y-11127460D02*
X18477325Y-11136984D01*
X18477325Y-11136984D02*
X18439230Y-11136984D01*
X18439230Y-11136984D02*
X18420182Y-11127460D01*
X18420182Y-11127460D02*
X18410658Y-11108412D01*
X18410658Y-11108412D02*
X18410658Y-11032222D01*
X18410658Y-11032222D02*
X18420182Y-11013174D01*
X18420182Y-11013174D02*
X18439230Y-11003650D01*
X18439230Y-11003650D02*
X18477325Y-11003650D01*
X18477325Y-11003650D02*
X18496373Y-11013174D01*
X18496373Y-11013174D02*
X18505896Y-11032222D01*
X18505896Y-11032222D02*
X18505896Y-11051270D01*
X18505896Y-11051270D02*
X18410658Y-11070317D01*
X18677325Y-11136984D02*
X18677325Y-10936984D01*
X18677325Y-11127460D02*
X18658277Y-11136984D01*
X18658277Y-11136984D02*
X18620182Y-11136984D01*
X18620182Y-11136984D02*
X18601135Y-11127460D01*
X18601135Y-11127460D02*
X18591611Y-11117936D01*
X18591611Y-11117936D02*
X18582087Y-11098889D01*
X18582087Y-11098889D02*
X18582087Y-11041746D01*
X18582087Y-11041746D02*
X18591611Y-11022698D01*
X18591611Y-11022698D02*
X18601135Y-11013174D01*
X18601135Y-11013174D02*
X18620182Y-11003650D01*
X18620182Y-11003650D02*
X18658277Y-11003650D01*
X18658277Y-11003650D02*
X18677325Y-11013174D01*
X18753516Y-11213174D02*
X18763039Y-11203650D01*
X18763039Y-11203650D02*
X18782087Y-11175079D01*
X18782087Y-11175079D02*
X18791611Y-11156031D01*
X18791611Y-11156031D02*
X18801135Y-11127460D01*
X18801135Y-11127460D02*
X18810658Y-11079841D01*
X18810658Y-11079841D02*
X18810658Y-11041746D01*
X18810658Y-11041746D02*
X18801135Y-10994127D01*
X18801135Y-10994127D02*
X18791611Y-10965555D01*
X18791611Y-10965555D02*
X18782087Y-10946508D01*
X18782087Y-10946508D02*
X18763039Y-10917936D01*
X18763039Y-10917936D02*
X18753516Y-10908412D01*
X11997500Y-11310500D02*
G75*
G02*
X11797500Y-11310500I-100000J0D01*
G01*
X11797500Y-11310500D02*
G75*
G02*
X11997500Y-11310500I100000J0D01*
G01*
X12248753Y-11221031D02*
X12258277Y-11211508D01*
X12258277Y-11211508D02*
X12277324Y-11201984D01*
X12277324Y-11201984D02*
X12324943Y-11201984D01*
X12324943Y-11201984D02*
X12343991Y-11211508D01*
X12343991Y-11211508D02*
X12353515Y-11221031D01*
X12353515Y-11221031D02*
X12363039Y-11240079D01*
X12363039Y-11240079D02*
X12363039Y-11259127D01*
X12363039Y-11259127D02*
X12353515Y-11287698D01*
X12353515Y-11287698D02*
X12239229Y-11401984D01*
X12239229Y-11401984D02*
X12363039Y-11401984D01*
X12448753Y-11382936D02*
X12458277Y-11392460D01*
X12458277Y-11392460D02*
X12448753Y-11401984D01*
X12448753Y-11401984D02*
X12439229Y-11392460D01*
X12439229Y-11392460D02*
X12448753Y-11382936D01*
X12448753Y-11382936D02*
X12448753Y-11401984D01*
X12534467Y-11221031D02*
X12543991Y-11211508D01*
X12543991Y-11211508D02*
X12563039Y-11201984D01*
X12563039Y-11201984D02*
X12610658Y-11201984D01*
X12610658Y-11201984D02*
X12629705Y-11211508D01*
X12629705Y-11211508D02*
X12639229Y-11221031D01*
X12639229Y-11221031D02*
X12648753Y-11240079D01*
X12648753Y-11240079D02*
X12648753Y-11259127D01*
X12648753Y-11259127D02*
X12639229Y-11287698D01*
X12639229Y-11287698D02*
X12524943Y-11401984D01*
X12524943Y-11401984D02*
X12648753Y-11401984D01*
X12772562Y-11201984D02*
X12791610Y-11201984D01*
X12791610Y-11201984D02*
X12810658Y-11211508D01*
X12810658Y-11211508D02*
X12820182Y-11221031D01*
X12820182Y-11221031D02*
X12829705Y-11240079D01*
X12829705Y-11240079D02*
X12839229Y-11278174D01*
X12839229Y-11278174D02*
X12839229Y-11325793D01*
X12839229Y-11325793D02*
X12829705Y-11363888D01*
X12829705Y-11363888D02*
X12820182Y-11382936D01*
X12820182Y-11382936D02*
X12810658Y-11392460D01*
X12810658Y-11392460D02*
X12791610Y-11401984D01*
X12791610Y-11401984D02*
X12772562Y-11401984D01*
X12772562Y-11401984D02*
X12753515Y-11392460D01*
X12753515Y-11392460D02*
X12743991Y-11382936D01*
X12743991Y-11382936D02*
X12734467Y-11363888D01*
X12734467Y-11363888D02*
X12724943Y-11325793D01*
X12724943Y-11325793D02*
X12724943Y-11278174D01*
X12724943Y-11278174D02*
X12734467Y-11240079D01*
X12734467Y-11240079D02*
X12743991Y-11221031D01*
X12743991Y-11221031D02*
X12753515Y-11211508D01*
X12753515Y-11211508D02*
X12772562Y-11201984D01*
X12963039Y-11201984D02*
X12982086Y-11201984D01*
X12982086Y-11201984D02*
X13001134Y-11211508D01*
X13001134Y-11211508D02*
X13010658Y-11221031D01*
X13010658Y-11221031D02*
X13020182Y-11240079D01*
X13020182Y-11240079D02*
X13029705Y-11278174D01*
X13029705Y-11278174D02*
X13029705Y-11325793D01*
X13029705Y-11325793D02*
X13020182Y-11363888D01*
X13020182Y-11363888D02*
X13010658Y-11382936D01*
X13010658Y-11382936D02*
X13001134Y-11392460D01*
X13001134Y-11392460D02*
X12982086Y-11401984D01*
X12982086Y-11401984D02*
X12963039Y-11401984D01*
X12963039Y-11401984D02*
X12943991Y-11392460D01*
X12943991Y-11392460D02*
X12934467Y-11382936D01*
X12934467Y-11382936D02*
X12924943Y-11363888D01*
X12924943Y-11363888D02*
X12915420Y-11325793D01*
X12915420Y-11325793D02*
X12915420Y-11278174D01*
X12915420Y-11278174D02*
X12924943Y-11240079D01*
X12924943Y-11240079D02*
X12934467Y-11221031D01*
X12934467Y-11221031D02*
X12943991Y-11211508D01*
X12943991Y-11211508D02*
X12963039Y-11201984D01*
X13115420Y-11401984D02*
X13115420Y-11268650D01*
X13115420Y-11287698D02*
X13124943Y-11278174D01*
X13124943Y-11278174D02*
X13143991Y-11268650D01*
X13143991Y-11268650D02*
X13172563Y-11268650D01*
X13172563Y-11268650D02*
X13191610Y-11278174D01*
X13191610Y-11278174D02*
X13201134Y-11297222D01*
X13201134Y-11297222D02*
X13201134Y-11401984D01*
X13201134Y-11297222D02*
X13210658Y-11278174D01*
X13210658Y-11278174D02*
X13229705Y-11268650D01*
X13229705Y-11268650D02*
X13258277Y-11268650D01*
X13258277Y-11268650D02*
X13277324Y-11278174D01*
X13277324Y-11278174D02*
X13286848Y-11297222D01*
X13286848Y-11297222D02*
X13286848Y-11401984D01*
X13382086Y-11401984D02*
X13382086Y-11268650D01*
X13382086Y-11287698D02*
X13391610Y-11278174D01*
X13391610Y-11278174D02*
X13410658Y-11268650D01*
X13410658Y-11268650D02*
X13439229Y-11268650D01*
X13439229Y-11268650D02*
X13458277Y-11278174D01*
X13458277Y-11278174D02*
X13467801Y-11297222D01*
X13467801Y-11297222D02*
X13467801Y-11401984D01*
X13467801Y-11297222D02*
X13477324Y-11278174D01*
X13477324Y-11278174D02*
X13496372Y-11268650D01*
X13496372Y-11268650D02*
X13524943Y-11268650D01*
X13524943Y-11268650D02*
X13543991Y-11278174D01*
X13543991Y-11278174D02*
X13553515Y-11297222D01*
X13553515Y-11297222D02*
X13553515Y-11401984D01*
X13943991Y-11192460D02*
X13772563Y-11449603D01*
X14201134Y-11201984D02*
X14220182Y-11201984D01*
X14220182Y-11201984D02*
X14239229Y-11211508D01*
X14239229Y-11211508D02*
X14248753Y-11221031D01*
X14248753Y-11221031D02*
X14258277Y-11240079D01*
X14258277Y-11240079D02*
X14267801Y-11278174D01*
X14267801Y-11278174D02*
X14267801Y-11325793D01*
X14267801Y-11325793D02*
X14258277Y-11363888D01*
X14258277Y-11363888D02*
X14248753Y-11382936D01*
X14248753Y-11382936D02*
X14239229Y-11392460D01*
X14239229Y-11392460D02*
X14220182Y-11401984D01*
X14220182Y-11401984D02*
X14201134Y-11401984D01*
X14201134Y-11401984D02*
X14182086Y-11392460D01*
X14182086Y-11392460D02*
X14172563Y-11382936D01*
X14172563Y-11382936D02*
X14163039Y-11363888D01*
X14163039Y-11363888D02*
X14153515Y-11325793D01*
X14153515Y-11325793D02*
X14153515Y-11278174D01*
X14153515Y-11278174D02*
X14163039Y-11240079D01*
X14163039Y-11240079D02*
X14172563Y-11221031D01*
X14172563Y-11221031D02*
X14182086Y-11211508D01*
X14182086Y-11211508D02*
X14201134Y-11201984D01*
X14353515Y-11382936D02*
X14363039Y-11392460D01*
X14363039Y-11392460D02*
X14353515Y-11401984D01*
X14353515Y-11401984D02*
X14343991Y-11392460D01*
X14343991Y-11392460D02*
X14353515Y-11382936D01*
X14353515Y-11382936D02*
X14353515Y-11401984D01*
X14486848Y-11201984D02*
X14505896Y-11201984D01*
X14505896Y-11201984D02*
X14524944Y-11211508D01*
X14524944Y-11211508D02*
X14534467Y-11221031D01*
X14534467Y-11221031D02*
X14543991Y-11240079D01*
X14543991Y-11240079D02*
X14553515Y-11278174D01*
X14553515Y-11278174D02*
X14553515Y-11325793D01*
X14553515Y-11325793D02*
X14543991Y-11363888D01*
X14543991Y-11363888D02*
X14534467Y-11382936D01*
X14534467Y-11382936D02*
X14524944Y-11392460D01*
X14524944Y-11392460D02*
X14505896Y-11401984D01*
X14505896Y-11401984D02*
X14486848Y-11401984D01*
X14486848Y-11401984D02*
X14467801Y-11392460D01*
X14467801Y-11392460D02*
X14458277Y-11382936D01*
X14458277Y-11382936D02*
X14448753Y-11363888D01*
X14448753Y-11363888D02*
X14439229Y-11325793D01*
X14439229Y-11325793D02*
X14439229Y-11278174D01*
X14439229Y-11278174D02*
X14448753Y-11240079D01*
X14448753Y-11240079D02*
X14458277Y-11221031D01*
X14458277Y-11221031D02*
X14467801Y-11211508D01*
X14467801Y-11211508D02*
X14486848Y-11201984D01*
X14667801Y-11287698D02*
X14648753Y-11278174D01*
X14648753Y-11278174D02*
X14639229Y-11268650D01*
X14639229Y-11268650D02*
X14629706Y-11249603D01*
X14629706Y-11249603D02*
X14629706Y-11240079D01*
X14629706Y-11240079D02*
X14639229Y-11221031D01*
X14639229Y-11221031D02*
X14648753Y-11211508D01*
X14648753Y-11211508D02*
X14667801Y-11201984D01*
X14667801Y-11201984D02*
X14705896Y-11201984D01*
X14705896Y-11201984D02*
X14724944Y-11211508D01*
X14724944Y-11211508D02*
X14734467Y-11221031D01*
X14734467Y-11221031D02*
X14743991Y-11240079D01*
X14743991Y-11240079D02*
X14743991Y-11249603D01*
X14743991Y-11249603D02*
X14734467Y-11268650D01*
X14734467Y-11268650D02*
X14724944Y-11278174D01*
X14724944Y-11278174D02*
X14705896Y-11287698D01*
X14705896Y-11287698D02*
X14667801Y-11287698D01*
X14667801Y-11287698D02*
X14648753Y-11297222D01*
X14648753Y-11297222D02*
X14639229Y-11306746D01*
X14639229Y-11306746D02*
X14629706Y-11325793D01*
X14629706Y-11325793D02*
X14629706Y-11363888D01*
X14629706Y-11363888D02*
X14639229Y-11382936D01*
X14639229Y-11382936D02*
X14648753Y-11392460D01*
X14648753Y-11392460D02*
X14667801Y-11401984D01*
X14667801Y-11401984D02*
X14705896Y-11401984D01*
X14705896Y-11401984D02*
X14724944Y-11392460D01*
X14724944Y-11392460D02*
X14734467Y-11382936D01*
X14734467Y-11382936D02*
X14743991Y-11363888D01*
X14743991Y-11363888D02*
X14743991Y-11325793D01*
X14743991Y-11325793D02*
X14734467Y-11306746D01*
X14734467Y-11306746D02*
X14724944Y-11297222D01*
X14724944Y-11297222D02*
X14705896Y-11287698D01*
X14915420Y-11201984D02*
X14877325Y-11201984D01*
X14877325Y-11201984D02*
X14858277Y-11211508D01*
X14858277Y-11211508D02*
X14848753Y-11221031D01*
X14848753Y-11221031D02*
X14829706Y-11249603D01*
X14829706Y-11249603D02*
X14820182Y-11287698D01*
X14820182Y-11287698D02*
X14820182Y-11363888D01*
X14820182Y-11363888D02*
X14829706Y-11382936D01*
X14829706Y-11382936D02*
X14839229Y-11392460D01*
X14839229Y-11392460D02*
X14858277Y-11401984D01*
X14858277Y-11401984D02*
X14896372Y-11401984D01*
X14896372Y-11401984D02*
X14915420Y-11392460D01*
X14915420Y-11392460D02*
X14924944Y-11382936D01*
X14924944Y-11382936D02*
X14934467Y-11363888D01*
X14934467Y-11363888D02*
X14934467Y-11316269D01*
X14934467Y-11316269D02*
X14924944Y-11297222D01*
X14924944Y-11297222D02*
X14915420Y-11287698D01*
X14915420Y-11287698D02*
X14896372Y-11278174D01*
X14896372Y-11278174D02*
X14858277Y-11278174D01*
X14858277Y-11278174D02*
X14839229Y-11287698D01*
X14839229Y-11287698D02*
X14829706Y-11297222D01*
X14829706Y-11297222D02*
X14820182Y-11316269D01*
X15105896Y-11201984D02*
X15067801Y-11201984D01*
X15067801Y-11201984D02*
X15048753Y-11211508D01*
X15048753Y-11211508D02*
X15039229Y-11221031D01*
X15039229Y-11221031D02*
X15020182Y-11249603D01*
X15020182Y-11249603D02*
X15010658Y-11287698D01*
X15010658Y-11287698D02*
X15010658Y-11363888D01*
X15010658Y-11363888D02*
X15020182Y-11382936D01*
X15020182Y-11382936D02*
X15029706Y-11392460D01*
X15029706Y-11392460D02*
X15048753Y-11401984D01*
X15048753Y-11401984D02*
X15086848Y-11401984D01*
X15086848Y-11401984D02*
X15105896Y-11392460D01*
X15105896Y-11392460D02*
X15115420Y-11382936D01*
X15115420Y-11382936D02*
X15124944Y-11363888D01*
X15124944Y-11363888D02*
X15124944Y-11316269D01*
X15124944Y-11316269D02*
X15115420Y-11297222D01*
X15115420Y-11297222D02*
X15105896Y-11287698D01*
X15105896Y-11287698D02*
X15086848Y-11278174D01*
X15086848Y-11278174D02*
X15048753Y-11278174D01*
X15048753Y-11278174D02*
X15029706Y-11287698D01*
X15029706Y-11287698D02*
X15020182Y-11297222D01*
X15020182Y-11297222D02*
X15010658Y-11316269D01*
X15201134Y-11201984D02*
X15201134Y-11240079D01*
X15277325Y-11201984D02*
X15277325Y-11240079D01*
X15572563Y-11478174D02*
X15563039Y-11468650D01*
X15563039Y-11468650D02*
X15543991Y-11440079D01*
X15543991Y-11440079D02*
X15534468Y-11421031D01*
X15534468Y-11421031D02*
X15524944Y-11392460D01*
X15524944Y-11392460D02*
X15515420Y-11344841D01*
X15515420Y-11344841D02*
X15515420Y-11306746D01*
X15515420Y-11306746D02*
X15524944Y-11259127D01*
X15524944Y-11259127D02*
X15534468Y-11230555D01*
X15534468Y-11230555D02*
X15543991Y-11211508D01*
X15543991Y-11211508D02*
X15563039Y-11182936D01*
X15563039Y-11182936D02*
X15572563Y-11173412D01*
X15753515Y-11401984D02*
X15639229Y-11401984D01*
X15696372Y-11401984D02*
X15696372Y-11201984D01*
X15696372Y-11201984D02*
X15677325Y-11230555D01*
X15677325Y-11230555D02*
X15658277Y-11249603D01*
X15658277Y-11249603D02*
X15639229Y-11259127D01*
X15991610Y-11401984D02*
X15991610Y-11201984D01*
X16077325Y-11401984D02*
X16077325Y-11297222D01*
X16077325Y-11297222D02*
X16067801Y-11278174D01*
X16067801Y-11278174D02*
X16048753Y-11268650D01*
X16048753Y-11268650D02*
X16020182Y-11268650D01*
X16020182Y-11268650D02*
X16001134Y-11278174D01*
X16001134Y-11278174D02*
X15991610Y-11287698D01*
X16201134Y-11401984D02*
X16182087Y-11392460D01*
X16182087Y-11392460D02*
X16172563Y-11382936D01*
X16172563Y-11382936D02*
X16163039Y-11363888D01*
X16163039Y-11363888D02*
X16163039Y-11306746D01*
X16163039Y-11306746D02*
X16172563Y-11287698D01*
X16172563Y-11287698D02*
X16182087Y-11278174D01*
X16182087Y-11278174D02*
X16201134Y-11268650D01*
X16201134Y-11268650D02*
X16229706Y-11268650D01*
X16229706Y-11268650D02*
X16248753Y-11278174D01*
X16248753Y-11278174D02*
X16258277Y-11287698D01*
X16258277Y-11287698D02*
X16267801Y-11306746D01*
X16267801Y-11306746D02*
X16267801Y-11363888D01*
X16267801Y-11363888D02*
X16258277Y-11382936D01*
X16258277Y-11382936D02*
X16248753Y-11392460D01*
X16248753Y-11392460D02*
X16229706Y-11401984D01*
X16229706Y-11401984D02*
X16201134Y-11401984D01*
X16382087Y-11401984D02*
X16363039Y-11392460D01*
X16363039Y-11392460D02*
X16353515Y-11373412D01*
X16353515Y-11373412D02*
X16353515Y-11201984D01*
X16534468Y-11392460D02*
X16515420Y-11401984D01*
X16515420Y-11401984D02*
X16477325Y-11401984D01*
X16477325Y-11401984D02*
X16458277Y-11392460D01*
X16458277Y-11392460D02*
X16448753Y-11373412D01*
X16448753Y-11373412D02*
X16448753Y-11297222D01*
X16448753Y-11297222D02*
X16458277Y-11278174D01*
X16458277Y-11278174D02*
X16477325Y-11268650D01*
X16477325Y-11268650D02*
X16515420Y-11268650D01*
X16515420Y-11268650D02*
X16534468Y-11278174D01*
X16534468Y-11278174D02*
X16543991Y-11297222D01*
X16543991Y-11297222D02*
X16543991Y-11316269D01*
X16543991Y-11316269D02*
X16448753Y-11335317D01*
X16610658Y-11478174D02*
X16620182Y-11468650D01*
X16620182Y-11468650D02*
X16639230Y-11440079D01*
X16639230Y-11440079D02*
X16648753Y-11421031D01*
X16648753Y-11421031D02*
X16658277Y-11392460D01*
X16658277Y-11392460D02*
X16667801Y-11344841D01*
X16667801Y-11344841D02*
X16667801Y-11306746D01*
X16667801Y-11306746D02*
X16658277Y-11259127D01*
X16658277Y-11259127D02*
X16648753Y-11230555D01*
X16648753Y-11230555D02*
X16639230Y-11211508D01*
X16639230Y-11211508D02*
X16620182Y-11182936D01*
X16620182Y-11182936D02*
X16610658Y-11173412D01*
X16972563Y-11478174D02*
X16963039Y-11468650D01*
X16963039Y-11468650D02*
X16943992Y-11440079D01*
X16943992Y-11440079D02*
X16934468Y-11421031D01*
X16934468Y-11421031D02*
X16924944Y-11392460D01*
X16924944Y-11392460D02*
X16915420Y-11344841D01*
X16915420Y-11344841D02*
X16915420Y-11306746D01*
X16915420Y-11306746D02*
X16924944Y-11259127D01*
X16924944Y-11259127D02*
X16934468Y-11230555D01*
X16934468Y-11230555D02*
X16943992Y-11211508D01*
X16943992Y-11211508D02*
X16963039Y-11182936D01*
X16963039Y-11182936D02*
X16972563Y-11173412D01*
X17048753Y-11268650D02*
X17048753Y-11401984D01*
X17048753Y-11287698D02*
X17058277Y-11278174D01*
X17058277Y-11278174D02*
X17077325Y-11268650D01*
X17077325Y-11268650D02*
X17105896Y-11268650D01*
X17105896Y-11268650D02*
X17124944Y-11278174D01*
X17124944Y-11278174D02*
X17134468Y-11297222D01*
X17134468Y-11297222D02*
X17134468Y-11401984D01*
X17258277Y-11401984D02*
X17239230Y-11392460D01*
X17239230Y-11392460D02*
X17229706Y-11382936D01*
X17229706Y-11382936D02*
X17220182Y-11363888D01*
X17220182Y-11363888D02*
X17220182Y-11306746D01*
X17220182Y-11306746D02*
X17229706Y-11287698D01*
X17229706Y-11287698D02*
X17239230Y-11278174D01*
X17239230Y-11278174D02*
X17258277Y-11268650D01*
X17258277Y-11268650D02*
X17286849Y-11268650D01*
X17286849Y-11268650D02*
X17305896Y-11278174D01*
X17305896Y-11278174D02*
X17315420Y-11287698D01*
X17315420Y-11287698D02*
X17324944Y-11306746D01*
X17324944Y-11306746D02*
X17324944Y-11363888D01*
X17324944Y-11363888D02*
X17315420Y-11382936D01*
X17315420Y-11382936D02*
X17305896Y-11392460D01*
X17305896Y-11392460D02*
X17286849Y-11401984D01*
X17286849Y-11401984D02*
X17258277Y-11401984D01*
X17382087Y-11268650D02*
X17458277Y-11268650D01*
X17410658Y-11201984D02*
X17410658Y-11373412D01*
X17410658Y-11373412D02*
X17420182Y-11392460D01*
X17420182Y-11392460D02*
X17439230Y-11401984D01*
X17439230Y-11401984D02*
X17458277Y-11401984D01*
X17677325Y-11268650D02*
X17677325Y-11468650D01*
X17677325Y-11278174D02*
X17696373Y-11268650D01*
X17696373Y-11268650D02*
X17734468Y-11268650D01*
X17734468Y-11268650D02*
X17753515Y-11278174D01*
X17753515Y-11278174D02*
X17763039Y-11287698D01*
X17763039Y-11287698D02*
X17772563Y-11306746D01*
X17772563Y-11306746D02*
X17772563Y-11363888D01*
X17772563Y-11363888D02*
X17763039Y-11382936D01*
X17763039Y-11382936D02*
X17753515Y-11392460D01*
X17753515Y-11392460D02*
X17734468Y-11401984D01*
X17734468Y-11401984D02*
X17696373Y-11401984D01*
X17696373Y-11401984D02*
X17677325Y-11392460D01*
X17886849Y-11401984D02*
X17867801Y-11392460D01*
X17867801Y-11392460D02*
X17858277Y-11373412D01*
X17858277Y-11373412D02*
X17858277Y-11201984D01*
X18048754Y-11401984D02*
X18048754Y-11297222D01*
X18048754Y-11297222D02*
X18039230Y-11278174D01*
X18039230Y-11278174D02*
X18020182Y-11268650D01*
X18020182Y-11268650D02*
X17982087Y-11268650D01*
X17982087Y-11268650D02*
X17963039Y-11278174D01*
X18048754Y-11392460D02*
X18029706Y-11401984D01*
X18029706Y-11401984D02*
X17982087Y-11401984D01*
X17982087Y-11401984D02*
X17963039Y-11392460D01*
X17963039Y-11392460D02*
X17953515Y-11373412D01*
X17953515Y-11373412D02*
X17953515Y-11354365D01*
X17953515Y-11354365D02*
X17963039Y-11335317D01*
X17963039Y-11335317D02*
X17982087Y-11325793D01*
X17982087Y-11325793D02*
X18029706Y-11325793D01*
X18029706Y-11325793D02*
X18048754Y-11316269D01*
X18115420Y-11268650D02*
X18191611Y-11268650D01*
X18143992Y-11201984D02*
X18143992Y-11373412D01*
X18143992Y-11373412D02*
X18153515Y-11392460D01*
X18153515Y-11392460D02*
X18172563Y-11401984D01*
X18172563Y-11401984D02*
X18191611Y-11401984D01*
X18334468Y-11392460D02*
X18315420Y-11401984D01*
X18315420Y-11401984D02*
X18277325Y-11401984D01*
X18277325Y-11401984D02*
X18258277Y-11392460D01*
X18258277Y-11392460D02*
X18248754Y-11373412D01*
X18248754Y-11373412D02*
X18248754Y-11297222D01*
X18248754Y-11297222D02*
X18258277Y-11278174D01*
X18258277Y-11278174D02*
X18277325Y-11268650D01*
X18277325Y-11268650D02*
X18315420Y-11268650D01*
X18315420Y-11268650D02*
X18334468Y-11278174D01*
X18334468Y-11278174D02*
X18343992Y-11297222D01*
X18343992Y-11297222D02*
X18343992Y-11316269D01*
X18343992Y-11316269D02*
X18248754Y-11335317D01*
X18515420Y-11401984D02*
X18515420Y-11201984D01*
X18515420Y-11392460D02*
X18496373Y-11401984D01*
X18496373Y-11401984D02*
X18458277Y-11401984D01*
X18458277Y-11401984D02*
X18439230Y-11392460D01*
X18439230Y-11392460D02*
X18429706Y-11382936D01*
X18429706Y-11382936D02*
X18420182Y-11363888D01*
X18420182Y-11363888D02*
X18420182Y-11306746D01*
X18420182Y-11306746D02*
X18429706Y-11287698D01*
X18429706Y-11287698D02*
X18439230Y-11278174D01*
X18439230Y-11278174D02*
X18458277Y-11268650D01*
X18458277Y-11268650D02*
X18496373Y-11268650D01*
X18496373Y-11268650D02*
X18515420Y-11278174D01*
X18591611Y-11478174D02*
X18601135Y-11468650D01*
X18601135Y-11468650D02*
X18620182Y-11440079D01*
X18620182Y-11440079D02*
X18629706Y-11421031D01*
X18629706Y-11421031D02*
X18639230Y-11392460D01*
X18639230Y-11392460D02*
X18648754Y-11344841D01*
X18648754Y-11344841D02*
X18648754Y-11306746D01*
X18648754Y-11306746D02*
X18639230Y-11259127D01*
X18639230Y-11259127D02*
X18629706Y-11230555D01*
X18629706Y-11230555D02*
X18620182Y-11211508D01*
X18620182Y-11211508D02*
X18601135Y-11182936D01*
X18601135Y-11182936D02*
X18591611Y-11173412D01*
M02*
