%TF.GenerationSoftware,KiCad,Pcbnew,9.0.0+1*%
%TF.CreationDate,2025-04-22T17:22:07+02:00*%
%TF.ProjectId,ts13a_dev_kit,74733133-615f-4646-9576-5f6b69742e6b,rev?*%
%TF.SameCoordinates,Original*%
%TF.FileFunction,Soldermask,Bot*%
%TF.FilePolarity,Negative*%
%FSLAX46Y46*%
G04 Gerber Fmt 4.6, Leading zero omitted, Abs format (unit mm)*
G04 Created by KiCad (PCBNEW 9.0.0+1) date 2025-04-22 17:22:07*
%MOMM*%
%LPD*%
G01*
G04 APERTURE LIST*
%ADD10C,0.150000*%
%ADD11C,1.600000*%
%ADD12C,1.450000*%
%ADD13C,2.200000*%
%ADD14C,1.500000*%
G04 APERTURE END LIST*
D10*
X133015237Y-51369819D02*
X132443809Y-51369819D01*
X132729523Y-52369819D02*
X132729523Y-51369819D01*
X132158094Y-52322200D02*
X132015237Y-52369819D01*
X132015237Y-52369819D02*
X131777142Y-52369819D01*
X131777142Y-52369819D02*
X131681904Y-52322200D01*
X131681904Y-52322200D02*
X131634285Y-52274580D01*
X131634285Y-52274580D02*
X131586666Y-52179342D01*
X131586666Y-52179342D02*
X131586666Y-52084104D01*
X131586666Y-52084104D02*
X131634285Y-51988866D01*
X131634285Y-51988866D02*
X131681904Y-51941247D01*
X131681904Y-51941247D02*
X131777142Y-51893628D01*
X131777142Y-51893628D02*
X131967618Y-51846009D01*
X131967618Y-51846009D02*
X132062856Y-51798390D01*
X132062856Y-51798390D02*
X132110475Y-51750771D01*
X132110475Y-51750771D02*
X132158094Y-51655533D01*
X132158094Y-51655533D02*
X132158094Y-51560295D01*
X132158094Y-51560295D02*
X132110475Y-51465057D01*
X132110475Y-51465057D02*
X132062856Y-51417438D01*
X132062856Y-51417438D02*
X131967618Y-51369819D01*
X131967618Y-51369819D02*
X131729523Y-51369819D01*
X131729523Y-51369819D02*
X131586666Y-51417438D01*
X130634285Y-52369819D02*
X131205713Y-52369819D01*
X130919999Y-52369819D02*
X130919999Y-51369819D01*
X130919999Y-51369819D02*
X131015237Y-51512676D01*
X131015237Y-51512676D02*
X131110475Y-51607914D01*
X131110475Y-51607914D02*
X131205713Y-51655533D01*
X130300951Y-51369819D02*
X129681904Y-51369819D01*
X129681904Y-51369819D02*
X130015237Y-51750771D01*
X130015237Y-51750771D02*
X129872380Y-51750771D01*
X129872380Y-51750771D02*
X129777142Y-51798390D01*
X129777142Y-51798390D02*
X129729523Y-51846009D01*
X129729523Y-51846009D02*
X129681904Y-51941247D01*
X129681904Y-51941247D02*
X129681904Y-52179342D01*
X129681904Y-52179342D02*
X129729523Y-52274580D01*
X129729523Y-52274580D02*
X129777142Y-52322200D01*
X129777142Y-52322200D02*
X129872380Y-52369819D01*
X129872380Y-52369819D02*
X130158094Y-52369819D01*
X130158094Y-52369819D02*
X130253332Y-52322200D01*
X130253332Y-52322200D02*
X130300951Y-52274580D01*
X129062856Y-51369819D02*
X128967618Y-51369819D01*
X128967618Y-51369819D02*
X128872380Y-51417438D01*
X128872380Y-51417438D02*
X128824761Y-51465057D01*
X128824761Y-51465057D02*
X128777142Y-51560295D01*
X128777142Y-51560295D02*
X128729523Y-51750771D01*
X128729523Y-51750771D02*
X128729523Y-51988866D01*
X128729523Y-51988866D02*
X128777142Y-52179342D01*
X128777142Y-52179342D02*
X128824761Y-52274580D01*
X128824761Y-52274580D02*
X128872380Y-52322200D01*
X128872380Y-52322200D02*
X128967618Y-52369819D01*
X128967618Y-52369819D02*
X129062856Y-52369819D01*
X129062856Y-52369819D02*
X129158094Y-52322200D01*
X129158094Y-52322200D02*
X129205713Y-52274580D01*
X129205713Y-52274580D02*
X129253332Y-52179342D01*
X129253332Y-52179342D02*
X129300951Y-51988866D01*
X129300951Y-51988866D02*
X129300951Y-51750771D01*
X129300951Y-51750771D02*
X129253332Y-51560295D01*
X129253332Y-51560295D02*
X129205713Y-51465057D01*
X129205713Y-51465057D02*
X129158094Y-51417438D01*
X129158094Y-51417438D02*
X129062856Y-51369819D01*
X128348570Y-51465057D02*
X128300951Y-51417438D01*
X128300951Y-51417438D02*
X128205713Y-51369819D01*
X128205713Y-51369819D02*
X127967618Y-51369819D01*
X127967618Y-51369819D02*
X127872380Y-51417438D01*
X127872380Y-51417438D02*
X127824761Y-51465057D01*
X127824761Y-51465057D02*
X127777142Y-51560295D01*
X127777142Y-51560295D02*
X127777142Y-51655533D01*
X127777142Y-51655533D02*
X127824761Y-51798390D01*
X127824761Y-51798390D02*
X128396189Y-52369819D01*
X128396189Y-52369819D02*
X127777142Y-52369819D01*
X127396189Y-52084104D02*
X126919999Y-52084104D01*
X127491427Y-52369819D02*
X127158094Y-51369819D01*
X127158094Y-51369819D02*
X126824761Y-52369819D01*
D11*
%TO.C,PAD3*%
X124900000Y-61250000D03*
%TD*%
D12*
%TO.C,H4*%
X136330000Y-63000000D03*
%TD*%
%TO.C,H1*%
X121090000Y-63000000D03*
%TD*%
D11*
%TO.C,PAD4*%
X135060000Y-61250000D03*
%TD*%
%TO.C,PAD6*%
X129980000Y-61250000D03*
%TD*%
%TO.C,PAD2*%
X137600000Y-61250000D03*
%TD*%
D12*
%TO.C,H6*%
X133790000Y-63000000D03*
%TD*%
%TO.C,H3*%
X126170000Y-63000000D03*
%TD*%
D11*
%TO.C,PAD1*%
X122360000Y-61250000D03*
%TD*%
D12*
%TO.C,H2*%
X123630000Y-63000000D03*
%TD*%
%TO.C,H5*%
X138870000Y-63000000D03*
%TD*%
D11*
%TO.C,PAD7*%
X127440000Y-61250000D03*
%TD*%
D12*
%TO.C,H8*%
X131250000Y-63000000D03*
%TD*%
D13*
%TO.C,H9*%
X122000000Y-55500000D03*
%TD*%
D11*
%TO.C,PAD5*%
X132520000Y-61250000D03*
%TD*%
D12*
%TO.C,H7*%
X128710000Y-63000000D03*
%TD*%
D14*
%TO.C,TP7*%
X125000000Y-74250000D03*
%TD*%
%TO.C,TP2*%
X135000000Y-76750000D03*
%TD*%
%TO.C,TP5*%
X135000000Y-71750000D03*
%TD*%
%TO.C,TP6*%
X135000000Y-69250000D03*
%TD*%
%TO.C,TP10*%
X125000000Y-66500000D03*
%TD*%
%TO.C,TP12*%
X125000000Y-80000000D03*
%TD*%
%TO.C,TP8*%
X125000000Y-76750000D03*
%TD*%
%TO.C,TP11*%
X125000000Y-82500000D03*
%TD*%
%TO.C,TP9*%
X125000000Y-71750000D03*
%TD*%
%TO.C,TP3*%
X134500000Y-89500000D03*
%TD*%
%TO.C,TP4*%
X135000000Y-74250000D03*
%TD*%
%TO.C,TP1*%
X135000000Y-80000000D03*
%TD*%
M02*
