%TF.GenerationSoftware,KiCad,Pcbnew,9.0.0+1*%
%TF.CreationDate,2025-04-22T18:14:46+02:00*%
%TF.ProjectId,ts13_dev_kit,74733133-5f64-4657-965f-6b69742e6b69,rev?*%
%TF.SameCoordinates,Original*%
%TF.FileFunction,Drillmap*%
%TF.FilePolarity,Positive*%
%FSLAX45Y45*%
G04 Gerber Fmt 4.5, Leading zero omitted, Abs format (unit mm)*
G04 Created by KiCad (PCBNEW 9.0.0+1) date 2025-04-22 18:14:46*
%MOMM*%
%LPD*%
G01*
G04 APERTURE LIST*
%ADD10C,0.050000*%
%ADD11C,0.200000*%
%ADD12C,0.100000*%
G04 APERTURE END LIST*
D10*
X13750000Y-5000000D02*
X12250000Y-5000000D01*
X13875000Y-8291506D02*
X13600000Y-8425000D01*
X13600000Y-9600000D02*
X13600000Y-8425000D01*
X12400000Y-8425000D02*
X12400000Y-9600000D01*
X12000000Y-5250000D02*
G75*
G02*
X12250000Y-5000000I250000J0D01*
G01*
X12125000Y-8291506D02*
G75*
G02*
X12000000Y-8075000I125000J216506D01*
G01*
X14000000Y-8075000D02*
G75*
G02*
X13875000Y-8291506I-250000J0D01*
G01*
X13750000Y-5000000D02*
G75*
G02*
X14000000Y-5250000I0J-250000D01*
G01*
X12000000Y-5250000D02*
X12000000Y-8075000D01*
X12400000Y-9600000D02*
X13600000Y-9600000D01*
X14000000Y-8075000D02*
X14000000Y-5250000D01*
X12125000Y-8291506D02*
X12400000Y-8425000D01*
D11*
D12*
X12072000Y-7055000D02*
X12112000Y-7095000D01*
X12112000Y-7055000D02*
X12072000Y-7095000D01*
X12072000Y-7830000D02*
X12112000Y-7870000D01*
X12112000Y-7830000D02*
X12072000Y-7870000D01*
X12072000Y-8097000D02*
X12112000Y-8137000D01*
X12112000Y-8097000D02*
X12072000Y-8137000D01*
X12080000Y-5255000D02*
X12120000Y-5295000D01*
X12120000Y-5255000D02*
X12080000Y-5295000D01*
X12080000Y-5730000D02*
X12120000Y-5770000D01*
X12120000Y-5730000D02*
X12080000Y-5770000D01*
X12080000Y-6480000D02*
X12120000Y-6520000D01*
X12120000Y-6480000D02*
X12080000Y-6520000D01*
X12255000Y-5080000D02*
X12295000Y-5120000D01*
X12295000Y-5080000D02*
X12255000Y-5120000D01*
X12280000Y-7755000D02*
X12320000Y-7795000D01*
X12320000Y-7755000D02*
X12280000Y-7795000D01*
X12330000Y-7080000D02*
X12370000Y-7120000D01*
X12370000Y-7080000D02*
X12330000Y-7120000D01*
X12422000Y-7525000D02*
X12462000Y-7565000D01*
X12462000Y-7525000D02*
X12422000Y-7565000D01*
X12471000Y-8495000D02*
X12511000Y-8535000D01*
X12511000Y-8495000D02*
X12471000Y-8535000D01*
X12474000Y-9265000D02*
X12514000Y-9305000D01*
X12514000Y-9265000D02*
X12474000Y-9305000D01*
X12502997Y-7855997D02*
X12542997Y-7895997D01*
X12542997Y-7855997D02*
X12502997Y-7895997D01*
X12576000Y-6490000D02*
X12616000Y-6530000D01*
X12616000Y-6490000D02*
X12576000Y-6530000D01*
X12610000Y-5735000D02*
X12650000Y-5775000D01*
X12650000Y-5735000D02*
X12610000Y-5775000D01*
X12610000Y-7850000D02*
X12650000Y-7890000D01*
X12650000Y-7850000D02*
X12610000Y-7890000D01*
X12621100Y-6600000D02*
X12661100Y-6640000D01*
X12661100Y-6600000D02*
X12621100Y-6640000D01*
X12661000Y-8051000D02*
X12701000Y-8091000D01*
X12701000Y-8051000D02*
X12661000Y-8091000D01*
X12705000Y-7330000D02*
X12745000Y-7370000D01*
X12745000Y-7330000D02*
X12705000Y-7370000D01*
X12730000Y-7630000D02*
X12770000Y-7670000D01*
X12770000Y-7630000D02*
X12730000Y-7670000D01*
X12730000Y-8165861D02*
X12770000Y-8205861D01*
X12770000Y-8165861D02*
X12730000Y-8205861D01*
X12740000Y-8970000D02*
X12780000Y-9010000D01*
X12780000Y-8970000D02*
X12740000Y-9010000D01*
X12755000Y-7430000D02*
X12795000Y-7470000D01*
X12795000Y-7430000D02*
X12755000Y-7470000D01*
X12780000Y-7180000D02*
X12820000Y-7220000D01*
X12820000Y-7180000D02*
X12780000Y-7220000D01*
X12780000Y-8480000D02*
X12820000Y-8520000D01*
X12820000Y-8480000D02*
X12780000Y-8520000D01*
X12800000Y-8238000D02*
X12840000Y-8278000D01*
X12840000Y-8238000D02*
X12800000Y-8278000D01*
X12848000Y-7498828D02*
X12888000Y-7538828D01*
X12888000Y-7498828D02*
X12848000Y-7538828D01*
X12880000Y-6605000D02*
X12920000Y-6645000D01*
X12920000Y-6605000D02*
X12880000Y-6645000D01*
X12880000Y-8955000D02*
X12920000Y-8995000D01*
X12920000Y-8955000D02*
X12880000Y-8995000D01*
X12955000Y-8475000D02*
X12995000Y-8515000D01*
X12995000Y-8475000D02*
X12955000Y-8515000D01*
X12980000Y-5080000D02*
X13020000Y-5120000D01*
X13020000Y-5080000D02*
X12980000Y-5120000D01*
X12980000Y-9180000D02*
X13020000Y-9220000D01*
X13020000Y-9180000D02*
X12980000Y-9220000D01*
X13080000Y-5255000D02*
X13120000Y-5295000D01*
X13120000Y-5255000D02*
X13080000Y-5295000D01*
X13080000Y-5372000D02*
X13120000Y-5412000D01*
X13120000Y-5372000D02*
X13080000Y-5412000D01*
X13130000Y-7180000D02*
X13170000Y-7220000D01*
X13170000Y-7180000D02*
X13130000Y-7220000D01*
X13155000Y-7705000D02*
X13195000Y-7745000D01*
X13195000Y-7705000D02*
X13155000Y-7745000D01*
X13155000Y-8180000D02*
X13195000Y-8220000D01*
X13195000Y-8180000D02*
X13155000Y-8220000D01*
X13190000Y-5700000D02*
X13230000Y-5740000D01*
X13230000Y-5700000D02*
X13190000Y-5740000D01*
X13230000Y-8930000D02*
X13270000Y-8970000D01*
X13270000Y-8930000D02*
X13230000Y-8970000D01*
X13254000Y-5828000D02*
X13294000Y-5868000D01*
X13294000Y-5828000D02*
X13254000Y-5868000D01*
X13255000Y-7173000D02*
X13295000Y-7213000D01*
X13295000Y-7173000D02*
X13255000Y-7213000D01*
X13255000Y-7355000D02*
X13295000Y-7395000D01*
X13295000Y-7355000D02*
X13255000Y-7395000D01*
X13255000Y-7580000D02*
X13295000Y-7620000D01*
X13295000Y-7580000D02*
X13255000Y-7620000D01*
X13257000Y-7462000D02*
X13297000Y-7502000D01*
X13297000Y-7462000D02*
X13257000Y-7502000D01*
X13332000Y-8991000D02*
X13372000Y-9031000D01*
X13372000Y-8991000D02*
X13332000Y-9031000D01*
X13377000Y-7058000D02*
X13417000Y-7098000D01*
X13417000Y-7058000D02*
X13377000Y-7098000D01*
X13479000Y-8704000D02*
X13519000Y-8744000D01*
X13519000Y-8704000D02*
X13479000Y-8744000D01*
X13483000Y-9237000D02*
X13523000Y-9277000D01*
X13523000Y-9237000D02*
X13483000Y-9277000D01*
X13540000Y-5140000D02*
X13580000Y-5180000D01*
X13580000Y-5140000D02*
X13540000Y-5180000D01*
X13605000Y-7830000D02*
X13645000Y-7870000D01*
X13645000Y-7830000D02*
X13605000Y-7870000D01*
X13640000Y-5760000D02*
X13680000Y-5800000D01*
X13680000Y-5760000D02*
X13640000Y-5800000D01*
X13660000Y-5240000D02*
X13700000Y-5280000D01*
X13700000Y-5240000D02*
X13660000Y-5280000D01*
X13780000Y-5555000D02*
X13820000Y-5595000D01*
X13820000Y-5555000D02*
X13780000Y-5595000D01*
X13855000Y-7230000D02*
X13895000Y-7270000D01*
X13895000Y-7230000D02*
X13855000Y-7270000D01*
X13870000Y-5210000D02*
X13910000Y-5250000D01*
X13910000Y-5210000D02*
X13870000Y-5250000D01*
X13880000Y-5730000D02*
X13920000Y-5770000D01*
X13920000Y-5730000D02*
X13880000Y-5770000D01*
X13880000Y-6480000D02*
X13920000Y-6520000D01*
X13920000Y-6480000D02*
X13880000Y-6520000D01*
X13880000Y-6794000D02*
X13920000Y-6834000D01*
X13920000Y-6794000D02*
X13880000Y-6834000D01*
X13889000Y-8106000D02*
X13929000Y-8146000D01*
X13929000Y-8106000D02*
X13889000Y-8146000D01*
X12592500Y-9460000D02*
G75*
G02*
X12547500Y-9460000I-22500J0D01*
G01*
X12547500Y-9460000D02*
G75*
G02*
X12592500Y-9460000I22500J0D01*
G01*
X12547500Y-9392500D02*
X12547500Y-9527500D01*
X12592500Y-9527500D02*
G75*
G02*
X12547500Y-9527500I-22500J0D01*
G01*
X12592500Y-9527500D02*
X12592500Y-9392500D01*
X12592500Y-9392500D02*
G75*
G03*
X12547500Y-9392500I-22500J0D01*
G01*
X13452500Y-9460000D02*
G75*
G02*
X13407500Y-9460000I-22500J0D01*
G01*
X13407500Y-9460000D02*
G75*
G02*
X13452500Y-9460000I22500J0D01*
G01*
X13407500Y-9392500D02*
X13407500Y-9527500D01*
X13452500Y-9527500D02*
G75*
G02*
X13407500Y-9527500I-22500J0D01*
G01*
X13452500Y-9527500D02*
X13452500Y-9392500D01*
X13452500Y-9392500D02*
G75*
G03*
X13407500Y-9392500I-22500J0D01*
G01*
X12600000Y-6880000D02*
X12600000Y-6940000D01*
X12570000Y-6910000D02*
X12630000Y-6910000D01*
X13613000Y-7018000D02*
X13613000Y-7078000D01*
X13583000Y-7048000D02*
X13643000Y-7048000D01*
X13702000Y-7947000D02*
X13702000Y-8007000D01*
X13672000Y-7977000D02*
X13732000Y-7977000D01*
X12271356Y-6160356D02*
X12271356Y-6089644D01*
X12200644Y-6089644D01*
X12200644Y-6160356D01*
X12271356Y-6160356D01*
X12525356Y-6160356D02*
X12525356Y-6089644D01*
X12454644Y-6089644D01*
X12454644Y-6160356D01*
X12525356Y-6160356D01*
X12779356Y-6160356D02*
X12779356Y-6089644D01*
X12708644Y-6089644D01*
X12708644Y-6160356D01*
X12779356Y-6160356D01*
X13033356Y-6160356D02*
X13033356Y-6089644D01*
X12962644Y-6089644D01*
X12962644Y-6160356D01*
X13033356Y-6160356D01*
X13287356Y-6160356D02*
X13287356Y-6089644D01*
X13216644Y-6089644D01*
X13216644Y-6160356D01*
X13287356Y-6160356D01*
X13541356Y-6160356D02*
X13541356Y-6089644D01*
X13470644Y-6089644D01*
X13470644Y-6160356D01*
X13541356Y-6160356D01*
X13795356Y-6160356D02*
X13795356Y-6089644D01*
X13724644Y-6089644D01*
X13724644Y-6160356D01*
X13795356Y-6160356D01*
D11*
X12258277Y-9913984D02*
X12258277Y-9713984D01*
X12258277Y-9713984D02*
X12305896Y-9713984D01*
X12305896Y-9713984D02*
X12334467Y-9723508D01*
X12334467Y-9723508D02*
X12353515Y-9742555D01*
X12353515Y-9742555D02*
X12363039Y-9761603D01*
X12363039Y-9761603D02*
X12372562Y-9799698D01*
X12372562Y-9799698D02*
X12372562Y-9828270D01*
X12372562Y-9828270D02*
X12363039Y-9866365D01*
X12363039Y-9866365D02*
X12353515Y-9885412D01*
X12353515Y-9885412D02*
X12334467Y-9904460D01*
X12334467Y-9904460D02*
X12305896Y-9913984D01*
X12305896Y-9913984D02*
X12258277Y-9913984D01*
X12458277Y-9913984D02*
X12458277Y-9780650D01*
X12458277Y-9818746D02*
X12467801Y-9799698D01*
X12467801Y-9799698D02*
X12477324Y-9790174D01*
X12477324Y-9790174D02*
X12496372Y-9780650D01*
X12496372Y-9780650D02*
X12515420Y-9780650D01*
X12582086Y-9913984D02*
X12582086Y-9780650D01*
X12582086Y-9713984D02*
X12572562Y-9723508D01*
X12572562Y-9723508D02*
X12582086Y-9733031D01*
X12582086Y-9733031D02*
X12591610Y-9723508D01*
X12591610Y-9723508D02*
X12582086Y-9713984D01*
X12582086Y-9713984D02*
X12582086Y-9733031D01*
X12705896Y-9913984D02*
X12686848Y-9904460D01*
X12686848Y-9904460D02*
X12677324Y-9885412D01*
X12677324Y-9885412D02*
X12677324Y-9713984D01*
X12810658Y-9913984D02*
X12791610Y-9904460D01*
X12791610Y-9904460D02*
X12782086Y-9885412D01*
X12782086Y-9885412D02*
X12782086Y-9713984D01*
X13039229Y-9913984D02*
X13039229Y-9713984D01*
X13039229Y-9713984D02*
X13105896Y-9856841D01*
X13105896Y-9856841D02*
X13172562Y-9713984D01*
X13172562Y-9713984D02*
X13172562Y-9913984D01*
X13353515Y-9913984D02*
X13353515Y-9809222D01*
X13353515Y-9809222D02*
X13343991Y-9790174D01*
X13343991Y-9790174D02*
X13324943Y-9780650D01*
X13324943Y-9780650D02*
X13286848Y-9780650D01*
X13286848Y-9780650D02*
X13267801Y-9790174D01*
X13353515Y-9904460D02*
X13334467Y-9913984D01*
X13334467Y-9913984D02*
X13286848Y-9913984D01*
X13286848Y-9913984D02*
X13267801Y-9904460D01*
X13267801Y-9904460D02*
X13258277Y-9885412D01*
X13258277Y-9885412D02*
X13258277Y-9866365D01*
X13258277Y-9866365D02*
X13267801Y-9847317D01*
X13267801Y-9847317D02*
X13286848Y-9837793D01*
X13286848Y-9837793D02*
X13334467Y-9837793D01*
X13334467Y-9837793D02*
X13353515Y-9828270D01*
X13448753Y-9780650D02*
X13448753Y-9980650D01*
X13448753Y-9790174D02*
X13467801Y-9780650D01*
X13467801Y-9780650D02*
X13505896Y-9780650D01*
X13505896Y-9780650D02*
X13524943Y-9790174D01*
X13524943Y-9790174D02*
X13534467Y-9799698D01*
X13534467Y-9799698D02*
X13543991Y-9818746D01*
X13543991Y-9818746D02*
X13543991Y-9875889D01*
X13543991Y-9875889D02*
X13534467Y-9894936D01*
X13534467Y-9894936D02*
X13524943Y-9904460D01*
X13524943Y-9904460D02*
X13505896Y-9913984D01*
X13505896Y-9913984D02*
X13467801Y-9913984D01*
X13467801Y-9913984D02*
X13448753Y-9904460D01*
X13629705Y-9894936D02*
X13639229Y-9904460D01*
X13639229Y-9904460D02*
X13629705Y-9913984D01*
X13629705Y-9913984D02*
X13620182Y-9904460D01*
X13620182Y-9904460D02*
X13629705Y-9894936D01*
X13629705Y-9894936D02*
X13629705Y-9913984D01*
X13629705Y-9790174D02*
X13639229Y-9799698D01*
X13639229Y-9799698D02*
X13629705Y-9809222D01*
X13629705Y-9809222D02*
X13620182Y-9799698D01*
X13620182Y-9799698D02*
X13629705Y-9790174D01*
X13629705Y-9790174D02*
X13629705Y-9809222D01*
D12*
X11957500Y-10222500D02*
X11997500Y-10262500D01*
X11997500Y-10222500D02*
X11957500Y-10262500D01*
D11*
X12296372Y-10133984D02*
X12315420Y-10133984D01*
X12315420Y-10133984D02*
X12334467Y-10143508D01*
X12334467Y-10143508D02*
X12343991Y-10153031D01*
X12343991Y-10153031D02*
X12353515Y-10172079D01*
X12353515Y-10172079D02*
X12363039Y-10210174D01*
X12363039Y-10210174D02*
X12363039Y-10257793D01*
X12363039Y-10257793D02*
X12353515Y-10295889D01*
X12353515Y-10295889D02*
X12343991Y-10314936D01*
X12343991Y-10314936D02*
X12334467Y-10324460D01*
X12334467Y-10324460D02*
X12315420Y-10333984D01*
X12315420Y-10333984D02*
X12296372Y-10333984D01*
X12296372Y-10333984D02*
X12277324Y-10324460D01*
X12277324Y-10324460D02*
X12267801Y-10314936D01*
X12267801Y-10314936D02*
X12258277Y-10295889D01*
X12258277Y-10295889D02*
X12248753Y-10257793D01*
X12248753Y-10257793D02*
X12248753Y-10210174D01*
X12248753Y-10210174D02*
X12258277Y-10172079D01*
X12258277Y-10172079D02*
X12267801Y-10153031D01*
X12267801Y-10153031D02*
X12277324Y-10143508D01*
X12277324Y-10143508D02*
X12296372Y-10133984D01*
X12448753Y-10314936D02*
X12458277Y-10324460D01*
X12458277Y-10324460D02*
X12448753Y-10333984D01*
X12448753Y-10333984D02*
X12439229Y-10324460D01*
X12439229Y-10324460D02*
X12448753Y-10314936D01*
X12448753Y-10314936D02*
X12448753Y-10333984D01*
X12629705Y-10200650D02*
X12629705Y-10333984D01*
X12582086Y-10124460D02*
X12534467Y-10267317D01*
X12534467Y-10267317D02*
X12658277Y-10267317D01*
X12772562Y-10133984D02*
X12791610Y-10133984D01*
X12791610Y-10133984D02*
X12810658Y-10143508D01*
X12810658Y-10143508D02*
X12820182Y-10153031D01*
X12820182Y-10153031D02*
X12829705Y-10172079D01*
X12829705Y-10172079D02*
X12839229Y-10210174D01*
X12839229Y-10210174D02*
X12839229Y-10257793D01*
X12839229Y-10257793D02*
X12829705Y-10295889D01*
X12829705Y-10295889D02*
X12820182Y-10314936D01*
X12820182Y-10314936D02*
X12810658Y-10324460D01*
X12810658Y-10324460D02*
X12791610Y-10333984D01*
X12791610Y-10333984D02*
X12772562Y-10333984D01*
X12772562Y-10333984D02*
X12753515Y-10324460D01*
X12753515Y-10324460D02*
X12743991Y-10314936D01*
X12743991Y-10314936D02*
X12734467Y-10295889D01*
X12734467Y-10295889D02*
X12724943Y-10257793D01*
X12724943Y-10257793D02*
X12724943Y-10210174D01*
X12724943Y-10210174D02*
X12734467Y-10172079D01*
X12734467Y-10172079D02*
X12743991Y-10153031D01*
X12743991Y-10153031D02*
X12753515Y-10143508D01*
X12753515Y-10143508D02*
X12772562Y-10133984D01*
X12963039Y-10133984D02*
X12982086Y-10133984D01*
X12982086Y-10133984D02*
X13001134Y-10143508D01*
X13001134Y-10143508D02*
X13010658Y-10153031D01*
X13010658Y-10153031D02*
X13020182Y-10172079D01*
X13020182Y-10172079D02*
X13029705Y-10210174D01*
X13029705Y-10210174D02*
X13029705Y-10257793D01*
X13029705Y-10257793D02*
X13020182Y-10295889D01*
X13020182Y-10295889D02*
X13010658Y-10314936D01*
X13010658Y-10314936D02*
X13001134Y-10324460D01*
X13001134Y-10324460D02*
X12982086Y-10333984D01*
X12982086Y-10333984D02*
X12963039Y-10333984D01*
X12963039Y-10333984D02*
X12943991Y-10324460D01*
X12943991Y-10324460D02*
X12934467Y-10314936D01*
X12934467Y-10314936D02*
X12924943Y-10295889D01*
X12924943Y-10295889D02*
X12915420Y-10257793D01*
X12915420Y-10257793D02*
X12915420Y-10210174D01*
X12915420Y-10210174D02*
X12924943Y-10172079D01*
X12924943Y-10172079D02*
X12934467Y-10153031D01*
X12934467Y-10153031D02*
X12943991Y-10143508D01*
X12943991Y-10143508D02*
X12963039Y-10133984D01*
X13115420Y-10333984D02*
X13115420Y-10200650D01*
X13115420Y-10219698D02*
X13124943Y-10210174D01*
X13124943Y-10210174D02*
X13143991Y-10200650D01*
X13143991Y-10200650D02*
X13172563Y-10200650D01*
X13172563Y-10200650D02*
X13191610Y-10210174D01*
X13191610Y-10210174D02*
X13201134Y-10229222D01*
X13201134Y-10229222D02*
X13201134Y-10333984D01*
X13201134Y-10229222D02*
X13210658Y-10210174D01*
X13210658Y-10210174D02*
X13229705Y-10200650D01*
X13229705Y-10200650D02*
X13258277Y-10200650D01*
X13258277Y-10200650D02*
X13277324Y-10210174D01*
X13277324Y-10210174D02*
X13286848Y-10229222D01*
X13286848Y-10229222D02*
X13286848Y-10333984D01*
X13382086Y-10333984D02*
X13382086Y-10200650D01*
X13382086Y-10219698D02*
X13391610Y-10210174D01*
X13391610Y-10210174D02*
X13410658Y-10200650D01*
X13410658Y-10200650D02*
X13439229Y-10200650D01*
X13439229Y-10200650D02*
X13458277Y-10210174D01*
X13458277Y-10210174D02*
X13467801Y-10229222D01*
X13467801Y-10229222D02*
X13467801Y-10333984D01*
X13467801Y-10229222D02*
X13477324Y-10210174D01*
X13477324Y-10210174D02*
X13496372Y-10200650D01*
X13496372Y-10200650D02*
X13524943Y-10200650D01*
X13524943Y-10200650D02*
X13543991Y-10210174D01*
X13543991Y-10210174D02*
X13553515Y-10229222D01*
X13553515Y-10229222D02*
X13553515Y-10333984D01*
X13943991Y-10124460D02*
X13772563Y-10381603D01*
X14201134Y-10133984D02*
X14220182Y-10133984D01*
X14220182Y-10133984D02*
X14239229Y-10143508D01*
X14239229Y-10143508D02*
X14248753Y-10153031D01*
X14248753Y-10153031D02*
X14258277Y-10172079D01*
X14258277Y-10172079D02*
X14267801Y-10210174D01*
X14267801Y-10210174D02*
X14267801Y-10257793D01*
X14267801Y-10257793D02*
X14258277Y-10295889D01*
X14258277Y-10295889D02*
X14248753Y-10314936D01*
X14248753Y-10314936D02*
X14239229Y-10324460D01*
X14239229Y-10324460D02*
X14220182Y-10333984D01*
X14220182Y-10333984D02*
X14201134Y-10333984D01*
X14201134Y-10333984D02*
X14182086Y-10324460D01*
X14182086Y-10324460D02*
X14172563Y-10314936D01*
X14172563Y-10314936D02*
X14163039Y-10295889D01*
X14163039Y-10295889D02*
X14153515Y-10257793D01*
X14153515Y-10257793D02*
X14153515Y-10210174D01*
X14153515Y-10210174D02*
X14163039Y-10172079D01*
X14163039Y-10172079D02*
X14172563Y-10153031D01*
X14172563Y-10153031D02*
X14182086Y-10143508D01*
X14182086Y-10143508D02*
X14201134Y-10133984D01*
X14353515Y-10314936D02*
X14363039Y-10324460D01*
X14363039Y-10324460D02*
X14353515Y-10333984D01*
X14353515Y-10333984D02*
X14343991Y-10324460D01*
X14343991Y-10324460D02*
X14353515Y-10314936D01*
X14353515Y-10314936D02*
X14353515Y-10333984D01*
X14486848Y-10133984D02*
X14505896Y-10133984D01*
X14505896Y-10133984D02*
X14524944Y-10143508D01*
X14524944Y-10143508D02*
X14534467Y-10153031D01*
X14534467Y-10153031D02*
X14543991Y-10172079D01*
X14543991Y-10172079D02*
X14553515Y-10210174D01*
X14553515Y-10210174D02*
X14553515Y-10257793D01*
X14553515Y-10257793D02*
X14543991Y-10295889D01*
X14543991Y-10295889D02*
X14534467Y-10314936D01*
X14534467Y-10314936D02*
X14524944Y-10324460D01*
X14524944Y-10324460D02*
X14505896Y-10333984D01*
X14505896Y-10333984D02*
X14486848Y-10333984D01*
X14486848Y-10333984D02*
X14467801Y-10324460D01*
X14467801Y-10324460D02*
X14458277Y-10314936D01*
X14458277Y-10314936D02*
X14448753Y-10295889D01*
X14448753Y-10295889D02*
X14439229Y-10257793D01*
X14439229Y-10257793D02*
X14439229Y-10210174D01*
X14439229Y-10210174D02*
X14448753Y-10172079D01*
X14448753Y-10172079D02*
X14458277Y-10153031D01*
X14458277Y-10153031D02*
X14467801Y-10143508D01*
X14467801Y-10143508D02*
X14486848Y-10133984D01*
X14743991Y-10333984D02*
X14629706Y-10333984D01*
X14686848Y-10333984D02*
X14686848Y-10133984D01*
X14686848Y-10133984D02*
X14667801Y-10162555D01*
X14667801Y-10162555D02*
X14648753Y-10181603D01*
X14648753Y-10181603D02*
X14629706Y-10191127D01*
X14924944Y-10133984D02*
X14829706Y-10133984D01*
X14829706Y-10133984D02*
X14820182Y-10229222D01*
X14820182Y-10229222D02*
X14829706Y-10219698D01*
X14829706Y-10219698D02*
X14848753Y-10210174D01*
X14848753Y-10210174D02*
X14896372Y-10210174D01*
X14896372Y-10210174D02*
X14915420Y-10219698D01*
X14915420Y-10219698D02*
X14924944Y-10229222D01*
X14924944Y-10229222D02*
X14934467Y-10248270D01*
X14934467Y-10248270D02*
X14934467Y-10295889D01*
X14934467Y-10295889D02*
X14924944Y-10314936D01*
X14924944Y-10314936D02*
X14915420Y-10324460D01*
X14915420Y-10324460D02*
X14896372Y-10333984D01*
X14896372Y-10333984D02*
X14848753Y-10333984D01*
X14848753Y-10333984D02*
X14829706Y-10324460D01*
X14829706Y-10324460D02*
X14820182Y-10314936D01*
X15001134Y-10133984D02*
X15134467Y-10133984D01*
X15134467Y-10133984D02*
X15048753Y-10333984D01*
X15201134Y-10133984D02*
X15201134Y-10172079D01*
X15277325Y-10133984D02*
X15277325Y-10172079D01*
X15572563Y-10410174D02*
X15563039Y-10400650D01*
X15563039Y-10400650D02*
X15543991Y-10372079D01*
X15543991Y-10372079D02*
X15534468Y-10353031D01*
X15534468Y-10353031D02*
X15524944Y-10324460D01*
X15524944Y-10324460D02*
X15515420Y-10276841D01*
X15515420Y-10276841D02*
X15515420Y-10238746D01*
X15515420Y-10238746D02*
X15524944Y-10191127D01*
X15524944Y-10191127D02*
X15534468Y-10162555D01*
X15534468Y-10162555D02*
X15543991Y-10143508D01*
X15543991Y-10143508D02*
X15563039Y-10114936D01*
X15563039Y-10114936D02*
X15572563Y-10105412D01*
X15743991Y-10133984D02*
X15648753Y-10133984D01*
X15648753Y-10133984D02*
X15639229Y-10229222D01*
X15639229Y-10229222D02*
X15648753Y-10219698D01*
X15648753Y-10219698D02*
X15667801Y-10210174D01*
X15667801Y-10210174D02*
X15715420Y-10210174D01*
X15715420Y-10210174D02*
X15734468Y-10219698D01*
X15734468Y-10219698D02*
X15743991Y-10229222D01*
X15743991Y-10229222D02*
X15753515Y-10248270D01*
X15753515Y-10248270D02*
X15753515Y-10295889D01*
X15753515Y-10295889D02*
X15743991Y-10314936D01*
X15743991Y-10314936D02*
X15734468Y-10324460D01*
X15734468Y-10324460D02*
X15715420Y-10333984D01*
X15715420Y-10333984D02*
X15667801Y-10333984D01*
X15667801Y-10333984D02*
X15648753Y-10324460D01*
X15648753Y-10324460D02*
X15639229Y-10314936D01*
X15848753Y-10333984D02*
X15886848Y-10333984D01*
X15886848Y-10333984D02*
X15905896Y-10324460D01*
X15905896Y-10324460D02*
X15915420Y-10314936D01*
X15915420Y-10314936D02*
X15934468Y-10286365D01*
X15934468Y-10286365D02*
X15943991Y-10248270D01*
X15943991Y-10248270D02*
X15943991Y-10172079D01*
X15943991Y-10172079D02*
X15934468Y-10153031D01*
X15934468Y-10153031D02*
X15924944Y-10143508D01*
X15924944Y-10143508D02*
X15905896Y-10133984D01*
X15905896Y-10133984D02*
X15867801Y-10133984D01*
X15867801Y-10133984D02*
X15848753Y-10143508D01*
X15848753Y-10143508D02*
X15839229Y-10153031D01*
X15839229Y-10153031D02*
X15829706Y-10172079D01*
X15829706Y-10172079D02*
X15829706Y-10219698D01*
X15829706Y-10219698D02*
X15839229Y-10238746D01*
X15839229Y-10238746D02*
X15848753Y-10248270D01*
X15848753Y-10248270D02*
X15867801Y-10257793D01*
X15867801Y-10257793D02*
X15905896Y-10257793D01*
X15905896Y-10257793D02*
X15924944Y-10248270D01*
X15924944Y-10248270D02*
X15934468Y-10238746D01*
X15934468Y-10238746D02*
X15943991Y-10219698D01*
X16182087Y-10333984D02*
X16182087Y-10133984D01*
X16267801Y-10333984D02*
X16267801Y-10229222D01*
X16267801Y-10229222D02*
X16258277Y-10210174D01*
X16258277Y-10210174D02*
X16239230Y-10200650D01*
X16239230Y-10200650D02*
X16210658Y-10200650D01*
X16210658Y-10200650D02*
X16191610Y-10210174D01*
X16191610Y-10210174D02*
X16182087Y-10219698D01*
X16391610Y-10333984D02*
X16372563Y-10324460D01*
X16372563Y-10324460D02*
X16363039Y-10314936D01*
X16363039Y-10314936D02*
X16353515Y-10295889D01*
X16353515Y-10295889D02*
X16353515Y-10238746D01*
X16353515Y-10238746D02*
X16363039Y-10219698D01*
X16363039Y-10219698D02*
X16372563Y-10210174D01*
X16372563Y-10210174D02*
X16391610Y-10200650D01*
X16391610Y-10200650D02*
X16420182Y-10200650D01*
X16420182Y-10200650D02*
X16439230Y-10210174D01*
X16439230Y-10210174D02*
X16448753Y-10219698D01*
X16448753Y-10219698D02*
X16458277Y-10238746D01*
X16458277Y-10238746D02*
X16458277Y-10295889D01*
X16458277Y-10295889D02*
X16448753Y-10314936D01*
X16448753Y-10314936D02*
X16439230Y-10324460D01*
X16439230Y-10324460D02*
X16420182Y-10333984D01*
X16420182Y-10333984D02*
X16391610Y-10333984D01*
X16572563Y-10333984D02*
X16553515Y-10324460D01*
X16553515Y-10324460D02*
X16543991Y-10305412D01*
X16543991Y-10305412D02*
X16543991Y-10133984D01*
X16724944Y-10324460D02*
X16705896Y-10333984D01*
X16705896Y-10333984D02*
X16667801Y-10333984D01*
X16667801Y-10333984D02*
X16648753Y-10324460D01*
X16648753Y-10324460D02*
X16639230Y-10305412D01*
X16639230Y-10305412D02*
X16639230Y-10229222D01*
X16639230Y-10229222D02*
X16648753Y-10210174D01*
X16648753Y-10210174D02*
X16667801Y-10200650D01*
X16667801Y-10200650D02*
X16705896Y-10200650D01*
X16705896Y-10200650D02*
X16724944Y-10210174D01*
X16724944Y-10210174D02*
X16734468Y-10229222D01*
X16734468Y-10229222D02*
X16734468Y-10248270D01*
X16734468Y-10248270D02*
X16639230Y-10267317D01*
X16810658Y-10324460D02*
X16829706Y-10333984D01*
X16829706Y-10333984D02*
X16867801Y-10333984D01*
X16867801Y-10333984D02*
X16886849Y-10324460D01*
X16886849Y-10324460D02*
X16896373Y-10305412D01*
X16896373Y-10305412D02*
X16896373Y-10295889D01*
X16896373Y-10295889D02*
X16886849Y-10276841D01*
X16886849Y-10276841D02*
X16867801Y-10267317D01*
X16867801Y-10267317D02*
X16839230Y-10267317D01*
X16839230Y-10267317D02*
X16820182Y-10257793D01*
X16820182Y-10257793D02*
X16810658Y-10238746D01*
X16810658Y-10238746D02*
X16810658Y-10229222D01*
X16810658Y-10229222D02*
X16820182Y-10210174D01*
X16820182Y-10210174D02*
X16839230Y-10200650D01*
X16839230Y-10200650D02*
X16867801Y-10200650D01*
X16867801Y-10200650D02*
X16886849Y-10210174D01*
X16963039Y-10410174D02*
X16972563Y-10400650D01*
X16972563Y-10400650D02*
X16991611Y-10372079D01*
X16991611Y-10372079D02*
X17001134Y-10353031D01*
X17001134Y-10353031D02*
X17010658Y-10324460D01*
X17010658Y-10324460D02*
X17020182Y-10276841D01*
X17020182Y-10276841D02*
X17020182Y-10238746D01*
X17020182Y-10238746D02*
X17010658Y-10191127D01*
X17010658Y-10191127D02*
X17001134Y-10162555D01*
X17001134Y-10162555D02*
X16991611Y-10143508D01*
X16991611Y-10143508D02*
X16972563Y-10114936D01*
X16972563Y-10114936D02*
X16963039Y-10105412D01*
D12*
X11997500Y-10506500D02*
G75*
G02*
X11952500Y-10506500I-22500J0D01*
G01*
X11952500Y-10506500D02*
G75*
G02*
X11997500Y-10506500I22500J0D01*
G01*
D11*
X12296372Y-10397984D02*
X12315420Y-10397984D01*
X12315420Y-10397984D02*
X12334467Y-10407508D01*
X12334467Y-10407508D02*
X12343991Y-10417031D01*
X12343991Y-10417031D02*
X12353515Y-10436079D01*
X12353515Y-10436079D02*
X12363039Y-10474174D01*
X12363039Y-10474174D02*
X12363039Y-10521793D01*
X12363039Y-10521793D02*
X12353515Y-10559889D01*
X12353515Y-10559889D02*
X12343991Y-10578936D01*
X12343991Y-10578936D02*
X12334467Y-10588460D01*
X12334467Y-10588460D02*
X12315420Y-10597984D01*
X12315420Y-10597984D02*
X12296372Y-10597984D01*
X12296372Y-10597984D02*
X12277324Y-10588460D01*
X12277324Y-10588460D02*
X12267801Y-10578936D01*
X12267801Y-10578936D02*
X12258277Y-10559889D01*
X12258277Y-10559889D02*
X12248753Y-10521793D01*
X12248753Y-10521793D02*
X12248753Y-10474174D01*
X12248753Y-10474174D02*
X12258277Y-10436079D01*
X12258277Y-10436079D02*
X12267801Y-10417031D01*
X12267801Y-10417031D02*
X12277324Y-10407508D01*
X12277324Y-10407508D02*
X12296372Y-10397984D01*
X12448753Y-10578936D02*
X12458277Y-10588460D01*
X12458277Y-10588460D02*
X12448753Y-10597984D01*
X12448753Y-10597984D02*
X12439229Y-10588460D01*
X12439229Y-10588460D02*
X12448753Y-10578936D01*
X12448753Y-10578936D02*
X12448753Y-10597984D01*
X12629705Y-10464650D02*
X12629705Y-10597984D01*
X12582086Y-10388460D02*
X12534467Y-10531317D01*
X12534467Y-10531317D02*
X12658277Y-10531317D01*
X12829705Y-10397984D02*
X12734467Y-10397984D01*
X12734467Y-10397984D02*
X12724943Y-10493222D01*
X12724943Y-10493222D02*
X12734467Y-10483698D01*
X12734467Y-10483698D02*
X12753515Y-10474174D01*
X12753515Y-10474174D02*
X12801134Y-10474174D01*
X12801134Y-10474174D02*
X12820182Y-10483698D01*
X12820182Y-10483698D02*
X12829705Y-10493222D01*
X12829705Y-10493222D02*
X12839229Y-10512270D01*
X12839229Y-10512270D02*
X12839229Y-10559889D01*
X12839229Y-10559889D02*
X12829705Y-10578936D01*
X12829705Y-10578936D02*
X12820182Y-10588460D01*
X12820182Y-10588460D02*
X12801134Y-10597984D01*
X12801134Y-10597984D02*
X12753515Y-10597984D01*
X12753515Y-10597984D02*
X12734467Y-10588460D01*
X12734467Y-10588460D02*
X12724943Y-10578936D01*
X12963039Y-10397984D02*
X12982086Y-10397984D01*
X12982086Y-10397984D02*
X13001134Y-10407508D01*
X13001134Y-10407508D02*
X13010658Y-10417031D01*
X13010658Y-10417031D02*
X13020182Y-10436079D01*
X13020182Y-10436079D02*
X13029705Y-10474174D01*
X13029705Y-10474174D02*
X13029705Y-10521793D01*
X13029705Y-10521793D02*
X13020182Y-10559889D01*
X13020182Y-10559889D02*
X13010658Y-10578936D01*
X13010658Y-10578936D02*
X13001134Y-10588460D01*
X13001134Y-10588460D02*
X12982086Y-10597984D01*
X12982086Y-10597984D02*
X12963039Y-10597984D01*
X12963039Y-10597984D02*
X12943991Y-10588460D01*
X12943991Y-10588460D02*
X12934467Y-10578936D01*
X12934467Y-10578936D02*
X12924943Y-10559889D01*
X12924943Y-10559889D02*
X12915420Y-10521793D01*
X12915420Y-10521793D02*
X12915420Y-10474174D01*
X12915420Y-10474174D02*
X12924943Y-10436079D01*
X12924943Y-10436079D02*
X12934467Y-10417031D01*
X12934467Y-10417031D02*
X12943991Y-10407508D01*
X12943991Y-10407508D02*
X12963039Y-10397984D01*
X13115420Y-10597984D02*
X13115420Y-10464650D01*
X13115420Y-10483698D02*
X13124943Y-10474174D01*
X13124943Y-10474174D02*
X13143991Y-10464650D01*
X13143991Y-10464650D02*
X13172563Y-10464650D01*
X13172563Y-10464650D02*
X13191610Y-10474174D01*
X13191610Y-10474174D02*
X13201134Y-10493222D01*
X13201134Y-10493222D02*
X13201134Y-10597984D01*
X13201134Y-10493222D02*
X13210658Y-10474174D01*
X13210658Y-10474174D02*
X13229705Y-10464650D01*
X13229705Y-10464650D02*
X13258277Y-10464650D01*
X13258277Y-10464650D02*
X13277324Y-10474174D01*
X13277324Y-10474174D02*
X13286848Y-10493222D01*
X13286848Y-10493222D02*
X13286848Y-10597984D01*
X13382086Y-10597984D02*
X13382086Y-10464650D01*
X13382086Y-10483698D02*
X13391610Y-10474174D01*
X13391610Y-10474174D02*
X13410658Y-10464650D01*
X13410658Y-10464650D02*
X13439229Y-10464650D01*
X13439229Y-10464650D02*
X13458277Y-10474174D01*
X13458277Y-10474174D02*
X13467801Y-10493222D01*
X13467801Y-10493222D02*
X13467801Y-10597984D01*
X13467801Y-10493222D02*
X13477324Y-10474174D01*
X13477324Y-10474174D02*
X13496372Y-10464650D01*
X13496372Y-10464650D02*
X13524943Y-10464650D01*
X13524943Y-10464650D02*
X13543991Y-10474174D01*
X13543991Y-10474174D02*
X13553515Y-10493222D01*
X13553515Y-10493222D02*
X13553515Y-10597984D01*
X13943991Y-10388460D02*
X13772563Y-10645603D01*
X14201134Y-10397984D02*
X14220182Y-10397984D01*
X14220182Y-10397984D02*
X14239229Y-10407508D01*
X14239229Y-10407508D02*
X14248753Y-10417031D01*
X14248753Y-10417031D02*
X14258277Y-10436079D01*
X14258277Y-10436079D02*
X14267801Y-10474174D01*
X14267801Y-10474174D02*
X14267801Y-10521793D01*
X14267801Y-10521793D02*
X14258277Y-10559889D01*
X14258277Y-10559889D02*
X14248753Y-10578936D01*
X14248753Y-10578936D02*
X14239229Y-10588460D01*
X14239229Y-10588460D02*
X14220182Y-10597984D01*
X14220182Y-10597984D02*
X14201134Y-10597984D01*
X14201134Y-10597984D02*
X14182086Y-10588460D01*
X14182086Y-10588460D02*
X14172563Y-10578936D01*
X14172563Y-10578936D02*
X14163039Y-10559889D01*
X14163039Y-10559889D02*
X14153515Y-10521793D01*
X14153515Y-10521793D02*
X14153515Y-10474174D01*
X14153515Y-10474174D02*
X14163039Y-10436079D01*
X14163039Y-10436079D02*
X14172563Y-10417031D01*
X14172563Y-10417031D02*
X14182086Y-10407508D01*
X14182086Y-10407508D02*
X14201134Y-10397984D01*
X14353515Y-10578936D02*
X14363039Y-10588460D01*
X14363039Y-10588460D02*
X14353515Y-10597984D01*
X14353515Y-10597984D02*
X14343991Y-10588460D01*
X14343991Y-10588460D02*
X14353515Y-10578936D01*
X14353515Y-10578936D02*
X14353515Y-10597984D01*
X14486848Y-10397984D02*
X14505896Y-10397984D01*
X14505896Y-10397984D02*
X14524944Y-10407508D01*
X14524944Y-10407508D02*
X14534467Y-10417031D01*
X14534467Y-10417031D02*
X14543991Y-10436079D01*
X14543991Y-10436079D02*
X14553515Y-10474174D01*
X14553515Y-10474174D02*
X14553515Y-10521793D01*
X14553515Y-10521793D02*
X14543991Y-10559889D01*
X14543991Y-10559889D02*
X14534467Y-10578936D01*
X14534467Y-10578936D02*
X14524944Y-10588460D01*
X14524944Y-10588460D02*
X14505896Y-10597984D01*
X14505896Y-10597984D02*
X14486848Y-10597984D01*
X14486848Y-10597984D02*
X14467801Y-10588460D01*
X14467801Y-10588460D02*
X14458277Y-10578936D01*
X14458277Y-10578936D02*
X14448753Y-10559889D01*
X14448753Y-10559889D02*
X14439229Y-10521793D01*
X14439229Y-10521793D02*
X14439229Y-10474174D01*
X14439229Y-10474174D02*
X14448753Y-10436079D01*
X14448753Y-10436079D02*
X14458277Y-10417031D01*
X14458277Y-10417031D02*
X14467801Y-10407508D01*
X14467801Y-10407508D02*
X14486848Y-10397984D01*
X14743991Y-10597984D02*
X14629706Y-10597984D01*
X14686848Y-10597984D02*
X14686848Y-10397984D01*
X14686848Y-10397984D02*
X14667801Y-10426555D01*
X14667801Y-10426555D02*
X14648753Y-10445603D01*
X14648753Y-10445603D02*
X14629706Y-10455127D01*
X14810658Y-10397984D02*
X14943991Y-10397984D01*
X14943991Y-10397984D02*
X14858277Y-10597984D01*
X15001134Y-10397984D02*
X15134467Y-10397984D01*
X15134467Y-10397984D02*
X15048753Y-10597984D01*
X15201134Y-10397984D02*
X15201134Y-10436079D01*
X15277325Y-10397984D02*
X15277325Y-10436079D01*
X15572563Y-10674174D02*
X15563039Y-10664650D01*
X15563039Y-10664650D02*
X15543991Y-10636079D01*
X15543991Y-10636079D02*
X15534468Y-10617031D01*
X15534468Y-10617031D02*
X15524944Y-10588460D01*
X15524944Y-10588460D02*
X15515420Y-10540841D01*
X15515420Y-10540841D02*
X15515420Y-10502746D01*
X15515420Y-10502746D02*
X15524944Y-10455127D01*
X15524944Y-10455127D02*
X15534468Y-10426555D01*
X15534468Y-10426555D02*
X15543991Y-10407508D01*
X15543991Y-10407508D02*
X15563039Y-10378936D01*
X15563039Y-10378936D02*
X15572563Y-10369412D01*
X15686848Y-10397984D02*
X15705896Y-10397984D01*
X15705896Y-10397984D02*
X15724944Y-10407508D01*
X15724944Y-10407508D02*
X15734468Y-10417031D01*
X15734468Y-10417031D02*
X15743991Y-10436079D01*
X15743991Y-10436079D02*
X15753515Y-10474174D01*
X15753515Y-10474174D02*
X15753515Y-10521793D01*
X15753515Y-10521793D02*
X15743991Y-10559889D01*
X15743991Y-10559889D02*
X15734468Y-10578936D01*
X15734468Y-10578936D02*
X15724944Y-10588460D01*
X15724944Y-10588460D02*
X15705896Y-10597984D01*
X15705896Y-10597984D02*
X15686848Y-10597984D01*
X15686848Y-10597984D02*
X15667801Y-10588460D01*
X15667801Y-10588460D02*
X15658277Y-10578936D01*
X15658277Y-10578936D02*
X15648753Y-10559889D01*
X15648753Y-10559889D02*
X15639229Y-10521793D01*
X15639229Y-10521793D02*
X15639229Y-10474174D01*
X15639229Y-10474174D02*
X15648753Y-10436079D01*
X15648753Y-10436079D02*
X15658277Y-10417031D01*
X15658277Y-10417031D02*
X15667801Y-10407508D01*
X15667801Y-10407508D02*
X15686848Y-10397984D01*
X15991610Y-10597984D02*
X15991610Y-10397984D01*
X16077325Y-10597984D02*
X16077325Y-10493222D01*
X16077325Y-10493222D02*
X16067801Y-10474174D01*
X16067801Y-10474174D02*
X16048753Y-10464650D01*
X16048753Y-10464650D02*
X16020182Y-10464650D01*
X16020182Y-10464650D02*
X16001134Y-10474174D01*
X16001134Y-10474174D02*
X15991610Y-10483698D01*
X16201134Y-10597984D02*
X16182087Y-10588460D01*
X16182087Y-10588460D02*
X16172563Y-10578936D01*
X16172563Y-10578936D02*
X16163039Y-10559889D01*
X16163039Y-10559889D02*
X16163039Y-10502746D01*
X16163039Y-10502746D02*
X16172563Y-10483698D01*
X16172563Y-10483698D02*
X16182087Y-10474174D01*
X16182087Y-10474174D02*
X16201134Y-10464650D01*
X16201134Y-10464650D02*
X16229706Y-10464650D01*
X16229706Y-10464650D02*
X16248753Y-10474174D01*
X16248753Y-10474174D02*
X16258277Y-10483698D01*
X16258277Y-10483698D02*
X16267801Y-10502746D01*
X16267801Y-10502746D02*
X16267801Y-10559889D01*
X16267801Y-10559889D02*
X16258277Y-10578936D01*
X16258277Y-10578936D02*
X16248753Y-10588460D01*
X16248753Y-10588460D02*
X16229706Y-10597984D01*
X16229706Y-10597984D02*
X16201134Y-10597984D01*
X16382087Y-10597984D02*
X16363039Y-10588460D01*
X16363039Y-10588460D02*
X16353515Y-10569412D01*
X16353515Y-10569412D02*
X16353515Y-10397984D01*
X16534468Y-10588460D02*
X16515420Y-10597984D01*
X16515420Y-10597984D02*
X16477325Y-10597984D01*
X16477325Y-10597984D02*
X16458277Y-10588460D01*
X16458277Y-10588460D02*
X16448753Y-10569412D01*
X16448753Y-10569412D02*
X16448753Y-10493222D01*
X16448753Y-10493222D02*
X16458277Y-10474174D01*
X16458277Y-10474174D02*
X16477325Y-10464650D01*
X16477325Y-10464650D02*
X16515420Y-10464650D01*
X16515420Y-10464650D02*
X16534468Y-10474174D01*
X16534468Y-10474174D02*
X16543991Y-10493222D01*
X16543991Y-10493222D02*
X16543991Y-10512270D01*
X16543991Y-10512270D02*
X16448753Y-10531317D01*
X16620182Y-10588460D02*
X16639230Y-10597984D01*
X16639230Y-10597984D02*
X16677325Y-10597984D01*
X16677325Y-10597984D02*
X16696372Y-10588460D01*
X16696372Y-10588460D02*
X16705896Y-10569412D01*
X16705896Y-10569412D02*
X16705896Y-10559889D01*
X16705896Y-10559889D02*
X16696372Y-10540841D01*
X16696372Y-10540841D02*
X16677325Y-10531317D01*
X16677325Y-10531317D02*
X16648753Y-10531317D01*
X16648753Y-10531317D02*
X16629706Y-10521793D01*
X16629706Y-10521793D02*
X16620182Y-10502746D01*
X16620182Y-10502746D02*
X16620182Y-10493222D01*
X16620182Y-10493222D02*
X16629706Y-10474174D01*
X16629706Y-10474174D02*
X16648753Y-10464650D01*
X16648753Y-10464650D02*
X16677325Y-10464650D01*
X16677325Y-10464650D02*
X16696372Y-10474174D01*
X16943992Y-10521793D02*
X17096373Y-10521793D01*
X17020182Y-10597984D02*
X17020182Y-10445603D01*
X17334468Y-10417031D02*
X17343992Y-10407508D01*
X17343992Y-10407508D02*
X17363039Y-10397984D01*
X17363039Y-10397984D02*
X17410658Y-10397984D01*
X17410658Y-10397984D02*
X17429706Y-10407508D01*
X17429706Y-10407508D02*
X17439230Y-10417031D01*
X17439230Y-10417031D02*
X17448754Y-10436079D01*
X17448754Y-10436079D02*
X17448754Y-10455127D01*
X17448754Y-10455127D02*
X17439230Y-10483698D01*
X17439230Y-10483698D02*
X17324944Y-10597984D01*
X17324944Y-10597984D02*
X17448754Y-10597984D01*
X17677325Y-10588460D02*
X17696373Y-10597984D01*
X17696373Y-10597984D02*
X17734468Y-10597984D01*
X17734468Y-10597984D02*
X17753516Y-10588460D01*
X17753516Y-10588460D02*
X17763039Y-10569412D01*
X17763039Y-10569412D02*
X17763039Y-10559889D01*
X17763039Y-10559889D02*
X17753516Y-10540841D01*
X17753516Y-10540841D02*
X17734468Y-10531317D01*
X17734468Y-10531317D02*
X17705896Y-10531317D01*
X17705896Y-10531317D02*
X17686849Y-10521793D01*
X17686849Y-10521793D02*
X17677325Y-10502746D01*
X17677325Y-10502746D02*
X17677325Y-10493222D01*
X17677325Y-10493222D02*
X17686849Y-10474174D01*
X17686849Y-10474174D02*
X17705896Y-10464650D01*
X17705896Y-10464650D02*
X17734468Y-10464650D01*
X17734468Y-10464650D02*
X17753516Y-10474174D01*
X17877325Y-10597984D02*
X17858277Y-10588460D01*
X17858277Y-10588460D02*
X17848754Y-10569412D01*
X17848754Y-10569412D02*
X17848754Y-10397984D01*
X17982087Y-10597984D02*
X17963039Y-10588460D01*
X17963039Y-10588460D02*
X17953516Y-10578936D01*
X17953516Y-10578936D02*
X17943992Y-10559889D01*
X17943992Y-10559889D02*
X17943992Y-10502746D01*
X17943992Y-10502746D02*
X17953516Y-10483698D01*
X17953516Y-10483698D02*
X17963039Y-10474174D01*
X17963039Y-10474174D02*
X17982087Y-10464650D01*
X17982087Y-10464650D02*
X18010658Y-10464650D01*
X18010658Y-10464650D02*
X18029706Y-10474174D01*
X18029706Y-10474174D02*
X18039230Y-10483698D01*
X18039230Y-10483698D02*
X18048754Y-10502746D01*
X18048754Y-10502746D02*
X18048754Y-10559889D01*
X18048754Y-10559889D02*
X18039230Y-10578936D01*
X18039230Y-10578936D02*
X18029706Y-10588460D01*
X18029706Y-10588460D02*
X18010658Y-10597984D01*
X18010658Y-10597984D02*
X17982087Y-10597984D01*
X18105897Y-10464650D02*
X18182087Y-10464650D01*
X18134468Y-10397984D02*
X18134468Y-10569412D01*
X18134468Y-10569412D02*
X18143992Y-10588460D01*
X18143992Y-10588460D02*
X18163039Y-10597984D01*
X18163039Y-10597984D02*
X18182087Y-10597984D01*
X18239230Y-10588460D02*
X18258277Y-10597984D01*
X18258277Y-10597984D02*
X18296373Y-10597984D01*
X18296373Y-10597984D02*
X18315420Y-10588460D01*
X18315420Y-10588460D02*
X18324944Y-10569412D01*
X18324944Y-10569412D02*
X18324944Y-10559889D01*
X18324944Y-10559889D02*
X18315420Y-10540841D01*
X18315420Y-10540841D02*
X18296373Y-10531317D01*
X18296373Y-10531317D02*
X18267801Y-10531317D01*
X18267801Y-10531317D02*
X18248754Y-10521793D01*
X18248754Y-10521793D02*
X18239230Y-10502746D01*
X18239230Y-10502746D02*
X18239230Y-10493222D01*
X18239230Y-10493222D02*
X18248754Y-10474174D01*
X18248754Y-10474174D02*
X18267801Y-10464650D01*
X18267801Y-10464650D02*
X18296373Y-10464650D01*
X18296373Y-10464650D02*
X18315420Y-10474174D01*
X18391611Y-10674174D02*
X18401135Y-10664650D01*
X18401135Y-10664650D02*
X18420182Y-10636079D01*
X18420182Y-10636079D02*
X18429706Y-10617031D01*
X18429706Y-10617031D02*
X18439230Y-10588460D01*
X18439230Y-10588460D02*
X18448754Y-10540841D01*
X18448754Y-10540841D02*
X18448754Y-10502746D01*
X18448754Y-10502746D02*
X18439230Y-10455127D01*
X18439230Y-10455127D02*
X18429706Y-10426555D01*
X18429706Y-10426555D02*
X18420182Y-10407508D01*
X18420182Y-10407508D02*
X18401135Y-10378936D01*
X18401135Y-10378936D02*
X18391611Y-10369412D01*
D12*
X11967500Y-10740500D02*
X11967500Y-10800500D01*
X11937500Y-10770500D02*
X11997500Y-10770500D01*
D11*
X12296372Y-10661984D02*
X12315420Y-10661984D01*
X12315420Y-10661984D02*
X12334467Y-10671508D01*
X12334467Y-10671508D02*
X12343991Y-10681031D01*
X12343991Y-10681031D02*
X12353515Y-10700079D01*
X12353515Y-10700079D02*
X12363039Y-10738174D01*
X12363039Y-10738174D02*
X12363039Y-10785793D01*
X12363039Y-10785793D02*
X12353515Y-10823889D01*
X12353515Y-10823889D02*
X12343991Y-10842936D01*
X12343991Y-10842936D02*
X12334467Y-10852460D01*
X12334467Y-10852460D02*
X12315420Y-10861984D01*
X12315420Y-10861984D02*
X12296372Y-10861984D01*
X12296372Y-10861984D02*
X12277324Y-10852460D01*
X12277324Y-10852460D02*
X12267801Y-10842936D01*
X12267801Y-10842936D02*
X12258277Y-10823889D01*
X12258277Y-10823889D02*
X12248753Y-10785793D01*
X12248753Y-10785793D02*
X12248753Y-10738174D01*
X12248753Y-10738174D02*
X12258277Y-10700079D01*
X12258277Y-10700079D02*
X12267801Y-10681031D01*
X12267801Y-10681031D02*
X12277324Y-10671508D01*
X12277324Y-10671508D02*
X12296372Y-10661984D01*
X12448753Y-10842936D02*
X12458277Y-10852460D01*
X12458277Y-10852460D02*
X12448753Y-10861984D01*
X12448753Y-10861984D02*
X12439229Y-10852460D01*
X12439229Y-10852460D02*
X12448753Y-10842936D01*
X12448753Y-10842936D02*
X12448753Y-10861984D01*
X12629705Y-10661984D02*
X12591610Y-10661984D01*
X12591610Y-10661984D02*
X12572562Y-10671508D01*
X12572562Y-10671508D02*
X12563039Y-10681031D01*
X12563039Y-10681031D02*
X12543991Y-10709603D01*
X12543991Y-10709603D02*
X12534467Y-10747698D01*
X12534467Y-10747698D02*
X12534467Y-10823889D01*
X12534467Y-10823889D02*
X12543991Y-10842936D01*
X12543991Y-10842936D02*
X12553515Y-10852460D01*
X12553515Y-10852460D02*
X12572562Y-10861984D01*
X12572562Y-10861984D02*
X12610658Y-10861984D01*
X12610658Y-10861984D02*
X12629705Y-10852460D01*
X12629705Y-10852460D02*
X12639229Y-10842936D01*
X12639229Y-10842936D02*
X12648753Y-10823889D01*
X12648753Y-10823889D02*
X12648753Y-10776270D01*
X12648753Y-10776270D02*
X12639229Y-10757222D01*
X12639229Y-10757222D02*
X12629705Y-10747698D01*
X12629705Y-10747698D02*
X12610658Y-10738174D01*
X12610658Y-10738174D02*
X12572562Y-10738174D01*
X12572562Y-10738174D02*
X12553515Y-10747698D01*
X12553515Y-10747698D02*
X12543991Y-10757222D01*
X12543991Y-10757222D02*
X12534467Y-10776270D01*
X12772562Y-10661984D02*
X12791610Y-10661984D01*
X12791610Y-10661984D02*
X12810658Y-10671508D01*
X12810658Y-10671508D02*
X12820182Y-10681031D01*
X12820182Y-10681031D02*
X12829705Y-10700079D01*
X12829705Y-10700079D02*
X12839229Y-10738174D01*
X12839229Y-10738174D02*
X12839229Y-10785793D01*
X12839229Y-10785793D02*
X12829705Y-10823889D01*
X12829705Y-10823889D02*
X12820182Y-10842936D01*
X12820182Y-10842936D02*
X12810658Y-10852460D01*
X12810658Y-10852460D02*
X12791610Y-10861984D01*
X12791610Y-10861984D02*
X12772562Y-10861984D01*
X12772562Y-10861984D02*
X12753515Y-10852460D01*
X12753515Y-10852460D02*
X12743991Y-10842936D01*
X12743991Y-10842936D02*
X12734467Y-10823889D01*
X12734467Y-10823889D02*
X12724943Y-10785793D01*
X12724943Y-10785793D02*
X12724943Y-10738174D01*
X12724943Y-10738174D02*
X12734467Y-10700079D01*
X12734467Y-10700079D02*
X12743991Y-10681031D01*
X12743991Y-10681031D02*
X12753515Y-10671508D01*
X12753515Y-10671508D02*
X12772562Y-10661984D01*
X12963039Y-10661984D02*
X12982086Y-10661984D01*
X12982086Y-10661984D02*
X13001134Y-10671508D01*
X13001134Y-10671508D02*
X13010658Y-10681031D01*
X13010658Y-10681031D02*
X13020182Y-10700079D01*
X13020182Y-10700079D02*
X13029705Y-10738174D01*
X13029705Y-10738174D02*
X13029705Y-10785793D01*
X13029705Y-10785793D02*
X13020182Y-10823889D01*
X13020182Y-10823889D02*
X13010658Y-10842936D01*
X13010658Y-10842936D02*
X13001134Y-10852460D01*
X13001134Y-10852460D02*
X12982086Y-10861984D01*
X12982086Y-10861984D02*
X12963039Y-10861984D01*
X12963039Y-10861984D02*
X12943991Y-10852460D01*
X12943991Y-10852460D02*
X12934467Y-10842936D01*
X12934467Y-10842936D02*
X12924943Y-10823889D01*
X12924943Y-10823889D02*
X12915420Y-10785793D01*
X12915420Y-10785793D02*
X12915420Y-10738174D01*
X12915420Y-10738174D02*
X12924943Y-10700079D01*
X12924943Y-10700079D02*
X12934467Y-10681031D01*
X12934467Y-10681031D02*
X12943991Y-10671508D01*
X12943991Y-10671508D02*
X12963039Y-10661984D01*
X13115420Y-10861984D02*
X13115420Y-10728650D01*
X13115420Y-10747698D02*
X13124943Y-10738174D01*
X13124943Y-10738174D02*
X13143991Y-10728650D01*
X13143991Y-10728650D02*
X13172563Y-10728650D01*
X13172563Y-10728650D02*
X13191610Y-10738174D01*
X13191610Y-10738174D02*
X13201134Y-10757222D01*
X13201134Y-10757222D02*
X13201134Y-10861984D01*
X13201134Y-10757222D02*
X13210658Y-10738174D01*
X13210658Y-10738174D02*
X13229705Y-10728650D01*
X13229705Y-10728650D02*
X13258277Y-10728650D01*
X13258277Y-10728650D02*
X13277324Y-10738174D01*
X13277324Y-10738174D02*
X13286848Y-10757222D01*
X13286848Y-10757222D02*
X13286848Y-10861984D01*
X13382086Y-10861984D02*
X13382086Y-10728650D01*
X13382086Y-10747698D02*
X13391610Y-10738174D01*
X13391610Y-10738174D02*
X13410658Y-10728650D01*
X13410658Y-10728650D02*
X13439229Y-10728650D01*
X13439229Y-10728650D02*
X13458277Y-10738174D01*
X13458277Y-10738174D02*
X13467801Y-10757222D01*
X13467801Y-10757222D02*
X13467801Y-10861984D01*
X13467801Y-10757222D02*
X13477324Y-10738174D01*
X13477324Y-10738174D02*
X13496372Y-10728650D01*
X13496372Y-10728650D02*
X13524943Y-10728650D01*
X13524943Y-10728650D02*
X13543991Y-10738174D01*
X13543991Y-10738174D02*
X13553515Y-10757222D01*
X13553515Y-10757222D02*
X13553515Y-10861984D01*
X13943991Y-10652460D02*
X13772563Y-10909603D01*
X14201134Y-10661984D02*
X14220182Y-10661984D01*
X14220182Y-10661984D02*
X14239229Y-10671508D01*
X14239229Y-10671508D02*
X14248753Y-10681031D01*
X14248753Y-10681031D02*
X14258277Y-10700079D01*
X14258277Y-10700079D02*
X14267801Y-10738174D01*
X14267801Y-10738174D02*
X14267801Y-10785793D01*
X14267801Y-10785793D02*
X14258277Y-10823889D01*
X14258277Y-10823889D02*
X14248753Y-10842936D01*
X14248753Y-10842936D02*
X14239229Y-10852460D01*
X14239229Y-10852460D02*
X14220182Y-10861984D01*
X14220182Y-10861984D02*
X14201134Y-10861984D01*
X14201134Y-10861984D02*
X14182086Y-10852460D01*
X14182086Y-10852460D02*
X14172563Y-10842936D01*
X14172563Y-10842936D02*
X14163039Y-10823889D01*
X14163039Y-10823889D02*
X14153515Y-10785793D01*
X14153515Y-10785793D02*
X14153515Y-10738174D01*
X14153515Y-10738174D02*
X14163039Y-10700079D01*
X14163039Y-10700079D02*
X14172563Y-10681031D01*
X14172563Y-10681031D02*
X14182086Y-10671508D01*
X14182086Y-10671508D02*
X14201134Y-10661984D01*
X14353515Y-10842936D02*
X14363039Y-10852460D01*
X14363039Y-10852460D02*
X14353515Y-10861984D01*
X14353515Y-10861984D02*
X14343991Y-10852460D01*
X14343991Y-10852460D02*
X14353515Y-10842936D01*
X14353515Y-10842936D02*
X14353515Y-10861984D01*
X14486848Y-10661984D02*
X14505896Y-10661984D01*
X14505896Y-10661984D02*
X14524944Y-10671508D01*
X14524944Y-10671508D02*
X14534467Y-10681031D01*
X14534467Y-10681031D02*
X14543991Y-10700079D01*
X14543991Y-10700079D02*
X14553515Y-10738174D01*
X14553515Y-10738174D02*
X14553515Y-10785793D01*
X14553515Y-10785793D02*
X14543991Y-10823889D01*
X14543991Y-10823889D02*
X14534467Y-10842936D01*
X14534467Y-10842936D02*
X14524944Y-10852460D01*
X14524944Y-10852460D02*
X14505896Y-10861984D01*
X14505896Y-10861984D02*
X14486848Y-10861984D01*
X14486848Y-10861984D02*
X14467801Y-10852460D01*
X14467801Y-10852460D02*
X14458277Y-10842936D01*
X14458277Y-10842936D02*
X14448753Y-10823889D01*
X14448753Y-10823889D02*
X14439229Y-10785793D01*
X14439229Y-10785793D02*
X14439229Y-10738174D01*
X14439229Y-10738174D02*
X14448753Y-10700079D01*
X14448753Y-10700079D02*
X14458277Y-10681031D01*
X14458277Y-10681031D02*
X14467801Y-10671508D01*
X14467801Y-10671508D02*
X14486848Y-10661984D01*
X14629706Y-10681031D02*
X14639229Y-10671508D01*
X14639229Y-10671508D02*
X14658277Y-10661984D01*
X14658277Y-10661984D02*
X14705896Y-10661984D01*
X14705896Y-10661984D02*
X14724944Y-10671508D01*
X14724944Y-10671508D02*
X14734467Y-10681031D01*
X14734467Y-10681031D02*
X14743991Y-10700079D01*
X14743991Y-10700079D02*
X14743991Y-10719127D01*
X14743991Y-10719127D02*
X14734467Y-10747698D01*
X14734467Y-10747698D02*
X14620182Y-10861984D01*
X14620182Y-10861984D02*
X14743991Y-10861984D01*
X14810658Y-10661984D02*
X14934467Y-10661984D01*
X14934467Y-10661984D02*
X14867801Y-10738174D01*
X14867801Y-10738174D02*
X14896372Y-10738174D01*
X14896372Y-10738174D02*
X14915420Y-10747698D01*
X14915420Y-10747698D02*
X14924944Y-10757222D01*
X14924944Y-10757222D02*
X14934467Y-10776270D01*
X14934467Y-10776270D02*
X14934467Y-10823889D01*
X14934467Y-10823889D02*
X14924944Y-10842936D01*
X14924944Y-10842936D02*
X14915420Y-10852460D01*
X14915420Y-10852460D02*
X14896372Y-10861984D01*
X14896372Y-10861984D02*
X14839229Y-10861984D01*
X14839229Y-10861984D02*
X14820182Y-10852460D01*
X14820182Y-10852460D02*
X14810658Y-10842936D01*
X15105896Y-10661984D02*
X15067801Y-10661984D01*
X15067801Y-10661984D02*
X15048753Y-10671508D01*
X15048753Y-10671508D02*
X15039229Y-10681031D01*
X15039229Y-10681031D02*
X15020182Y-10709603D01*
X15020182Y-10709603D02*
X15010658Y-10747698D01*
X15010658Y-10747698D02*
X15010658Y-10823889D01*
X15010658Y-10823889D02*
X15020182Y-10842936D01*
X15020182Y-10842936D02*
X15029706Y-10852460D01*
X15029706Y-10852460D02*
X15048753Y-10861984D01*
X15048753Y-10861984D02*
X15086848Y-10861984D01*
X15086848Y-10861984D02*
X15105896Y-10852460D01*
X15105896Y-10852460D02*
X15115420Y-10842936D01*
X15115420Y-10842936D02*
X15124944Y-10823889D01*
X15124944Y-10823889D02*
X15124944Y-10776270D01*
X15124944Y-10776270D02*
X15115420Y-10757222D01*
X15115420Y-10757222D02*
X15105896Y-10747698D01*
X15105896Y-10747698D02*
X15086848Y-10738174D01*
X15086848Y-10738174D02*
X15048753Y-10738174D01*
X15048753Y-10738174D02*
X15029706Y-10747698D01*
X15029706Y-10747698D02*
X15020182Y-10757222D01*
X15020182Y-10757222D02*
X15010658Y-10776270D01*
X15201134Y-10661984D02*
X15201134Y-10700079D01*
X15277325Y-10661984D02*
X15277325Y-10700079D01*
X15572563Y-10938174D02*
X15563039Y-10928650D01*
X15563039Y-10928650D02*
X15543991Y-10900079D01*
X15543991Y-10900079D02*
X15534468Y-10881031D01*
X15534468Y-10881031D02*
X15524944Y-10852460D01*
X15524944Y-10852460D02*
X15515420Y-10804841D01*
X15515420Y-10804841D02*
X15515420Y-10766746D01*
X15515420Y-10766746D02*
X15524944Y-10719127D01*
X15524944Y-10719127D02*
X15534468Y-10690555D01*
X15534468Y-10690555D02*
X15543991Y-10671508D01*
X15543991Y-10671508D02*
X15563039Y-10642936D01*
X15563039Y-10642936D02*
X15572563Y-10633412D01*
X15629706Y-10661984D02*
X15753515Y-10661984D01*
X15753515Y-10661984D02*
X15686848Y-10738174D01*
X15686848Y-10738174D02*
X15715420Y-10738174D01*
X15715420Y-10738174D02*
X15734468Y-10747698D01*
X15734468Y-10747698D02*
X15743991Y-10757222D01*
X15743991Y-10757222D02*
X15753515Y-10776270D01*
X15753515Y-10776270D02*
X15753515Y-10823889D01*
X15753515Y-10823889D02*
X15743991Y-10842936D01*
X15743991Y-10842936D02*
X15734468Y-10852460D01*
X15734468Y-10852460D02*
X15715420Y-10861984D01*
X15715420Y-10861984D02*
X15658277Y-10861984D01*
X15658277Y-10861984D02*
X15639229Y-10852460D01*
X15639229Y-10852460D02*
X15629706Y-10842936D01*
X15991610Y-10861984D02*
X15991610Y-10661984D01*
X16077325Y-10861984D02*
X16077325Y-10757222D01*
X16077325Y-10757222D02*
X16067801Y-10738174D01*
X16067801Y-10738174D02*
X16048753Y-10728650D01*
X16048753Y-10728650D02*
X16020182Y-10728650D01*
X16020182Y-10728650D02*
X16001134Y-10738174D01*
X16001134Y-10738174D02*
X15991610Y-10747698D01*
X16201134Y-10861984D02*
X16182087Y-10852460D01*
X16182087Y-10852460D02*
X16172563Y-10842936D01*
X16172563Y-10842936D02*
X16163039Y-10823889D01*
X16163039Y-10823889D02*
X16163039Y-10766746D01*
X16163039Y-10766746D02*
X16172563Y-10747698D01*
X16172563Y-10747698D02*
X16182087Y-10738174D01*
X16182087Y-10738174D02*
X16201134Y-10728650D01*
X16201134Y-10728650D02*
X16229706Y-10728650D01*
X16229706Y-10728650D02*
X16248753Y-10738174D01*
X16248753Y-10738174D02*
X16258277Y-10747698D01*
X16258277Y-10747698D02*
X16267801Y-10766746D01*
X16267801Y-10766746D02*
X16267801Y-10823889D01*
X16267801Y-10823889D02*
X16258277Y-10842936D01*
X16258277Y-10842936D02*
X16248753Y-10852460D01*
X16248753Y-10852460D02*
X16229706Y-10861984D01*
X16229706Y-10861984D02*
X16201134Y-10861984D01*
X16382087Y-10861984D02*
X16363039Y-10852460D01*
X16363039Y-10852460D02*
X16353515Y-10833412D01*
X16353515Y-10833412D02*
X16353515Y-10661984D01*
X16534468Y-10852460D02*
X16515420Y-10861984D01*
X16515420Y-10861984D02*
X16477325Y-10861984D01*
X16477325Y-10861984D02*
X16458277Y-10852460D01*
X16458277Y-10852460D02*
X16448753Y-10833412D01*
X16448753Y-10833412D02*
X16448753Y-10757222D01*
X16448753Y-10757222D02*
X16458277Y-10738174D01*
X16458277Y-10738174D02*
X16477325Y-10728650D01*
X16477325Y-10728650D02*
X16515420Y-10728650D01*
X16515420Y-10728650D02*
X16534468Y-10738174D01*
X16534468Y-10738174D02*
X16543991Y-10757222D01*
X16543991Y-10757222D02*
X16543991Y-10776270D01*
X16543991Y-10776270D02*
X16448753Y-10795317D01*
X16620182Y-10852460D02*
X16639230Y-10861984D01*
X16639230Y-10861984D02*
X16677325Y-10861984D01*
X16677325Y-10861984D02*
X16696372Y-10852460D01*
X16696372Y-10852460D02*
X16705896Y-10833412D01*
X16705896Y-10833412D02*
X16705896Y-10823889D01*
X16705896Y-10823889D02*
X16696372Y-10804841D01*
X16696372Y-10804841D02*
X16677325Y-10795317D01*
X16677325Y-10795317D02*
X16648753Y-10795317D01*
X16648753Y-10795317D02*
X16629706Y-10785793D01*
X16629706Y-10785793D02*
X16620182Y-10766746D01*
X16620182Y-10766746D02*
X16620182Y-10757222D01*
X16620182Y-10757222D02*
X16629706Y-10738174D01*
X16629706Y-10738174D02*
X16648753Y-10728650D01*
X16648753Y-10728650D02*
X16677325Y-10728650D01*
X16677325Y-10728650D02*
X16696372Y-10738174D01*
X16772563Y-10938174D02*
X16782087Y-10928650D01*
X16782087Y-10928650D02*
X16801134Y-10900079D01*
X16801134Y-10900079D02*
X16810658Y-10881031D01*
X16810658Y-10881031D02*
X16820182Y-10852460D01*
X16820182Y-10852460D02*
X16829706Y-10804841D01*
X16829706Y-10804841D02*
X16829706Y-10766746D01*
X16829706Y-10766746D02*
X16820182Y-10719127D01*
X16820182Y-10719127D02*
X16810658Y-10690555D01*
X16810658Y-10690555D02*
X16801134Y-10671508D01*
X16801134Y-10671508D02*
X16782087Y-10642936D01*
X16782087Y-10642936D02*
X16772563Y-10633412D01*
D12*
X11982856Y-11069856D02*
X11982856Y-10999144D01*
X11912144Y-10999144D01*
X11912144Y-11069856D01*
X11982856Y-11069856D01*
D11*
X12363039Y-11125984D02*
X12248753Y-11125984D01*
X12305896Y-11125984D02*
X12305896Y-10925984D01*
X12305896Y-10925984D02*
X12286848Y-10954555D01*
X12286848Y-10954555D02*
X12267801Y-10973603D01*
X12267801Y-10973603D02*
X12248753Y-10983127D01*
X12448753Y-11106936D02*
X12458277Y-11116460D01*
X12458277Y-11116460D02*
X12448753Y-11125984D01*
X12448753Y-11125984D02*
X12439229Y-11116460D01*
X12439229Y-11116460D02*
X12448753Y-11106936D01*
X12448753Y-11106936D02*
X12448753Y-11125984D01*
X12582086Y-10925984D02*
X12601134Y-10925984D01*
X12601134Y-10925984D02*
X12620182Y-10935508D01*
X12620182Y-10935508D02*
X12629705Y-10945031D01*
X12629705Y-10945031D02*
X12639229Y-10964079D01*
X12639229Y-10964079D02*
X12648753Y-11002174D01*
X12648753Y-11002174D02*
X12648753Y-11049793D01*
X12648753Y-11049793D02*
X12639229Y-11087889D01*
X12639229Y-11087889D02*
X12629705Y-11106936D01*
X12629705Y-11106936D02*
X12620182Y-11116460D01*
X12620182Y-11116460D02*
X12601134Y-11125984D01*
X12601134Y-11125984D02*
X12582086Y-11125984D01*
X12582086Y-11125984D02*
X12563039Y-11116460D01*
X12563039Y-11116460D02*
X12553515Y-11106936D01*
X12553515Y-11106936D02*
X12543991Y-11087889D01*
X12543991Y-11087889D02*
X12534467Y-11049793D01*
X12534467Y-11049793D02*
X12534467Y-11002174D01*
X12534467Y-11002174D02*
X12543991Y-10964079D01*
X12543991Y-10964079D02*
X12553515Y-10945031D01*
X12553515Y-10945031D02*
X12563039Y-10935508D01*
X12563039Y-10935508D02*
X12582086Y-10925984D01*
X12772562Y-10925984D02*
X12791610Y-10925984D01*
X12791610Y-10925984D02*
X12810658Y-10935508D01*
X12810658Y-10935508D02*
X12820182Y-10945031D01*
X12820182Y-10945031D02*
X12829705Y-10964079D01*
X12829705Y-10964079D02*
X12839229Y-11002174D01*
X12839229Y-11002174D02*
X12839229Y-11049793D01*
X12839229Y-11049793D02*
X12829705Y-11087889D01*
X12829705Y-11087889D02*
X12820182Y-11106936D01*
X12820182Y-11106936D02*
X12810658Y-11116460D01*
X12810658Y-11116460D02*
X12791610Y-11125984D01*
X12791610Y-11125984D02*
X12772562Y-11125984D01*
X12772562Y-11125984D02*
X12753515Y-11116460D01*
X12753515Y-11116460D02*
X12743991Y-11106936D01*
X12743991Y-11106936D02*
X12734467Y-11087889D01*
X12734467Y-11087889D02*
X12724943Y-11049793D01*
X12724943Y-11049793D02*
X12724943Y-11002174D01*
X12724943Y-11002174D02*
X12734467Y-10964079D01*
X12734467Y-10964079D02*
X12743991Y-10945031D01*
X12743991Y-10945031D02*
X12753515Y-10935508D01*
X12753515Y-10935508D02*
X12772562Y-10925984D01*
X12963039Y-10925984D02*
X12982086Y-10925984D01*
X12982086Y-10925984D02*
X13001134Y-10935508D01*
X13001134Y-10935508D02*
X13010658Y-10945031D01*
X13010658Y-10945031D02*
X13020182Y-10964079D01*
X13020182Y-10964079D02*
X13029705Y-11002174D01*
X13029705Y-11002174D02*
X13029705Y-11049793D01*
X13029705Y-11049793D02*
X13020182Y-11087889D01*
X13020182Y-11087889D02*
X13010658Y-11106936D01*
X13010658Y-11106936D02*
X13001134Y-11116460D01*
X13001134Y-11116460D02*
X12982086Y-11125984D01*
X12982086Y-11125984D02*
X12963039Y-11125984D01*
X12963039Y-11125984D02*
X12943991Y-11116460D01*
X12943991Y-11116460D02*
X12934467Y-11106936D01*
X12934467Y-11106936D02*
X12924943Y-11087889D01*
X12924943Y-11087889D02*
X12915420Y-11049793D01*
X12915420Y-11049793D02*
X12915420Y-11002174D01*
X12915420Y-11002174D02*
X12924943Y-10964079D01*
X12924943Y-10964079D02*
X12934467Y-10945031D01*
X12934467Y-10945031D02*
X12943991Y-10935508D01*
X12943991Y-10935508D02*
X12963039Y-10925984D01*
X13115420Y-11125984D02*
X13115420Y-10992650D01*
X13115420Y-11011698D02*
X13124943Y-11002174D01*
X13124943Y-11002174D02*
X13143991Y-10992650D01*
X13143991Y-10992650D02*
X13172563Y-10992650D01*
X13172563Y-10992650D02*
X13191610Y-11002174D01*
X13191610Y-11002174D02*
X13201134Y-11021222D01*
X13201134Y-11021222D02*
X13201134Y-11125984D01*
X13201134Y-11021222D02*
X13210658Y-11002174D01*
X13210658Y-11002174D02*
X13229705Y-10992650D01*
X13229705Y-10992650D02*
X13258277Y-10992650D01*
X13258277Y-10992650D02*
X13277324Y-11002174D01*
X13277324Y-11002174D02*
X13286848Y-11021222D01*
X13286848Y-11021222D02*
X13286848Y-11125984D01*
X13382086Y-11125984D02*
X13382086Y-10992650D01*
X13382086Y-11011698D02*
X13391610Y-11002174D01*
X13391610Y-11002174D02*
X13410658Y-10992650D01*
X13410658Y-10992650D02*
X13439229Y-10992650D01*
X13439229Y-10992650D02*
X13458277Y-11002174D01*
X13458277Y-11002174D02*
X13467801Y-11021222D01*
X13467801Y-11021222D02*
X13467801Y-11125984D01*
X13467801Y-11021222D02*
X13477324Y-11002174D01*
X13477324Y-11002174D02*
X13496372Y-10992650D01*
X13496372Y-10992650D02*
X13524943Y-10992650D01*
X13524943Y-10992650D02*
X13543991Y-11002174D01*
X13543991Y-11002174D02*
X13553515Y-11021222D01*
X13553515Y-11021222D02*
X13553515Y-11125984D01*
X13943991Y-10916460D02*
X13772563Y-11173603D01*
X14201134Y-10925984D02*
X14220182Y-10925984D01*
X14220182Y-10925984D02*
X14239229Y-10935508D01*
X14239229Y-10935508D02*
X14248753Y-10945031D01*
X14248753Y-10945031D02*
X14258277Y-10964079D01*
X14258277Y-10964079D02*
X14267801Y-11002174D01*
X14267801Y-11002174D02*
X14267801Y-11049793D01*
X14267801Y-11049793D02*
X14258277Y-11087889D01*
X14258277Y-11087889D02*
X14248753Y-11106936D01*
X14248753Y-11106936D02*
X14239229Y-11116460D01*
X14239229Y-11116460D02*
X14220182Y-11125984D01*
X14220182Y-11125984D02*
X14201134Y-11125984D01*
X14201134Y-11125984D02*
X14182086Y-11116460D01*
X14182086Y-11116460D02*
X14172563Y-11106936D01*
X14172563Y-11106936D02*
X14163039Y-11087889D01*
X14163039Y-11087889D02*
X14153515Y-11049793D01*
X14153515Y-11049793D02*
X14153515Y-11002174D01*
X14153515Y-11002174D02*
X14163039Y-10964079D01*
X14163039Y-10964079D02*
X14172563Y-10945031D01*
X14172563Y-10945031D02*
X14182086Y-10935508D01*
X14182086Y-10935508D02*
X14201134Y-10925984D01*
X14353515Y-11106936D02*
X14363039Y-11116460D01*
X14363039Y-11116460D02*
X14353515Y-11125984D01*
X14353515Y-11125984D02*
X14343991Y-11116460D01*
X14343991Y-11116460D02*
X14353515Y-11106936D01*
X14353515Y-11106936D02*
X14353515Y-11125984D01*
X14486848Y-10925984D02*
X14505896Y-10925984D01*
X14505896Y-10925984D02*
X14524944Y-10935508D01*
X14524944Y-10935508D02*
X14534467Y-10945031D01*
X14534467Y-10945031D02*
X14543991Y-10964079D01*
X14543991Y-10964079D02*
X14553515Y-11002174D01*
X14553515Y-11002174D02*
X14553515Y-11049793D01*
X14553515Y-11049793D02*
X14543991Y-11087889D01*
X14543991Y-11087889D02*
X14534467Y-11106936D01*
X14534467Y-11106936D02*
X14524944Y-11116460D01*
X14524944Y-11116460D02*
X14505896Y-11125984D01*
X14505896Y-11125984D02*
X14486848Y-11125984D01*
X14486848Y-11125984D02*
X14467801Y-11116460D01*
X14467801Y-11116460D02*
X14458277Y-11106936D01*
X14458277Y-11106936D02*
X14448753Y-11087889D01*
X14448753Y-11087889D02*
X14439229Y-11049793D01*
X14439229Y-11049793D02*
X14439229Y-11002174D01*
X14439229Y-11002174D02*
X14448753Y-10964079D01*
X14448753Y-10964079D02*
X14458277Y-10945031D01*
X14458277Y-10945031D02*
X14467801Y-10935508D01*
X14467801Y-10935508D02*
X14486848Y-10925984D01*
X14620182Y-10925984D02*
X14743991Y-10925984D01*
X14743991Y-10925984D02*
X14677325Y-11002174D01*
X14677325Y-11002174D02*
X14705896Y-11002174D01*
X14705896Y-11002174D02*
X14724944Y-11011698D01*
X14724944Y-11011698D02*
X14734467Y-11021222D01*
X14734467Y-11021222D02*
X14743991Y-11040270D01*
X14743991Y-11040270D02*
X14743991Y-11087889D01*
X14743991Y-11087889D02*
X14734467Y-11106936D01*
X14734467Y-11106936D02*
X14724944Y-11116460D01*
X14724944Y-11116460D02*
X14705896Y-11125984D01*
X14705896Y-11125984D02*
X14648753Y-11125984D01*
X14648753Y-11125984D02*
X14629706Y-11116460D01*
X14629706Y-11116460D02*
X14620182Y-11106936D01*
X14839229Y-11125984D02*
X14877325Y-11125984D01*
X14877325Y-11125984D02*
X14896372Y-11116460D01*
X14896372Y-11116460D02*
X14905896Y-11106936D01*
X14905896Y-11106936D02*
X14924944Y-11078365D01*
X14924944Y-11078365D02*
X14934467Y-11040270D01*
X14934467Y-11040270D02*
X14934467Y-10964079D01*
X14934467Y-10964079D02*
X14924944Y-10945031D01*
X14924944Y-10945031D02*
X14915420Y-10935508D01*
X14915420Y-10935508D02*
X14896372Y-10925984D01*
X14896372Y-10925984D02*
X14858277Y-10925984D01*
X14858277Y-10925984D02*
X14839229Y-10935508D01*
X14839229Y-10935508D02*
X14829706Y-10945031D01*
X14829706Y-10945031D02*
X14820182Y-10964079D01*
X14820182Y-10964079D02*
X14820182Y-11011698D01*
X14820182Y-11011698D02*
X14829706Y-11030746D01*
X14829706Y-11030746D02*
X14839229Y-11040270D01*
X14839229Y-11040270D02*
X14858277Y-11049793D01*
X14858277Y-11049793D02*
X14896372Y-11049793D01*
X14896372Y-11049793D02*
X14915420Y-11040270D01*
X14915420Y-11040270D02*
X14924944Y-11030746D01*
X14924944Y-11030746D02*
X14934467Y-11011698D01*
X15105896Y-10992650D02*
X15105896Y-11125984D01*
X15058277Y-10916460D02*
X15010658Y-11059317D01*
X15010658Y-11059317D02*
X15134467Y-11059317D01*
X15201134Y-10925984D02*
X15201134Y-10964079D01*
X15277325Y-10925984D02*
X15277325Y-10964079D01*
X15572563Y-11202174D02*
X15563039Y-11192650D01*
X15563039Y-11192650D02*
X15543991Y-11164079D01*
X15543991Y-11164079D02*
X15534468Y-11145031D01*
X15534468Y-11145031D02*
X15524944Y-11116460D01*
X15524944Y-11116460D02*
X15515420Y-11068841D01*
X15515420Y-11068841D02*
X15515420Y-11030746D01*
X15515420Y-11030746D02*
X15524944Y-10983127D01*
X15524944Y-10983127D02*
X15534468Y-10954555D01*
X15534468Y-10954555D02*
X15543991Y-10935508D01*
X15543991Y-10935508D02*
X15563039Y-10906936D01*
X15563039Y-10906936D02*
X15572563Y-10897412D01*
X15629706Y-10925984D02*
X15763039Y-10925984D01*
X15763039Y-10925984D02*
X15677325Y-11125984D01*
X15991610Y-11125984D02*
X15991610Y-10925984D01*
X16077325Y-11125984D02*
X16077325Y-11021222D01*
X16077325Y-11021222D02*
X16067801Y-11002174D01*
X16067801Y-11002174D02*
X16048753Y-10992650D01*
X16048753Y-10992650D02*
X16020182Y-10992650D01*
X16020182Y-10992650D02*
X16001134Y-11002174D01*
X16001134Y-11002174D02*
X15991610Y-11011698D01*
X16201134Y-11125984D02*
X16182087Y-11116460D01*
X16182087Y-11116460D02*
X16172563Y-11106936D01*
X16172563Y-11106936D02*
X16163039Y-11087889D01*
X16163039Y-11087889D02*
X16163039Y-11030746D01*
X16163039Y-11030746D02*
X16172563Y-11011698D01*
X16172563Y-11011698D02*
X16182087Y-11002174D01*
X16182087Y-11002174D02*
X16201134Y-10992650D01*
X16201134Y-10992650D02*
X16229706Y-10992650D01*
X16229706Y-10992650D02*
X16248753Y-11002174D01*
X16248753Y-11002174D02*
X16258277Y-11011698D01*
X16258277Y-11011698D02*
X16267801Y-11030746D01*
X16267801Y-11030746D02*
X16267801Y-11087889D01*
X16267801Y-11087889D02*
X16258277Y-11106936D01*
X16258277Y-11106936D02*
X16248753Y-11116460D01*
X16248753Y-11116460D02*
X16229706Y-11125984D01*
X16229706Y-11125984D02*
X16201134Y-11125984D01*
X16382087Y-11125984D02*
X16363039Y-11116460D01*
X16363039Y-11116460D02*
X16353515Y-11097412D01*
X16353515Y-11097412D02*
X16353515Y-10925984D01*
X16534468Y-11116460D02*
X16515420Y-11125984D01*
X16515420Y-11125984D02*
X16477325Y-11125984D01*
X16477325Y-11125984D02*
X16458277Y-11116460D01*
X16458277Y-11116460D02*
X16448753Y-11097412D01*
X16448753Y-11097412D02*
X16448753Y-11021222D01*
X16448753Y-11021222D02*
X16458277Y-11002174D01*
X16458277Y-11002174D02*
X16477325Y-10992650D01*
X16477325Y-10992650D02*
X16515420Y-10992650D01*
X16515420Y-10992650D02*
X16534468Y-11002174D01*
X16534468Y-11002174D02*
X16543991Y-11021222D01*
X16543991Y-11021222D02*
X16543991Y-11040270D01*
X16543991Y-11040270D02*
X16448753Y-11059317D01*
X16620182Y-11116460D02*
X16639230Y-11125984D01*
X16639230Y-11125984D02*
X16677325Y-11125984D01*
X16677325Y-11125984D02*
X16696372Y-11116460D01*
X16696372Y-11116460D02*
X16705896Y-11097412D01*
X16705896Y-11097412D02*
X16705896Y-11087889D01*
X16705896Y-11087889D02*
X16696372Y-11068841D01*
X16696372Y-11068841D02*
X16677325Y-11059317D01*
X16677325Y-11059317D02*
X16648753Y-11059317D01*
X16648753Y-11059317D02*
X16629706Y-11049793D01*
X16629706Y-11049793D02*
X16620182Y-11030746D01*
X16620182Y-11030746D02*
X16620182Y-11021222D01*
X16620182Y-11021222D02*
X16629706Y-11002174D01*
X16629706Y-11002174D02*
X16648753Y-10992650D01*
X16648753Y-10992650D02*
X16677325Y-10992650D01*
X16677325Y-10992650D02*
X16696372Y-11002174D01*
X16772563Y-11202174D02*
X16782087Y-11192650D01*
X16782087Y-11192650D02*
X16801134Y-11164079D01*
X16801134Y-11164079D02*
X16810658Y-11145031D01*
X16810658Y-11145031D02*
X16820182Y-11116460D01*
X16820182Y-11116460D02*
X16829706Y-11068841D01*
X16829706Y-11068841D02*
X16829706Y-11030746D01*
X16829706Y-11030746D02*
X16820182Y-10983127D01*
X16820182Y-10983127D02*
X16810658Y-10954555D01*
X16810658Y-10954555D02*
X16801134Y-10935508D01*
X16801134Y-10935508D02*
X16782087Y-10906936D01*
X16782087Y-10906936D02*
X16772563Y-10897412D01*
M02*
