%TF.GenerationSoftware,KiCad,Pcbnew,8.0.7+1*%
%TF.CreationDate,2025-02-11T11:56:57+01:00*%
%TF.ProjectId,ts13_dev_kit,74733133-5f64-4657-965f-6b69742e6b69,rev?*%
%TF.SameCoordinates,Original*%
%TF.FileFunction,Drillmap*%
%TF.FilePolarity,Positive*%
%FSLAX45Y45*%
G04 Gerber Fmt 4.5, Leading zero omitted, Abs format (unit mm)*
G04 Created by KiCad (PCBNEW 8.0.7+1) date 2025-02-11 11:56:57*
%MOMM*%
%LPD*%
G01*
G04 APERTURE LIST*
%ADD10C,0.050000*%
%ADD11C,0.200000*%
%ADD12C,0.100000*%
G04 APERTURE END LIST*
D10*
X12250000Y-11000000D02*
X13750000Y-11000000D01*
X13750000Y-5000000D02*
X12250000Y-5000000D01*
X12000000Y-5250000D02*
G75*
G02*
X12250000Y-5000000I250000J0D01*
G01*
X13750000Y-5000000D02*
G75*
G02*
X14000000Y-5250000I0J-250000D01*
G01*
X12000000Y-5250000D02*
X12000000Y-10750000D01*
X12250000Y-11000000D02*
G75*
G02*
X12000000Y-10750000I0J250000D01*
G01*
X14000000Y-10750000D02*
X14000000Y-5250000D01*
X14000000Y-10750000D02*
G75*
G02*
X13750000Y-11000000I-250000J0D01*
G01*
D11*
D12*
X12900373Y-10848874D02*
X12930373Y-10878874D01*
X12930373Y-10848874D02*
X12900373Y-10878874D01*
X12120000Y-5275000D02*
G75*
G02*
X12080000Y-5275000I-20000J0D01*
G01*
X12080000Y-5275000D02*
G75*
G02*
X12120000Y-5275000I20000J0D01*
G01*
X12120000Y-5750000D02*
G75*
G02*
X12080000Y-5750000I-20000J0D01*
G01*
X12080000Y-5750000D02*
G75*
G02*
X12120000Y-5750000I20000J0D01*
G01*
X12120000Y-6500000D02*
G75*
G02*
X12080000Y-6500000I-20000J0D01*
G01*
X12080000Y-6500000D02*
G75*
G02*
X12120000Y-6500000I20000J0D01*
G01*
X12120000Y-9250000D02*
G75*
G02*
X12080000Y-9250000I-20000J0D01*
G01*
X12080000Y-9250000D02*
G75*
G02*
X12120000Y-9250000I20000J0D01*
G01*
X12120000Y-10275000D02*
G75*
G02*
X12080000Y-10275000I-20000J0D01*
G01*
X12080000Y-10275000D02*
G75*
G02*
X12120000Y-10275000I20000J0D01*
G01*
X12192000Y-8144000D02*
G75*
G02*
X12152000Y-8144000I-20000J0D01*
G01*
X12152000Y-8144000D02*
G75*
G02*
X12192000Y-8144000I20000J0D01*
G01*
X12195000Y-8975000D02*
G75*
G02*
X12155000Y-8975000I-20000J0D01*
G01*
X12155000Y-8975000D02*
G75*
G02*
X12195000Y-8975000I20000J0D01*
G01*
X12245000Y-9400000D02*
G75*
G02*
X12205000Y-9400000I-20000J0D01*
G01*
X12205000Y-9400000D02*
G75*
G02*
X12245000Y-9400000I20000J0D01*
G01*
X12291000Y-7506000D02*
G75*
G02*
X12251000Y-7506000I-20000J0D01*
G01*
X12251000Y-7506000D02*
G75*
G02*
X12291000Y-7506000I20000J0D01*
G01*
X12295000Y-5100000D02*
G75*
G02*
X12255000Y-5100000I-20000J0D01*
G01*
X12255000Y-5100000D02*
G75*
G02*
X12295000Y-5100000I20000J0D01*
G01*
X12295000Y-10900000D02*
G75*
G02*
X12255000Y-10900000I-20000J0D01*
G01*
X12255000Y-10900000D02*
G75*
G02*
X12295000Y-10900000I20000J0D01*
G01*
X12307465Y-7925048D02*
G75*
G02*
X12267465Y-7925048I-20000J0D01*
G01*
X12267465Y-7925048D02*
G75*
G02*
X12307465Y-7925048I20000J0D01*
G01*
X12348000Y-8944000D02*
G75*
G02*
X12308000Y-8944000I-20000J0D01*
G01*
X12308000Y-8944000D02*
G75*
G02*
X12348000Y-8944000I20000J0D01*
G01*
X12494000Y-8785000D02*
G75*
G02*
X12454000Y-8785000I-20000J0D01*
G01*
X12454000Y-8785000D02*
G75*
G02*
X12494000Y-8785000I20000J0D01*
G01*
X12507000Y-9046000D02*
G75*
G02*
X12467000Y-9046000I-20000J0D01*
G01*
X12467000Y-9046000D02*
G75*
G02*
X12507000Y-9046000I20000J0D01*
G01*
X12514000Y-10413000D02*
G75*
G02*
X12474000Y-10413000I-20000J0D01*
G01*
X12474000Y-10413000D02*
G75*
G02*
X12514000Y-10413000I20000J0D01*
G01*
X12607119Y-9044876D02*
G75*
G02*
X12567119Y-9044876I-20000J0D01*
G01*
X12567119Y-9044876D02*
G75*
G02*
X12607119Y-9044876I20000J0D01*
G01*
X12621000Y-10491000D02*
G75*
G02*
X12581000Y-10491000I-20000J0D01*
G01*
X12581000Y-10491000D02*
G75*
G02*
X12621000Y-10491000I20000J0D01*
G01*
X12632925Y-8486006D02*
G75*
G02*
X12592925Y-8486006I-20000J0D01*
G01*
X12592925Y-8486006D02*
G75*
G02*
X12632925Y-8486006I20000J0D01*
G01*
X12634000Y-8586000D02*
G75*
G02*
X12594000Y-8586000I-20000J0D01*
G01*
X12594000Y-8586000D02*
G75*
G02*
X12634000Y-8586000I20000J0D01*
G01*
X12650000Y-5755000D02*
G75*
G02*
X12610000Y-5755000I-20000J0D01*
G01*
X12610000Y-5755000D02*
G75*
G02*
X12650000Y-5755000I20000J0D01*
G01*
X12669000Y-8054000D02*
G75*
G02*
X12629000Y-8054000I-20000J0D01*
G01*
X12629000Y-8054000D02*
G75*
G02*
X12669000Y-8054000I20000J0D01*
G01*
X12717000Y-10528000D02*
G75*
G02*
X12677000Y-10528000I-20000J0D01*
G01*
X12677000Y-10528000D02*
G75*
G02*
X12717000Y-10528000I20000J0D01*
G01*
X12722000Y-9433000D02*
G75*
G02*
X12682000Y-9433000I-20000J0D01*
G01*
X12682000Y-9433000D02*
G75*
G02*
X12722000Y-9433000I20000J0D01*
G01*
X12787000Y-7755000D02*
G75*
G02*
X12747000Y-7755000I-20000J0D01*
G01*
X12747000Y-7755000D02*
G75*
G02*
X12787000Y-7755000I20000J0D01*
G01*
X12818000Y-10632000D02*
G75*
G02*
X12778000Y-10632000I-20000J0D01*
G01*
X12778000Y-10632000D02*
G75*
G02*
X12818000Y-10632000I20000J0D01*
G01*
X12825000Y-8476000D02*
G75*
G02*
X12785000Y-8476000I-20000J0D01*
G01*
X12785000Y-8476000D02*
G75*
G02*
X12825000Y-8476000I20000J0D01*
G01*
X12827000Y-8134000D02*
G75*
G02*
X12787000Y-8134000I-20000J0D01*
G01*
X12787000Y-8134000D02*
G75*
G02*
X12827000Y-8134000I20000J0D01*
G01*
X12863001Y-8377323D02*
G75*
G02*
X12823001Y-8377323I-20000J0D01*
G01*
X12823001Y-8377323D02*
G75*
G02*
X12863001Y-8377323I20000J0D01*
G01*
X12895000Y-10250000D02*
G75*
G02*
X12855000Y-10250000I-20000J0D01*
G01*
X12855000Y-10250000D02*
G75*
G02*
X12895000Y-10250000I20000J0D01*
G01*
X12944000Y-9435000D02*
G75*
G02*
X12904000Y-9435000I-20000J0D01*
G01*
X12904000Y-9435000D02*
G75*
G02*
X12944000Y-9435000I20000J0D01*
G01*
X12967000Y-8593000D02*
G75*
G02*
X12927000Y-8593000I-20000J0D01*
G01*
X12927000Y-8593000D02*
G75*
G02*
X12967000Y-8593000I20000J0D01*
G01*
X12973216Y-10630579D02*
G75*
G02*
X12933216Y-10630579I-20000J0D01*
G01*
X12933216Y-10630579D02*
G75*
G02*
X12973216Y-10630579I20000J0D01*
G01*
X13008000Y-9204000D02*
G75*
G02*
X12968000Y-9204000I-20000J0D01*
G01*
X12968000Y-9204000D02*
G75*
G02*
X13008000Y-9204000I20000J0D01*
G01*
X13020000Y-5100000D02*
G75*
G02*
X12980000Y-5100000I-20000J0D01*
G01*
X12980000Y-5100000D02*
G75*
G02*
X13020000Y-5100000I20000J0D01*
G01*
X13056000Y-8098000D02*
G75*
G02*
X13016000Y-8098000I-20000J0D01*
G01*
X13016000Y-8098000D02*
G75*
G02*
X13056000Y-8098000I20000J0D01*
G01*
X13073000Y-10624000D02*
G75*
G02*
X13033000Y-10624000I-20000J0D01*
G01*
X13033000Y-10624000D02*
G75*
G02*
X13073000Y-10624000I20000J0D01*
G01*
X13120000Y-5275000D02*
G75*
G02*
X13080000Y-5275000I-20000J0D01*
G01*
X13080000Y-5275000D02*
G75*
G02*
X13120000Y-5275000I20000J0D01*
G01*
X13120000Y-5392000D02*
G75*
G02*
X13080000Y-5392000I-20000J0D01*
G01*
X13080000Y-5392000D02*
G75*
G02*
X13120000Y-5392000I20000J0D01*
G01*
X13120000Y-8588000D02*
G75*
G02*
X13080000Y-8588000I-20000J0D01*
G01*
X13080000Y-8588000D02*
G75*
G02*
X13120000Y-8588000I20000J0D01*
G01*
X13157000Y-8254000D02*
G75*
G02*
X13117000Y-8254000I-20000J0D01*
G01*
X13117000Y-8254000D02*
G75*
G02*
X13157000Y-8254000I20000J0D01*
G01*
X13159000Y-8367000D02*
G75*
G02*
X13119000Y-8367000I-20000J0D01*
G01*
X13119000Y-8367000D02*
G75*
G02*
X13159000Y-8367000I20000J0D01*
G01*
X13186740Y-10623000D02*
G75*
G02*
X13146740Y-10623000I-20000J0D01*
G01*
X13146740Y-10623000D02*
G75*
G02*
X13186740Y-10623000I20000J0D01*
G01*
X13198000Y-7754000D02*
G75*
G02*
X13158000Y-7754000I-20000J0D01*
G01*
X13158000Y-7754000D02*
G75*
G02*
X13198000Y-7754000I20000J0D01*
G01*
X13204000Y-7510000D02*
G75*
G02*
X13164000Y-7510000I-20000J0D01*
G01*
X13164000Y-7510000D02*
G75*
G02*
X13204000Y-7510000I20000J0D01*
G01*
X13230000Y-5720000D02*
G75*
G02*
X13190000Y-5720000I-20000J0D01*
G01*
X13190000Y-5720000D02*
G75*
G02*
X13230000Y-5720000I20000J0D01*
G01*
X13292000Y-8803000D02*
G75*
G02*
X13252000Y-8803000I-20000J0D01*
G01*
X13252000Y-8803000D02*
G75*
G02*
X13292000Y-8803000I20000J0D01*
G01*
X13294000Y-5848000D02*
G75*
G02*
X13254000Y-5848000I-20000J0D01*
G01*
X13254000Y-5848000D02*
G75*
G02*
X13294000Y-5848000I20000J0D01*
G01*
X13420000Y-9750000D02*
G75*
G02*
X13380000Y-9750000I-20000J0D01*
G01*
X13380000Y-9750000D02*
G75*
G02*
X13420000Y-9750000I20000J0D01*
G01*
X13469000Y-7942000D02*
G75*
G02*
X13429000Y-7942000I-20000J0D01*
G01*
X13429000Y-7942000D02*
G75*
G02*
X13469000Y-7942000I20000J0D01*
G01*
X13474000Y-8808000D02*
G75*
G02*
X13434000Y-8808000I-20000J0D01*
G01*
X13434000Y-8808000D02*
G75*
G02*
X13474000Y-8808000I20000J0D01*
G01*
X13580000Y-5160000D02*
G75*
G02*
X13540000Y-5160000I-20000J0D01*
G01*
X13540000Y-5160000D02*
G75*
G02*
X13580000Y-5160000I20000J0D01*
G01*
X13680000Y-5780000D02*
G75*
G02*
X13640000Y-5780000I-20000J0D01*
G01*
X13640000Y-5780000D02*
G75*
G02*
X13680000Y-5780000I20000J0D01*
G01*
X13684000Y-7723000D02*
G75*
G02*
X13644000Y-7723000I-20000J0D01*
G01*
X13644000Y-7723000D02*
G75*
G02*
X13684000Y-7723000I20000J0D01*
G01*
X13700000Y-5260000D02*
G75*
G02*
X13660000Y-5260000I-20000J0D01*
G01*
X13660000Y-5260000D02*
G75*
G02*
X13700000Y-5260000I20000J0D01*
G01*
X13745000Y-10900000D02*
G75*
G02*
X13705000Y-10900000I-20000J0D01*
G01*
X13705000Y-10900000D02*
G75*
G02*
X13745000Y-10900000I20000J0D01*
G01*
X13820000Y-5575000D02*
G75*
G02*
X13780000Y-5575000I-20000J0D01*
G01*
X13780000Y-5575000D02*
G75*
G02*
X13820000Y-5575000I20000J0D01*
G01*
X13910000Y-5230000D02*
G75*
G02*
X13870000Y-5230000I-20000J0D01*
G01*
X13870000Y-5230000D02*
G75*
G02*
X13910000Y-5230000I20000J0D01*
G01*
X13918000Y-7846000D02*
G75*
G02*
X13878000Y-7846000I-20000J0D01*
G01*
X13878000Y-7846000D02*
G75*
G02*
X13918000Y-7846000I20000J0D01*
G01*
X13920000Y-5750000D02*
G75*
G02*
X13880000Y-5750000I-20000J0D01*
G01*
X13880000Y-5750000D02*
G75*
G02*
X13920000Y-5750000I20000J0D01*
G01*
X13920000Y-6500000D02*
G75*
G02*
X13880000Y-6500000I-20000J0D01*
G01*
X13880000Y-6500000D02*
G75*
G02*
X13920000Y-6500000I20000J0D01*
G01*
X13920000Y-8700000D02*
G75*
G02*
X13880000Y-8700000I-20000J0D01*
G01*
X13880000Y-8700000D02*
G75*
G02*
X13920000Y-8700000I20000J0D01*
G01*
X13920000Y-9250000D02*
G75*
G02*
X13880000Y-9250000I-20000J0D01*
G01*
X13880000Y-9250000D02*
G75*
G02*
X13920000Y-9250000I20000J0D01*
G01*
X13920000Y-9750000D02*
G75*
G02*
X13880000Y-9750000I-20000J0D01*
G01*
X13880000Y-9750000D02*
G75*
G02*
X13920000Y-9750000I20000J0D01*
G01*
X13920000Y-10250000D02*
G75*
G02*
X13880000Y-10250000I-20000J0D01*
G01*
X13880000Y-10250000D02*
G75*
G02*
X13920000Y-10250000I20000J0D01*
G01*
X13920000Y-10625000D02*
G75*
G02*
X13880000Y-10625000I-20000J0D01*
G01*
X13880000Y-10625000D02*
G75*
G02*
X13920000Y-10625000I20000J0D01*
G01*
X12630000Y-10735000D02*
X12630000Y-10785000D01*
X12605000Y-10760000D02*
X12655000Y-10760000D01*
X12605000Y-10720000D02*
X12605000Y-10800000D01*
X12655000Y-10800000D02*
G75*
G02*
X12605000Y-10800000I-25000J0D01*
G01*
X12655000Y-10800000D02*
X12655000Y-10720000D01*
X12655000Y-10720000D02*
G75*
G03*
X12605000Y-10720000I-25000J0D01*
G01*
X13370000Y-10735000D02*
X13370000Y-10785000D01*
X13345000Y-10760000D02*
X13395000Y-10760000D01*
X13345000Y-10720000D02*
X13345000Y-10800000D01*
X13395000Y-10800000D02*
G75*
G02*
X13345000Y-10800000I-25000J0D01*
G01*
X13395000Y-10800000D02*
X13395000Y-10720000D01*
X13395000Y-10720000D02*
G75*
G03*
X13345000Y-10720000I-25000J0D01*
G01*
X12271356Y-6160356D02*
X12271356Y-6089644D01*
X12200644Y-6089644D01*
X12200644Y-6160356D01*
X12271356Y-6160356D01*
X12525356Y-6160356D02*
X12525356Y-6089644D01*
X12454644Y-6089644D01*
X12454644Y-6160356D01*
X12525356Y-6160356D01*
X12779356Y-6160356D02*
X12779356Y-6089644D01*
X12708644Y-6089644D01*
X12708644Y-6160356D01*
X12779356Y-6160356D01*
X13033356Y-6160356D02*
X13033356Y-6089644D01*
X12962644Y-6089644D01*
X12962644Y-6160356D01*
X13033356Y-6160356D01*
X13287356Y-6160356D02*
X13287356Y-6089644D01*
X13216644Y-6089644D01*
X13216644Y-6160356D01*
X13287356Y-6160356D01*
X13541356Y-6160356D02*
X13541356Y-6089644D01*
X13470644Y-6089644D01*
X13470644Y-6160356D01*
X13541356Y-6160356D01*
X13795356Y-6160356D02*
X13795356Y-6089644D01*
X13724644Y-6089644D01*
X13724644Y-6160356D01*
X13795356Y-6160356D01*
D11*
X12258277Y-11313984D02*
X12258277Y-11113984D01*
X12258277Y-11113984D02*
X12305896Y-11113984D01*
X12305896Y-11113984D02*
X12334467Y-11123508D01*
X12334467Y-11123508D02*
X12353515Y-11142555D01*
X12353515Y-11142555D02*
X12363039Y-11161603D01*
X12363039Y-11161603D02*
X12372562Y-11199698D01*
X12372562Y-11199698D02*
X12372562Y-11228269D01*
X12372562Y-11228269D02*
X12363039Y-11266365D01*
X12363039Y-11266365D02*
X12353515Y-11285412D01*
X12353515Y-11285412D02*
X12334467Y-11304460D01*
X12334467Y-11304460D02*
X12305896Y-11313984D01*
X12305896Y-11313984D02*
X12258277Y-11313984D01*
X12458277Y-11313984D02*
X12458277Y-11180650D01*
X12458277Y-11218746D02*
X12467801Y-11199698D01*
X12467801Y-11199698D02*
X12477324Y-11190174D01*
X12477324Y-11190174D02*
X12496372Y-11180650D01*
X12496372Y-11180650D02*
X12515420Y-11180650D01*
X12582086Y-11313984D02*
X12582086Y-11180650D01*
X12582086Y-11113984D02*
X12572562Y-11123508D01*
X12572562Y-11123508D02*
X12582086Y-11133031D01*
X12582086Y-11133031D02*
X12591610Y-11123508D01*
X12591610Y-11123508D02*
X12582086Y-11113984D01*
X12582086Y-11113984D02*
X12582086Y-11133031D01*
X12705896Y-11313984D02*
X12686848Y-11304460D01*
X12686848Y-11304460D02*
X12677324Y-11285412D01*
X12677324Y-11285412D02*
X12677324Y-11113984D01*
X12810658Y-11313984D02*
X12791610Y-11304460D01*
X12791610Y-11304460D02*
X12782086Y-11285412D01*
X12782086Y-11285412D02*
X12782086Y-11113984D01*
X13039229Y-11313984D02*
X13039229Y-11113984D01*
X13039229Y-11113984D02*
X13105896Y-11256841D01*
X13105896Y-11256841D02*
X13172562Y-11113984D01*
X13172562Y-11113984D02*
X13172562Y-11313984D01*
X13353515Y-11313984D02*
X13353515Y-11209222D01*
X13353515Y-11209222D02*
X13343991Y-11190174D01*
X13343991Y-11190174D02*
X13324943Y-11180650D01*
X13324943Y-11180650D02*
X13286848Y-11180650D01*
X13286848Y-11180650D02*
X13267801Y-11190174D01*
X13353515Y-11304460D02*
X13334467Y-11313984D01*
X13334467Y-11313984D02*
X13286848Y-11313984D01*
X13286848Y-11313984D02*
X13267801Y-11304460D01*
X13267801Y-11304460D02*
X13258277Y-11285412D01*
X13258277Y-11285412D02*
X13258277Y-11266365D01*
X13258277Y-11266365D02*
X13267801Y-11247317D01*
X13267801Y-11247317D02*
X13286848Y-11237793D01*
X13286848Y-11237793D02*
X13334467Y-11237793D01*
X13334467Y-11237793D02*
X13353515Y-11228269D01*
X13448753Y-11180650D02*
X13448753Y-11380650D01*
X13448753Y-11190174D02*
X13467801Y-11180650D01*
X13467801Y-11180650D02*
X13505896Y-11180650D01*
X13505896Y-11180650D02*
X13524943Y-11190174D01*
X13524943Y-11190174D02*
X13534467Y-11199698D01*
X13534467Y-11199698D02*
X13543991Y-11218746D01*
X13543991Y-11218746D02*
X13543991Y-11275888D01*
X13543991Y-11275888D02*
X13534467Y-11294936D01*
X13534467Y-11294936D02*
X13524943Y-11304460D01*
X13524943Y-11304460D02*
X13505896Y-11313984D01*
X13505896Y-11313984D02*
X13467801Y-11313984D01*
X13467801Y-11313984D02*
X13448753Y-11304460D01*
X13629705Y-11294936D02*
X13639229Y-11304460D01*
X13639229Y-11304460D02*
X13629705Y-11313984D01*
X13629705Y-11313984D02*
X13620182Y-11304460D01*
X13620182Y-11304460D02*
X13629705Y-11294936D01*
X13629705Y-11294936D02*
X13629705Y-11313984D01*
X13629705Y-11190174D02*
X13639229Y-11199698D01*
X13639229Y-11199698D02*
X13629705Y-11209222D01*
X13629705Y-11209222D02*
X13620182Y-11199698D01*
X13620182Y-11199698D02*
X13629705Y-11190174D01*
X13629705Y-11190174D02*
X13629705Y-11209222D01*
D12*
X11967500Y-11627500D02*
X11997500Y-11657500D01*
X11997500Y-11627500D02*
X11967500Y-11657500D01*
D11*
X12296372Y-11533984D02*
X12315420Y-11533984D01*
X12315420Y-11533984D02*
X12334467Y-11543508D01*
X12334467Y-11543508D02*
X12343991Y-11553031D01*
X12343991Y-11553031D02*
X12353515Y-11572079D01*
X12353515Y-11572079D02*
X12363039Y-11610174D01*
X12363039Y-11610174D02*
X12363039Y-11657793D01*
X12363039Y-11657793D02*
X12353515Y-11695888D01*
X12353515Y-11695888D02*
X12343991Y-11714936D01*
X12343991Y-11714936D02*
X12334467Y-11724460D01*
X12334467Y-11724460D02*
X12315420Y-11733984D01*
X12315420Y-11733984D02*
X12296372Y-11733984D01*
X12296372Y-11733984D02*
X12277324Y-11724460D01*
X12277324Y-11724460D02*
X12267801Y-11714936D01*
X12267801Y-11714936D02*
X12258277Y-11695888D01*
X12258277Y-11695888D02*
X12248753Y-11657793D01*
X12248753Y-11657793D02*
X12248753Y-11610174D01*
X12248753Y-11610174D02*
X12258277Y-11572079D01*
X12258277Y-11572079D02*
X12267801Y-11553031D01*
X12267801Y-11553031D02*
X12277324Y-11543508D01*
X12277324Y-11543508D02*
X12296372Y-11533984D01*
X12448753Y-11714936D02*
X12458277Y-11724460D01*
X12458277Y-11724460D02*
X12448753Y-11733984D01*
X12448753Y-11733984D02*
X12439229Y-11724460D01*
X12439229Y-11724460D02*
X12448753Y-11714936D01*
X12448753Y-11714936D02*
X12448753Y-11733984D01*
X12524943Y-11533984D02*
X12648753Y-11533984D01*
X12648753Y-11533984D02*
X12582086Y-11610174D01*
X12582086Y-11610174D02*
X12610658Y-11610174D01*
X12610658Y-11610174D02*
X12629705Y-11619698D01*
X12629705Y-11619698D02*
X12639229Y-11629222D01*
X12639229Y-11629222D02*
X12648753Y-11648269D01*
X12648753Y-11648269D02*
X12648753Y-11695888D01*
X12648753Y-11695888D02*
X12639229Y-11714936D01*
X12639229Y-11714936D02*
X12629705Y-11724460D01*
X12629705Y-11724460D02*
X12610658Y-11733984D01*
X12610658Y-11733984D02*
X12553515Y-11733984D01*
X12553515Y-11733984D02*
X12534467Y-11724460D01*
X12534467Y-11724460D02*
X12524943Y-11714936D01*
X12772562Y-11533984D02*
X12791610Y-11533984D01*
X12791610Y-11533984D02*
X12810658Y-11543508D01*
X12810658Y-11543508D02*
X12820182Y-11553031D01*
X12820182Y-11553031D02*
X12829705Y-11572079D01*
X12829705Y-11572079D02*
X12839229Y-11610174D01*
X12839229Y-11610174D02*
X12839229Y-11657793D01*
X12839229Y-11657793D02*
X12829705Y-11695888D01*
X12829705Y-11695888D02*
X12820182Y-11714936D01*
X12820182Y-11714936D02*
X12810658Y-11724460D01*
X12810658Y-11724460D02*
X12791610Y-11733984D01*
X12791610Y-11733984D02*
X12772562Y-11733984D01*
X12772562Y-11733984D02*
X12753515Y-11724460D01*
X12753515Y-11724460D02*
X12743991Y-11714936D01*
X12743991Y-11714936D02*
X12734467Y-11695888D01*
X12734467Y-11695888D02*
X12724943Y-11657793D01*
X12724943Y-11657793D02*
X12724943Y-11610174D01*
X12724943Y-11610174D02*
X12734467Y-11572079D01*
X12734467Y-11572079D02*
X12743991Y-11553031D01*
X12743991Y-11553031D02*
X12753515Y-11543508D01*
X12753515Y-11543508D02*
X12772562Y-11533984D01*
X12963039Y-11533984D02*
X12982086Y-11533984D01*
X12982086Y-11533984D02*
X13001134Y-11543508D01*
X13001134Y-11543508D02*
X13010658Y-11553031D01*
X13010658Y-11553031D02*
X13020182Y-11572079D01*
X13020182Y-11572079D02*
X13029705Y-11610174D01*
X13029705Y-11610174D02*
X13029705Y-11657793D01*
X13029705Y-11657793D02*
X13020182Y-11695888D01*
X13020182Y-11695888D02*
X13010658Y-11714936D01*
X13010658Y-11714936D02*
X13001134Y-11724460D01*
X13001134Y-11724460D02*
X12982086Y-11733984D01*
X12982086Y-11733984D02*
X12963039Y-11733984D01*
X12963039Y-11733984D02*
X12943991Y-11724460D01*
X12943991Y-11724460D02*
X12934467Y-11714936D01*
X12934467Y-11714936D02*
X12924943Y-11695888D01*
X12924943Y-11695888D02*
X12915420Y-11657793D01*
X12915420Y-11657793D02*
X12915420Y-11610174D01*
X12915420Y-11610174D02*
X12924943Y-11572079D01*
X12924943Y-11572079D02*
X12934467Y-11553031D01*
X12934467Y-11553031D02*
X12943991Y-11543508D01*
X12943991Y-11543508D02*
X12963039Y-11533984D01*
X13115420Y-11733984D02*
X13115420Y-11600650D01*
X13115420Y-11619698D02*
X13124943Y-11610174D01*
X13124943Y-11610174D02*
X13143991Y-11600650D01*
X13143991Y-11600650D02*
X13172563Y-11600650D01*
X13172563Y-11600650D02*
X13191610Y-11610174D01*
X13191610Y-11610174D02*
X13201134Y-11629222D01*
X13201134Y-11629222D02*
X13201134Y-11733984D01*
X13201134Y-11629222D02*
X13210658Y-11610174D01*
X13210658Y-11610174D02*
X13229705Y-11600650D01*
X13229705Y-11600650D02*
X13258277Y-11600650D01*
X13258277Y-11600650D02*
X13277324Y-11610174D01*
X13277324Y-11610174D02*
X13286848Y-11629222D01*
X13286848Y-11629222D02*
X13286848Y-11733984D01*
X13382086Y-11733984D02*
X13382086Y-11600650D01*
X13382086Y-11619698D02*
X13391610Y-11610174D01*
X13391610Y-11610174D02*
X13410658Y-11600650D01*
X13410658Y-11600650D02*
X13439229Y-11600650D01*
X13439229Y-11600650D02*
X13458277Y-11610174D01*
X13458277Y-11610174D02*
X13467801Y-11629222D01*
X13467801Y-11629222D02*
X13467801Y-11733984D01*
X13467801Y-11629222D02*
X13477324Y-11610174D01*
X13477324Y-11610174D02*
X13496372Y-11600650D01*
X13496372Y-11600650D02*
X13524943Y-11600650D01*
X13524943Y-11600650D02*
X13543991Y-11610174D01*
X13543991Y-11610174D02*
X13553515Y-11629222D01*
X13553515Y-11629222D02*
X13553515Y-11733984D01*
X13943991Y-11524460D02*
X13772563Y-11781603D01*
X14201134Y-11533984D02*
X14220182Y-11533984D01*
X14220182Y-11533984D02*
X14239229Y-11543508D01*
X14239229Y-11543508D02*
X14248753Y-11553031D01*
X14248753Y-11553031D02*
X14258277Y-11572079D01*
X14258277Y-11572079D02*
X14267801Y-11610174D01*
X14267801Y-11610174D02*
X14267801Y-11657793D01*
X14267801Y-11657793D02*
X14258277Y-11695888D01*
X14258277Y-11695888D02*
X14248753Y-11714936D01*
X14248753Y-11714936D02*
X14239229Y-11724460D01*
X14239229Y-11724460D02*
X14220182Y-11733984D01*
X14220182Y-11733984D02*
X14201134Y-11733984D01*
X14201134Y-11733984D02*
X14182086Y-11724460D01*
X14182086Y-11724460D02*
X14172563Y-11714936D01*
X14172563Y-11714936D02*
X14163039Y-11695888D01*
X14163039Y-11695888D02*
X14153515Y-11657793D01*
X14153515Y-11657793D02*
X14153515Y-11610174D01*
X14153515Y-11610174D02*
X14163039Y-11572079D01*
X14163039Y-11572079D02*
X14172563Y-11553031D01*
X14172563Y-11553031D02*
X14182086Y-11543508D01*
X14182086Y-11543508D02*
X14201134Y-11533984D01*
X14353515Y-11714936D02*
X14363039Y-11724460D01*
X14363039Y-11724460D02*
X14353515Y-11733984D01*
X14353515Y-11733984D02*
X14343991Y-11724460D01*
X14343991Y-11724460D02*
X14353515Y-11714936D01*
X14353515Y-11714936D02*
X14353515Y-11733984D01*
X14486848Y-11533984D02*
X14505896Y-11533984D01*
X14505896Y-11533984D02*
X14524944Y-11543508D01*
X14524944Y-11543508D02*
X14534467Y-11553031D01*
X14534467Y-11553031D02*
X14543991Y-11572079D01*
X14543991Y-11572079D02*
X14553515Y-11610174D01*
X14553515Y-11610174D02*
X14553515Y-11657793D01*
X14553515Y-11657793D02*
X14543991Y-11695888D01*
X14543991Y-11695888D02*
X14534467Y-11714936D01*
X14534467Y-11714936D02*
X14524944Y-11724460D01*
X14524944Y-11724460D02*
X14505896Y-11733984D01*
X14505896Y-11733984D02*
X14486848Y-11733984D01*
X14486848Y-11733984D02*
X14467801Y-11724460D01*
X14467801Y-11724460D02*
X14458277Y-11714936D01*
X14458277Y-11714936D02*
X14448753Y-11695888D01*
X14448753Y-11695888D02*
X14439229Y-11657793D01*
X14439229Y-11657793D02*
X14439229Y-11610174D01*
X14439229Y-11610174D02*
X14448753Y-11572079D01*
X14448753Y-11572079D02*
X14458277Y-11553031D01*
X14458277Y-11553031D02*
X14467801Y-11543508D01*
X14467801Y-11543508D02*
X14486848Y-11533984D01*
X14743991Y-11733984D02*
X14629706Y-11733984D01*
X14686848Y-11733984D02*
X14686848Y-11533984D01*
X14686848Y-11533984D02*
X14667801Y-11562555D01*
X14667801Y-11562555D02*
X14648753Y-11581603D01*
X14648753Y-11581603D02*
X14629706Y-11591127D01*
X14934467Y-11733984D02*
X14820182Y-11733984D01*
X14877325Y-11733984D02*
X14877325Y-11533984D01*
X14877325Y-11533984D02*
X14858277Y-11562555D01*
X14858277Y-11562555D02*
X14839229Y-11581603D01*
X14839229Y-11581603D02*
X14820182Y-11591127D01*
X15048753Y-11619698D02*
X15029706Y-11610174D01*
X15029706Y-11610174D02*
X15020182Y-11600650D01*
X15020182Y-11600650D02*
X15010658Y-11581603D01*
X15010658Y-11581603D02*
X15010658Y-11572079D01*
X15010658Y-11572079D02*
X15020182Y-11553031D01*
X15020182Y-11553031D02*
X15029706Y-11543508D01*
X15029706Y-11543508D02*
X15048753Y-11533984D01*
X15048753Y-11533984D02*
X15086848Y-11533984D01*
X15086848Y-11533984D02*
X15105896Y-11543508D01*
X15105896Y-11543508D02*
X15115420Y-11553031D01*
X15115420Y-11553031D02*
X15124944Y-11572079D01*
X15124944Y-11572079D02*
X15124944Y-11581603D01*
X15124944Y-11581603D02*
X15115420Y-11600650D01*
X15115420Y-11600650D02*
X15105896Y-11610174D01*
X15105896Y-11610174D02*
X15086848Y-11619698D01*
X15086848Y-11619698D02*
X15048753Y-11619698D01*
X15048753Y-11619698D02*
X15029706Y-11629222D01*
X15029706Y-11629222D02*
X15020182Y-11638746D01*
X15020182Y-11638746D02*
X15010658Y-11657793D01*
X15010658Y-11657793D02*
X15010658Y-11695888D01*
X15010658Y-11695888D02*
X15020182Y-11714936D01*
X15020182Y-11714936D02*
X15029706Y-11724460D01*
X15029706Y-11724460D02*
X15048753Y-11733984D01*
X15048753Y-11733984D02*
X15086848Y-11733984D01*
X15086848Y-11733984D02*
X15105896Y-11724460D01*
X15105896Y-11724460D02*
X15115420Y-11714936D01*
X15115420Y-11714936D02*
X15124944Y-11695888D01*
X15124944Y-11695888D02*
X15124944Y-11657793D01*
X15124944Y-11657793D02*
X15115420Y-11638746D01*
X15115420Y-11638746D02*
X15105896Y-11629222D01*
X15105896Y-11629222D02*
X15086848Y-11619698D01*
X15201134Y-11533984D02*
X15201134Y-11572079D01*
X15277325Y-11533984D02*
X15277325Y-11572079D01*
X15572563Y-11810174D02*
X15563039Y-11800650D01*
X15563039Y-11800650D02*
X15543991Y-11772079D01*
X15543991Y-11772079D02*
X15534468Y-11753031D01*
X15534468Y-11753031D02*
X15524944Y-11724460D01*
X15524944Y-11724460D02*
X15515420Y-11676841D01*
X15515420Y-11676841D02*
X15515420Y-11638746D01*
X15515420Y-11638746D02*
X15524944Y-11591127D01*
X15524944Y-11591127D02*
X15534468Y-11562555D01*
X15534468Y-11562555D02*
X15543991Y-11543508D01*
X15543991Y-11543508D02*
X15563039Y-11514936D01*
X15563039Y-11514936D02*
X15572563Y-11505412D01*
X15753515Y-11733984D02*
X15639229Y-11733984D01*
X15696372Y-11733984D02*
X15696372Y-11533984D01*
X15696372Y-11533984D02*
X15677325Y-11562555D01*
X15677325Y-11562555D02*
X15658277Y-11581603D01*
X15658277Y-11581603D02*
X15639229Y-11591127D01*
X15991610Y-11733984D02*
X15991610Y-11533984D01*
X16077325Y-11733984D02*
X16077325Y-11629222D01*
X16077325Y-11629222D02*
X16067801Y-11610174D01*
X16067801Y-11610174D02*
X16048753Y-11600650D01*
X16048753Y-11600650D02*
X16020182Y-11600650D01*
X16020182Y-11600650D02*
X16001134Y-11610174D01*
X16001134Y-11610174D02*
X15991610Y-11619698D01*
X16201134Y-11733984D02*
X16182087Y-11724460D01*
X16182087Y-11724460D02*
X16172563Y-11714936D01*
X16172563Y-11714936D02*
X16163039Y-11695888D01*
X16163039Y-11695888D02*
X16163039Y-11638746D01*
X16163039Y-11638746D02*
X16172563Y-11619698D01*
X16172563Y-11619698D02*
X16182087Y-11610174D01*
X16182087Y-11610174D02*
X16201134Y-11600650D01*
X16201134Y-11600650D02*
X16229706Y-11600650D01*
X16229706Y-11600650D02*
X16248753Y-11610174D01*
X16248753Y-11610174D02*
X16258277Y-11619698D01*
X16258277Y-11619698D02*
X16267801Y-11638746D01*
X16267801Y-11638746D02*
X16267801Y-11695888D01*
X16267801Y-11695888D02*
X16258277Y-11714936D01*
X16258277Y-11714936D02*
X16248753Y-11724460D01*
X16248753Y-11724460D02*
X16229706Y-11733984D01*
X16229706Y-11733984D02*
X16201134Y-11733984D01*
X16382087Y-11733984D02*
X16363039Y-11724460D01*
X16363039Y-11724460D02*
X16353515Y-11705412D01*
X16353515Y-11705412D02*
X16353515Y-11533984D01*
X16534468Y-11724460D02*
X16515420Y-11733984D01*
X16515420Y-11733984D02*
X16477325Y-11733984D01*
X16477325Y-11733984D02*
X16458277Y-11724460D01*
X16458277Y-11724460D02*
X16448753Y-11705412D01*
X16448753Y-11705412D02*
X16448753Y-11629222D01*
X16448753Y-11629222D02*
X16458277Y-11610174D01*
X16458277Y-11610174D02*
X16477325Y-11600650D01*
X16477325Y-11600650D02*
X16515420Y-11600650D01*
X16515420Y-11600650D02*
X16534468Y-11610174D01*
X16534468Y-11610174D02*
X16543991Y-11629222D01*
X16543991Y-11629222D02*
X16543991Y-11648269D01*
X16543991Y-11648269D02*
X16448753Y-11667317D01*
X16610658Y-11810174D02*
X16620182Y-11800650D01*
X16620182Y-11800650D02*
X16639230Y-11772079D01*
X16639230Y-11772079D02*
X16648753Y-11753031D01*
X16648753Y-11753031D02*
X16658277Y-11724460D01*
X16658277Y-11724460D02*
X16667801Y-11676841D01*
X16667801Y-11676841D02*
X16667801Y-11638746D01*
X16667801Y-11638746D02*
X16658277Y-11591127D01*
X16658277Y-11591127D02*
X16648753Y-11562555D01*
X16648753Y-11562555D02*
X16639230Y-11543508D01*
X16639230Y-11543508D02*
X16620182Y-11514936D01*
X16620182Y-11514936D02*
X16610658Y-11505412D01*
D12*
X11997500Y-11906500D02*
G75*
G02*
X11957500Y-11906500I-20000J0D01*
G01*
X11957500Y-11906500D02*
G75*
G02*
X11997500Y-11906500I20000J0D01*
G01*
D11*
X12296372Y-11797984D02*
X12315420Y-11797984D01*
X12315420Y-11797984D02*
X12334467Y-11807508D01*
X12334467Y-11807508D02*
X12343991Y-11817031D01*
X12343991Y-11817031D02*
X12353515Y-11836079D01*
X12353515Y-11836079D02*
X12363039Y-11874174D01*
X12363039Y-11874174D02*
X12363039Y-11921793D01*
X12363039Y-11921793D02*
X12353515Y-11959888D01*
X12353515Y-11959888D02*
X12343991Y-11978936D01*
X12343991Y-11978936D02*
X12334467Y-11988460D01*
X12334467Y-11988460D02*
X12315420Y-11997984D01*
X12315420Y-11997984D02*
X12296372Y-11997984D01*
X12296372Y-11997984D02*
X12277324Y-11988460D01*
X12277324Y-11988460D02*
X12267801Y-11978936D01*
X12267801Y-11978936D02*
X12258277Y-11959888D01*
X12258277Y-11959888D02*
X12248753Y-11921793D01*
X12248753Y-11921793D02*
X12248753Y-11874174D01*
X12248753Y-11874174D02*
X12258277Y-11836079D01*
X12258277Y-11836079D02*
X12267801Y-11817031D01*
X12267801Y-11817031D02*
X12277324Y-11807508D01*
X12277324Y-11807508D02*
X12296372Y-11797984D01*
X12448753Y-11978936D02*
X12458277Y-11988460D01*
X12458277Y-11988460D02*
X12448753Y-11997984D01*
X12448753Y-11997984D02*
X12439229Y-11988460D01*
X12439229Y-11988460D02*
X12448753Y-11978936D01*
X12448753Y-11978936D02*
X12448753Y-11997984D01*
X12629705Y-11864650D02*
X12629705Y-11997984D01*
X12582086Y-11788460D02*
X12534467Y-11931317D01*
X12534467Y-11931317D02*
X12658277Y-11931317D01*
X12772562Y-11797984D02*
X12791610Y-11797984D01*
X12791610Y-11797984D02*
X12810658Y-11807508D01*
X12810658Y-11807508D02*
X12820182Y-11817031D01*
X12820182Y-11817031D02*
X12829705Y-11836079D01*
X12829705Y-11836079D02*
X12839229Y-11874174D01*
X12839229Y-11874174D02*
X12839229Y-11921793D01*
X12839229Y-11921793D02*
X12829705Y-11959888D01*
X12829705Y-11959888D02*
X12820182Y-11978936D01*
X12820182Y-11978936D02*
X12810658Y-11988460D01*
X12810658Y-11988460D02*
X12791610Y-11997984D01*
X12791610Y-11997984D02*
X12772562Y-11997984D01*
X12772562Y-11997984D02*
X12753515Y-11988460D01*
X12753515Y-11988460D02*
X12743991Y-11978936D01*
X12743991Y-11978936D02*
X12734467Y-11959888D01*
X12734467Y-11959888D02*
X12724943Y-11921793D01*
X12724943Y-11921793D02*
X12724943Y-11874174D01*
X12724943Y-11874174D02*
X12734467Y-11836079D01*
X12734467Y-11836079D02*
X12743991Y-11817031D01*
X12743991Y-11817031D02*
X12753515Y-11807508D01*
X12753515Y-11807508D02*
X12772562Y-11797984D01*
X12963039Y-11797984D02*
X12982086Y-11797984D01*
X12982086Y-11797984D02*
X13001134Y-11807508D01*
X13001134Y-11807508D02*
X13010658Y-11817031D01*
X13010658Y-11817031D02*
X13020182Y-11836079D01*
X13020182Y-11836079D02*
X13029705Y-11874174D01*
X13029705Y-11874174D02*
X13029705Y-11921793D01*
X13029705Y-11921793D02*
X13020182Y-11959888D01*
X13020182Y-11959888D02*
X13010658Y-11978936D01*
X13010658Y-11978936D02*
X13001134Y-11988460D01*
X13001134Y-11988460D02*
X12982086Y-11997984D01*
X12982086Y-11997984D02*
X12963039Y-11997984D01*
X12963039Y-11997984D02*
X12943991Y-11988460D01*
X12943991Y-11988460D02*
X12934467Y-11978936D01*
X12934467Y-11978936D02*
X12924943Y-11959888D01*
X12924943Y-11959888D02*
X12915420Y-11921793D01*
X12915420Y-11921793D02*
X12915420Y-11874174D01*
X12915420Y-11874174D02*
X12924943Y-11836079D01*
X12924943Y-11836079D02*
X12934467Y-11817031D01*
X12934467Y-11817031D02*
X12943991Y-11807508D01*
X12943991Y-11807508D02*
X12963039Y-11797984D01*
X13115420Y-11997984D02*
X13115420Y-11864650D01*
X13115420Y-11883698D02*
X13124943Y-11874174D01*
X13124943Y-11874174D02*
X13143991Y-11864650D01*
X13143991Y-11864650D02*
X13172563Y-11864650D01*
X13172563Y-11864650D02*
X13191610Y-11874174D01*
X13191610Y-11874174D02*
X13201134Y-11893222D01*
X13201134Y-11893222D02*
X13201134Y-11997984D01*
X13201134Y-11893222D02*
X13210658Y-11874174D01*
X13210658Y-11874174D02*
X13229705Y-11864650D01*
X13229705Y-11864650D02*
X13258277Y-11864650D01*
X13258277Y-11864650D02*
X13277324Y-11874174D01*
X13277324Y-11874174D02*
X13286848Y-11893222D01*
X13286848Y-11893222D02*
X13286848Y-11997984D01*
X13382086Y-11997984D02*
X13382086Y-11864650D01*
X13382086Y-11883698D02*
X13391610Y-11874174D01*
X13391610Y-11874174D02*
X13410658Y-11864650D01*
X13410658Y-11864650D02*
X13439229Y-11864650D01*
X13439229Y-11864650D02*
X13458277Y-11874174D01*
X13458277Y-11874174D02*
X13467801Y-11893222D01*
X13467801Y-11893222D02*
X13467801Y-11997984D01*
X13467801Y-11893222D02*
X13477324Y-11874174D01*
X13477324Y-11874174D02*
X13496372Y-11864650D01*
X13496372Y-11864650D02*
X13524943Y-11864650D01*
X13524943Y-11864650D02*
X13543991Y-11874174D01*
X13543991Y-11874174D02*
X13553515Y-11893222D01*
X13553515Y-11893222D02*
X13553515Y-11997984D01*
X13943991Y-11788460D02*
X13772563Y-12045603D01*
X14201134Y-11797984D02*
X14220182Y-11797984D01*
X14220182Y-11797984D02*
X14239229Y-11807508D01*
X14239229Y-11807508D02*
X14248753Y-11817031D01*
X14248753Y-11817031D02*
X14258277Y-11836079D01*
X14258277Y-11836079D02*
X14267801Y-11874174D01*
X14267801Y-11874174D02*
X14267801Y-11921793D01*
X14267801Y-11921793D02*
X14258277Y-11959888D01*
X14258277Y-11959888D02*
X14248753Y-11978936D01*
X14248753Y-11978936D02*
X14239229Y-11988460D01*
X14239229Y-11988460D02*
X14220182Y-11997984D01*
X14220182Y-11997984D02*
X14201134Y-11997984D01*
X14201134Y-11997984D02*
X14182086Y-11988460D01*
X14182086Y-11988460D02*
X14172563Y-11978936D01*
X14172563Y-11978936D02*
X14163039Y-11959888D01*
X14163039Y-11959888D02*
X14153515Y-11921793D01*
X14153515Y-11921793D02*
X14153515Y-11874174D01*
X14153515Y-11874174D02*
X14163039Y-11836079D01*
X14163039Y-11836079D02*
X14172563Y-11817031D01*
X14172563Y-11817031D02*
X14182086Y-11807508D01*
X14182086Y-11807508D02*
X14201134Y-11797984D01*
X14353515Y-11978936D02*
X14363039Y-11988460D01*
X14363039Y-11988460D02*
X14353515Y-11997984D01*
X14353515Y-11997984D02*
X14343991Y-11988460D01*
X14343991Y-11988460D02*
X14353515Y-11978936D01*
X14353515Y-11978936D02*
X14353515Y-11997984D01*
X14486848Y-11797984D02*
X14505896Y-11797984D01*
X14505896Y-11797984D02*
X14524944Y-11807508D01*
X14524944Y-11807508D02*
X14534467Y-11817031D01*
X14534467Y-11817031D02*
X14543991Y-11836079D01*
X14543991Y-11836079D02*
X14553515Y-11874174D01*
X14553515Y-11874174D02*
X14553515Y-11921793D01*
X14553515Y-11921793D02*
X14543991Y-11959888D01*
X14543991Y-11959888D02*
X14534467Y-11978936D01*
X14534467Y-11978936D02*
X14524944Y-11988460D01*
X14524944Y-11988460D02*
X14505896Y-11997984D01*
X14505896Y-11997984D02*
X14486848Y-11997984D01*
X14486848Y-11997984D02*
X14467801Y-11988460D01*
X14467801Y-11988460D02*
X14458277Y-11978936D01*
X14458277Y-11978936D02*
X14448753Y-11959888D01*
X14448753Y-11959888D02*
X14439229Y-11921793D01*
X14439229Y-11921793D02*
X14439229Y-11874174D01*
X14439229Y-11874174D02*
X14448753Y-11836079D01*
X14448753Y-11836079D02*
X14458277Y-11817031D01*
X14458277Y-11817031D02*
X14467801Y-11807508D01*
X14467801Y-11807508D02*
X14486848Y-11797984D01*
X14743991Y-11997984D02*
X14629706Y-11997984D01*
X14686848Y-11997984D02*
X14686848Y-11797984D01*
X14686848Y-11797984D02*
X14667801Y-11826555D01*
X14667801Y-11826555D02*
X14648753Y-11845603D01*
X14648753Y-11845603D02*
X14629706Y-11855127D01*
X14924944Y-11797984D02*
X14829706Y-11797984D01*
X14829706Y-11797984D02*
X14820182Y-11893222D01*
X14820182Y-11893222D02*
X14829706Y-11883698D01*
X14829706Y-11883698D02*
X14848753Y-11874174D01*
X14848753Y-11874174D02*
X14896372Y-11874174D01*
X14896372Y-11874174D02*
X14915420Y-11883698D01*
X14915420Y-11883698D02*
X14924944Y-11893222D01*
X14924944Y-11893222D02*
X14934467Y-11912269D01*
X14934467Y-11912269D02*
X14934467Y-11959888D01*
X14934467Y-11959888D02*
X14924944Y-11978936D01*
X14924944Y-11978936D02*
X14915420Y-11988460D01*
X14915420Y-11988460D02*
X14896372Y-11997984D01*
X14896372Y-11997984D02*
X14848753Y-11997984D01*
X14848753Y-11997984D02*
X14829706Y-11988460D01*
X14829706Y-11988460D02*
X14820182Y-11978936D01*
X15001134Y-11797984D02*
X15134467Y-11797984D01*
X15134467Y-11797984D02*
X15048753Y-11997984D01*
X15201134Y-11797984D02*
X15201134Y-11836079D01*
X15277325Y-11797984D02*
X15277325Y-11836079D01*
X15572563Y-12074174D02*
X15563039Y-12064650D01*
X15563039Y-12064650D02*
X15543991Y-12036079D01*
X15543991Y-12036079D02*
X15534468Y-12017031D01*
X15534468Y-12017031D02*
X15524944Y-11988460D01*
X15524944Y-11988460D02*
X15515420Y-11940841D01*
X15515420Y-11940841D02*
X15515420Y-11902746D01*
X15515420Y-11902746D02*
X15524944Y-11855127D01*
X15524944Y-11855127D02*
X15534468Y-11826555D01*
X15534468Y-11826555D02*
X15543991Y-11807508D01*
X15543991Y-11807508D02*
X15563039Y-11778936D01*
X15563039Y-11778936D02*
X15572563Y-11769412D01*
X15734468Y-11797984D02*
X15696372Y-11797984D01*
X15696372Y-11797984D02*
X15677325Y-11807508D01*
X15677325Y-11807508D02*
X15667801Y-11817031D01*
X15667801Y-11817031D02*
X15648753Y-11845603D01*
X15648753Y-11845603D02*
X15639229Y-11883698D01*
X15639229Y-11883698D02*
X15639229Y-11959888D01*
X15639229Y-11959888D02*
X15648753Y-11978936D01*
X15648753Y-11978936D02*
X15658277Y-11988460D01*
X15658277Y-11988460D02*
X15677325Y-11997984D01*
X15677325Y-11997984D02*
X15715420Y-11997984D01*
X15715420Y-11997984D02*
X15734468Y-11988460D01*
X15734468Y-11988460D02*
X15743991Y-11978936D01*
X15743991Y-11978936D02*
X15753515Y-11959888D01*
X15753515Y-11959888D02*
X15753515Y-11912269D01*
X15753515Y-11912269D02*
X15743991Y-11893222D01*
X15743991Y-11893222D02*
X15734468Y-11883698D01*
X15734468Y-11883698D02*
X15715420Y-11874174D01*
X15715420Y-11874174D02*
X15677325Y-11874174D01*
X15677325Y-11874174D02*
X15658277Y-11883698D01*
X15658277Y-11883698D02*
X15648753Y-11893222D01*
X15648753Y-11893222D02*
X15639229Y-11912269D01*
X15924944Y-11797984D02*
X15886848Y-11797984D01*
X15886848Y-11797984D02*
X15867801Y-11807508D01*
X15867801Y-11807508D02*
X15858277Y-11817031D01*
X15858277Y-11817031D02*
X15839229Y-11845603D01*
X15839229Y-11845603D02*
X15829706Y-11883698D01*
X15829706Y-11883698D02*
X15829706Y-11959888D01*
X15829706Y-11959888D02*
X15839229Y-11978936D01*
X15839229Y-11978936D02*
X15848753Y-11988460D01*
X15848753Y-11988460D02*
X15867801Y-11997984D01*
X15867801Y-11997984D02*
X15905896Y-11997984D01*
X15905896Y-11997984D02*
X15924944Y-11988460D01*
X15924944Y-11988460D02*
X15934468Y-11978936D01*
X15934468Y-11978936D02*
X15943991Y-11959888D01*
X15943991Y-11959888D02*
X15943991Y-11912269D01*
X15943991Y-11912269D02*
X15934468Y-11893222D01*
X15934468Y-11893222D02*
X15924944Y-11883698D01*
X15924944Y-11883698D02*
X15905896Y-11874174D01*
X15905896Y-11874174D02*
X15867801Y-11874174D01*
X15867801Y-11874174D02*
X15848753Y-11883698D01*
X15848753Y-11883698D02*
X15839229Y-11893222D01*
X15839229Y-11893222D02*
X15829706Y-11912269D01*
X16182087Y-11997984D02*
X16182087Y-11797984D01*
X16267801Y-11997984D02*
X16267801Y-11893222D01*
X16267801Y-11893222D02*
X16258277Y-11874174D01*
X16258277Y-11874174D02*
X16239230Y-11864650D01*
X16239230Y-11864650D02*
X16210658Y-11864650D01*
X16210658Y-11864650D02*
X16191610Y-11874174D01*
X16191610Y-11874174D02*
X16182087Y-11883698D01*
X16391610Y-11997984D02*
X16372563Y-11988460D01*
X16372563Y-11988460D02*
X16363039Y-11978936D01*
X16363039Y-11978936D02*
X16353515Y-11959888D01*
X16353515Y-11959888D02*
X16353515Y-11902746D01*
X16353515Y-11902746D02*
X16363039Y-11883698D01*
X16363039Y-11883698D02*
X16372563Y-11874174D01*
X16372563Y-11874174D02*
X16391610Y-11864650D01*
X16391610Y-11864650D02*
X16420182Y-11864650D01*
X16420182Y-11864650D02*
X16439230Y-11874174D01*
X16439230Y-11874174D02*
X16448753Y-11883698D01*
X16448753Y-11883698D02*
X16458277Y-11902746D01*
X16458277Y-11902746D02*
X16458277Y-11959888D01*
X16458277Y-11959888D02*
X16448753Y-11978936D01*
X16448753Y-11978936D02*
X16439230Y-11988460D01*
X16439230Y-11988460D02*
X16420182Y-11997984D01*
X16420182Y-11997984D02*
X16391610Y-11997984D01*
X16572563Y-11997984D02*
X16553515Y-11988460D01*
X16553515Y-11988460D02*
X16543991Y-11969412D01*
X16543991Y-11969412D02*
X16543991Y-11797984D01*
X16724944Y-11988460D02*
X16705896Y-11997984D01*
X16705896Y-11997984D02*
X16667801Y-11997984D01*
X16667801Y-11997984D02*
X16648753Y-11988460D01*
X16648753Y-11988460D02*
X16639230Y-11969412D01*
X16639230Y-11969412D02*
X16639230Y-11893222D01*
X16639230Y-11893222D02*
X16648753Y-11874174D01*
X16648753Y-11874174D02*
X16667801Y-11864650D01*
X16667801Y-11864650D02*
X16705896Y-11864650D01*
X16705896Y-11864650D02*
X16724944Y-11874174D01*
X16724944Y-11874174D02*
X16734468Y-11893222D01*
X16734468Y-11893222D02*
X16734468Y-11912269D01*
X16734468Y-11912269D02*
X16639230Y-11931317D01*
X16810658Y-11988460D02*
X16829706Y-11997984D01*
X16829706Y-11997984D02*
X16867801Y-11997984D01*
X16867801Y-11997984D02*
X16886849Y-11988460D01*
X16886849Y-11988460D02*
X16896373Y-11969412D01*
X16896373Y-11969412D02*
X16896373Y-11959888D01*
X16896373Y-11959888D02*
X16886849Y-11940841D01*
X16886849Y-11940841D02*
X16867801Y-11931317D01*
X16867801Y-11931317D02*
X16839230Y-11931317D01*
X16839230Y-11931317D02*
X16820182Y-11921793D01*
X16820182Y-11921793D02*
X16810658Y-11902746D01*
X16810658Y-11902746D02*
X16810658Y-11893222D01*
X16810658Y-11893222D02*
X16820182Y-11874174D01*
X16820182Y-11874174D02*
X16839230Y-11864650D01*
X16839230Y-11864650D02*
X16867801Y-11864650D01*
X16867801Y-11864650D02*
X16886849Y-11874174D01*
X16963039Y-12074174D02*
X16972563Y-12064650D01*
X16972563Y-12064650D02*
X16991611Y-12036079D01*
X16991611Y-12036079D02*
X17001134Y-12017031D01*
X17001134Y-12017031D02*
X17010658Y-11988460D01*
X17010658Y-11988460D02*
X17020182Y-11940841D01*
X17020182Y-11940841D02*
X17020182Y-11902746D01*
X17020182Y-11902746D02*
X17010658Y-11855127D01*
X17010658Y-11855127D02*
X17001134Y-11826555D01*
X17001134Y-11826555D02*
X16991611Y-11807508D01*
X16991611Y-11807508D02*
X16972563Y-11778936D01*
X16972563Y-11778936D02*
X16963039Y-11769412D01*
D12*
X11972500Y-12145500D02*
X11972500Y-12195500D01*
X11947500Y-12170500D02*
X11997500Y-12170500D01*
D11*
X12296372Y-12061984D02*
X12315420Y-12061984D01*
X12315420Y-12061984D02*
X12334467Y-12071508D01*
X12334467Y-12071508D02*
X12343991Y-12081031D01*
X12343991Y-12081031D02*
X12353515Y-12100079D01*
X12353515Y-12100079D02*
X12363039Y-12138174D01*
X12363039Y-12138174D02*
X12363039Y-12185793D01*
X12363039Y-12185793D02*
X12353515Y-12223888D01*
X12353515Y-12223888D02*
X12343991Y-12242936D01*
X12343991Y-12242936D02*
X12334467Y-12252460D01*
X12334467Y-12252460D02*
X12315420Y-12261984D01*
X12315420Y-12261984D02*
X12296372Y-12261984D01*
X12296372Y-12261984D02*
X12277324Y-12252460D01*
X12277324Y-12252460D02*
X12267801Y-12242936D01*
X12267801Y-12242936D02*
X12258277Y-12223888D01*
X12258277Y-12223888D02*
X12248753Y-12185793D01*
X12248753Y-12185793D02*
X12248753Y-12138174D01*
X12248753Y-12138174D02*
X12258277Y-12100079D01*
X12258277Y-12100079D02*
X12267801Y-12081031D01*
X12267801Y-12081031D02*
X12277324Y-12071508D01*
X12277324Y-12071508D02*
X12296372Y-12061984D01*
X12448753Y-12242936D02*
X12458277Y-12252460D01*
X12458277Y-12252460D02*
X12448753Y-12261984D01*
X12448753Y-12261984D02*
X12439229Y-12252460D01*
X12439229Y-12252460D02*
X12448753Y-12242936D01*
X12448753Y-12242936D02*
X12448753Y-12261984D01*
X12639229Y-12061984D02*
X12543991Y-12061984D01*
X12543991Y-12061984D02*
X12534467Y-12157222D01*
X12534467Y-12157222D02*
X12543991Y-12147698D01*
X12543991Y-12147698D02*
X12563039Y-12138174D01*
X12563039Y-12138174D02*
X12610658Y-12138174D01*
X12610658Y-12138174D02*
X12629705Y-12147698D01*
X12629705Y-12147698D02*
X12639229Y-12157222D01*
X12639229Y-12157222D02*
X12648753Y-12176269D01*
X12648753Y-12176269D02*
X12648753Y-12223888D01*
X12648753Y-12223888D02*
X12639229Y-12242936D01*
X12639229Y-12242936D02*
X12629705Y-12252460D01*
X12629705Y-12252460D02*
X12610658Y-12261984D01*
X12610658Y-12261984D02*
X12563039Y-12261984D01*
X12563039Y-12261984D02*
X12543991Y-12252460D01*
X12543991Y-12252460D02*
X12534467Y-12242936D01*
X12772562Y-12061984D02*
X12791610Y-12061984D01*
X12791610Y-12061984D02*
X12810658Y-12071508D01*
X12810658Y-12071508D02*
X12820182Y-12081031D01*
X12820182Y-12081031D02*
X12829705Y-12100079D01*
X12829705Y-12100079D02*
X12839229Y-12138174D01*
X12839229Y-12138174D02*
X12839229Y-12185793D01*
X12839229Y-12185793D02*
X12829705Y-12223888D01*
X12829705Y-12223888D02*
X12820182Y-12242936D01*
X12820182Y-12242936D02*
X12810658Y-12252460D01*
X12810658Y-12252460D02*
X12791610Y-12261984D01*
X12791610Y-12261984D02*
X12772562Y-12261984D01*
X12772562Y-12261984D02*
X12753515Y-12252460D01*
X12753515Y-12252460D02*
X12743991Y-12242936D01*
X12743991Y-12242936D02*
X12734467Y-12223888D01*
X12734467Y-12223888D02*
X12724943Y-12185793D01*
X12724943Y-12185793D02*
X12724943Y-12138174D01*
X12724943Y-12138174D02*
X12734467Y-12100079D01*
X12734467Y-12100079D02*
X12743991Y-12081031D01*
X12743991Y-12081031D02*
X12753515Y-12071508D01*
X12753515Y-12071508D02*
X12772562Y-12061984D01*
X12963039Y-12061984D02*
X12982086Y-12061984D01*
X12982086Y-12061984D02*
X13001134Y-12071508D01*
X13001134Y-12071508D02*
X13010658Y-12081031D01*
X13010658Y-12081031D02*
X13020182Y-12100079D01*
X13020182Y-12100079D02*
X13029705Y-12138174D01*
X13029705Y-12138174D02*
X13029705Y-12185793D01*
X13029705Y-12185793D02*
X13020182Y-12223888D01*
X13020182Y-12223888D02*
X13010658Y-12242936D01*
X13010658Y-12242936D02*
X13001134Y-12252460D01*
X13001134Y-12252460D02*
X12982086Y-12261984D01*
X12982086Y-12261984D02*
X12963039Y-12261984D01*
X12963039Y-12261984D02*
X12943991Y-12252460D01*
X12943991Y-12252460D02*
X12934467Y-12242936D01*
X12934467Y-12242936D02*
X12924943Y-12223888D01*
X12924943Y-12223888D02*
X12915420Y-12185793D01*
X12915420Y-12185793D02*
X12915420Y-12138174D01*
X12915420Y-12138174D02*
X12924943Y-12100079D01*
X12924943Y-12100079D02*
X12934467Y-12081031D01*
X12934467Y-12081031D02*
X12943991Y-12071508D01*
X12943991Y-12071508D02*
X12963039Y-12061984D01*
X13115420Y-12261984D02*
X13115420Y-12128650D01*
X13115420Y-12147698D02*
X13124943Y-12138174D01*
X13124943Y-12138174D02*
X13143991Y-12128650D01*
X13143991Y-12128650D02*
X13172563Y-12128650D01*
X13172563Y-12128650D02*
X13191610Y-12138174D01*
X13191610Y-12138174D02*
X13201134Y-12157222D01*
X13201134Y-12157222D02*
X13201134Y-12261984D01*
X13201134Y-12157222D02*
X13210658Y-12138174D01*
X13210658Y-12138174D02*
X13229705Y-12128650D01*
X13229705Y-12128650D02*
X13258277Y-12128650D01*
X13258277Y-12128650D02*
X13277324Y-12138174D01*
X13277324Y-12138174D02*
X13286848Y-12157222D01*
X13286848Y-12157222D02*
X13286848Y-12261984D01*
X13382086Y-12261984D02*
X13382086Y-12128650D01*
X13382086Y-12147698D02*
X13391610Y-12138174D01*
X13391610Y-12138174D02*
X13410658Y-12128650D01*
X13410658Y-12128650D02*
X13439229Y-12128650D01*
X13439229Y-12128650D02*
X13458277Y-12138174D01*
X13458277Y-12138174D02*
X13467801Y-12157222D01*
X13467801Y-12157222D02*
X13467801Y-12261984D01*
X13467801Y-12157222D02*
X13477324Y-12138174D01*
X13477324Y-12138174D02*
X13496372Y-12128650D01*
X13496372Y-12128650D02*
X13524943Y-12128650D01*
X13524943Y-12128650D02*
X13543991Y-12138174D01*
X13543991Y-12138174D02*
X13553515Y-12157222D01*
X13553515Y-12157222D02*
X13553515Y-12261984D01*
X13943991Y-12052460D02*
X13772563Y-12309603D01*
X14201134Y-12061984D02*
X14220182Y-12061984D01*
X14220182Y-12061984D02*
X14239229Y-12071508D01*
X14239229Y-12071508D02*
X14248753Y-12081031D01*
X14248753Y-12081031D02*
X14258277Y-12100079D01*
X14258277Y-12100079D02*
X14267801Y-12138174D01*
X14267801Y-12138174D02*
X14267801Y-12185793D01*
X14267801Y-12185793D02*
X14258277Y-12223888D01*
X14258277Y-12223888D02*
X14248753Y-12242936D01*
X14248753Y-12242936D02*
X14239229Y-12252460D01*
X14239229Y-12252460D02*
X14220182Y-12261984D01*
X14220182Y-12261984D02*
X14201134Y-12261984D01*
X14201134Y-12261984D02*
X14182086Y-12252460D01*
X14182086Y-12252460D02*
X14172563Y-12242936D01*
X14172563Y-12242936D02*
X14163039Y-12223888D01*
X14163039Y-12223888D02*
X14153515Y-12185793D01*
X14153515Y-12185793D02*
X14153515Y-12138174D01*
X14153515Y-12138174D02*
X14163039Y-12100079D01*
X14163039Y-12100079D02*
X14172563Y-12081031D01*
X14172563Y-12081031D02*
X14182086Y-12071508D01*
X14182086Y-12071508D02*
X14201134Y-12061984D01*
X14353515Y-12242936D02*
X14363039Y-12252460D01*
X14363039Y-12252460D02*
X14353515Y-12261984D01*
X14353515Y-12261984D02*
X14343991Y-12252460D01*
X14343991Y-12252460D02*
X14353515Y-12242936D01*
X14353515Y-12242936D02*
X14353515Y-12261984D01*
X14486848Y-12061984D02*
X14505896Y-12061984D01*
X14505896Y-12061984D02*
X14524944Y-12071508D01*
X14524944Y-12071508D02*
X14534467Y-12081031D01*
X14534467Y-12081031D02*
X14543991Y-12100079D01*
X14543991Y-12100079D02*
X14553515Y-12138174D01*
X14553515Y-12138174D02*
X14553515Y-12185793D01*
X14553515Y-12185793D02*
X14543991Y-12223888D01*
X14543991Y-12223888D02*
X14534467Y-12242936D01*
X14534467Y-12242936D02*
X14524944Y-12252460D01*
X14524944Y-12252460D02*
X14505896Y-12261984D01*
X14505896Y-12261984D02*
X14486848Y-12261984D01*
X14486848Y-12261984D02*
X14467801Y-12252460D01*
X14467801Y-12252460D02*
X14458277Y-12242936D01*
X14458277Y-12242936D02*
X14448753Y-12223888D01*
X14448753Y-12223888D02*
X14439229Y-12185793D01*
X14439229Y-12185793D02*
X14439229Y-12138174D01*
X14439229Y-12138174D02*
X14448753Y-12100079D01*
X14448753Y-12100079D02*
X14458277Y-12081031D01*
X14458277Y-12081031D02*
X14467801Y-12071508D01*
X14467801Y-12071508D02*
X14486848Y-12061984D01*
X14743991Y-12261984D02*
X14629706Y-12261984D01*
X14686848Y-12261984D02*
X14686848Y-12061984D01*
X14686848Y-12061984D02*
X14667801Y-12090555D01*
X14667801Y-12090555D02*
X14648753Y-12109603D01*
X14648753Y-12109603D02*
X14629706Y-12119127D01*
X14839229Y-12261984D02*
X14877325Y-12261984D01*
X14877325Y-12261984D02*
X14896372Y-12252460D01*
X14896372Y-12252460D02*
X14905896Y-12242936D01*
X14905896Y-12242936D02*
X14924944Y-12214365D01*
X14924944Y-12214365D02*
X14934467Y-12176269D01*
X14934467Y-12176269D02*
X14934467Y-12100079D01*
X14934467Y-12100079D02*
X14924944Y-12081031D01*
X14924944Y-12081031D02*
X14915420Y-12071508D01*
X14915420Y-12071508D02*
X14896372Y-12061984D01*
X14896372Y-12061984D02*
X14858277Y-12061984D01*
X14858277Y-12061984D02*
X14839229Y-12071508D01*
X14839229Y-12071508D02*
X14829706Y-12081031D01*
X14829706Y-12081031D02*
X14820182Y-12100079D01*
X14820182Y-12100079D02*
X14820182Y-12147698D01*
X14820182Y-12147698D02*
X14829706Y-12166746D01*
X14829706Y-12166746D02*
X14839229Y-12176269D01*
X14839229Y-12176269D02*
X14858277Y-12185793D01*
X14858277Y-12185793D02*
X14896372Y-12185793D01*
X14896372Y-12185793D02*
X14915420Y-12176269D01*
X14915420Y-12176269D02*
X14924944Y-12166746D01*
X14924944Y-12166746D02*
X14934467Y-12147698D01*
X15001134Y-12061984D02*
X15134467Y-12061984D01*
X15134467Y-12061984D02*
X15048753Y-12261984D01*
X15201134Y-12061984D02*
X15201134Y-12100079D01*
X15277325Y-12061984D02*
X15277325Y-12100079D01*
X15572563Y-12338174D02*
X15563039Y-12328650D01*
X15563039Y-12328650D02*
X15543991Y-12300079D01*
X15543991Y-12300079D02*
X15534468Y-12281031D01*
X15534468Y-12281031D02*
X15524944Y-12252460D01*
X15524944Y-12252460D02*
X15515420Y-12204841D01*
X15515420Y-12204841D02*
X15515420Y-12166746D01*
X15515420Y-12166746D02*
X15524944Y-12119127D01*
X15524944Y-12119127D02*
X15534468Y-12090555D01*
X15534468Y-12090555D02*
X15543991Y-12071508D01*
X15543991Y-12071508D02*
X15563039Y-12042936D01*
X15563039Y-12042936D02*
X15572563Y-12033412D01*
X15686848Y-12061984D02*
X15705896Y-12061984D01*
X15705896Y-12061984D02*
X15724944Y-12071508D01*
X15724944Y-12071508D02*
X15734468Y-12081031D01*
X15734468Y-12081031D02*
X15743991Y-12100079D01*
X15743991Y-12100079D02*
X15753515Y-12138174D01*
X15753515Y-12138174D02*
X15753515Y-12185793D01*
X15753515Y-12185793D02*
X15743991Y-12223888D01*
X15743991Y-12223888D02*
X15734468Y-12242936D01*
X15734468Y-12242936D02*
X15724944Y-12252460D01*
X15724944Y-12252460D02*
X15705896Y-12261984D01*
X15705896Y-12261984D02*
X15686848Y-12261984D01*
X15686848Y-12261984D02*
X15667801Y-12252460D01*
X15667801Y-12252460D02*
X15658277Y-12242936D01*
X15658277Y-12242936D02*
X15648753Y-12223888D01*
X15648753Y-12223888D02*
X15639229Y-12185793D01*
X15639229Y-12185793D02*
X15639229Y-12138174D01*
X15639229Y-12138174D02*
X15648753Y-12100079D01*
X15648753Y-12100079D02*
X15658277Y-12081031D01*
X15658277Y-12081031D02*
X15667801Y-12071508D01*
X15667801Y-12071508D02*
X15686848Y-12061984D01*
X15991610Y-12261984D02*
X15991610Y-12061984D01*
X16077325Y-12261984D02*
X16077325Y-12157222D01*
X16077325Y-12157222D02*
X16067801Y-12138174D01*
X16067801Y-12138174D02*
X16048753Y-12128650D01*
X16048753Y-12128650D02*
X16020182Y-12128650D01*
X16020182Y-12128650D02*
X16001134Y-12138174D01*
X16001134Y-12138174D02*
X15991610Y-12147698D01*
X16201134Y-12261984D02*
X16182087Y-12252460D01*
X16182087Y-12252460D02*
X16172563Y-12242936D01*
X16172563Y-12242936D02*
X16163039Y-12223888D01*
X16163039Y-12223888D02*
X16163039Y-12166746D01*
X16163039Y-12166746D02*
X16172563Y-12147698D01*
X16172563Y-12147698D02*
X16182087Y-12138174D01*
X16182087Y-12138174D02*
X16201134Y-12128650D01*
X16201134Y-12128650D02*
X16229706Y-12128650D01*
X16229706Y-12128650D02*
X16248753Y-12138174D01*
X16248753Y-12138174D02*
X16258277Y-12147698D01*
X16258277Y-12147698D02*
X16267801Y-12166746D01*
X16267801Y-12166746D02*
X16267801Y-12223888D01*
X16267801Y-12223888D02*
X16258277Y-12242936D01*
X16258277Y-12242936D02*
X16248753Y-12252460D01*
X16248753Y-12252460D02*
X16229706Y-12261984D01*
X16229706Y-12261984D02*
X16201134Y-12261984D01*
X16382087Y-12261984D02*
X16363039Y-12252460D01*
X16363039Y-12252460D02*
X16353515Y-12233412D01*
X16353515Y-12233412D02*
X16353515Y-12061984D01*
X16534468Y-12252460D02*
X16515420Y-12261984D01*
X16515420Y-12261984D02*
X16477325Y-12261984D01*
X16477325Y-12261984D02*
X16458277Y-12252460D01*
X16458277Y-12252460D02*
X16448753Y-12233412D01*
X16448753Y-12233412D02*
X16448753Y-12157222D01*
X16448753Y-12157222D02*
X16458277Y-12138174D01*
X16458277Y-12138174D02*
X16477325Y-12128650D01*
X16477325Y-12128650D02*
X16515420Y-12128650D01*
X16515420Y-12128650D02*
X16534468Y-12138174D01*
X16534468Y-12138174D02*
X16543991Y-12157222D01*
X16543991Y-12157222D02*
X16543991Y-12176269D01*
X16543991Y-12176269D02*
X16448753Y-12195317D01*
X16620182Y-12252460D02*
X16639230Y-12261984D01*
X16639230Y-12261984D02*
X16677325Y-12261984D01*
X16677325Y-12261984D02*
X16696372Y-12252460D01*
X16696372Y-12252460D02*
X16705896Y-12233412D01*
X16705896Y-12233412D02*
X16705896Y-12223888D01*
X16705896Y-12223888D02*
X16696372Y-12204841D01*
X16696372Y-12204841D02*
X16677325Y-12195317D01*
X16677325Y-12195317D02*
X16648753Y-12195317D01*
X16648753Y-12195317D02*
X16629706Y-12185793D01*
X16629706Y-12185793D02*
X16620182Y-12166746D01*
X16620182Y-12166746D02*
X16620182Y-12157222D01*
X16620182Y-12157222D02*
X16629706Y-12138174D01*
X16629706Y-12138174D02*
X16648753Y-12128650D01*
X16648753Y-12128650D02*
X16677325Y-12128650D01*
X16677325Y-12128650D02*
X16696372Y-12138174D01*
X16943992Y-12185793D02*
X17096373Y-12185793D01*
X17020182Y-12261984D02*
X17020182Y-12109603D01*
X17334468Y-12081031D02*
X17343992Y-12071508D01*
X17343992Y-12071508D02*
X17363039Y-12061984D01*
X17363039Y-12061984D02*
X17410658Y-12061984D01*
X17410658Y-12061984D02*
X17429706Y-12071508D01*
X17429706Y-12071508D02*
X17439230Y-12081031D01*
X17439230Y-12081031D02*
X17448754Y-12100079D01*
X17448754Y-12100079D02*
X17448754Y-12119127D01*
X17448754Y-12119127D02*
X17439230Y-12147698D01*
X17439230Y-12147698D02*
X17324944Y-12261984D01*
X17324944Y-12261984D02*
X17448754Y-12261984D01*
X17677325Y-12252460D02*
X17696373Y-12261984D01*
X17696373Y-12261984D02*
X17734468Y-12261984D01*
X17734468Y-12261984D02*
X17753516Y-12252460D01*
X17753516Y-12252460D02*
X17763039Y-12233412D01*
X17763039Y-12233412D02*
X17763039Y-12223888D01*
X17763039Y-12223888D02*
X17753516Y-12204841D01*
X17753516Y-12204841D02*
X17734468Y-12195317D01*
X17734468Y-12195317D02*
X17705896Y-12195317D01*
X17705896Y-12195317D02*
X17686849Y-12185793D01*
X17686849Y-12185793D02*
X17677325Y-12166746D01*
X17677325Y-12166746D02*
X17677325Y-12157222D01*
X17677325Y-12157222D02*
X17686849Y-12138174D01*
X17686849Y-12138174D02*
X17705896Y-12128650D01*
X17705896Y-12128650D02*
X17734468Y-12128650D01*
X17734468Y-12128650D02*
X17753516Y-12138174D01*
X17877325Y-12261984D02*
X17858277Y-12252460D01*
X17858277Y-12252460D02*
X17848754Y-12233412D01*
X17848754Y-12233412D02*
X17848754Y-12061984D01*
X17982087Y-12261984D02*
X17963039Y-12252460D01*
X17963039Y-12252460D02*
X17953516Y-12242936D01*
X17953516Y-12242936D02*
X17943992Y-12223888D01*
X17943992Y-12223888D02*
X17943992Y-12166746D01*
X17943992Y-12166746D02*
X17953516Y-12147698D01*
X17953516Y-12147698D02*
X17963039Y-12138174D01*
X17963039Y-12138174D02*
X17982087Y-12128650D01*
X17982087Y-12128650D02*
X18010658Y-12128650D01*
X18010658Y-12128650D02*
X18029706Y-12138174D01*
X18029706Y-12138174D02*
X18039230Y-12147698D01*
X18039230Y-12147698D02*
X18048754Y-12166746D01*
X18048754Y-12166746D02*
X18048754Y-12223888D01*
X18048754Y-12223888D02*
X18039230Y-12242936D01*
X18039230Y-12242936D02*
X18029706Y-12252460D01*
X18029706Y-12252460D02*
X18010658Y-12261984D01*
X18010658Y-12261984D02*
X17982087Y-12261984D01*
X18105897Y-12128650D02*
X18182087Y-12128650D01*
X18134468Y-12061984D02*
X18134468Y-12233412D01*
X18134468Y-12233412D02*
X18143992Y-12252460D01*
X18143992Y-12252460D02*
X18163039Y-12261984D01*
X18163039Y-12261984D02*
X18182087Y-12261984D01*
X18239230Y-12252460D02*
X18258277Y-12261984D01*
X18258277Y-12261984D02*
X18296373Y-12261984D01*
X18296373Y-12261984D02*
X18315420Y-12252460D01*
X18315420Y-12252460D02*
X18324944Y-12233412D01*
X18324944Y-12233412D02*
X18324944Y-12223888D01*
X18324944Y-12223888D02*
X18315420Y-12204841D01*
X18315420Y-12204841D02*
X18296373Y-12195317D01*
X18296373Y-12195317D02*
X18267801Y-12195317D01*
X18267801Y-12195317D02*
X18248754Y-12185793D01*
X18248754Y-12185793D02*
X18239230Y-12166746D01*
X18239230Y-12166746D02*
X18239230Y-12157222D01*
X18239230Y-12157222D02*
X18248754Y-12138174D01*
X18248754Y-12138174D02*
X18267801Y-12128650D01*
X18267801Y-12128650D02*
X18296373Y-12128650D01*
X18296373Y-12128650D02*
X18315420Y-12138174D01*
X18391611Y-12338174D02*
X18401135Y-12328650D01*
X18401135Y-12328650D02*
X18420182Y-12300079D01*
X18420182Y-12300079D02*
X18429706Y-12281031D01*
X18429706Y-12281031D02*
X18439230Y-12252460D01*
X18439230Y-12252460D02*
X18448754Y-12204841D01*
X18448754Y-12204841D02*
X18448754Y-12166746D01*
X18448754Y-12166746D02*
X18439230Y-12119127D01*
X18439230Y-12119127D02*
X18429706Y-12090555D01*
X18429706Y-12090555D02*
X18420182Y-12071508D01*
X18420182Y-12071508D02*
X18401135Y-12042936D01*
X18401135Y-12042936D02*
X18391611Y-12033412D01*
D12*
X11982856Y-12469856D02*
X11982856Y-12399144D01*
X11912144Y-12399144D01*
X11912144Y-12469856D01*
X11982856Y-12469856D01*
D11*
X12363039Y-12525984D02*
X12248753Y-12525984D01*
X12305896Y-12525984D02*
X12305896Y-12325984D01*
X12305896Y-12325984D02*
X12286848Y-12354555D01*
X12286848Y-12354555D02*
X12267801Y-12373603D01*
X12267801Y-12373603D02*
X12248753Y-12383127D01*
X12448753Y-12506936D02*
X12458277Y-12516460D01*
X12458277Y-12516460D02*
X12448753Y-12525984D01*
X12448753Y-12525984D02*
X12439229Y-12516460D01*
X12439229Y-12516460D02*
X12448753Y-12506936D01*
X12448753Y-12506936D02*
X12448753Y-12525984D01*
X12582086Y-12325984D02*
X12601134Y-12325984D01*
X12601134Y-12325984D02*
X12620182Y-12335508D01*
X12620182Y-12335508D02*
X12629705Y-12345031D01*
X12629705Y-12345031D02*
X12639229Y-12364079D01*
X12639229Y-12364079D02*
X12648753Y-12402174D01*
X12648753Y-12402174D02*
X12648753Y-12449793D01*
X12648753Y-12449793D02*
X12639229Y-12487888D01*
X12639229Y-12487888D02*
X12629705Y-12506936D01*
X12629705Y-12506936D02*
X12620182Y-12516460D01*
X12620182Y-12516460D02*
X12601134Y-12525984D01*
X12601134Y-12525984D02*
X12582086Y-12525984D01*
X12582086Y-12525984D02*
X12563039Y-12516460D01*
X12563039Y-12516460D02*
X12553515Y-12506936D01*
X12553515Y-12506936D02*
X12543991Y-12487888D01*
X12543991Y-12487888D02*
X12534467Y-12449793D01*
X12534467Y-12449793D02*
X12534467Y-12402174D01*
X12534467Y-12402174D02*
X12543991Y-12364079D01*
X12543991Y-12364079D02*
X12553515Y-12345031D01*
X12553515Y-12345031D02*
X12563039Y-12335508D01*
X12563039Y-12335508D02*
X12582086Y-12325984D01*
X12772562Y-12325984D02*
X12791610Y-12325984D01*
X12791610Y-12325984D02*
X12810658Y-12335508D01*
X12810658Y-12335508D02*
X12820182Y-12345031D01*
X12820182Y-12345031D02*
X12829705Y-12364079D01*
X12829705Y-12364079D02*
X12839229Y-12402174D01*
X12839229Y-12402174D02*
X12839229Y-12449793D01*
X12839229Y-12449793D02*
X12829705Y-12487888D01*
X12829705Y-12487888D02*
X12820182Y-12506936D01*
X12820182Y-12506936D02*
X12810658Y-12516460D01*
X12810658Y-12516460D02*
X12791610Y-12525984D01*
X12791610Y-12525984D02*
X12772562Y-12525984D01*
X12772562Y-12525984D02*
X12753515Y-12516460D01*
X12753515Y-12516460D02*
X12743991Y-12506936D01*
X12743991Y-12506936D02*
X12734467Y-12487888D01*
X12734467Y-12487888D02*
X12724943Y-12449793D01*
X12724943Y-12449793D02*
X12724943Y-12402174D01*
X12724943Y-12402174D02*
X12734467Y-12364079D01*
X12734467Y-12364079D02*
X12743991Y-12345031D01*
X12743991Y-12345031D02*
X12753515Y-12335508D01*
X12753515Y-12335508D02*
X12772562Y-12325984D01*
X12963039Y-12325984D02*
X12982086Y-12325984D01*
X12982086Y-12325984D02*
X13001134Y-12335508D01*
X13001134Y-12335508D02*
X13010658Y-12345031D01*
X13010658Y-12345031D02*
X13020182Y-12364079D01*
X13020182Y-12364079D02*
X13029705Y-12402174D01*
X13029705Y-12402174D02*
X13029705Y-12449793D01*
X13029705Y-12449793D02*
X13020182Y-12487888D01*
X13020182Y-12487888D02*
X13010658Y-12506936D01*
X13010658Y-12506936D02*
X13001134Y-12516460D01*
X13001134Y-12516460D02*
X12982086Y-12525984D01*
X12982086Y-12525984D02*
X12963039Y-12525984D01*
X12963039Y-12525984D02*
X12943991Y-12516460D01*
X12943991Y-12516460D02*
X12934467Y-12506936D01*
X12934467Y-12506936D02*
X12924943Y-12487888D01*
X12924943Y-12487888D02*
X12915420Y-12449793D01*
X12915420Y-12449793D02*
X12915420Y-12402174D01*
X12915420Y-12402174D02*
X12924943Y-12364079D01*
X12924943Y-12364079D02*
X12934467Y-12345031D01*
X12934467Y-12345031D02*
X12943991Y-12335508D01*
X12943991Y-12335508D02*
X12963039Y-12325984D01*
X13115420Y-12525984D02*
X13115420Y-12392650D01*
X13115420Y-12411698D02*
X13124943Y-12402174D01*
X13124943Y-12402174D02*
X13143991Y-12392650D01*
X13143991Y-12392650D02*
X13172563Y-12392650D01*
X13172563Y-12392650D02*
X13191610Y-12402174D01*
X13191610Y-12402174D02*
X13201134Y-12421222D01*
X13201134Y-12421222D02*
X13201134Y-12525984D01*
X13201134Y-12421222D02*
X13210658Y-12402174D01*
X13210658Y-12402174D02*
X13229705Y-12392650D01*
X13229705Y-12392650D02*
X13258277Y-12392650D01*
X13258277Y-12392650D02*
X13277324Y-12402174D01*
X13277324Y-12402174D02*
X13286848Y-12421222D01*
X13286848Y-12421222D02*
X13286848Y-12525984D01*
X13382086Y-12525984D02*
X13382086Y-12392650D01*
X13382086Y-12411698D02*
X13391610Y-12402174D01*
X13391610Y-12402174D02*
X13410658Y-12392650D01*
X13410658Y-12392650D02*
X13439229Y-12392650D01*
X13439229Y-12392650D02*
X13458277Y-12402174D01*
X13458277Y-12402174D02*
X13467801Y-12421222D01*
X13467801Y-12421222D02*
X13467801Y-12525984D01*
X13467801Y-12421222D02*
X13477324Y-12402174D01*
X13477324Y-12402174D02*
X13496372Y-12392650D01*
X13496372Y-12392650D02*
X13524943Y-12392650D01*
X13524943Y-12392650D02*
X13543991Y-12402174D01*
X13543991Y-12402174D02*
X13553515Y-12421222D01*
X13553515Y-12421222D02*
X13553515Y-12525984D01*
X13943991Y-12316460D02*
X13772563Y-12573603D01*
X14201134Y-12325984D02*
X14220182Y-12325984D01*
X14220182Y-12325984D02*
X14239229Y-12335508D01*
X14239229Y-12335508D02*
X14248753Y-12345031D01*
X14248753Y-12345031D02*
X14258277Y-12364079D01*
X14258277Y-12364079D02*
X14267801Y-12402174D01*
X14267801Y-12402174D02*
X14267801Y-12449793D01*
X14267801Y-12449793D02*
X14258277Y-12487888D01*
X14258277Y-12487888D02*
X14248753Y-12506936D01*
X14248753Y-12506936D02*
X14239229Y-12516460D01*
X14239229Y-12516460D02*
X14220182Y-12525984D01*
X14220182Y-12525984D02*
X14201134Y-12525984D01*
X14201134Y-12525984D02*
X14182086Y-12516460D01*
X14182086Y-12516460D02*
X14172563Y-12506936D01*
X14172563Y-12506936D02*
X14163039Y-12487888D01*
X14163039Y-12487888D02*
X14153515Y-12449793D01*
X14153515Y-12449793D02*
X14153515Y-12402174D01*
X14153515Y-12402174D02*
X14163039Y-12364079D01*
X14163039Y-12364079D02*
X14172563Y-12345031D01*
X14172563Y-12345031D02*
X14182086Y-12335508D01*
X14182086Y-12335508D02*
X14201134Y-12325984D01*
X14353515Y-12506936D02*
X14363039Y-12516460D01*
X14363039Y-12516460D02*
X14353515Y-12525984D01*
X14353515Y-12525984D02*
X14343991Y-12516460D01*
X14343991Y-12516460D02*
X14353515Y-12506936D01*
X14353515Y-12506936D02*
X14353515Y-12525984D01*
X14486848Y-12325984D02*
X14505896Y-12325984D01*
X14505896Y-12325984D02*
X14524944Y-12335508D01*
X14524944Y-12335508D02*
X14534467Y-12345031D01*
X14534467Y-12345031D02*
X14543991Y-12364079D01*
X14543991Y-12364079D02*
X14553515Y-12402174D01*
X14553515Y-12402174D02*
X14553515Y-12449793D01*
X14553515Y-12449793D02*
X14543991Y-12487888D01*
X14543991Y-12487888D02*
X14534467Y-12506936D01*
X14534467Y-12506936D02*
X14524944Y-12516460D01*
X14524944Y-12516460D02*
X14505896Y-12525984D01*
X14505896Y-12525984D02*
X14486848Y-12525984D01*
X14486848Y-12525984D02*
X14467801Y-12516460D01*
X14467801Y-12516460D02*
X14458277Y-12506936D01*
X14458277Y-12506936D02*
X14448753Y-12487888D01*
X14448753Y-12487888D02*
X14439229Y-12449793D01*
X14439229Y-12449793D02*
X14439229Y-12402174D01*
X14439229Y-12402174D02*
X14448753Y-12364079D01*
X14448753Y-12364079D02*
X14458277Y-12345031D01*
X14458277Y-12345031D02*
X14467801Y-12335508D01*
X14467801Y-12335508D02*
X14486848Y-12325984D01*
X14620182Y-12325984D02*
X14743991Y-12325984D01*
X14743991Y-12325984D02*
X14677325Y-12402174D01*
X14677325Y-12402174D02*
X14705896Y-12402174D01*
X14705896Y-12402174D02*
X14724944Y-12411698D01*
X14724944Y-12411698D02*
X14734467Y-12421222D01*
X14734467Y-12421222D02*
X14743991Y-12440269D01*
X14743991Y-12440269D02*
X14743991Y-12487888D01*
X14743991Y-12487888D02*
X14734467Y-12506936D01*
X14734467Y-12506936D02*
X14724944Y-12516460D01*
X14724944Y-12516460D02*
X14705896Y-12525984D01*
X14705896Y-12525984D02*
X14648753Y-12525984D01*
X14648753Y-12525984D02*
X14629706Y-12516460D01*
X14629706Y-12516460D02*
X14620182Y-12506936D01*
X14839229Y-12525984D02*
X14877325Y-12525984D01*
X14877325Y-12525984D02*
X14896372Y-12516460D01*
X14896372Y-12516460D02*
X14905896Y-12506936D01*
X14905896Y-12506936D02*
X14924944Y-12478365D01*
X14924944Y-12478365D02*
X14934467Y-12440269D01*
X14934467Y-12440269D02*
X14934467Y-12364079D01*
X14934467Y-12364079D02*
X14924944Y-12345031D01*
X14924944Y-12345031D02*
X14915420Y-12335508D01*
X14915420Y-12335508D02*
X14896372Y-12325984D01*
X14896372Y-12325984D02*
X14858277Y-12325984D01*
X14858277Y-12325984D02*
X14839229Y-12335508D01*
X14839229Y-12335508D02*
X14829706Y-12345031D01*
X14829706Y-12345031D02*
X14820182Y-12364079D01*
X14820182Y-12364079D02*
X14820182Y-12411698D01*
X14820182Y-12411698D02*
X14829706Y-12430746D01*
X14829706Y-12430746D02*
X14839229Y-12440269D01*
X14839229Y-12440269D02*
X14858277Y-12449793D01*
X14858277Y-12449793D02*
X14896372Y-12449793D01*
X14896372Y-12449793D02*
X14915420Y-12440269D01*
X14915420Y-12440269D02*
X14924944Y-12430746D01*
X14924944Y-12430746D02*
X14934467Y-12411698D01*
X15105896Y-12392650D02*
X15105896Y-12525984D01*
X15058277Y-12316460D02*
X15010658Y-12459317D01*
X15010658Y-12459317D02*
X15134467Y-12459317D01*
X15201134Y-12325984D02*
X15201134Y-12364079D01*
X15277325Y-12325984D02*
X15277325Y-12364079D01*
X15572563Y-12602174D02*
X15563039Y-12592650D01*
X15563039Y-12592650D02*
X15543991Y-12564079D01*
X15543991Y-12564079D02*
X15534468Y-12545031D01*
X15534468Y-12545031D02*
X15524944Y-12516460D01*
X15524944Y-12516460D02*
X15515420Y-12468841D01*
X15515420Y-12468841D02*
X15515420Y-12430746D01*
X15515420Y-12430746D02*
X15524944Y-12383127D01*
X15524944Y-12383127D02*
X15534468Y-12354555D01*
X15534468Y-12354555D02*
X15543991Y-12335508D01*
X15543991Y-12335508D02*
X15563039Y-12306936D01*
X15563039Y-12306936D02*
X15572563Y-12297412D01*
X15629706Y-12325984D02*
X15763039Y-12325984D01*
X15763039Y-12325984D02*
X15677325Y-12525984D01*
X15991610Y-12525984D02*
X15991610Y-12325984D01*
X16077325Y-12525984D02*
X16077325Y-12421222D01*
X16077325Y-12421222D02*
X16067801Y-12402174D01*
X16067801Y-12402174D02*
X16048753Y-12392650D01*
X16048753Y-12392650D02*
X16020182Y-12392650D01*
X16020182Y-12392650D02*
X16001134Y-12402174D01*
X16001134Y-12402174D02*
X15991610Y-12411698D01*
X16201134Y-12525984D02*
X16182087Y-12516460D01*
X16182087Y-12516460D02*
X16172563Y-12506936D01*
X16172563Y-12506936D02*
X16163039Y-12487888D01*
X16163039Y-12487888D02*
X16163039Y-12430746D01*
X16163039Y-12430746D02*
X16172563Y-12411698D01*
X16172563Y-12411698D02*
X16182087Y-12402174D01*
X16182087Y-12402174D02*
X16201134Y-12392650D01*
X16201134Y-12392650D02*
X16229706Y-12392650D01*
X16229706Y-12392650D02*
X16248753Y-12402174D01*
X16248753Y-12402174D02*
X16258277Y-12411698D01*
X16258277Y-12411698D02*
X16267801Y-12430746D01*
X16267801Y-12430746D02*
X16267801Y-12487888D01*
X16267801Y-12487888D02*
X16258277Y-12506936D01*
X16258277Y-12506936D02*
X16248753Y-12516460D01*
X16248753Y-12516460D02*
X16229706Y-12525984D01*
X16229706Y-12525984D02*
X16201134Y-12525984D01*
X16382087Y-12525984D02*
X16363039Y-12516460D01*
X16363039Y-12516460D02*
X16353515Y-12497412D01*
X16353515Y-12497412D02*
X16353515Y-12325984D01*
X16534468Y-12516460D02*
X16515420Y-12525984D01*
X16515420Y-12525984D02*
X16477325Y-12525984D01*
X16477325Y-12525984D02*
X16458277Y-12516460D01*
X16458277Y-12516460D02*
X16448753Y-12497412D01*
X16448753Y-12497412D02*
X16448753Y-12421222D01*
X16448753Y-12421222D02*
X16458277Y-12402174D01*
X16458277Y-12402174D02*
X16477325Y-12392650D01*
X16477325Y-12392650D02*
X16515420Y-12392650D01*
X16515420Y-12392650D02*
X16534468Y-12402174D01*
X16534468Y-12402174D02*
X16543991Y-12421222D01*
X16543991Y-12421222D02*
X16543991Y-12440269D01*
X16543991Y-12440269D02*
X16448753Y-12459317D01*
X16620182Y-12516460D02*
X16639230Y-12525984D01*
X16639230Y-12525984D02*
X16677325Y-12525984D01*
X16677325Y-12525984D02*
X16696372Y-12516460D01*
X16696372Y-12516460D02*
X16705896Y-12497412D01*
X16705896Y-12497412D02*
X16705896Y-12487888D01*
X16705896Y-12487888D02*
X16696372Y-12468841D01*
X16696372Y-12468841D02*
X16677325Y-12459317D01*
X16677325Y-12459317D02*
X16648753Y-12459317D01*
X16648753Y-12459317D02*
X16629706Y-12449793D01*
X16629706Y-12449793D02*
X16620182Y-12430746D01*
X16620182Y-12430746D02*
X16620182Y-12421222D01*
X16620182Y-12421222D02*
X16629706Y-12402174D01*
X16629706Y-12402174D02*
X16648753Y-12392650D01*
X16648753Y-12392650D02*
X16677325Y-12392650D01*
X16677325Y-12392650D02*
X16696372Y-12402174D01*
X16772563Y-12602174D02*
X16782087Y-12592650D01*
X16782087Y-12592650D02*
X16801134Y-12564079D01*
X16801134Y-12564079D02*
X16810658Y-12545031D01*
X16810658Y-12545031D02*
X16820182Y-12516460D01*
X16820182Y-12516460D02*
X16829706Y-12468841D01*
X16829706Y-12468841D02*
X16829706Y-12430746D01*
X16829706Y-12430746D02*
X16820182Y-12383127D01*
X16820182Y-12383127D02*
X16810658Y-12354555D01*
X16810658Y-12354555D02*
X16801134Y-12335508D01*
X16801134Y-12335508D02*
X16782087Y-12306936D01*
X16782087Y-12306936D02*
X16772563Y-12297412D01*
M02*
