%TF.GenerationSoftware,KiCad,Pcbnew,9.0.0+1*%
%TF.CreationDate,2025-04-22T17:16:52+02:00*%
%TF.ProjectId,ts13_dev_kit,74733133-5f64-4657-965f-6b69742e6b69,rev?*%
%TF.SameCoordinates,Original*%
%TF.FileFunction,Legend,Bot*%
%TF.FilePolarity,Positive*%
%FSLAX46Y46*%
G04 Gerber Fmt 4.6, Leading zero omitted, Abs format (unit mm)*
G04 Created by KiCad (PCBNEW 9.0.0+1) date 2025-04-22 17:16:52*
%MOMM*%
%LPD*%
G01*
G04 APERTURE LIST*
%ADD10C,0.150000*%
%ADD11C,0.200000*%
%ADD12C,0.120000*%
%ADD13C,0.000000*%
G04 APERTURE END LIST*
D10*
X123510839Y-77157200D02*
X123367982Y-77204819D01*
X123367982Y-77204819D02*
X123129887Y-77204819D01*
X123129887Y-77204819D02*
X123034649Y-77157200D01*
X123034649Y-77157200D02*
X122987030Y-77109580D01*
X122987030Y-77109580D02*
X122939411Y-77014342D01*
X122939411Y-77014342D02*
X122939411Y-76919104D01*
X122939411Y-76919104D02*
X122987030Y-76823866D01*
X122987030Y-76823866D02*
X123034649Y-76776247D01*
X123034649Y-76776247D02*
X123129887Y-76728628D01*
X123129887Y-76728628D02*
X123320363Y-76681009D01*
X123320363Y-76681009D02*
X123415601Y-76633390D01*
X123415601Y-76633390D02*
X123463220Y-76585771D01*
X123463220Y-76585771D02*
X123510839Y-76490533D01*
X123510839Y-76490533D02*
X123510839Y-76395295D01*
X123510839Y-76395295D02*
X123463220Y-76300057D01*
X123463220Y-76300057D02*
X123415601Y-76252438D01*
X123415601Y-76252438D02*
X123320363Y-76204819D01*
X123320363Y-76204819D02*
X123082268Y-76204819D01*
X123082268Y-76204819D02*
X122939411Y-76252438D01*
X122606077Y-76204819D02*
X122367982Y-77204819D01*
X122367982Y-77204819D02*
X122177506Y-76490533D01*
X122177506Y-76490533D02*
X121987030Y-77204819D01*
X121987030Y-77204819D02*
X121748935Y-76204819D01*
X120796554Y-77109580D02*
X120844173Y-77157200D01*
X120844173Y-77157200D02*
X120987030Y-77204819D01*
X120987030Y-77204819D02*
X121082268Y-77204819D01*
X121082268Y-77204819D02*
X121225125Y-77157200D01*
X121225125Y-77157200D02*
X121320363Y-77061961D01*
X121320363Y-77061961D02*
X121367982Y-76966723D01*
X121367982Y-76966723D02*
X121415601Y-76776247D01*
X121415601Y-76776247D02*
X121415601Y-76633390D01*
X121415601Y-76633390D02*
X121367982Y-76442914D01*
X121367982Y-76442914D02*
X121320363Y-76347676D01*
X121320363Y-76347676D02*
X121225125Y-76252438D01*
X121225125Y-76252438D02*
X121082268Y-76204819D01*
X121082268Y-76204819D02*
X120987030Y-76204819D01*
X120987030Y-76204819D02*
X120844173Y-76252438D01*
X120844173Y-76252438D02*
X120796554Y-76300057D01*
X132112800Y-59960839D02*
X132065180Y-59817982D01*
X132065180Y-59817982D02*
X132065180Y-59579887D01*
X132065180Y-59579887D02*
X132112800Y-59484649D01*
X132112800Y-59484649D02*
X132160419Y-59437030D01*
X132160419Y-59437030D02*
X132255657Y-59389411D01*
X132255657Y-59389411D02*
X132350895Y-59389411D01*
X132350895Y-59389411D02*
X132446133Y-59437030D01*
X132446133Y-59437030D02*
X132493752Y-59484649D01*
X132493752Y-59484649D02*
X132541371Y-59579887D01*
X132541371Y-59579887D02*
X132588990Y-59770363D01*
X132588990Y-59770363D02*
X132636609Y-59865601D01*
X132636609Y-59865601D02*
X132684228Y-59913220D01*
X132684228Y-59913220D02*
X132779466Y-59960839D01*
X132779466Y-59960839D02*
X132874704Y-59960839D01*
X132874704Y-59960839D02*
X132969942Y-59913220D01*
X132969942Y-59913220D02*
X133017561Y-59865601D01*
X133017561Y-59865601D02*
X133065180Y-59770363D01*
X133065180Y-59770363D02*
X133065180Y-59532268D01*
X133065180Y-59532268D02*
X133017561Y-59389411D01*
X132160419Y-58389411D02*
X132112800Y-58437030D01*
X132112800Y-58437030D02*
X132065180Y-58579887D01*
X132065180Y-58579887D02*
X132065180Y-58675125D01*
X132065180Y-58675125D02*
X132112800Y-58817982D01*
X132112800Y-58817982D02*
X132208038Y-58913220D01*
X132208038Y-58913220D02*
X132303276Y-58960839D01*
X132303276Y-58960839D02*
X132493752Y-59008458D01*
X132493752Y-59008458D02*
X132636609Y-59008458D01*
X132636609Y-59008458D02*
X132827085Y-58960839D01*
X132827085Y-58960839D02*
X132922323Y-58913220D01*
X132922323Y-58913220D02*
X133017561Y-58817982D01*
X133017561Y-58817982D02*
X133065180Y-58675125D01*
X133065180Y-58675125D02*
X133065180Y-58579887D01*
X133065180Y-58579887D02*
X133017561Y-58437030D01*
X133017561Y-58437030D02*
X132969942Y-58389411D01*
X132065180Y-57960839D02*
X133065180Y-57960839D01*
X132065180Y-57389411D02*
X132636609Y-57817982D01*
X133065180Y-57389411D02*
X132493752Y-57960839D01*
X123410839Y-74607200D02*
X123267982Y-74654819D01*
X123267982Y-74654819D02*
X123029887Y-74654819D01*
X123029887Y-74654819D02*
X122934649Y-74607200D01*
X122934649Y-74607200D02*
X122887030Y-74559580D01*
X122887030Y-74559580D02*
X122839411Y-74464342D01*
X122839411Y-74464342D02*
X122839411Y-74369104D01*
X122839411Y-74369104D02*
X122887030Y-74273866D01*
X122887030Y-74273866D02*
X122934649Y-74226247D01*
X122934649Y-74226247D02*
X123029887Y-74178628D01*
X123029887Y-74178628D02*
X123220363Y-74131009D01*
X123220363Y-74131009D02*
X123315601Y-74083390D01*
X123315601Y-74083390D02*
X123363220Y-74035771D01*
X123363220Y-74035771D02*
X123410839Y-73940533D01*
X123410839Y-73940533D02*
X123410839Y-73845295D01*
X123410839Y-73845295D02*
X123363220Y-73750057D01*
X123363220Y-73750057D02*
X123315601Y-73702438D01*
X123315601Y-73702438D02*
X123220363Y-73654819D01*
X123220363Y-73654819D02*
X122982268Y-73654819D01*
X122982268Y-73654819D02*
X122839411Y-73702438D01*
X122506077Y-73654819D02*
X122267982Y-74654819D01*
X122267982Y-74654819D02*
X122077506Y-73940533D01*
X122077506Y-73940533D02*
X121887030Y-74654819D01*
X121887030Y-74654819D02*
X121648935Y-73654819D01*
X121267982Y-74654819D02*
X121267982Y-73654819D01*
X121267982Y-73654819D02*
X121029887Y-73654819D01*
X121029887Y-73654819D02*
X120887030Y-73702438D01*
X120887030Y-73702438D02*
X120791792Y-73797676D01*
X120791792Y-73797676D02*
X120744173Y-73892914D01*
X120744173Y-73892914D02*
X120696554Y-74083390D01*
X120696554Y-74083390D02*
X120696554Y-74226247D01*
X120696554Y-74226247D02*
X120744173Y-74416723D01*
X120744173Y-74416723D02*
X120791792Y-74511961D01*
X120791792Y-74511961D02*
X120887030Y-74607200D01*
X120887030Y-74607200D02*
X121029887Y-74654819D01*
X121029887Y-74654819D02*
X121267982Y-74654819D01*
X135986077Y-81789819D02*
X135652744Y-82789819D01*
X135652744Y-82789819D02*
X135319411Y-81789819D01*
X134414649Y-82694580D02*
X134462268Y-82742200D01*
X134462268Y-82742200D02*
X134605125Y-82789819D01*
X134605125Y-82789819D02*
X134700363Y-82789819D01*
X134700363Y-82789819D02*
X134843220Y-82742200D01*
X134843220Y-82742200D02*
X134938458Y-82646961D01*
X134938458Y-82646961D02*
X134986077Y-82551723D01*
X134986077Y-82551723D02*
X135033696Y-82361247D01*
X135033696Y-82361247D02*
X135033696Y-82218390D01*
X135033696Y-82218390D02*
X134986077Y-82027914D01*
X134986077Y-82027914D02*
X134938458Y-81932676D01*
X134938458Y-81932676D02*
X134843220Y-81837438D01*
X134843220Y-81837438D02*
X134700363Y-81789819D01*
X134700363Y-81789819D02*
X134605125Y-81789819D01*
X134605125Y-81789819D02*
X134462268Y-81837438D01*
X134462268Y-81837438D02*
X134414649Y-81885057D01*
X133414649Y-82694580D02*
X133462268Y-82742200D01*
X133462268Y-82742200D02*
X133605125Y-82789819D01*
X133605125Y-82789819D02*
X133700363Y-82789819D01*
X133700363Y-82789819D02*
X133843220Y-82742200D01*
X133843220Y-82742200D02*
X133938458Y-82646961D01*
X133938458Y-82646961D02*
X133986077Y-82551723D01*
X133986077Y-82551723D02*
X134033696Y-82361247D01*
X134033696Y-82361247D02*
X134033696Y-82218390D01*
X134033696Y-82218390D02*
X133986077Y-82027914D01*
X133986077Y-82027914D02*
X133938458Y-81932676D01*
X133938458Y-81932676D02*
X133843220Y-81837438D01*
X133843220Y-81837438D02*
X133700363Y-81789819D01*
X133700363Y-81789819D02*
X133605125Y-81789819D01*
X133605125Y-81789819D02*
X133462268Y-81837438D01*
X133462268Y-81837438D02*
X133414649Y-81885057D01*
X138097561Y-59389411D02*
X138145180Y-59484649D01*
X138145180Y-59484649D02*
X138145180Y-59627506D01*
X138145180Y-59627506D02*
X138097561Y-59770363D01*
X138097561Y-59770363D02*
X138002323Y-59865601D01*
X138002323Y-59865601D02*
X137907085Y-59913220D01*
X137907085Y-59913220D02*
X137716609Y-59960839D01*
X137716609Y-59960839D02*
X137573752Y-59960839D01*
X137573752Y-59960839D02*
X137383276Y-59913220D01*
X137383276Y-59913220D02*
X137288038Y-59865601D01*
X137288038Y-59865601D02*
X137192800Y-59770363D01*
X137192800Y-59770363D02*
X137145180Y-59627506D01*
X137145180Y-59627506D02*
X137145180Y-59532268D01*
X137145180Y-59532268D02*
X137192800Y-59389411D01*
X137192800Y-59389411D02*
X137240419Y-59341792D01*
X137240419Y-59341792D02*
X137573752Y-59341792D01*
X137573752Y-59341792D02*
X137573752Y-59532268D01*
X137145180Y-58913220D02*
X138145180Y-58913220D01*
X138145180Y-58913220D02*
X137145180Y-58341792D01*
X137145180Y-58341792D02*
X138145180Y-58341792D01*
X137145180Y-57865601D02*
X138145180Y-57865601D01*
X138145180Y-57865601D02*
X138145180Y-57627506D01*
X138145180Y-57627506D02*
X138097561Y-57484649D01*
X138097561Y-57484649D02*
X138002323Y-57389411D01*
X138002323Y-57389411D02*
X137907085Y-57341792D01*
X137907085Y-57341792D02*
X137716609Y-57294173D01*
X137716609Y-57294173D02*
X137573752Y-57294173D01*
X137573752Y-57294173D02*
X137383276Y-57341792D01*
X137383276Y-57341792D02*
X137288038Y-57389411D01*
X137288038Y-57389411D02*
X137192800Y-57484649D01*
X137192800Y-57484649D02*
X137145180Y-57627506D01*
X137145180Y-57627506D02*
X137145180Y-57865601D01*
D11*
X135249999Y-54556028D02*
X134392857Y-54556028D01*
X134821428Y-56056028D02*
X134821428Y-54556028D01*
X133035714Y-56056028D02*
X133535714Y-55341742D01*
X133892857Y-56056028D02*
X133892857Y-54556028D01*
X133892857Y-54556028D02*
X133321428Y-54556028D01*
X133321428Y-54556028D02*
X133178571Y-54627457D01*
X133178571Y-54627457D02*
X133107142Y-54698885D01*
X133107142Y-54698885D02*
X133035714Y-54841742D01*
X133035714Y-54841742D02*
X133035714Y-55056028D01*
X133035714Y-55056028D02*
X133107142Y-55198885D01*
X133107142Y-55198885D02*
X133178571Y-55270314D01*
X133178571Y-55270314D02*
X133321428Y-55341742D01*
X133321428Y-55341742D02*
X133892857Y-55341742D01*
X132107142Y-54556028D02*
X131821428Y-54556028D01*
X131821428Y-54556028D02*
X131678571Y-54627457D01*
X131678571Y-54627457D02*
X131535714Y-54770314D01*
X131535714Y-54770314D02*
X131464285Y-55056028D01*
X131464285Y-55056028D02*
X131464285Y-55556028D01*
X131464285Y-55556028D02*
X131535714Y-55841742D01*
X131535714Y-55841742D02*
X131678571Y-55984600D01*
X131678571Y-55984600D02*
X131821428Y-56056028D01*
X131821428Y-56056028D02*
X132107142Y-56056028D01*
X132107142Y-56056028D02*
X132250000Y-55984600D01*
X132250000Y-55984600D02*
X132392857Y-55841742D01*
X132392857Y-55841742D02*
X132464285Y-55556028D01*
X132464285Y-55556028D02*
X132464285Y-55056028D01*
X132464285Y-55056028D02*
X132392857Y-54770314D01*
X132392857Y-54770314D02*
X132250000Y-54627457D01*
X132250000Y-54627457D02*
X132107142Y-54556028D01*
X130821428Y-56056028D02*
X130821428Y-54556028D01*
X130821428Y-54556028D02*
X130249999Y-54556028D01*
X130249999Y-54556028D02*
X130107142Y-54627457D01*
X130107142Y-54627457D02*
X130035713Y-54698885D01*
X130035713Y-54698885D02*
X129964285Y-54841742D01*
X129964285Y-54841742D02*
X129964285Y-55056028D01*
X129964285Y-55056028D02*
X130035713Y-55198885D01*
X130035713Y-55198885D02*
X130107142Y-55270314D01*
X130107142Y-55270314D02*
X130249999Y-55341742D01*
X130249999Y-55341742D02*
X130821428Y-55341742D01*
X129321428Y-56056028D02*
X129321428Y-54556028D01*
X127749999Y-55913171D02*
X127821427Y-55984600D01*
X127821427Y-55984600D02*
X128035713Y-56056028D01*
X128035713Y-56056028D02*
X128178570Y-56056028D01*
X128178570Y-56056028D02*
X128392856Y-55984600D01*
X128392856Y-55984600D02*
X128535713Y-55841742D01*
X128535713Y-55841742D02*
X128607142Y-55698885D01*
X128607142Y-55698885D02*
X128678570Y-55413171D01*
X128678570Y-55413171D02*
X128678570Y-55198885D01*
X128678570Y-55198885D02*
X128607142Y-54913171D01*
X128607142Y-54913171D02*
X128535713Y-54770314D01*
X128535713Y-54770314D02*
X128392856Y-54627457D01*
X128392856Y-54627457D02*
X128178570Y-54556028D01*
X128178570Y-54556028D02*
X128035713Y-54556028D01*
X128035713Y-54556028D02*
X127821427Y-54627457D01*
X127821427Y-54627457D02*
X127749999Y-54698885D01*
X126821427Y-54556028D02*
X126678570Y-54556028D01*
X126678570Y-54556028D02*
X126535713Y-54627457D01*
X126535713Y-54627457D02*
X126464285Y-54698885D01*
X126464285Y-54698885D02*
X126392856Y-54841742D01*
X126392856Y-54841742D02*
X126321427Y-55127457D01*
X126321427Y-55127457D02*
X126321427Y-55484600D01*
X126321427Y-55484600D02*
X126392856Y-55770314D01*
X126392856Y-55770314D02*
X126464285Y-55913171D01*
X126464285Y-55913171D02*
X126535713Y-55984600D01*
X126535713Y-55984600D02*
X126678570Y-56056028D01*
X126678570Y-56056028D02*
X126821427Y-56056028D01*
X126821427Y-56056028D02*
X126964285Y-55984600D01*
X126964285Y-55984600D02*
X127035713Y-55913171D01*
X127035713Y-55913171D02*
X127107142Y-55770314D01*
X127107142Y-55770314D02*
X127178570Y-55484600D01*
X127178570Y-55484600D02*
X127178570Y-55127457D01*
X127178570Y-55127457D02*
X127107142Y-54841742D01*
X127107142Y-54841742D02*
X127035713Y-54698885D01*
X127035713Y-54698885D02*
X126964285Y-54627457D01*
X126964285Y-54627457D02*
X126821427Y-54556028D01*
X124892856Y-56056028D02*
X125749999Y-56056028D01*
X125321428Y-56056028D02*
X125321428Y-54556028D01*
X125321428Y-54556028D02*
X125464285Y-54770314D01*
X125464285Y-54770314D02*
X125607142Y-54913171D01*
X125607142Y-54913171D02*
X125749999Y-54984600D01*
D10*
X129572800Y-59960839D02*
X129525180Y-59817982D01*
X129525180Y-59817982D02*
X129525180Y-59579887D01*
X129525180Y-59579887D02*
X129572800Y-59484649D01*
X129572800Y-59484649D02*
X129620419Y-59437030D01*
X129620419Y-59437030D02*
X129715657Y-59389411D01*
X129715657Y-59389411D02*
X129810895Y-59389411D01*
X129810895Y-59389411D02*
X129906133Y-59437030D01*
X129906133Y-59437030D02*
X129953752Y-59484649D01*
X129953752Y-59484649D02*
X130001371Y-59579887D01*
X130001371Y-59579887D02*
X130048990Y-59770363D01*
X130048990Y-59770363D02*
X130096609Y-59865601D01*
X130096609Y-59865601D02*
X130144228Y-59913220D01*
X130144228Y-59913220D02*
X130239466Y-59960839D01*
X130239466Y-59960839D02*
X130334704Y-59960839D01*
X130334704Y-59960839D02*
X130429942Y-59913220D01*
X130429942Y-59913220D02*
X130477561Y-59865601D01*
X130477561Y-59865601D02*
X130525180Y-59770363D01*
X130525180Y-59770363D02*
X130525180Y-59532268D01*
X130525180Y-59532268D02*
X130477561Y-59389411D01*
X129525180Y-58960839D02*
X130525180Y-58960839D01*
X130525180Y-58960839D02*
X130525180Y-58722744D01*
X130525180Y-58722744D02*
X130477561Y-58579887D01*
X130477561Y-58579887D02*
X130382323Y-58484649D01*
X130382323Y-58484649D02*
X130287085Y-58437030D01*
X130287085Y-58437030D02*
X130096609Y-58389411D01*
X130096609Y-58389411D02*
X129953752Y-58389411D01*
X129953752Y-58389411D02*
X129763276Y-58437030D01*
X129763276Y-58437030D02*
X129668038Y-58484649D01*
X129668038Y-58484649D02*
X129572800Y-58579887D01*
X129572800Y-58579887D02*
X129525180Y-58722744D01*
X129525180Y-58722744D02*
X129525180Y-58960839D01*
X130525180Y-57770363D02*
X130525180Y-57579887D01*
X130525180Y-57579887D02*
X130477561Y-57484649D01*
X130477561Y-57484649D02*
X130382323Y-57389411D01*
X130382323Y-57389411D02*
X130191847Y-57341792D01*
X130191847Y-57341792D02*
X129858514Y-57341792D01*
X129858514Y-57341792D02*
X129668038Y-57389411D01*
X129668038Y-57389411D02*
X129572800Y-57484649D01*
X129572800Y-57484649D02*
X129525180Y-57579887D01*
X129525180Y-57579887D02*
X129525180Y-57770363D01*
X129525180Y-57770363D02*
X129572800Y-57865601D01*
X129572800Y-57865601D02*
X129668038Y-57960839D01*
X129668038Y-57960839D02*
X129858514Y-58008458D01*
X129858514Y-58008458D02*
X130191847Y-58008458D01*
X130191847Y-58008458D02*
X130382323Y-57960839D01*
X130382323Y-57960839D02*
X130477561Y-57865601D01*
X130477561Y-57865601D02*
X130525180Y-57770363D01*
X122905180Y-60094599D02*
X121905180Y-59761266D01*
X121905180Y-59761266D02*
X122905180Y-59427933D01*
X122000419Y-58523171D02*
X121952800Y-58570790D01*
X121952800Y-58570790D02*
X121905180Y-58713647D01*
X121905180Y-58713647D02*
X121905180Y-58808885D01*
X121905180Y-58808885D02*
X121952800Y-58951742D01*
X121952800Y-58951742D02*
X122048038Y-59046980D01*
X122048038Y-59046980D02*
X122143276Y-59094599D01*
X122143276Y-59094599D02*
X122333752Y-59142218D01*
X122333752Y-59142218D02*
X122476609Y-59142218D01*
X122476609Y-59142218D02*
X122667085Y-59094599D01*
X122667085Y-59094599D02*
X122762323Y-59046980D01*
X122762323Y-59046980D02*
X122857561Y-58951742D01*
X122857561Y-58951742D02*
X122905180Y-58808885D01*
X122905180Y-58808885D02*
X122905180Y-58713647D01*
X122905180Y-58713647D02*
X122857561Y-58570790D01*
X122857561Y-58570790D02*
X122809942Y-58523171D01*
X122000419Y-57523171D02*
X121952800Y-57570790D01*
X121952800Y-57570790D02*
X121905180Y-57713647D01*
X121905180Y-57713647D02*
X121905180Y-57808885D01*
X121905180Y-57808885D02*
X121952800Y-57951742D01*
X121952800Y-57951742D02*
X122048038Y-58046980D01*
X122048038Y-58046980D02*
X122143276Y-58094599D01*
X122143276Y-58094599D02*
X122333752Y-58142218D01*
X122333752Y-58142218D02*
X122476609Y-58142218D01*
X122476609Y-58142218D02*
X122667085Y-58094599D01*
X122667085Y-58094599D02*
X122762323Y-58046980D01*
X122762323Y-58046980D02*
X122857561Y-57951742D01*
X122857561Y-57951742D02*
X122905180Y-57808885D01*
X122905180Y-57808885D02*
X122905180Y-57713647D01*
X122905180Y-57713647D02*
X122857561Y-57570790D01*
X122857561Y-57570790D02*
X122809942Y-57523171D01*
X127032800Y-59960839D02*
X126985180Y-59817982D01*
X126985180Y-59817982D02*
X126985180Y-59579887D01*
X126985180Y-59579887D02*
X127032800Y-59484649D01*
X127032800Y-59484649D02*
X127080419Y-59437030D01*
X127080419Y-59437030D02*
X127175657Y-59389411D01*
X127175657Y-59389411D02*
X127270895Y-59389411D01*
X127270895Y-59389411D02*
X127366133Y-59437030D01*
X127366133Y-59437030D02*
X127413752Y-59484649D01*
X127413752Y-59484649D02*
X127461371Y-59579887D01*
X127461371Y-59579887D02*
X127508990Y-59770363D01*
X127508990Y-59770363D02*
X127556609Y-59865601D01*
X127556609Y-59865601D02*
X127604228Y-59913220D01*
X127604228Y-59913220D02*
X127699466Y-59960839D01*
X127699466Y-59960839D02*
X127794704Y-59960839D01*
X127794704Y-59960839D02*
X127889942Y-59913220D01*
X127889942Y-59913220D02*
X127937561Y-59865601D01*
X127937561Y-59865601D02*
X127985180Y-59770363D01*
X127985180Y-59770363D02*
X127985180Y-59532268D01*
X127985180Y-59532268D02*
X127937561Y-59389411D01*
X126985180Y-58960839D02*
X127985180Y-58960839D01*
X127985180Y-58960839D02*
X127985180Y-58722744D01*
X127985180Y-58722744D02*
X127937561Y-58579887D01*
X127937561Y-58579887D02*
X127842323Y-58484649D01*
X127842323Y-58484649D02*
X127747085Y-58437030D01*
X127747085Y-58437030D02*
X127556609Y-58389411D01*
X127556609Y-58389411D02*
X127413752Y-58389411D01*
X127413752Y-58389411D02*
X127223276Y-58437030D01*
X127223276Y-58437030D02*
X127128038Y-58484649D01*
X127128038Y-58484649D02*
X127032800Y-58579887D01*
X127032800Y-58579887D02*
X126985180Y-58722744D01*
X126985180Y-58722744D02*
X126985180Y-58960839D01*
X126985180Y-57960839D02*
X127985180Y-57960839D01*
X122839411Y-71302438D02*
X122934649Y-71254819D01*
X122934649Y-71254819D02*
X123077506Y-71254819D01*
X123077506Y-71254819D02*
X123220363Y-71302438D01*
X123220363Y-71302438D02*
X123315601Y-71397676D01*
X123315601Y-71397676D02*
X123363220Y-71492914D01*
X123363220Y-71492914D02*
X123410839Y-71683390D01*
X123410839Y-71683390D02*
X123410839Y-71826247D01*
X123410839Y-71826247D02*
X123363220Y-72016723D01*
X123363220Y-72016723D02*
X123315601Y-72111961D01*
X123315601Y-72111961D02*
X123220363Y-72207200D01*
X123220363Y-72207200D02*
X123077506Y-72254819D01*
X123077506Y-72254819D02*
X122982268Y-72254819D01*
X122982268Y-72254819D02*
X122839411Y-72207200D01*
X122839411Y-72207200D02*
X122791792Y-72159580D01*
X122791792Y-72159580D02*
X122791792Y-71826247D01*
X122791792Y-71826247D02*
X122982268Y-71826247D01*
X122363220Y-72254819D02*
X122363220Y-71254819D01*
X122363220Y-71254819D02*
X121791792Y-72254819D01*
X121791792Y-72254819D02*
X121791792Y-71254819D01*
X121315601Y-72254819D02*
X121315601Y-71254819D01*
X121315601Y-71254819D02*
X121077506Y-71254819D01*
X121077506Y-71254819D02*
X120934649Y-71302438D01*
X120934649Y-71302438D02*
X120839411Y-71397676D01*
X120839411Y-71397676D02*
X120791792Y-71492914D01*
X120791792Y-71492914D02*
X120744173Y-71683390D01*
X120744173Y-71683390D02*
X120744173Y-71826247D01*
X120744173Y-71826247D02*
X120791792Y-72016723D01*
X120791792Y-72016723D02*
X120839411Y-72111961D01*
X120839411Y-72111961D02*
X120934649Y-72207200D01*
X120934649Y-72207200D02*
X121077506Y-72254819D01*
X121077506Y-72254819D02*
X121315601Y-72254819D01*
X134700419Y-59400963D02*
X134652800Y-59448582D01*
X134652800Y-59448582D02*
X134605180Y-59591439D01*
X134605180Y-59591439D02*
X134605180Y-59686677D01*
X134605180Y-59686677D02*
X134652800Y-59829534D01*
X134652800Y-59829534D02*
X134748038Y-59924772D01*
X134748038Y-59924772D02*
X134843276Y-59972391D01*
X134843276Y-59972391D02*
X135033752Y-60020010D01*
X135033752Y-60020010D02*
X135176609Y-60020010D01*
X135176609Y-60020010D02*
X135367085Y-59972391D01*
X135367085Y-59972391D02*
X135462323Y-59924772D01*
X135462323Y-59924772D02*
X135557561Y-59829534D01*
X135557561Y-59829534D02*
X135605180Y-59686677D01*
X135605180Y-59686677D02*
X135605180Y-59591439D01*
X135605180Y-59591439D02*
X135557561Y-59448582D01*
X135557561Y-59448582D02*
X135509942Y-59400963D01*
X134652800Y-59020010D02*
X134605180Y-58877153D01*
X134605180Y-58877153D02*
X134605180Y-58639058D01*
X134605180Y-58639058D02*
X134652800Y-58543820D01*
X134652800Y-58543820D02*
X134700419Y-58496201D01*
X134700419Y-58496201D02*
X134795657Y-58448582D01*
X134795657Y-58448582D02*
X134890895Y-58448582D01*
X134890895Y-58448582D02*
X134986133Y-58496201D01*
X134986133Y-58496201D02*
X135033752Y-58543820D01*
X135033752Y-58543820D02*
X135081371Y-58639058D01*
X135081371Y-58639058D02*
X135128990Y-58829534D01*
X135128990Y-58829534D02*
X135176609Y-58924772D01*
X135176609Y-58924772D02*
X135224228Y-58972391D01*
X135224228Y-58972391D02*
X135319466Y-59020010D01*
X135319466Y-59020010D02*
X135414704Y-59020010D01*
X135414704Y-59020010D02*
X135509942Y-58972391D01*
X135509942Y-58972391D02*
X135557561Y-58924772D01*
X135557561Y-58924772D02*
X135605180Y-58829534D01*
X135605180Y-58829534D02*
X135605180Y-58591439D01*
X135605180Y-58591439D02*
X135557561Y-58448582D01*
X134605180Y-58020010D02*
X135605180Y-58020010D01*
X135605180Y-58020010D02*
X134605180Y-57448582D01*
X134605180Y-57448582D02*
X135605180Y-57448582D01*
X125397561Y-59389411D02*
X125445180Y-59484649D01*
X125445180Y-59484649D02*
X125445180Y-59627506D01*
X125445180Y-59627506D02*
X125397561Y-59770363D01*
X125397561Y-59770363D02*
X125302323Y-59865601D01*
X125302323Y-59865601D02*
X125207085Y-59913220D01*
X125207085Y-59913220D02*
X125016609Y-59960839D01*
X125016609Y-59960839D02*
X124873752Y-59960839D01*
X124873752Y-59960839D02*
X124683276Y-59913220D01*
X124683276Y-59913220D02*
X124588038Y-59865601D01*
X124588038Y-59865601D02*
X124492800Y-59770363D01*
X124492800Y-59770363D02*
X124445180Y-59627506D01*
X124445180Y-59627506D02*
X124445180Y-59532268D01*
X124445180Y-59532268D02*
X124492800Y-59389411D01*
X124492800Y-59389411D02*
X124540419Y-59341792D01*
X124540419Y-59341792D02*
X124873752Y-59341792D01*
X124873752Y-59341792D02*
X124873752Y-59532268D01*
X124445180Y-58913220D02*
X125445180Y-58913220D01*
X125445180Y-58913220D02*
X125445180Y-58532268D01*
X125445180Y-58532268D02*
X125397561Y-58437030D01*
X125397561Y-58437030D02*
X125349942Y-58389411D01*
X125349942Y-58389411D02*
X125254704Y-58341792D01*
X125254704Y-58341792D02*
X125111847Y-58341792D01*
X125111847Y-58341792D02*
X125016609Y-58389411D01*
X125016609Y-58389411D02*
X124968990Y-58437030D01*
X124968990Y-58437030D02*
X124921371Y-58532268D01*
X124921371Y-58532268D02*
X124921371Y-58913220D01*
X125445180Y-57722744D02*
X125445180Y-57532268D01*
X125445180Y-57532268D02*
X125397561Y-57437030D01*
X125397561Y-57437030D02*
X125302323Y-57341792D01*
X125302323Y-57341792D02*
X125111847Y-57294173D01*
X125111847Y-57294173D02*
X124778514Y-57294173D01*
X124778514Y-57294173D02*
X124588038Y-57341792D01*
X124588038Y-57341792D02*
X124492800Y-57437030D01*
X124492800Y-57437030D02*
X124445180Y-57532268D01*
X124445180Y-57532268D02*
X124445180Y-57722744D01*
X124445180Y-57722744D02*
X124492800Y-57817982D01*
X124492800Y-57817982D02*
X124588038Y-57913220D01*
X124588038Y-57913220D02*
X124778514Y-57960839D01*
X124778514Y-57960839D02*
X125111847Y-57960839D01*
X125111847Y-57960839D02*
X125302323Y-57913220D01*
X125302323Y-57913220D02*
X125397561Y-57817982D01*
X125397561Y-57817982D02*
X125445180Y-57722744D01*
X126937704Y-75259523D02*
X126937704Y-74802380D01*
X126137704Y-75030952D02*
X126937704Y-75030952D01*
X126137704Y-74535713D02*
X126937704Y-74535713D01*
X126937704Y-74535713D02*
X126937704Y-74230951D01*
X126937704Y-74230951D02*
X126899609Y-74154761D01*
X126899609Y-74154761D02*
X126861514Y-74116666D01*
X126861514Y-74116666D02*
X126785323Y-74078570D01*
X126785323Y-74078570D02*
X126671038Y-74078570D01*
X126671038Y-74078570D02*
X126594847Y-74116666D01*
X126594847Y-74116666D02*
X126556752Y-74154761D01*
X126556752Y-74154761D02*
X126518657Y-74230951D01*
X126518657Y-74230951D02*
X126518657Y-74535713D01*
X126937704Y-73811904D02*
X126937704Y-73278570D01*
X126937704Y-73278570D02*
X126137704Y-73621428D01*
X133687704Y-77759523D02*
X133687704Y-77302380D01*
X132887704Y-77530952D02*
X133687704Y-77530952D01*
X132887704Y-77035713D02*
X133687704Y-77035713D01*
X133687704Y-77035713D02*
X133687704Y-76730951D01*
X133687704Y-76730951D02*
X133649609Y-76654761D01*
X133649609Y-76654761D02*
X133611514Y-76616666D01*
X133611514Y-76616666D02*
X133535323Y-76578570D01*
X133535323Y-76578570D02*
X133421038Y-76578570D01*
X133421038Y-76578570D02*
X133344847Y-76616666D01*
X133344847Y-76616666D02*
X133306752Y-76654761D01*
X133306752Y-76654761D02*
X133268657Y-76730951D01*
X133268657Y-76730951D02*
X133268657Y-77035713D01*
X133611514Y-76273809D02*
X133649609Y-76235713D01*
X133649609Y-76235713D02*
X133687704Y-76159523D01*
X133687704Y-76159523D02*
X133687704Y-75969047D01*
X133687704Y-75969047D02*
X133649609Y-75892856D01*
X133649609Y-75892856D02*
X133611514Y-75854761D01*
X133611514Y-75854761D02*
X133535323Y-75816666D01*
X133535323Y-75816666D02*
X133459133Y-75816666D01*
X133459133Y-75816666D02*
X133344847Y-75854761D01*
X133344847Y-75854761D02*
X132887704Y-76311904D01*
X132887704Y-76311904D02*
X132887704Y-75816666D01*
X133687704Y-72759523D02*
X133687704Y-72302380D01*
X132887704Y-72530952D02*
X133687704Y-72530952D01*
X132887704Y-72035713D02*
X133687704Y-72035713D01*
X133687704Y-72035713D02*
X133687704Y-71730951D01*
X133687704Y-71730951D02*
X133649609Y-71654761D01*
X133649609Y-71654761D02*
X133611514Y-71616666D01*
X133611514Y-71616666D02*
X133535323Y-71578570D01*
X133535323Y-71578570D02*
X133421038Y-71578570D01*
X133421038Y-71578570D02*
X133344847Y-71616666D01*
X133344847Y-71616666D02*
X133306752Y-71654761D01*
X133306752Y-71654761D02*
X133268657Y-71730951D01*
X133268657Y-71730951D02*
X133268657Y-72035713D01*
X133687704Y-70854761D02*
X133687704Y-71235713D01*
X133687704Y-71235713D02*
X133306752Y-71273809D01*
X133306752Y-71273809D02*
X133344847Y-71235713D01*
X133344847Y-71235713D02*
X133382942Y-71159523D01*
X133382942Y-71159523D02*
X133382942Y-70969047D01*
X133382942Y-70969047D02*
X133344847Y-70892856D01*
X133344847Y-70892856D02*
X133306752Y-70854761D01*
X133306752Y-70854761D02*
X133230561Y-70816666D01*
X133230561Y-70816666D02*
X133040085Y-70816666D01*
X133040085Y-70816666D02*
X132963895Y-70854761D01*
X132963895Y-70854761D02*
X132925800Y-70892856D01*
X132925800Y-70892856D02*
X132887704Y-70969047D01*
X132887704Y-70969047D02*
X132887704Y-71159523D01*
X132887704Y-71159523D02*
X132925800Y-71235713D01*
X132925800Y-71235713D02*
X132963895Y-71273809D01*
X133687704Y-70259523D02*
X133687704Y-69802380D01*
X132887704Y-70030952D02*
X133687704Y-70030952D01*
X132887704Y-69535713D02*
X133687704Y-69535713D01*
X133687704Y-69535713D02*
X133687704Y-69230951D01*
X133687704Y-69230951D02*
X133649609Y-69154761D01*
X133649609Y-69154761D02*
X133611514Y-69116666D01*
X133611514Y-69116666D02*
X133535323Y-69078570D01*
X133535323Y-69078570D02*
X133421038Y-69078570D01*
X133421038Y-69078570D02*
X133344847Y-69116666D01*
X133344847Y-69116666D02*
X133306752Y-69154761D01*
X133306752Y-69154761D02*
X133268657Y-69230951D01*
X133268657Y-69230951D02*
X133268657Y-69535713D01*
X133687704Y-68392856D02*
X133687704Y-68545237D01*
X133687704Y-68545237D02*
X133649609Y-68621428D01*
X133649609Y-68621428D02*
X133611514Y-68659523D01*
X133611514Y-68659523D02*
X133497228Y-68735713D01*
X133497228Y-68735713D02*
X133344847Y-68773809D01*
X133344847Y-68773809D02*
X133040085Y-68773809D01*
X133040085Y-68773809D02*
X132963895Y-68735713D01*
X132963895Y-68735713D02*
X132925800Y-68697618D01*
X132925800Y-68697618D02*
X132887704Y-68621428D01*
X132887704Y-68621428D02*
X132887704Y-68469047D01*
X132887704Y-68469047D02*
X132925800Y-68392856D01*
X132925800Y-68392856D02*
X132963895Y-68354761D01*
X132963895Y-68354761D02*
X133040085Y-68316666D01*
X133040085Y-68316666D02*
X133230561Y-68316666D01*
X133230561Y-68316666D02*
X133306752Y-68354761D01*
X133306752Y-68354761D02*
X133344847Y-68392856D01*
X133344847Y-68392856D02*
X133382942Y-68469047D01*
X133382942Y-68469047D02*
X133382942Y-68621428D01*
X133382942Y-68621428D02*
X133344847Y-68697618D01*
X133344847Y-68697618D02*
X133306752Y-68735713D01*
X133306752Y-68735713D02*
X133230561Y-68773809D01*
X123687704Y-67890476D02*
X123687704Y-67433333D01*
X122887704Y-67661905D02*
X123687704Y-67661905D01*
X122887704Y-67166666D02*
X123687704Y-67166666D01*
X123687704Y-67166666D02*
X123687704Y-66861904D01*
X123687704Y-66861904D02*
X123649609Y-66785714D01*
X123649609Y-66785714D02*
X123611514Y-66747619D01*
X123611514Y-66747619D02*
X123535323Y-66709523D01*
X123535323Y-66709523D02*
X123421038Y-66709523D01*
X123421038Y-66709523D02*
X123344847Y-66747619D01*
X123344847Y-66747619D02*
X123306752Y-66785714D01*
X123306752Y-66785714D02*
X123268657Y-66861904D01*
X123268657Y-66861904D02*
X123268657Y-67166666D01*
X122887704Y-65947619D02*
X122887704Y-66404762D01*
X122887704Y-66176190D02*
X123687704Y-66176190D01*
X123687704Y-66176190D02*
X123573419Y-66252381D01*
X123573419Y-66252381D02*
X123497228Y-66328571D01*
X123497228Y-66328571D02*
X123459133Y-66404762D01*
X123687704Y-65452380D02*
X123687704Y-65376190D01*
X123687704Y-65376190D02*
X123649609Y-65299999D01*
X123649609Y-65299999D02*
X123611514Y-65261904D01*
X123611514Y-65261904D02*
X123535323Y-65223809D01*
X123535323Y-65223809D02*
X123382942Y-65185714D01*
X123382942Y-65185714D02*
X123192466Y-65185714D01*
X123192466Y-65185714D02*
X123040085Y-65223809D01*
X123040085Y-65223809D02*
X122963895Y-65261904D01*
X122963895Y-65261904D02*
X122925800Y-65299999D01*
X122925800Y-65299999D02*
X122887704Y-65376190D01*
X122887704Y-65376190D02*
X122887704Y-65452380D01*
X122887704Y-65452380D02*
X122925800Y-65528571D01*
X122925800Y-65528571D02*
X122963895Y-65566666D01*
X122963895Y-65566666D02*
X123040085Y-65604761D01*
X123040085Y-65604761D02*
X123192466Y-65642857D01*
X123192466Y-65642857D02*
X123382942Y-65642857D01*
X123382942Y-65642857D02*
X123535323Y-65604761D01*
X123535323Y-65604761D02*
X123611514Y-65566666D01*
X123611514Y-65566666D02*
X123649609Y-65528571D01*
X123649609Y-65528571D02*
X123687704Y-65452380D01*
X123757704Y-81490476D02*
X123757704Y-81033333D01*
X122957704Y-81261905D02*
X123757704Y-81261905D01*
X122957704Y-80766666D02*
X123757704Y-80766666D01*
X123757704Y-80766666D02*
X123757704Y-80461904D01*
X123757704Y-80461904D02*
X123719609Y-80385714D01*
X123719609Y-80385714D02*
X123681514Y-80347619D01*
X123681514Y-80347619D02*
X123605323Y-80309523D01*
X123605323Y-80309523D02*
X123491038Y-80309523D01*
X123491038Y-80309523D02*
X123414847Y-80347619D01*
X123414847Y-80347619D02*
X123376752Y-80385714D01*
X123376752Y-80385714D02*
X123338657Y-80461904D01*
X123338657Y-80461904D02*
X123338657Y-80766666D01*
X122957704Y-79547619D02*
X122957704Y-80004762D01*
X122957704Y-79776190D02*
X123757704Y-79776190D01*
X123757704Y-79776190D02*
X123643419Y-79852381D01*
X123643419Y-79852381D02*
X123567228Y-79928571D01*
X123567228Y-79928571D02*
X123529133Y-80004762D01*
X123681514Y-79242857D02*
X123719609Y-79204761D01*
X123719609Y-79204761D02*
X123757704Y-79128571D01*
X123757704Y-79128571D02*
X123757704Y-78938095D01*
X123757704Y-78938095D02*
X123719609Y-78861904D01*
X123719609Y-78861904D02*
X123681514Y-78823809D01*
X123681514Y-78823809D02*
X123605323Y-78785714D01*
X123605323Y-78785714D02*
X123529133Y-78785714D01*
X123529133Y-78785714D02*
X123414847Y-78823809D01*
X123414847Y-78823809D02*
X122957704Y-79280952D01*
X122957704Y-79280952D02*
X122957704Y-78785714D01*
X126937704Y-78509523D02*
X126937704Y-78052380D01*
X126137704Y-78280952D02*
X126937704Y-78280952D01*
X126137704Y-77785713D02*
X126937704Y-77785713D01*
X126937704Y-77785713D02*
X126937704Y-77480951D01*
X126937704Y-77480951D02*
X126899609Y-77404761D01*
X126899609Y-77404761D02*
X126861514Y-77366666D01*
X126861514Y-77366666D02*
X126785323Y-77328570D01*
X126785323Y-77328570D02*
X126671038Y-77328570D01*
X126671038Y-77328570D02*
X126594847Y-77366666D01*
X126594847Y-77366666D02*
X126556752Y-77404761D01*
X126556752Y-77404761D02*
X126518657Y-77480951D01*
X126518657Y-77480951D02*
X126518657Y-77785713D01*
X126594847Y-76871428D02*
X126632942Y-76947618D01*
X126632942Y-76947618D02*
X126671038Y-76985713D01*
X126671038Y-76985713D02*
X126747228Y-77023809D01*
X126747228Y-77023809D02*
X126785323Y-77023809D01*
X126785323Y-77023809D02*
X126861514Y-76985713D01*
X126861514Y-76985713D02*
X126899609Y-76947618D01*
X126899609Y-76947618D02*
X126937704Y-76871428D01*
X126937704Y-76871428D02*
X126937704Y-76719047D01*
X126937704Y-76719047D02*
X126899609Y-76642856D01*
X126899609Y-76642856D02*
X126861514Y-76604761D01*
X126861514Y-76604761D02*
X126785323Y-76566666D01*
X126785323Y-76566666D02*
X126747228Y-76566666D01*
X126747228Y-76566666D02*
X126671038Y-76604761D01*
X126671038Y-76604761D02*
X126632942Y-76642856D01*
X126632942Y-76642856D02*
X126594847Y-76719047D01*
X126594847Y-76719047D02*
X126594847Y-76871428D01*
X126594847Y-76871428D02*
X126556752Y-76947618D01*
X126556752Y-76947618D02*
X126518657Y-76985713D01*
X126518657Y-76985713D02*
X126442466Y-77023809D01*
X126442466Y-77023809D02*
X126290085Y-77023809D01*
X126290085Y-77023809D02*
X126213895Y-76985713D01*
X126213895Y-76985713D02*
X126175800Y-76947618D01*
X126175800Y-76947618D02*
X126137704Y-76871428D01*
X126137704Y-76871428D02*
X126137704Y-76719047D01*
X126137704Y-76719047D02*
X126175800Y-76642856D01*
X126175800Y-76642856D02*
X126213895Y-76604761D01*
X126213895Y-76604761D02*
X126290085Y-76566666D01*
X126290085Y-76566666D02*
X126442466Y-76566666D01*
X126442466Y-76566666D02*
X126518657Y-76604761D01*
X126518657Y-76604761D02*
X126556752Y-76642856D01*
X126556752Y-76642856D02*
X126594847Y-76719047D01*
X126377704Y-86350476D02*
X126377704Y-85893333D01*
X125577704Y-86121905D02*
X126377704Y-86121905D01*
X125577704Y-85626666D02*
X126377704Y-85626666D01*
X126377704Y-85626666D02*
X126377704Y-85321904D01*
X126377704Y-85321904D02*
X126339609Y-85245714D01*
X126339609Y-85245714D02*
X126301514Y-85207619D01*
X126301514Y-85207619D02*
X126225323Y-85169523D01*
X126225323Y-85169523D02*
X126111038Y-85169523D01*
X126111038Y-85169523D02*
X126034847Y-85207619D01*
X126034847Y-85207619D02*
X125996752Y-85245714D01*
X125996752Y-85245714D02*
X125958657Y-85321904D01*
X125958657Y-85321904D02*
X125958657Y-85626666D01*
X125577704Y-84407619D02*
X125577704Y-84864762D01*
X125577704Y-84636190D02*
X126377704Y-84636190D01*
X126377704Y-84636190D02*
X126263419Y-84712381D01*
X126263419Y-84712381D02*
X126187228Y-84788571D01*
X126187228Y-84788571D02*
X126149133Y-84864762D01*
X125577704Y-83645714D02*
X125577704Y-84102857D01*
X125577704Y-83874285D02*
X126377704Y-83874285D01*
X126377704Y-83874285D02*
X126263419Y-83950476D01*
X126263419Y-83950476D02*
X126187228Y-84026666D01*
X126187228Y-84026666D02*
X126149133Y-84102857D01*
X126937704Y-72759523D02*
X126937704Y-72302380D01*
X126137704Y-72530952D02*
X126937704Y-72530952D01*
X126137704Y-72035713D02*
X126937704Y-72035713D01*
X126937704Y-72035713D02*
X126937704Y-71730951D01*
X126937704Y-71730951D02*
X126899609Y-71654761D01*
X126899609Y-71654761D02*
X126861514Y-71616666D01*
X126861514Y-71616666D02*
X126785323Y-71578570D01*
X126785323Y-71578570D02*
X126671038Y-71578570D01*
X126671038Y-71578570D02*
X126594847Y-71616666D01*
X126594847Y-71616666D02*
X126556752Y-71654761D01*
X126556752Y-71654761D02*
X126518657Y-71730951D01*
X126518657Y-71730951D02*
X126518657Y-72035713D01*
X126137704Y-71197618D02*
X126137704Y-71045237D01*
X126137704Y-71045237D02*
X126175800Y-70969047D01*
X126175800Y-70969047D02*
X126213895Y-70930951D01*
X126213895Y-70930951D02*
X126328180Y-70854761D01*
X126328180Y-70854761D02*
X126480561Y-70816666D01*
X126480561Y-70816666D02*
X126785323Y-70816666D01*
X126785323Y-70816666D02*
X126861514Y-70854761D01*
X126861514Y-70854761D02*
X126899609Y-70892856D01*
X126899609Y-70892856D02*
X126937704Y-70969047D01*
X126937704Y-70969047D02*
X126937704Y-71121428D01*
X126937704Y-71121428D02*
X126899609Y-71197618D01*
X126899609Y-71197618D02*
X126861514Y-71235713D01*
X126861514Y-71235713D02*
X126785323Y-71273809D01*
X126785323Y-71273809D02*
X126594847Y-71273809D01*
X126594847Y-71273809D02*
X126518657Y-71235713D01*
X126518657Y-71235713D02*
X126480561Y-71197618D01*
X126480561Y-71197618D02*
X126442466Y-71121428D01*
X126442466Y-71121428D02*
X126442466Y-70969047D01*
X126442466Y-70969047D02*
X126480561Y-70892856D01*
X126480561Y-70892856D02*
X126518657Y-70854761D01*
X126518657Y-70854761D02*
X126594847Y-70816666D01*
X133187704Y-90509523D02*
X133187704Y-90052380D01*
X132387704Y-90280952D02*
X133187704Y-90280952D01*
X132387704Y-89785713D02*
X133187704Y-89785713D01*
X133187704Y-89785713D02*
X133187704Y-89480951D01*
X133187704Y-89480951D02*
X133149609Y-89404761D01*
X133149609Y-89404761D02*
X133111514Y-89366666D01*
X133111514Y-89366666D02*
X133035323Y-89328570D01*
X133035323Y-89328570D02*
X132921038Y-89328570D01*
X132921038Y-89328570D02*
X132844847Y-89366666D01*
X132844847Y-89366666D02*
X132806752Y-89404761D01*
X132806752Y-89404761D02*
X132768657Y-89480951D01*
X132768657Y-89480951D02*
X132768657Y-89785713D01*
X133187704Y-89061904D02*
X133187704Y-88566666D01*
X133187704Y-88566666D02*
X132882942Y-88833332D01*
X132882942Y-88833332D02*
X132882942Y-88719047D01*
X132882942Y-88719047D02*
X132844847Y-88642856D01*
X132844847Y-88642856D02*
X132806752Y-88604761D01*
X132806752Y-88604761D02*
X132730561Y-88566666D01*
X132730561Y-88566666D02*
X132540085Y-88566666D01*
X132540085Y-88566666D02*
X132463895Y-88604761D01*
X132463895Y-88604761D02*
X132425800Y-88642856D01*
X132425800Y-88642856D02*
X132387704Y-88719047D01*
X132387704Y-88719047D02*
X132387704Y-88947618D01*
X132387704Y-88947618D02*
X132425800Y-89023809D01*
X132425800Y-89023809D02*
X132463895Y-89061904D01*
X133687704Y-75259523D02*
X133687704Y-74802380D01*
X132887704Y-75030952D02*
X133687704Y-75030952D01*
X132887704Y-74535713D02*
X133687704Y-74535713D01*
X133687704Y-74535713D02*
X133687704Y-74230951D01*
X133687704Y-74230951D02*
X133649609Y-74154761D01*
X133649609Y-74154761D02*
X133611514Y-74116666D01*
X133611514Y-74116666D02*
X133535323Y-74078570D01*
X133535323Y-74078570D02*
X133421038Y-74078570D01*
X133421038Y-74078570D02*
X133344847Y-74116666D01*
X133344847Y-74116666D02*
X133306752Y-74154761D01*
X133306752Y-74154761D02*
X133268657Y-74230951D01*
X133268657Y-74230951D02*
X133268657Y-74535713D01*
X133421038Y-73392856D02*
X132887704Y-73392856D01*
X133725800Y-73583332D02*
X133154371Y-73773809D01*
X133154371Y-73773809D02*
X133154371Y-73278570D01*
X133687704Y-81009523D02*
X133687704Y-80552380D01*
X132887704Y-80780952D02*
X133687704Y-80780952D01*
X132887704Y-80285713D02*
X133687704Y-80285713D01*
X133687704Y-80285713D02*
X133687704Y-79980951D01*
X133687704Y-79980951D02*
X133649609Y-79904761D01*
X133649609Y-79904761D02*
X133611514Y-79866666D01*
X133611514Y-79866666D02*
X133535323Y-79828570D01*
X133535323Y-79828570D02*
X133421038Y-79828570D01*
X133421038Y-79828570D02*
X133344847Y-79866666D01*
X133344847Y-79866666D02*
X133306752Y-79904761D01*
X133306752Y-79904761D02*
X133268657Y-79980951D01*
X133268657Y-79980951D02*
X133268657Y-80285713D01*
X132887704Y-79066666D02*
X132887704Y-79523809D01*
X132887704Y-79295237D02*
X133687704Y-79295237D01*
X133687704Y-79295237D02*
X133573419Y-79371428D01*
X133573419Y-79371428D02*
X133497228Y-79447618D01*
X133497228Y-79447618D02*
X133459133Y-79523809D01*
D12*
%TO.C,TP7*%
X126000000Y-74250000D02*
G75*
G02*
X124000000Y-74250000I-1000000J0D01*
G01*
X124000000Y-74250000D02*
G75*
G02*
X126000000Y-74250000I1000000J0D01*
G01*
%TO.C,TP2*%
X136000000Y-76750000D02*
G75*
G02*
X134000000Y-76750000I-1000000J0D01*
G01*
X134000000Y-76750000D02*
G75*
G02*
X136000000Y-76750000I1000000J0D01*
G01*
%TO.C,TP5*%
X136000000Y-71750000D02*
G75*
G02*
X134000000Y-71750000I-1000000J0D01*
G01*
X134000000Y-71750000D02*
G75*
G02*
X136000000Y-71750000I1000000J0D01*
G01*
D13*
%TO.C,G2*%
G36*
X131021656Y-80935782D02*
G01*
X128607466Y-80935782D01*
X128607466Y-80357737D01*
X131021656Y-80357737D01*
X131021656Y-80935782D01*
G37*
G36*
X131973731Y-80969785D02*
G01*
X131395686Y-80969785D01*
X131395686Y-80323734D01*
X131973731Y-80323734D01*
X131973731Y-80969785D01*
G37*
G36*
X128845485Y-90853299D02*
G01*
X128845485Y-91062948D01*
X128844215Y-91161037D01*
X128840286Y-91241651D01*
X128834625Y-91272596D01*
X128804444Y-91254141D01*
X128734997Y-91205251D01*
X128641469Y-91136586D01*
X128547479Y-91069208D01*
X128470888Y-91019546D01*
X128431312Y-91000575D01*
X128425863Y-91016352D01*
X128418640Y-91090434D01*
X128412470Y-91216796D01*
X128407671Y-91386145D01*
X128404558Y-91589190D01*
X128403450Y-91816639D01*
X128403450Y-92632703D01*
X128063423Y-92632703D01*
X128064179Y-90065501D01*
X128845485Y-90853299D01*
G37*
G36*
X129439590Y-93237108D02*
G01*
X129452038Y-93274991D01*
X129456779Y-93356343D01*
X129457533Y-93493431D01*
X129457533Y-93773922D01*
X129049501Y-94177696D01*
X129049733Y-93974745D01*
X129052385Y-93861164D01*
X129066463Y-93790012D01*
X129101512Y-93741306D01*
X129167078Y-93692045D01*
X129194207Y-93672987D01*
X129253702Y-93617580D01*
X129282431Y-93549357D01*
X129294356Y-93440754D01*
X129295057Y-93429416D01*
X129307460Y-93326727D01*
X129333261Y-93270526D01*
X129381027Y-93241076D01*
X129415716Y-93230424D01*
X129439590Y-93237108D01*
G37*
G36*
X128403450Y-93975236D02*
G01*
X128403541Y-93999553D01*
X128406853Y-94116973D01*
X128413972Y-94199598D01*
X128423589Y-94230829D01*
X128424583Y-94230760D01*
X128464809Y-94209827D01*
X128530182Y-94162824D01*
X128533063Y-94160571D01*
X128601148Y-94114055D01*
X128646054Y-94094818D01*
X128646438Y-94094838D01*
X128661079Y-94127327D01*
X128671501Y-94209891D01*
X128675472Y-94325045D01*
X128675472Y-94555272D01*
X128369447Y-94859879D01*
X128063423Y-95164485D01*
X128063423Y-93891948D01*
X128233437Y-93805796D01*
X128403450Y-93719643D01*
X128403450Y-93975236D01*
G37*
G36*
X129305309Y-91313120D02*
G01*
X129457533Y-91472654D01*
X129457533Y-91831661D01*
X129455849Y-91947729D01*
X129449347Y-92073358D01*
X129439095Y-92159007D01*
X129426311Y-92190669D01*
X129393719Y-92189233D01*
X129338946Y-92171000D01*
X129306682Y-92121961D01*
X129291387Y-92029800D01*
X129287520Y-91882203D01*
X129287493Y-91861286D01*
X129284694Y-91731196D01*
X129274789Y-91651247D01*
X129254241Y-91605651D01*
X129219514Y-91578620D01*
X129207257Y-91571396D01*
X129172651Y-91533009D01*
X129156168Y-91464818D01*
X129152297Y-91347906D01*
X129153085Y-91153587D01*
X129305309Y-91313120D01*
G37*
G36*
X131016342Y-86744492D02*
G01*
X131010570Y-86879641D01*
X131000478Y-86995342D01*
X130983015Y-87075940D01*
X130953982Y-87139439D01*
X130909179Y-87203840D01*
X130904759Y-87209647D01*
X130852192Y-87285593D01*
X130840911Y-87326199D01*
X130866676Y-87345599D01*
X130890255Y-87353018D01*
X130970652Y-87378222D01*
X130980575Y-87382755D01*
X131005066Y-87419423D01*
X131017926Y-87498748D01*
X131021656Y-87633243D01*
X131021656Y-87872328D01*
X128607466Y-87872328D01*
X128607466Y-87294283D01*
X129356617Y-87294283D01*
X129459457Y-87294164D01*
X129739739Y-87291149D01*
X129961160Y-87281214D01*
X130130631Y-87260584D01*
X130255065Y-87225487D01*
X130341375Y-87172149D01*
X130396471Y-87096797D01*
X130427268Y-86995658D01*
X130440677Y-86864958D01*
X130443611Y-86700925D01*
X130443611Y-86410213D01*
X131028029Y-86410213D01*
X131016342Y-86744492D01*
G37*
G36*
X130968199Y-67252908D02*
G01*
X130968060Y-67268463D01*
X130963522Y-67423353D01*
X130951209Y-67531577D01*
X130927536Y-67612740D01*
X130888919Y-67686442D01*
X130868372Y-67718026D01*
X130816376Y-67784339D01*
X130780864Y-67810749D01*
X130774788Y-67811358D01*
X130749635Y-67842597D01*
X130749939Y-67844993D01*
X130784873Y-67869261D01*
X130860144Y-67885100D01*
X130922151Y-67894966D01*
X130962040Y-67926242D01*
X130970652Y-67997764D01*
X130970652Y-68099772D01*
X128607466Y-68117654D01*
X128607466Y-67844752D01*
X129439844Y-67844752D01*
X129712945Y-67843847D01*
X129979257Y-67838593D01*
X130190074Y-67825726D01*
X130352166Y-67801997D01*
X130472304Y-67764161D01*
X130557261Y-67708970D01*
X130613808Y-67633175D01*
X130648716Y-67533531D01*
X130668757Y-67406790D01*
X130680703Y-67249705D01*
X130698631Y-66943681D01*
X130970652Y-66943681D01*
X130968199Y-67252908D01*
G37*
G36*
X130904354Y-88165796D02*
G01*
X130973603Y-88185830D01*
X131008268Y-88234448D01*
X131020301Y-88320876D01*
X131021656Y-88454338D01*
X131021656Y-88722395D01*
X131701710Y-88722395D01*
X131701710Y-89300441D01*
X131021656Y-89300441D01*
X131021656Y-89674470D01*
X130443611Y-89674470D01*
X130443611Y-89300441D01*
X129728200Y-89300441D01*
X129681662Y-89300430D01*
X129450720Y-89299738D01*
X129275630Y-89297361D01*
X129146038Y-89292448D01*
X129051590Y-89284150D01*
X128981933Y-89271616D01*
X128926713Y-89253996D01*
X128875577Y-89230441D01*
X128760413Y-89148647D01*
X128673663Y-89017924D01*
X128648373Y-88952429D01*
X128624780Y-88848452D01*
X128612189Y-88712572D01*
X128608213Y-88526880D01*
X128607466Y-88178353D01*
X129117506Y-88178353D01*
X129117506Y-88397442D01*
X129119190Y-88499507D01*
X129129929Y-88580869D01*
X129158145Y-88639550D01*
X129212261Y-88679254D01*
X129300696Y-88703685D01*
X129431872Y-88716550D01*
X129614209Y-88721551D01*
X129856130Y-88722395D01*
X130443611Y-88722395D01*
X130443611Y-88184393D01*
X130656127Y-88172220D01*
X130788567Y-88165121D01*
X130904354Y-88165796D01*
G37*
G36*
X130970652Y-70683975D02*
G01*
X130980860Y-70938995D01*
X130227697Y-70939185D01*
X130158125Y-70939345D01*
X129929193Y-70941909D01*
X129721945Y-70947232D01*
X129547960Y-70954842D01*
X129418817Y-70964269D01*
X129346095Y-70975042D01*
X129312682Y-70986374D01*
X129199184Y-71043804D01*
X129094238Y-71119072D01*
X128988371Y-71234698D01*
X128894944Y-71408638D01*
X128851730Y-71596468D01*
X128856592Y-71786406D01*
X128907393Y-71966671D01*
X129001999Y-72125481D01*
X129138272Y-72251054D01*
X129314078Y-72331609D01*
X129336818Y-72336147D01*
X129433200Y-72345973D01*
X129581046Y-72354415D01*
X129768793Y-72361021D01*
X129984876Y-72365340D01*
X130217731Y-72366918D01*
X130315938Y-72366988D01*
X130543554Y-72367817D01*
X130713730Y-72370014D01*
X130834216Y-72374134D01*
X130912763Y-72380729D01*
X130957124Y-72390351D01*
X130975049Y-72403555D01*
X130974290Y-72420893D01*
X130962071Y-72468801D01*
X130953651Y-72556903D01*
X130953651Y-72639129D01*
X130138862Y-72639129D01*
X129987881Y-72639007D01*
X129759490Y-72637873D01*
X129583510Y-72634966D01*
X129449868Y-72629582D01*
X129348490Y-72621018D01*
X129269305Y-72608572D01*
X129202240Y-72591540D01*
X129137222Y-72569219D01*
X129112775Y-72559409D01*
X128956661Y-72469127D01*
X128809415Y-72342646D01*
X128689808Y-72198499D01*
X128616612Y-72055216D01*
X128605727Y-72014708D01*
X128584278Y-71863319D01*
X128578323Y-71686082D01*
X128588001Y-71513096D01*
X128613451Y-71374462D01*
X128636806Y-71316107D01*
X128702586Y-71200964D01*
X128784397Y-71092218D01*
X128915356Y-70943442D01*
X128761411Y-70920356D01*
X128702441Y-70910808D01*
X128637535Y-70890698D01*
X128611948Y-70853125D01*
X128607466Y-70781682D01*
X128607466Y-70666093D01*
X130970652Y-70683975D01*
G37*
G36*
X129313022Y-72987333D02*
G01*
X130970652Y-72996157D01*
X130970652Y-73097838D01*
X130968921Y-73140571D01*
X130951561Y-73183435D01*
X130901199Y-73208718D01*
X130800639Y-73229763D01*
X130738879Y-73241297D01*
X130656187Y-73258977D01*
X130618725Y-73270326D01*
X130624155Y-73284412D01*
X130664932Y-73334955D01*
X130733561Y-73407384D01*
X130798738Y-73479569D01*
X130925815Y-73684470D01*
X130996685Y-73909397D01*
X131012650Y-74143234D01*
X130975011Y-74374869D01*
X130885070Y-74593185D01*
X130744128Y-74787070D01*
X130553485Y-74945409D01*
X130401473Y-75027471D01*
X130139850Y-75115297D01*
X129863086Y-75153010D01*
X129788424Y-75149947D01*
X129584355Y-75141575D01*
X129316832Y-75081956D01*
X129073691Y-74975117D01*
X128868106Y-74822024D01*
X128777153Y-74725252D01*
X128672006Y-74566190D01*
X128609390Y-74384639D01*
X128580430Y-74160179D01*
X128580262Y-74041212D01*
X128849611Y-74041212D01*
X128857056Y-74215172D01*
X128893715Y-74358907D01*
X128971078Y-74494124D01*
X129123380Y-74652835D01*
X129317592Y-74772537D01*
X129542883Y-74848592D01*
X129788424Y-74876363D01*
X130043385Y-74851212D01*
X130153660Y-74822274D01*
X130362403Y-74726641D01*
X130525593Y-74594266D01*
X130642717Y-74434331D01*
X130713259Y-74256018D01*
X130736705Y-74068509D01*
X130712541Y-73880986D01*
X130640253Y-73702630D01*
X130519325Y-73542625D01*
X130349244Y-73410151D01*
X130129494Y-73314391D01*
X129879671Y-73265808D01*
X129632064Y-73269530D01*
X129400767Y-73322939D01*
X129196302Y-73422328D01*
X129029190Y-73563990D01*
X128909949Y-73744216D01*
X128870566Y-73867822D01*
X128849611Y-74041212D01*
X128580262Y-74041212D01*
X128580153Y-73963823D01*
X128617030Y-73764178D01*
X128701002Y-73587298D01*
X128838830Y-73413648D01*
X128990802Y-73251177D01*
X127655391Y-73251177D01*
X127655391Y-72978509D01*
X129313022Y-72987333D01*
G37*
G36*
X129886382Y-83951876D02*
G01*
X130053204Y-83961500D01*
X130189794Y-83986089D01*
X130323548Y-84029875D01*
X130466252Y-84101104D01*
X130658640Y-84245164D01*
X130827813Y-84425779D01*
X130954811Y-84625073D01*
X130986629Y-84694804D01*
X131013555Y-84776558D01*
X131029268Y-84870459D01*
X131036631Y-84995111D01*
X131038505Y-85169116D01*
X131038507Y-85178622D01*
X131036858Y-85347198D01*
X131029821Y-85467916D01*
X131014202Y-85559981D01*
X130986811Y-85642597D01*
X130944454Y-85734971D01*
X130878052Y-85852336D01*
X130704845Y-86061356D01*
X130488569Y-86224377D01*
X130237360Y-86337207D01*
X129959353Y-86395653D01*
X129772741Y-86395572D01*
X129662681Y-86395525D01*
X129405189Y-86342133D01*
X129155824Y-86231677D01*
X128940498Y-86073170D01*
X128767037Y-85873917D01*
X128643267Y-85641220D01*
X128577015Y-85382384D01*
X128572676Y-85346243D01*
X128568877Y-85150504D01*
X129126000Y-85150504D01*
X129137623Y-85342678D01*
X129191342Y-85493613D01*
X129292149Y-85618028D01*
X129391503Y-85690588D01*
X129571655Y-85764583D01*
X129772741Y-85796367D01*
X129976447Y-85785629D01*
X130164463Y-85732062D01*
X130318474Y-85635356D01*
X130323038Y-85631182D01*
X130436091Y-85483833D01*
X130496687Y-85310288D01*
X130506046Y-85125567D01*
X130465386Y-84944693D01*
X130375927Y-84782687D01*
X130238886Y-84654571D01*
X130231486Y-84649769D01*
X130059772Y-84575188D01*
X129859716Y-84542176D01*
X129656767Y-84552313D01*
X129476374Y-84607181D01*
X129431587Y-84631567D01*
X129316871Y-84713808D01*
X129228442Y-84802649D01*
X129175533Y-84885818D01*
X129141743Y-84989219D01*
X129126847Y-85130694D01*
X129126000Y-85150504D01*
X128568877Y-85150504D01*
X128566729Y-85039862D01*
X128620656Y-84764675D01*
X128735117Y-84518542D01*
X128910770Y-84299327D01*
X128955886Y-84255678D01*
X129137203Y-84112825D01*
X129329595Y-84018769D01*
X129549801Y-83967063D01*
X129814561Y-83951261D01*
X129886382Y-83951876D01*
G37*
G36*
X129869243Y-81258883D02*
G01*
X130033601Y-81261172D01*
X130152556Y-81268648D01*
X130243871Y-81283976D01*
X130325311Y-81309819D01*
X130414639Y-81348846D01*
X130497730Y-81391417D01*
X130718333Y-81549601D01*
X130886115Y-81746169D01*
X130997299Y-81975846D01*
X131048105Y-82233357D01*
X131048302Y-82236123D01*
X131053950Y-82435100D01*
X131035064Y-82592284D01*
X130986386Y-82730837D01*
X130902656Y-82873921D01*
X130885621Y-82899385D01*
X130831527Y-82988623D01*
X130820507Y-83040010D01*
X130854801Y-83067448D01*
X130936650Y-83084837D01*
X130951608Y-83088071D01*
X130980221Y-83106827D01*
X130997757Y-83151743D01*
X131007950Y-83236768D01*
X131014531Y-83375850D01*
X131024407Y-83655996D01*
X129814561Y-83655996D01*
X127655391Y-83655996D01*
X127655391Y-83043948D01*
X128819777Y-83043948D01*
X128763500Y-82967442D01*
X128700794Y-82871740D01*
X128599744Y-82633432D01*
X128566053Y-82414715D01*
X129114992Y-82414715D01*
X129131814Y-82587562D01*
X129190278Y-82737924D01*
X129272880Y-82848638D01*
X129411759Y-82956807D01*
X129589191Y-83019282D01*
X129814561Y-83040615D01*
X129971481Y-83029995D01*
X130173581Y-82971394D01*
X130332529Y-82866169D01*
X130443408Y-82719463D01*
X130501301Y-82536419D01*
X130501293Y-82322181D01*
X130462259Y-82177164D01*
X130362696Y-82028114D01*
X130208557Y-81918027D01*
X130001576Y-81848545D01*
X129967409Y-81841926D01*
X129728935Y-81827046D01*
X129516888Y-81870258D01*
X129336954Y-81969626D01*
X129194822Y-82123213D01*
X129139612Y-82246077D01*
X129114992Y-82414715D01*
X128566053Y-82414715D01*
X128560723Y-82380113D01*
X128584638Y-82122662D01*
X128672392Y-81871958D01*
X128691691Y-81834101D01*
X128825244Y-81633301D01*
X128995776Y-81475724D01*
X129217963Y-81347253D01*
X129240339Y-81336883D01*
X129325320Y-81301785D01*
X129407550Y-81279050D01*
X129504712Y-81266057D01*
X129634488Y-81260183D01*
X129814561Y-81258808D01*
X129869243Y-81258883D01*
G37*
G36*
X130238618Y-77705248D02*
G01*
X130342227Y-77742732D01*
X130516330Y-77832075D01*
X130679591Y-77943246D01*
X130804066Y-78058775D01*
X130892001Y-78175884D01*
X130990360Y-78376626D01*
X131041170Y-78606547D01*
X131048295Y-78878620D01*
X131046827Y-78907982D01*
X131020523Y-79142027D01*
X130965083Y-79333798D01*
X130872434Y-79503706D01*
X130734505Y-79672165D01*
X130678537Y-79727962D01*
X130456100Y-79889230D01*
X130196721Y-79995808D01*
X129906531Y-80044934D01*
X129729058Y-80046043D01*
X129444310Y-80001481D01*
X129187995Y-79902481D01*
X128966592Y-79753851D01*
X128786581Y-79560398D01*
X128654443Y-79326931D01*
X128576658Y-79058258D01*
X128576465Y-79057123D01*
X128559208Y-78777751D01*
X128599428Y-78506260D01*
X128693571Y-78256464D01*
X128838081Y-78042181D01*
X128925559Y-77960229D01*
X129072636Y-77856326D01*
X129236676Y-77765807D01*
X129390504Y-77705248D01*
X129491536Y-77676272D01*
X129491536Y-77977632D01*
X129491317Y-78041848D01*
X129487896Y-78165926D01*
X129478274Y-78240974D01*
X129459833Y-78280631D01*
X129429957Y-78298535D01*
X129405929Y-78310041D01*
X129333633Y-78362622D01*
X129252510Y-78437625D01*
X129193059Y-78504329D01*
X129154597Y-78571624D01*
X129135027Y-78657193D01*
X129125264Y-78785901D01*
X129123809Y-78818713D01*
X129124787Y-78949680D01*
X129142460Y-79042504D01*
X129180806Y-79121201D01*
X129181153Y-79121752D01*
X129315310Y-79276181D01*
X129484868Y-79383019D01*
X129676521Y-79441614D01*
X129876965Y-79451319D01*
X130072895Y-79411485D01*
X130251008Y-79321461D01*
X130397998Y-79180598D01*
X130412536Y-79160367D01*
X130483317Y-79007523D01*
X130511873Y-78834587D01*
X130496831Y-78664848D01*
X130436820Y-78521592D01*
X130425791Y-78506062D01*
X130340100Y-78409749D01*
X130248136Y-78334577D01*
X130243043Y-78331366D01*
X130192997Y-78296878D01*
X130162498Y-78260058D01*
X130146607Y-78204488D01*
X130140386Y-78113748D01*
X130138896Y-77971422D01*
X130137587Y-77676272D01*
X130238618Y-77705248D01*
G37*
G36*
X129919133Y-64838804D02*
G01*
X130026831Y-64843652D01*
X130286954Y-64892392D01*
X130513489Y-64996116D01*
X130715591Y-65158499D01*
X130844119Y-65307728D01*
X130936352Y-65475963D01*
X130986973Y-65669414D01*
X131003101Y-65906599D01*
X131002403Y-66000995D01*
X130992840Y-66143169D01*
X130968922Y-66256291D01*
X130926428Y-66365635D01*
X130920150Y-66379033D01*
X130781599Y-66593862D01*
X130591430Y-66776478D01*
X130362597Y-66914275D01*
X130280538Y-66949841D01*
X130187758Y-66981072D01*
X130090423Y-66998952D01*
X129967401Y-67007015D01*
X129933571Y-67007370D01*
X129797560Y-67008796D01*
X129794185Y-67008793D01*
X129610305Y-67005333D01*
X129472625Y-66993555D01*
X129359884Y-66970523D01*
X129250819Y-66933301D01*
X129196746Y-66910281D01*
X128967861Y-66771249D01*
X128783175Y-66586487D01*
X128649532Y-66364286D01*
X128573774Y-66112940D01*
X128562756Y-66030961D01*
X128567004Y-65761547D01*
X128631557Y-65508809D01*
X128752012Y-65281813D01*
X128923964Y-65089624D01*
X129143008Y-64941308D01*
X129253517Y-64884772D01*
X129253517Y-65037957D01*
X129251254Y-65104891D01*
X129233859Y-65178531D01*
X129188439Y-65245579D01*
X129102370Y-65330464D01*
X128981144Y-65472316D01*
X128888346Y-65665061D01*
X128850756Y-65871965D01*
X128867171Y-66080911D01*
X128936386Y-66279782D01*
X129057198Y-66456461D01*
X129228401Y-66598831D01*
X129262173Y-66618509D01*
X129396646Y-66677385D01*
X129515106Y-66701738D01*
X129641710Y-66705662D01*
X129642906Y-65917694D01*
X129933571Y-65917694D01*
X129933571Y-66749437D01*
X130078082Y-66717113D01*
X130086621Y-66715161D01*
X130305969Y-66632997D01*
X130485282Y-66504145D01*
X130620098Y-66338492D01*
X130705950Y-66145927D01*
X130738376Y-65936337D01*
X130712909Y-65719610D01*
X130625087Y-65505634D01*
X130572468Y-65428085D01*
X130447396Y-65298156D01*
X130302900Y-65196755D01*
X130161119Y-65141269D01*
X130068728Y-65121345D01*
X129993075Y-65102706D01*
X129974922Y-65101324D01*
X129960581Y-65113951D01*
X129949987Y-65148421D01*
X129942579Y-65212428D01*
X129937795Y-65313666D01*
X129935074Y-65459827D01*
X129933853Y-65658605D01*
X129933571Y-65917694D01*
X129642906Y-65917694D01*
X129643129Y-65770588D01*
X129644548Y-64835515D01*
X129919133Y-64838804D01*
G37*
G36*
X131154472Y-90762556D02*
G01*
X131174523Y-90783742D01*
X131323277Y-90994492D01*
X131413496Y-91239610D01*
X131444937Y-91518462D01*
X131446690Y-91781328D01*
X131872196Y-91356949D01*
X131993456Y-91237198D01*
X132119479Y-91115525D01*
X132222585Y-91019040D01*
X132294484Y-90955476D01*
X132326891Y-90932569D01*
X132332578Y-90938959D01*
X132341580Y-90995383D01*
X132344610Y-91097537D01*
X132340942Y-91230093D01*
X132334307Y-91333232D01*
X132315784Y-91477756D01*
X132283624Y-91594903D01*
X132231951Y-91710574D01*
X132156360Y-91835747D01*
X132006378Y-92020582D01*
X131831368Y-92182576D01*
X131652437Y-92300251D01*
X131491921Y-92381827D01*
X131627548Y-92471581D01*
X131711091Y-92530771D01*
X131924667Y-92729114D01*
X132081710Y-92955058D01*
X132178602Y-93202448D01*
X132211723Y-93465131D01*
X132211750Y-93702512D01*
X131876052Y-93368074D01*
X131540354Y-93033635D01*
X131525408Y-93334709D01*
X131513930Y-93470319D01*
X131451952Y-93751928D01*
X131338723Y-93993164D01*
X131172048Y-94199398D01*
X131021656Y-94346996D01*
X131021656Y-93503213D01*
X131021655Y-93483014D01*
X131021345Y-93226434D01*
X131020098Y-93029760D01*
X131017364Y-92885417D01*
X131012594Y-92785830D01*
X131005237Y-92723425D01*
X130994745Y-92690628D01*
X130980566Y-92679865D01*
X130962152Y-92683561D01*
X130831302Y-92734085D01*
X130516133Y-92833048D01*
X130191479Y-92900367D01*
X129839045Y-92939285D01*
X129440532Y-92953040D01*
X129363083Y-92953148D01*
X129181369Y-92951041D01*
X129023248Y-92946027D01*
X128903519Y-92938681D01*
X128836984Y-92929579D01*
X128743477Y-92903429D01*
X128743477Y-92577414D01*
X128744261Y-92440504D01*
X128748350Y-92341167D01*
X128758001Y-92288326D01*
X128775461Y-92270611D01*
X128802982Y-92276655D01*
X129115986Y-92393492D01*
X129507184Y-92489278D01*
X129891241Y-92522906D01*
X130278051Y-92495059D01*
X130677510Y-92406424D01*
X130860405Y-92353309D01*
X130375587Y-91867625D01*
X129890769Y-91381940D01*
X129997915Y-91358407D01*
X130090740Y-91347123D01*
X130281852Y-91367051D01*
X130479905Y-91433713D01*
X130668016Y-91538719D01*
X130829304Y-91673675D01*
X130946887Y-91830187D01*
X130955326Y-91845373D01*
X130973354Y-91872662D01*
X130986806Y-91876860D01*
X130996717Y-91850484D01*
X131004123Y-91786053D01*
X131010058Y-91676083D01*
X131015558Y-91513092D01*
X131021656Y-91289598D01*
X131038658Y-90643547D01*
X131154472Y-90762556D01*
G37*
G36*
X129517038Y-68463272D02*
G01*
X129754351Y-68466305D01*
X129981053Y-68470307D01*
X130155556Y-68475322D01*
X130286448Y-68481967D01*
X130382313Y-68490859D01*
X130451739Y-68502615D01*
X130503312Y-68517852D01*
X130545619Y-68537188D01*
X130715870Y-68649819D01*
X130866852Y-68815631D01*
X130964262Y-69020425D01*
X131011254Y-69269158D01*
X131015690Y-69400168D01*
X130983286Y-69651366D01*
X130898166Y-69870443D01*
X130764389Y-70051081D01*
X130586016Y-70186961D01*
X130367105Y-70271766D01*
X130341457Y-70277629D01*
X130294886Y-70278774D01*
X130276702Y-70244305D01*
X130273597Y-70158038D01*
X130273599Y-70155588D01*
X130280584Y-70064809D01*
X130312372Y-70013720D01*
X130385694Y-69974999D01*
X130486062Y-69917063D01*
X130607974Y-69787920D01*
X130691322Y-69619623D01*
X130730163Y-69425657D01*
X130718556Y-69219507D01*
X130661114Y-69042417D01*
X130553148Y-68895863D01*
X130400422Y-68799913D01*
X130205592Y-68756962D01*
X130052580Y-68745822D01*
X130032794Y-69221860D01*
X130023820Y-69399663D01*
X130005838Y-69611197D01*
X129979477Y-69775527D01*
X129941791Y-69904964D01*
X129889833Y-70011821D01*
X129820658Y-70108408D01*
X129797065Y-70135582D01*
X129639234Y-70263186D01*
X129458549Y-70335821D01*
X129355606Y-70346270D01*
X129267140Y-70355250D01*
X129077137Y-70323239D01*
X128900672Y-70241551D01*
X128749875Y-70111953D01*
X128636878Y-69936208D01*
X128627073Y-69913035D01*
X128587697Y-69755122D01*
X128574957Y-69544885D01*
X128575345Y-69530989D01*
X128847585Y-69530989D01*
X128861312Y-69705505D01*
X128903847Y-69847233D01*
X128973068Y-69937783D01*
X129091509Y-70020845D01*
X129227471Y-70069756D01*
X129355606Y-70071909D01*
X129464198Y-70031068D01*
X129598387Y-69923868D01*
X129699077Y-69768575D01*
X129720862Y-69713120D01*
X129741227Y-69630434D01*
X129753986Y-69522652D01*
X129760669Y-69375492D01*
X129762810Y-69174675D01*
X129763557Y-68719458D01*
X129574026Y-68741734D01*
X129406776Y-68773444D01*
X129196166Y-68861517D01*
X129031152Y-68999299D01*
X128910147Y-69187857D01*
X128905456Y-69198329D01*
X128862391Y-69352368D01*
X128847585Y-69530989D01*
X128575345Y-69530989D01*
X128577771Y-69444148D01*
X128609776Y-69237483D01*
X128683626Y-69060684D01*
X128807009Y-68892123D01*
X128877122Y-68808563D01*
X128906979Y-68757285D01*
X128892957Y-68734064D01*
X128836984Y-68728357D01*
X128777060Y-68726339D01*
X128675110Y-68705656D01*
X128622444Y-68656151D01*
X128607466Y-68569815D01*
X128607466Y-68452743D01*
X129517038Y-68463272D01*
G37*
G36*
X129370360Y-75408245D02*
G01*
X129377518Y-75409350D01*
X129511851Y-75445637D01*
X129622002Y-75512457D01*
X129712956Y-75617305D01*
X129789700Y-75767673D01*
X129857222Y-75971055D01*
X129920508Y-76234945D01*
X129959327Y-76413474D01*
X129993813Y-76553182D01*
X130025788Y-76650760D01*
X130060482Y-76719019D01*
X130103129Y-76770770D01*
X130158959Y-76818821D01*
X130166437Y-76824571D01*
X130288765Y-76883872D01*
X130407674Y-76883937D01*
X130516974Y-76832959D01*
X130610473Y-76739132D01*
X130681981Y-76610650D01*
X130725308Y-76455707D01*
X130734263Y-76282496D01*
X130702655Y-76099210D01*
X130692394Y-76066664D01*
X130611465Y-75902337D01*
X130499517Y-75781125D01*
X130367105Y-75715110D01*
X130308258Y-75692908D01*
X130279928Y-75648414D01*
X130273597Y-75559673D01*
X130273607Y-75553187D01*
X130279198Y-75470371D01*
X130303696Y-75434878D01*
X130359696Y-75427349D01*
X130406916Y-75430590D01*
X130561241Y-75479900D01*
X130711218Y-75579096D01*
X130841182Y-75715914D01*
X130935469Y-75878092D01*
X130964512Y-75961772D01*
X131004065Y-76165881D01*
X131013190Y-76382210D01*
X130989265Y-76576721D01*
X130954039Y-76695343D01*
X130853459Y-76894337D01*
X130715513Y-77040556D01*
X130543848Y-77130704D01*
X130342112Y-77161485D01*
X130302284Y-77160769D01*
X130136481Y-77136955D01*
X130000734Y-77075047D01*
X129890199Y-76969113D01*
X129800033Y-76813219D01*
X129725392Y-76601436D01*
X129661433Y-76327830D01*
X129644575Y-76244654D01*
X129597600Y-76047074D01*
X129548975Y-75903861D01*
X129493624Y-75805039D01*
X129426473Y-75740633D01*
X129342450Y-75700666D01*
X129294476Y-75686618D01*
X129205069Y-75680912D01*
X129108806Y-75714711D01*
X129077213Y-75730889D01*
X128975899Y-75809450D01*
X128909616Y-75919241D01*
X128873450Y-76071487D01*
X128862486Y-76277415D01*
X128863883Y-76359564D01*
X128885464Y-76561502D01*
X128936681Y-76713198D01*
X129022102Y-76824768D01*
X129146291Y-76906330D01*
X129182178Y-76924066D01*
X129252093Y-76968936D01*
X129281511Y-77021419D01*
X129287520Y-77105630D01*
X129287388Y-77135421D01*
X129280944Y-77203286D01*
X129254497Y-77223930D01*
X129194012Y-77213553D01*
X129091584Y-77181399D01*
X128891285Y-77070362D01*
X128734643Y-76909359D01*
X128627574Y-76703714D01*
X128625603Y-76698009D01*
X128596565Y-76564135D01*
X128580629Y-76390662D01*
X128578185Y-76203382D01*
X128589621Y-76028085D01*
X128615325Y-75890564D01*
X128638873Y-75832246D01*
X128712654Y-75710651D01*
X128810840Y-75591965D01*
X128887669Y-75519706D01*
X129027017Y-75431991D01*
X129181145Y-75397060D01*
X129370360Y-75408245D01*
G37*
D12*
%TO.C,TP6*%
X136000000Y-69250000D02*
G75*
G02*
X134000000Y-69250000I-1000000J0D01*
G01*
X134000000Y-69250000D02*
G75*
G02*
X136000000Y-69250000I1000000J0D01*
G01*
%TO.C,TP10*%
X126000000Y-66500000D02*
G75*
G02*
X124000000Y-66500000I-1000000J0D01*
G01*
X124000000Y-66500000D02*
G75*
G02*
X126000000Y-66500000I1000000J0D01*
G01*
%TO.C,TP12*%
X126000000Y-80000000D02*
G75*
G02*
X124000000Y-80000000I-1000000J0D01*
G01*
X124000000Y-80000000D02*
G75*
G02*
X126000000Y-80000000I1000000J0D01*
G01*
%TO.C,TP8*%
X126000000Y-76750000D02*
G75*
G02*
X124000000Y-76750000I-1000000J0D01*
G01*
X124000000Y-76750000D02*
G75*
G02*
X126000000Y-76750000I1000000J0D01*
G01*
%TO.C,TP11*%
X126000000Y-82500000D02*
G75*
G02*
X124000000Y-82500000I-1000000J0D01*
G01*
X124000000Y-82500000D02*
G75*
G02*
X126000000Y-82500000I1000000J0D01*
G01*
%TO.C,TP9*%
X126000000Y-71750000D02*
G75*
G02*
X124000000Y-71750000I-1000000J0D01*
G01*
X124000000Y-71750000D02*
G75*
G02*
X126000000Y-71750000I1000000J0D01*
G01*
%TO.C,TP3*%
X135500000Y-89500000D02*
G75*
G02*
X133500000Y-89500000I-1000000J0D01*
G01*
X133500000Y-89500000D02*
G75*
G02*
X135500000Y-89500000I1000000J0D01*
G01*
%TO.C,TP4*%
X136000000Y-74250000D02*
G75*
G02*
X134000000Y-74250000I-1000000J0D01*
G01*
X134000000Y-74250000D02*
G75*
G02*
X136000000Y-74250000I1000000J0D01*
G01*
%TO.C,TP1*%
X136000000Y-80000000D02*
G75*
G02*
X134000000Y-80000000I-1000000J0D01*
G01*
X134000000Y-80000000D02*
G75*
G02*
X136000000Y-80000000I1000000J0D01*
G01*
%TD*%
M02*
