M48
; DRILL file {KiCad 8.0.7+1} date 2025-02-11T11:56:58+0100
; FORMAT={-:-/ absolute / inch / decimal}
; #@! TF.CreationDate,2025-02-11T11:56:58+01:00
; #@! TF.GenerationSoftware,Kicad,Pcbnew,8.0.7+1
; #@! TF.FileFunction,Plated,1,2,PTH
FMAT,2
INCH
; #@! TA.AperFunction,Plated,PTH,ViaDrill
T1C0.0118
; #@! TA.AperFunction,Plated,PTH,ViaDrill
T2C0.0157
; #@! TA.AperFunction,Plated,PTH,ComponentDrill
T3C0.0197
; #@! TA.AperFunction,Plated,PTH,ComponentDrill
T4C0.0394
%
G90
G05
T1
X5.0848Y-4.2771
T2
X4.7638Y-2.0768
X4.7638Y-2.2638
X4.7638Y-2.5591
X4.7638Y-3.6417
X4.7638Y-4.0453
X4.7921Y-3.2063
X4.7933Y-3.5335
X4.813Y-3.7008
X4.8311Y-2.9551
X4.8327Y-2.0079
X4.8327Y-4.2913
X4.8376Y-3.1201
X4.8535Y-3.5213
X4.911Y-3.4587
X4.9161Y-3.5614
X4.9189Y-4.0996
X4.9556Y-3.561
X4.961Y-4.1303
X4.9657Y-3.3409
X4.9661Y-3.3803
X4.9724Y-2.2657
X4.9799Y-3.1709
X4.9988Y-4.1449
X5.0008Y-3.7138
X5.0264Y-3.0531
X5.0386Y-4.1858
X5.0413Y-3.337
X5.0421Y-3.2024
X5.0563Y-3.2982
X5.0689Y-4.0354
X5.0882Y-3.7146
X5.0972Y-3.3831
X5.0997Y-4.1853
X5.1134Y-3.6236
X5.1181Y-2.0079
X5.1323Y-3.1882
X5.139Y-4.1827
X5.1575Y-2.0768
X5.1575Y-2.1228
X5.1575Y-3.3811
X5.172Y-3.2496
X5.1728Y-3.2941
X5.1838Y-4.1823
X5.1882Y-3.0528
X5.1906Y-2.9567
X5.2008Y-2.252
X5.2252Y-3.4657
X5.226Y-2.3024
X5.2756Y-3.8386
X5.2949Y-3.1268
X5.2969Y-3.4677
X5.3386Y-2.0315
X5.378Y-2.2756
X5.3795Y-3.0406
X5.3858Y-2.0709
X5.4035Y-4.2913
X5.4331Y-2.1949
X5.4685Y-2.0591
X5.4717Y-3.089
X5.4724Y-2.2638
X5.4724Y-2.5591
X5.4724Y-3.4252
X5.4724Y-3.6417
X5.4724Y-3.8386
X5.4724Y-4.0354
X5.4724Y-4.1831
T4
X4.8173Y-2.4114
X4.9173Y-2.4114
X5.0173Y-2.4114
X5.1173Y-2.4114
X5.2173Y-2.4114
X5.3173Y-2.4114
X5.4173Y-2.4114
T3
G00X4.9724Y-4.2205
M15
G01X4.9724Y-4.252
M16
G05
G00X5.2638Y-4.2205
M15
G01X5.2638Y-4.252
M16
G05
M30
