%TF.GenerationSoftware,KiCad,Pcbnew,8.0.7+1*%
%TF.CreationDate,2025-02-11T11:57:01+01:00*%
%TF.ProjectId,ts13_dev_kit,74733133-5f64-4657-965f-6b69742e6b69,rev?*%
%TF.SameCoordinates,Original*%
%TF.FileFunction,Soldermask,Bot*%
%TF.FilePolarity,Negative*%
%FSLAX46Y46*%
G04 Gerber Fmt 4.6, Leading zero omitted, Abs format (unit mm)*
G04 Created by KiCad (PCBNEW 8.0.7+1) date 2025-02-11 11:57:01*
%MOMM*%
%LPD*%
G01*
G04 APERTURE LIST*
%ADD10C,0.150000*%
%ADD11C,1.600000*%
%ADD12C,1.450000*%
%ADD13C,2.200000*%
%ADD14O,1.000000X1.800000*%
%ADD15C,1.500000*%
G04 APERTURE END LIST*
D10*
X132666666Y-51869819D02*
X132095238Y-51869819D01*
X132380952Y-52869819D02*
X132380952Y-51869819D01*
X131809523Y-52822200D02*
X131666666Y-52869819D01*
X131666666Y-52869819D02*
X131428571Y-52869819D01*
X131428571Y-52869819D02*
X131333333Y-52822200D01*
X131333333Y-52822200D02*
X131285714Y-52774580D01*
X131285714Y-52774580D02*
X131238095Y-52679342D01*
X131238095Y-52679342D02*
X131238095Y-52584104D01*
X131238095Y-52584104D02*
X131285714Y-52488866D01*
X131285714Y-52488866D02*
X131333333Y-52441247D01*
X131333333Y-52441247D02*
X131428571Y-52393628D01*
X131428571Y-52393628D02*
X131619047Y-52346009D01*
X131619047Y-52346009D02*
X131714285Y-52298390D01*
X131714285Y-52298390D02*
X131761904Y-52250771D01*
X131761904Y-52250771D02*
X131809523Y-52155533D01*
X131809523Y-52155533D02*
X131809523Y-52060295D01*
X131809523Y-52060295D02*
X131761904Y-51965057D01*
X131761904Y-51965057D02*
X131714285Y-51917438D01*
X131714285Y-51917438D02*
X131619047Y-51869819D01*
X131619047Y-51869819D02*
X131380952Y-51869819D01*
X131380952Y-51869819D02*
X131238095Y-51917438D01*
X130285714Y-52869819D02*
X130857142Y-52869819D01*
X130571428Y-52869819D02*
X130571428Y-51869819D01*
X130571428Y-51869819D02*
X130666666Y-52012676D01*
X130666666Y-52012676D02*
X130761904Y-52107914D01*
X130761904Y-52107914D02*
X130857142Y-52155533D01*
X129952380Y-51869819D02*
X129333333Y-51869819D01*
X129333333Y-51869819D02*
X129666666Y-52250771D01*
X129666666Y-52250771D02*
X129523809Y-52250771D01*
X129523809Y-52250771D02*
X129428571Y-52298390D01*
X129428571Y-52298390D02*
X129380952Y-52346009D01*
X129380952Y-52346009D02*
X129333333Y-52441247D01*
X129333333Y-52441247D02*
X129333333Y-52679342D01*
X129333333Y-52679342D02*
X129380952Y-52774580D01*
X129380952Y-52774580D02*
X129428571Y-52822200D01*
X129428571Y-52822200D02*
X129523809Y-52869819D01*
X129523809Y-52869819D02*
X129809523Y-52869819D01*
X129809523Y-52869819D02*
X129904761Y-52822200D01*
X129904761Y-52822200D02*
X129952380Y-52774580D01*
X128714285Y-51869819D02*
X128619047Y-51869819D01*
X128619047Y-51869819D02*
X128523809Y-51917438D01*
X128523809Y-51917438D02*
X128476190Y-51965057D01*
X128476190Y-51965057D02*
X128428571Y-52060295D01*
X128428571Y-52060295D02*
X128380952Y-52250771D01*
X128380952Y-52250771D02*
X128380952Y-52488866D01*
X128380952Y-52488866D02*
X128428571Y-52679342D01*
X128428571Y-52679342D02*
X128476190Y-52774580D01*
X128476190Y-52774580D02*
X128523809Y-52822200D01*
X128523809Y-52822200D02*
X128619047Y-52869819D01*
X128619047Y-52869819D02*
X128714285Y-52869819D01*
X128714285Y-52869819D02*
X128809523Y-52822200D01*
X128809523Y-52822200D02*
X128857142Y-52774580D01*
X128857142Y-52774580D02*
X128904761Y-52679342D01*
X128904761Y-52679342D02*
X128952380Y-52488866D01*
X128952380Y-52488866D02*
X128952380Y-52250771D01*
X128952380Y-52250771D02*
X128904761Y-52060295D01*
X128904761Y-52060295D02*
X128857142Y-51965057D01*
X128857142Y-51965057D02*
X128809523Y-51917438D01*
X128809523Y-51917438D02*
X128714285Y-51869819D01*
X127428571Y-52869819D02*
X127999999Y-52869819D01*
X127714285Y-52869819D02*
X127714285Y-51869819D01*
X127714285Y-51869819D02*
X127809523Y-52012676D01*
X127809523Y-52012676D02*
X127904761Y-52107914D01*
X127904761Y-52107914D02*
X127999999Y-52155533D01*
D11*
%TO.C,PAD3*%
X124900000Y-61250000D03*
%TD*%
D12*
%TO.C,H4*%
X136330000Y-63000000D03*
%TD*%
%TO.C,H1*%
X121090000Y-63000000D03*
%TD*%
D11*
%TO.C,PAD4*%
X135060000Y-61250000D03*
%TD*%
%TO.C,PAD6*%
X129980000Y-61250000D03*
%TD*%
%TO.C,PAD2*%
X137600000Y-61250000D03*
%TD*%
D13*
%TO.C,H11*%
X140000000Y-95000000D03*
%TD*%
D12*
%TO.C,H6*%
X133790000Y-63000000D03*
%TD*%
%TO.C,H3*%
X126170000Y-63000000D03*
%TD*%
D11*
%TO.C,PAD1*%
X122360000Y-61250000D03*
%TD*%
D12*
%TO.C,H2*%
X123630000Y-63000000D03*
%TD*%
%TO.C,H5*%
X138870000Y-63000000D03*
%TD*%
D11*
%TO.C,PAD7*%
X127440000Y-61250000D03*
%TD*%
D12*
%TO.C,H8*%
X131250000Y-63000000D03*
%TD*%
D13*
%TO.C,H9*%
X122000000Y-55500000D03*
%TD*%
D14*
%TO.C,J1*%
X126300000Y-107600000D03*
X133700000Y-107600000D03*
%TD*%
D11*
%TO.C,PAD5*%
X132520000Y-61250000D03*
%TD*%
D13*
%TO.C,H10*%
X120000000Y-95000000D03*
%TD*%
D12*
%TO.C,H7*%
X128710000Y-63000000D03*
%TD*%
D15*
%TO.C,TP6*%
X124750000Y-84000000D03*
%TD*%
%TO.C,TP2*%
X132750000Y-81000000D03*
%TD*%
%TO.C,TP4*%
X130250000Y-77000000D03*
%TD*%
%TO.C,TP5*%
X130250000Y-74500000D03*
%TD*%
%TO.C,TP7*%
X124750000Y-86500000D03*
%TD*%
%TO.C,TP8*%
X124750000Y-81500000D03*
%TD*%
%TO.C,TP3*%
X130250000Y-79500000D03*
%TD*%
%TO.C,TP1*%
X133250000Y-86250000D03*
%TD*%
M02*
