%TF.GenerationSoftware,KiCad,Pcbnew,8.0.7+1*%
%TF.CreationDate,2025-02-11T11:56:57+01:00*%
%TF.ProjectId,ts13_dev_kit,74733133-5f64-4657-965f-6b69742e6b69,rev?*%
%TF.SameCoordinates,Original*%
%TF.FileFunction,Drillmap*%
%TF.FilePolarity,Positive*%
%FSLAX45Y45*%
G04 Gerber Fmt 4.5, Leading zero omitted, Abs format (unit mm)*
G04 Created by KiCad (PCBNEW 8.0.7+1) date 2025-02-11 11:56:57*
%MOMM*%
%LPD*%
G01*
G04 APERTURE LIST*
%ADD10C,0.050000*%
%ADD11C,0.200000*%
%ADD12C,0.145000*%
%ADD13C,0.220000*%
G04 APERTURE END LIST*
D10*
X12250000Y-11000000D02*
X13750000Y-11000000D01*
X13750000Y-5000000D02*
X12250000Y-5000000D01*
X12000000Y-5250000D02*
G75*
G02*
X12250000Y-5000000I250000J0D01*
G01*
X13750000Y-5000000D02*
G75*
G02*
X14000000Y-5250000I0J-250000D01*
G01*
X12000000Y-5250000D02*
X12000000Y-10750000D01*
X12250000Y-11000000D02*
G75*
G02*
X12000000Y-10750000I0J250000D01*
G01*
X14000000Y-10750000D02*
X14000000Y-5250000D01*
X14000000Y-10750000D02*
G75*
G02*
X13750000Y-11000000I-250000J0D01*
G01*
D11*
D12*
X12036500Y-6227500D02*
X12181500Y-6372500D01*
X12181500Y-6227500D02*
X12036500Y-6372500D01*
X12290500Y-6227500D02*
X12435500Y-6372500D01*
X12435500Y-6227500D02*
X12290500Y-6372500D01*
X12544500Y-6227500D02*
X12689500Y-6372500D01*
X12689500Y-6227500D02*
X12544500Y-6372500D01*
X12798500Y-6227500D02*
X12943500Y-6372500D01*
X12943500Y-6227500D02*
X12798500Y-6372500D01*
X13052500Y-6227500D02*
X13197500Y-6372500D01*
X13197500Y-6227500D02*
X13052500Y-6372500D01*
X13306500Y-6227500D02*
X13451500Y-6372500D01*
X13451500Y-6227500D02*
X13306500Y-6372500D01*
X13560500Y-6227500D02*
X13705500Y-6372500D01*
X13705500Y-6227500D02*
X13560500Y-6372500D01*
X13814500Y-6227500D02*
X13959500Y-6372500D01*
X13959500Y-6227500D02*
X13814500Y-6372500D01*
D13*
X12110000Y-9500000D02*
G75*
G02*
X11890000Y-9500000I-110000J0D01*
G01*
X11890000Y-9500000D02*
G75*
G02*
X12110000Y-9500000I110000J0D01*
G01*
X12310000Y-5550000D02*
G75*
G02*
X12090000Y-5550000I-110000J0D01*
G01*
X12090000Y-5550000D02*
G75*
G02*
X12310000Y-5550000I110000J0D01*
G01*
X14110000Y-9500000D02*
G75*
G02*
X13890000Y-9500000I-110000J0D01*
G01*
X13890000Y-9500000D02*
G75*
G02*
X14110000Y-9500000I110000J0D01*
G01*
D11*
X12258277Y-11313984D02*
X12258277Y-11113984D01*
X12258277Y-11113984D02*
X12305896Y-11113984D01*
X12305896Y-11113984D02*
X12334467Y-11123508D01*
X12334467Y-11123508D02*
X12353515Y-11142555D01*
X12353515Y-11142555D02*
X12363039Y-11161603D01*
X12363039Y-11161603D02*
X12372562Y-11199698D01*
X12372562Y-11199698D02*
X12372562Y-11228269D01*
X12372562Y-11228269D02*
X12363039Y-11266365D01*
X12363039Y-11266365D02*
X12353515Y-11285412D01*
X12353515Y-11285412D02*
X12334467Y-11304460D01*
X12334467Y-11304460D02*
X12305896Y-11313984D01*
X12305896Y-11313984D02*
X12258277Y-11313984D01*
X12458277Y-11313984D02*
X12458277Y-11180650D01*
X12458277Y-11218746D02*
X12467801Y-11199698D01*
X12467801Y-11199698D02*
X12477324Y-11190174D01*
X12477324Y-11190174D02*
X12496372Y-11180650D01*
X12496372Y-11180650D02*
X12515420Y-11180650D01*
X12582086Y-11313984D02*
X12582086Y-11180650D01*
X12582086Y-11113984D02*
X12572562Y-11123508D01*
X12572562Y-11123508D02*
X12582086Y-11133031D01*
X12582086Y-11133031D02*
X12591610Y-11123508D01*
X12591610Y-11123508D02*
X12582086Y-11113984D01*
X12582086Y-11113984D02*
X12582086Y-11133031D01*
X12705896Y-11313984D02*
X12686848Y-11304460D01*
X12686848Y-11304460D02*
X12677324Y-11285412D01*
X12677324Y-11285412D02*
X12677324Y-11113984D01*
X12810658Y-11313984D02*
X12791610Y-11304460D01*
X12791610Y-11304460D02*
X12782086Y-11285412D01*
X12782086Y-11285412D02*
X12782086Y-11113984D01*
X13039229Y-11313984D02*
X13039229Y-11113984D01*
X13039229Y-11113984D02*
X13105896Y-11256841D01*
X13105896Y-11256841D02*
X13172562Y-11113984D01*
X13172562Y-11113984D02*
X13172562Y-11313984D01*
X13353515Y-11313984D02*
X13353515Y-11209222D01*
X13353515Y-11209222D02*
X13343991Y-11190174D01*
X13343991Y-11190174D02*
X13324943Y-11180650D01*
X13324943Y-11180650D02*
X13286848Y-11180650D01*
X13286848Y-11180650D02*
X13267801Y-11190174D01*
X13353515Y-11304460D02*
X13334467Y-11313984D01*
X13334467Y-11313984D02*
X13286848Y-11313984D01*
X13286848Y-11313984D02*
X13267801Y-11304460D01*
X13267801Y-11304460D02*
X13258277Y-11285412D01*
X13258277Y-11285412D02*
X13258277Y-11266365D01*
X13258277Y-11266365D02*
X13267801Y-11247317D01*
X13267801Y-11247317D02*
X13286848Y-11237793D01*
X13286848Y-11237793D02*
X13334467Y-11237793D01*
X13334467Y-11237793D02*
X13353515Y-11228269D01*
X13448753Y-11180650D02*
X13448753Y-11380650D01*
X13448753Y-11190174D02*
X13467801Y-11180650D01*
X13467801Y-11180650D02*
X13505896Y-11180650D01*
X13505896Y-11180650D02*
X13524943Y-11190174D01*
X13524943Y-11190174D02*
X13534467Y-11199698D01*
X13534467Y-11199698D02*
X13543991Y-11218746D01*
X13543991Y-11218746D02*
X13543991Y-11275888D01*
X13543991Y-11275888D02*
X13534467Y-11294936D01*
X13534467Y-11294936D02*
X13524943Y-11304460D01*
X13524943Y-11304460D02*
X13505896Y-11313984D01*
X13505896Y-11313984D02*
X13467801Y-11313984D01*
X13467801Y-11313984D02*
X13448753Y-11304460D01*
X13629705Y-11294936D02*
X13639229Y-11304460D01*
X13639229Y-11304460D02*
X13629705Y-11313984D01*
X13629705Y-11313984D02*
X13620182Y-11304460D01*
X13620182Y-11304460D02*
X13629705Y-11294936D01*
X13629705Y-11294936D02*
X13629705Y-11313984D01*
X13629705Y-11190174D02*
X13639229Y-11199698D01*
X13639229Y-11199698D02*
X13629705Y-11209222D01*
X13629705Y-11209222D02*
X13620182Y-11199698D01*
X13620182Y-11199698D02*
X13629705Y-11190174D01*
X13629705Y-11190174D02*
X13629705Y-11209222D01*
D12*
X11852500Y-11570000D02*
X11997500Y-11715000D01*
X11997500Y-11570000D02*
X11852500Y-11715000D01*
D11*
X12363039Y-11733984D02*
X12248753Y-11733984D01*
X12305896Y-11733984D02*
X12305896Y-11533984D01*
X12305896Y-11533984D02*
X12286848Y-11562555D01*
X12286848Y-11562555D02*
X12267801Y-11581603D01*
X12267801Y-11581603D02*
X12248753Y-11591127D01*
X12448753Y-11714936D02*
X12458277Y-11724460D01*
X12458277Y-11724460D02*
X12448753Y-11733984D01*
X12448753Y-11733984D02*
X12439229Y-11724460D01*
X12439229Y-11724460D02*
X12448753Y-11714936D01*
X12448753Y-11714936D02*
X12448753Y-11733984D01*
X12629705Y-11600650D02*
X12629705Y-11733984D01*
X12582086Y-11524460D02*
X12534467Y-11667317D01*
X12534467Y-11667317D02*
X12658277Y-11667317D01*
X12829705Y-11533984D02*
X12734467Y-11533984D01*
X12734467Y-11533984D02*
X12724943Y-11629222D01*
X12724943Y-11629222D02*
X12734467Y-11619698D01*
X12734467Y-11619698D02*
X12753515Y-11610174D01*
X12753515Y-11610174D02*
X12801134Y-11610174D01*
X12801134Y-11610174D02*
X12820182Y-11619698D01*
X12820182Y-11619698D02*
X12829705Y-11629222D01*
X12829705Y-11629222D02*
X12839229Y-11648269D01*
X12839229Y-11648269D02*
X12839229Y-11695888D01*
X12839229Y-11695888D02*
X12829705Y-11714936D01*
X12829705Y-11714936D02*
X12820182Y-11724460D01*
X12820182Y-11724460D02*
X12801134Y-11733984D01*
X12801134Y-11733984D02*
X12753515Y-11733984D01*
X12753515Y-11733984D02*
X12734467Y-11724460D01*
X12734467Y-11724460D02*
X12724943Y-11714936D01*
X12963039Y-11533984D02*
X12982086Y-11533984D01*
X12982086Y-11533984D02*
X13001134Y-11543508D01*
X13001134Y-11543508D02*
X13010658Y-11553031D01*
X13010658Y-11553031D02*
X13020182Y-11572079D01*
X13020182Y-11572079D02*
X13029705Y-11610174D01*
X13029705Y-11610174D02*
X13029705Y-11657793D01*
X13029705Y-11657793D02*
X13020182Y-11695888D01*
X13020182Y-11695888D02*
X13010658Y-11714936D01*
X13010658Y-11714936D02*
X13001134Y-11724460D01*
X13001134Y-11724460D02*
X12982086Y-11733984D01*
X12982086Y-11733984D02*
X12963039Y-11733984D01*
X12963039Y-11733984D02*
X12943991Y-11724460D01*
X12943991Y-11724460D02*
X12934467Y-11714936D01*
X12934467Y-11714936D02*
X12924943Y-11695888D01*
X12924943Y-11695888D02*
X12915420Y-11657793D01*
X12915420Y-11657793D02*
X12915420Y-11610174D01*
X12915420Y-11610174D02*
X12924943Y-11572079D01*
X12924943Y-11572079D02*
X12934467Y-11553031D01*
X12934467Y-11553031D02*
X12943991Y-11543508D01*
X12943991Y-11543508D02*
X12963039Y-11533984D01*
X13115420Y-11733984D02*
X13115420Y-11600650D01*
X13115420Y-11619698D02*
X13124943Y-11610174D01*
X13124943Y-11610174D02*
X13143991Y-11600650D01*
X13143991Y-11600650D02*
X13172563Y-11600650D01*
X13172563Y-11600650D02*
X13191610Y-11610174D01*
X13191610Y-11610174D02*
X13201134Y-11629222D01*
X13201134Y-11629222D02*
X13201134Y-11733984D01*
X13201134Y-11629222D02*
X13210658Y-11610174D01*
X13210658Y-11610174D02*
X13229705Y-11600650D01*
X13229705Y-11600650D02*
X13258277Y-11600650D01*
X13258277Y-11600650D02*
X13277324Y-11610174D01*
X13277324Y-11610174D02*
X13286848Y-11629222D01*
X13286848Y-11629222D02*
X13286848Y-11733984D01*
X13382086Y-11733984D02*
X13382086Y-11600650D01*
X13382086Y-11619698D02*
X13391610Y-11610174D01*
X13391610Y-11610174D02*
X13410658Y-11600650D01*
X13410658Y-11600650D02*
X13439229Y-11600650D01*
X13439229Y-11600650D02*
X13458277Y-11610174D01*
X13458277Y-11610174D02*
X13467801Y-11629222D01*
X13467801Y-11629222D02*
X13467801Y-11733984D01*
X13467801Y-11629222D02*
X13477324Y-11610174D01*
X13477324Y-11610174D02*
X13496372Y-11600650D01*
X13496372Y-11600650D02*
X13524943Y-11600650D01*
X13524943Y-11600650D02*
X13543991Y-11610174D01*
X13543991Y-11610174D02*
X13553515Y-11629222D01*
X13553515Y-11629222D02*
X13553515Y-11733984D01*
X13943991Y-11524460D02*
X13772563Y-11781603D01*
X14201134Y-11533984D02*
X14220182Y-11533984D01*
X14220182Y-11533984D02*
X14239229Y-11543508D01*
X14239229Y-11543508D02*
X14248753Y-11553031D01*
X14248753Y-11553031D02*
X14258277Y-11572079D01*
X14258277Y-11572079D02*
X14267801Y-11610174D01*
X14267801Y-11610174D02*
X14267801Y-11657793D01*
X14267801Y-11657793D02*
X14258277Y-11695888D01*
X14258277Y-11695888D02*
X14248753Y-11714936D01*
X14248753Y-11714936D02*
X14239229Y-11724460D01*
X14239229Y-11724460D02*
X14220182Y-11733984D01*
X14220182Y-11733984D02*
X14201134Y-11733984D01*
X14201134Y-11733984D02*
X14182086Y-11724460D01*
X14182086Y-11724460D02*
X14172563Y-11714936D01*
X14172563Y-11714936D02*
X14163039Y-11695888D01*
X14163039Y-11695888D02*
X14153515Y-11657793D01*
X14153515Y-11657793D02*
X14153515Y-11610174D01*
X14153515Y-11610174D02*
X14163039Y-11572079D01*
X14163039Y-11572079D02*
X14172563Y-11553031D01*
X14172563Y-11553031D02*
X14182086Y-11543508D01*
X14182086Y-11543508D02*
X14201134Y-11533984D01*
X14353515Y-11714936D02*
X14363039Y-11724460D01*
X14363039Y-11724460D02*
X14353515Y-11733984D01*
X14353515Y-11733984D02*
X14343991Y-11724460D01*
X14343991Y-11724460D02*
X14353515Y-11714936D01*
X14353515Y-11714936D02*
X14353515Y-11733984D01*
X14486848Y-11533984D02*
X14505896Y-11533984D01*
X14505896Y-11533984D02*
X14524944Y-11543508D01*
X14524944Y-11543508D02*
X14534467Y-11553031D01*
X14534467Y-11553031D02*
X14543991Y-11572079D01*
X14543991Y-11572079D02*
X14553515Y-11610174D01*
X14553515Y-11610174D02*
X14553515Y-11657793D01*
X14553515Y-11657793D02*
X14543991Y-11695888D01*
X14543991Y-11695888D02*
X14534467Y-11714936D01*
X14534467Y-11714936D02*
X14524944Y-11724460D01*
X14524944Y-11724460D02*
X14505896Y-11733984D01*
X14505896Y-11733984D02*
X14486848Y-11733984D01*
X14486848Y-11733984D02*
X14467801Y-11724460D01*
X14467801Y-11724460D02*
X14458277Y-11714936D01*
X14458277Y-11714936D02*
X14448753Y-11695888D01*
X14448753Y-11695888D02*
X14439229Y-11657793D01*
X14439229Y-11657793D02*
X14439229Y-11610174D01*
X14439229Y-11610174D02*
X14448753Y-11572079D01*
X14448753Y-11572079D02*
X14458277Y-11553031D01*
X14458277Y-11553031D02*
X14467801Y-11543508D01*
X14467801Y-11543508D02*
X14486848Y-11533984D01*
X14734467Y-11533984D02*
X14639229Y-11533984D01*
X14639229Y-11533984D02*
X14629706Y-11629222D01*
X14629706Y-11629222D02*
X14639229Y-11619698D01*
X14639229Y-11619698D02*
X14658277Y-11610174D01*
X14658277Y-11610174D02*
X14705896Y-11610174D01*
X14705896Y-11610174D02*
X14724944Y-11619698D01*
X14724944Y-11619698D02*
X14734467Y-11629222D01*
X14734467Y-11629222D02*
X14743991Y-11648269D01*
X14743991Y-11648269D02*
X14743991Y-11695888D01*
X14743991Y-11695888D02*
X14734467Y-11714936D01*
X14734467Y-11714936D02*
X14724944Y-11724460D01*
X14724944Y-11724460D02*
X14705896Y-11733984D01*
X14705896Y-11733984D02*
X14658277Y-11733984D01*
X14658277Y-11733984D02*
X14639229Y-11724460D01*
X14639229Y-11724460D02*
X14629706Y-11714936D01*
X14810658Y-11533984D02*
X14943991Y-11533984D01*
X14943991Y-11533984D02*
X14858277Y-11733984D01*
X15124944Y-11733984D02*
X15010658Y-11733984D01*
X15067801Y-11733984D02*
X15067801Y-11533984D01*
X15067801Y-11533984D02*
X15048753Y-11562555D01*
X15048753Y-11562555D02*
X15029706Y-11581603D01*
X15029706Y-11581603D02*
X15010658Y-11591127D01*
X15201134Y-11533984D02*
X15201134Y-11572079D01*
X15277325Y-11533984D02*
X15277325Y-11572079D01*
X15572563Y-11810174D02*
X15563039Y-11800650D01*
X15563039Y-11800650D02*
X15543991Y-11772079D01*
X15543991Y-11772079D02*
X15534468Y-11753031D01*
X15534468Y-11753031D02*
X15524944Y-11724460D01*
X15524944Y-11724460D02*
X15515420Y-11676841D01*
X15515420Y-11676841D02*
X15515420Y-11638746D01*
X15515420Y-11638746D02*
X15524944Y-11591127D01*
X15524944Y-11591127D02*
X15534468Y-11562555D01*
X15534468Y-11562555D02*
X15543991Y-11543508D01*
X15543991Y-11543508D02*
X15563039Y-11514936D01*
X15563039Y-11514936D02*
X15572563Y-11505412D01*
X15677325Y-11619698D02*
X15658277Y-11610174D01*
X15658277Y-11610174D02*
X15648753Y-11600650D01*
X15648753Y-11600650D02*
X15639229Y-11581603D01*
X15639229Y-11581603D02*
X15639229Y-11572079D01*
X15639229Y-11572079D02*
X15648753Y-11553031D01*
X15648753Y-11553031D02*
X15658277Y-11543508D01*
X15658277Y-11543508D02*
X15677325Y-11533984D01*
X15677325Y-11533984D02*
X15715420Y-11533984D01*
X15715420Y-11533984D02*
X15734468Y-11543508D01*
X15734468Y-11543508D02*
X15743991Y-11553031D01*
X15743991Y-11553031D02*
X15753515Y-11572079D01*
X15753515Y-11572079D02*
X15753515Y-11581603D01*
X15753515Y-11581603D02*
X15743991Y-11600650D01*
X15743991Y-11600650D02*
X15734468Y-11610174D01*
X15734468Y-11610174D02*
X15715420Y-11619698D01*
X15715420Y-11619698D02*
X15677325Y-11619698D01*
X15677325Y-11619698D02*
X15658277Y-11629222D01*
X15658277Y-11629222D02*
X15648753Y-11638746D01*
X15648753Y-11638746D02*
X15639229Y-11657793D01*
X15639229Y-11657793D02*
X15639229Y-11695888D01*
X15639229Y-11695888D02*
X15648753Y-11714936D01*
X15648753Y-11714936D02*
X15658277Y-11724460D01*
X15658277Y-11724460D02*
X15677325Y-11733984D01*
X15677325Y-11733984D02*
X15715420Y-11733984D01*
X15715420Y-11733984D02*
X15734468Y-11724460D01*
X15734468Y-11724460D02*
X15743991Y-11714936D01*
X15743991Y-11714936D02*
X15753515Y-11695888D01*
X15753515Y-11695888D02*
X15753515Y-11657793D01*
X15753515Y-11657793D02*
X15743991Y-11638746D01*
X15743991Y-11638746D02*
X15734468Y-11629222D01*
X15734468Y-11629222D02*
X15715420Y-11619698D01*
X15991610Y-11733984D02*
X15991610Y-11533984D01*
X16077325Y-11733984D02*
X16077325Y-11629222D01*
X16077325Y-11629222D02*
X16067801Y-11610174D01*
X16067801Y-11610174D02*
X16048753Y-11600650D01*
X16048753Y-11600650D02*
X16020182Y-11600650D01*
X16020182Y-11600650D02*
X16001134Y-11610174D01*
X16001134Y-11610174D02*
X15991610Y-11619698D01*
X16201134Y-11733984D02*
X16182087Y-11724460D01*
X16182087Y-11724460D02*
X16172563Y-11714936D01*
X16172563Y-11714936D02*
X16163039Y-11695888D01*
X16163039Y-11695888D02*
X16163039Y-11638746D01*
X16163039Y-11638746D02*
X16172563Y-11619698D01*
X16172563Y-11619698D02*
X16182087Y-11610174D01*
X16182087Y-11610174D02*
X16201134Y-11600650D01*
X16201134Y-11600650D02*
X16229706Y-11600650D01*
X16229706Y-11600650D02*
X16248753Y-11610174D01*
X16248753Y-11610174D02*
X16258277Y-11619698D01*
X16258277Y-11619698D02*
X16267801Y-11638746D01*
X16267801Y-11638746D02*
X16267801Y-11695888D01*
X16267801Y-11695888D02*
X16258277Y-11714936D01*
X16258277Y-11714936D02*
X16248753Y-11724460D01*
X16248753Y-11724460D02*
X16229706Y-11733984D01*
X16229706Y-11733984D02*
X16201134Y-11733984D01*
X16382087Y-11733984D02*
X16363039Y-11724460D01*
X16363039Y-11724460D02*
X16353515Y-11705412D01*
X16353515Y-11705412D02*
X16353515Y-11533984D01*
X16534468Y-11724460D02*
X16515420Y-11733984D01*
X16515420Y-11733984D02*
X16477325Y-11733984D01*
X16477325Y-11733984D02*
X16458277Y-11724460D01*
X16458277Y-11724460D02*
X16448753Y-11705412D01*
X16448753Y-11705412D02*
X16448753Y-11629222D01*
X16448753Y-11629222D02*
X16458277Y-11610174D01*
X16458277Y-11610174D02*
X16477325Y-11600650D01*
X16477325Y-11600650D02*
X16515420Y-11600650D01*
X16515420Y-11600650D02*
X16534468Y-11610174D01*
X16534468Y-11610174D02*
X16543991Y-11629222D01*
X16543991Y-11629222D02*
X16543991Y-11648269D01*
X16543991Y-11648269D02*
X16448753Y-11667317D01*
X16620182Y-11724460D02*
X16639230Y-11733984D01*
X16639230Y-11733984D02*
X16677325Y-11733984D01*
X16677325Y-11733984D02*
X16696372Y-11724460D01*
X16696372Y-11724460D02*
X16705896Y-11705412D01*
X16705896Y-11705412D02*
X16705896Y-11695888D01*
X16705896Y-11695888D02*
X16696372Y-11676841D01*
X16696372Y-11676841D02*
X16677325Y-11667317D01*
X16677325Y-11667317D02*
X16648753Y-11667317D01*
X16648753Y-11667317D02*
X16629706Y-11657793D01*
X16629706Y-11657793D02*
X16620182Y-11638746D01*
X16620182Y-11638746D02*
X16620182Y-11629222D01*
X16620182Y-11629222D02*
X16629706Y-11610174D01*
X16629706Y-11610174D02*
X16648753Y-11600650D01*
X16648753Y-11600650D02*
X16677325Y-11600650D01*
X16677325Y-11600650D02*
X16696372Y-11610174D01*
X16772563Y-11810174D02*
X16782087Y-11800650D01*
X16782087Y-11800650D02*
X16801134Y-11772079D01*
X16801134Y-11772079D02*
X16810658Y-11753031D01*
X16810658Y-11753031D02*
X16820182Y-11724460D01*
X16820182Y-11724460D02*
X16829706Y-11676841D01*
X16829706Y-11676841D02*
X16829706Y-11638746D01*
X16829706Y-11638746D02*
X16820182Y-11591127D01*
X16820182Y-11591127D02*
X16810658Y-11562555D01*
X16810658Y-11562555D02*
X16801134Y-11543508D01*
X16801134Y-11543508D02*
X16782087Y-11514936D01*
X16782087Y-11514936D02*
X16772563Y-11505412D01*
X17134468Y-11810174D02*
X17124944Y-11800650D01*
X17124944Y-11800650D02*
X17105896Y-11772079D01*
X17105896Y-11772079D02*
X17096373Y-11753031D01*
X17096373Y-11753031D02*
X17086849Y-11724460D01*
X17086849Y-11724460D02*
X17077325Y-11676841D01*
X17077325Y-11676841D02*
X17077325Y-11638746D01*
X17077325Y-11638746D02*
X17086849Y-11591127D01*
X17086849Y-11591127D02*
X17096373Y-11562555D01*
X17096373Y-11562555D02*
X17105896Y-11543508D01*
X17105896Y-11543508D02*
X17124944Y-11514936D01*
X17124944Y-11514936D02*
X17134468Y-11505412D01*
X17210658Y-11600650D02*
X17210658Y-11733984D01*
X17210658Y-11619698D02*
X17220182Y-11610174D01*
X17220182Y-11610174D02*
X17239230Y-11600650D01*
X17239230Y-11600650D02*
X17267801Y-11600650D01*
X17267801Y-11600650D02*
X17286849Y-11610174D01*
X17286849Y-11610174D02*
X17296373Y-11629222D01*
X17296373Y-11629222D02*
X17296373Y-11733984D01*
X17420182Y-11733984D02*
X17401134Y-11724460D01*
X17401134Y-11724460D02*
X17391611Y-11714936D01*
X17391611Y-11714936D02*
X17382087Y-11695888D01*
X17382087Y-11695888D02*
X17382087Y-11638746D01*
X17382087Y-11638746D02*
X17391611Y-11619698D01*
X17391611Y-11619698D02*
X17401134Y-11610174D01*
X17401134Y-11610174D02*
X17420182Y-11600650D01*
X17420182Y-11600650D02*
X17448754Y-11600650D01*
X17448754Y-11600650D02*
X17467801Y-11610174D01*
X17467801Y-11610174D02*
X17477325Y-11619698D01*
X17477325Y-11619698D02*
X17486849Y-11638746D01*
X17486849Y-11638746D02*
X17486849Y-11695888D01*
X17486849Y-11695888D02*
X17477325Y-11714936D01*
X17477325Y-11714936D02*
X17467801Y-11724460D01*
X17467801Y-11724460D02*
X17448754Y-11733984D01*
X17448754Y-11733984D02*
X17420182Y-11733984D01*
X17543992Y-11600650D02*
X17620182Y-11600650D01*
X17572563Y-11533984D02*
X17572563Y-11705412D01*
X17572563Y-11705412D02*
X17582087Y-11724460D01*
X17582087Y-11724460D02*
X17601134Y-11733984D01*
X17601134Y-11733984D02*
X17620182Y-11733984D01*
X17839230Y-11600650D02*
X17839230Y-11800650D01*
X17839230Y-11610174D02*
X17858277Y-11600650D01*
X17858277Y-11600650D02*
X17896373Y-11600650D01*
X17896373Y-11600650D02*
X17915420Y-11610174D01*
X17915420Y-11610174D02*
X17924944Y-11619698D01*
X17924944Y-11619698D02*
X17934468Y-11638746D01*
X17934468Y-11638746D02*
X17934468Y-11695888D01*
X17934468Y-11695888D02*
X17924944Y-11714936D01*
X17924944Y-11714936D02*
X17915420Y-11724460D01*
X17915420Y-11724460D02*
X17896373Y-11733984D01*
X17896373Y-11733984D02*
X17858277Y-11733984D01*
X17858277Y-11733984D02*
X17839230Y-11724460D01*
X18048754Y-11733984D02*
X18029706Y-11724460D01*
X18029706Y-11724460D02*
X18020182Y-11705412D01*
X18020182Y-11705412D02*
X18020182Y-11533984D01*
X18210658Y-11733984D02*
X18210658Y-11629222D01*
X18210658Y-11629222D02*
X18201135Y-11610174D01*
X18201135Y-11610174D02*
X18182087Y-11600650D01*
X18182087Y-11600650D02*
X18143992Y-11600650D01*
X18143992Y-11600650D02*
X18124944Y-11610174D01*
X18210658Y-11724460D02*
X18191611Y-11733984D01*
X18191611Y-11733984D02*
X18143992Y-11733984D01*
X18143992Y-11733984D02*
X18124944Y-11724460D01*
X18124944Y-11724460D02*
X18115420Y-11705412D01*
X18115420Y-11705412D02*
X18115420Y-11686365D01*
X18115420Y-11686365D02*
X18124944Y-11667317D01*
X18124944Y-11667317D02*
X18143992Y-11657793D01*
X18143992Y-11657793D02*
X18191611Y-11657793D01*
X18191611Y-11657793D02*
X18210658Y-11648269D01*
X18277325Y-11600650D02*
X18353515Y-11600650D01*
X18305896Y-11533984D02*
X18305896Y-11705412D01*
X18305896Y-11705412D02*
X18315420Y-11724460D01*
X18315420Y-11724460D02*
X18334468Y-11733984D01*
X18334468Y-11733984D02*
X18353515Y-11733984D01*
X18496373Y-11724460D02*
X18477325Y-11733984D01*
X18477325Y-11733984D02*
X18439230Y-11733984D01*
X18439230Y-11733984D02*
X18420182Y-11724460D01*
X18420182Y-11724460D02*
X18410658Y-11705412D01*
X18410658Y-11705412D02*
X18410658Y-11629222D01*
X18410658Y-11629222D02*
X18420182Y-11610174D01*
X18420182Y-11610174D02*
X18439230Y-11600650D01*
X18439230Y-11600650D02*
X18477325Y-11600650D01*
X18477325Y-11600650D02*
X18496373Y-11610174D01*
X18496373Y-11610174D02*
X18505896Y-11629222D01*
X18505896Y-11629222D02*
X18505896Y-11648269D01*
X18505896Y-11648269D02*
X18410658Y-11667317D01*
X18677325Y-11733984D02*
X18677325Y-11533984D01*
X18677325Y-11724460D02*
X18658277Y-11733984D01*
X18658277Y-11733984D02*
X18620182Y-11733984D01*
X18620182Y-11733984D02*
X18601135Y-11724460D01*
X18601135Y-11724460D02*
X18591611Y-11714936D01*
X18591611Y-11714936D02*
X18582087Y-11695888D01*
X18582087Y-11695888D02*
X18582087Y-11638746D01*
X18582087Y-11638746D02*
X18591611Y-11619698D01*
X18591611Y-11619698D02*
X18601135Y-11610174D01*
X18601135Y-11610174D02*
X18620182Y-11600650D01*
X18620182Y-11600650D02*
X18658277Y-11600650D01*
X18658277Y-11600650D02*
X18677325Y-11610174D01*
X18753516Y-11810174D02*
X18763039Y-11800650D01*
X18763039Y-11800650D02*
X18782087Y-11772079D01*
X18782087Y-11772079D02*
X18791611Y-11753031D01*
X18791611Y-11753031D02*
X18801135Y-11724460D01*
X18801135Y-11724460D02*
X18810658Y-11676841D01*
X18810658Y-11676841D02*
X18810658Y-11638746D01*
X18810658Y-11638746D02*
X18801135Y-11591127D01*
X18801135Y-11591127D02*
X18791611Y-11562555D01*
X18791611Y-11562555D02*
X18782087Y-11543508D01*
X18782087Y-11543508D02*
X18763039Y-11514936D01*
X18763039Y-11514936D02*
X18753516Y-11505412D01*
X11997500Y-11907500D02*
G75*
G02*
X11797500Y-11907500I-100000J0D01*
G01*
X11797500Y-11907500D02*
G75*
G02*
X11997500Y-11907500I100000J0D01*
G01*
X12248753Y-11818031D02*
X12258277Y-11808508D01*
X12258277Y-11808508D02*
X12277324Y-11798984D01*
X12277324Y-11798984D02*
X12324943Y-11798984D01*
X12324943Y-11798984D02*
X12343991Y-11808508D01*
X12343991Y-11808508D02*
X12353515Y-11818031D01*
X12353515Y-11818031D02*
X12363039Y-11837079D01*
X12363039Y-11837079D02*
X12363039Y-11856127D01*
X12363039Y-11856127D02*
X12353515Y-11884698D01*
X12353515Y-11884698D02*
X12239229Y-11998984D01*
X12239229Y-11998984D02*
X12363039Y-11998984D01*
X12448753Y-11979936D02*
X12458277Y-11989460D01*
X12458277Y-11989460D02*
X12448753Y-11998984D01*
X12448753Y-11998984D02*
X12439229Y-11989460D01*
X12439229Y-11989460D02*
X12448753Y-11979936D01*
X12448753Y-11979936D02*
X12448753Y-11998984D01*
X12534467Y-11818031D02*
X12543991Y-11808508D01*
X12543991Y-11808508D02*
X12563039Y-11798984D01*
X12563039Y-11798984D02*
X12610658Y-11798984D01*
X12610658Y-11798984D02*
X12629705Y-11808508D01*
X12629705Y-11808508D02*
X12639229Y-11818031D01*
X12639229Y-11818031D02*
X12648753Y-11837079D01*
X12648753Y-11837079D02*
X12648753Y-11856127D01*
X12648753Y-11856127D02*
X12639229Y-11884698D01*
X12639229Y-11884698D02*
X12524943Y-11998984D01*
X12524943Y-11998984D02*
X12648753Y-11998984D01*
X12772562Y-11798984D02*
X12791610Y-11798984D01*
X12791610Y-11798984D02*
X12810658Y-11808508D01*
X12810658Y-11808508D02*
X12820182Y-11818031D01*
X12820182Y-11818031D02*
X12829705Y-11837079D01*
X12829705Y-11837079D02*
X12839229Y-11875174D01*
X12839229Y-11875174D02*
X12839229Y-11922793D01*
X12839229Y-11922793D02*
X12829705Y-11960888D01*
X12829705Y-11960888D02*
X12820182Y-11979936D01*
X12820182Y-11979936D02*
X12810658Y-11989460D01*
X12810658Y-11989460D02*
X12791610Y-11998984D01*
X12791610Y-11998984D02*
X12772562Y-11998984D01*
X12772562Y-11998984D02*
X12753515Y-11989460D01*
X12753515Y-11989460D02*
X12743991Y-11979936D01*
X12743991Y-11979936D02*
X12734467Y-11960888D01*
X12734467Y-11960888D02*
X12724943Y-11922793D01*
X12724943Y-11922793D02*
X12724943Y-11875174D01*
X12724943Y-11875174D02*
X12734467Y-11837079D01*
X12734467Y-11837079D02*
X12743991Y-11818031D01*
X12743991Y-11818031D02*
X12753515Y-11808508D01*
X12753515Y-11808508D02*
X12772562Y-11798984D01*
X12963039Y-11798984D02*
X12982086Y-11798984D01*
X12982086Y-11798984D02*
X13001134Y-11808508D01*
X13001134Y-11808508D02*
X13010658Y-11818031D01*
X13010658Y-11818031D02*
X13020182Y-11837079D01*
X13020182Y-11837079D02*
X13029705Y-11875174D01*
X13029705Y-11875174D02*
X13029705Y-11922793D01*
X13029705Y-11922793D02*
X13020182Y-11960888D01*
X13020182Y-11960888D02*
X13010658Y-11979936D01*
X13010658Y-11979936D02*
X13001134Y-11989460D01*
X13001134Y-11989460D02*
X12982086Y-11998984D01*
X12982086Y-11998984D02*
X12963039Y-11998984D01*
X12963039Y-11998984D02*
X12943991Y-11989460D01*
X12943991Y-11989460D02*
X12934467Y-11979936D01*
X12934467Y-11979936D02*
X12924943Y-11960888D01*
X12924943Y-11960888D02*
X12915420Y-11922793D01*
X12915420Y-11922793D02*
X12915420Y-11875174D01*
X12915420Y-11875174D02*
X12924943Y-11837079D01*
X12924943Y-11837079D02*
X12934467Y-11818031D01*
X12934467Y-11818031D02*
X12943991Y-11808508D01*
X12943991Y-11808508D02*
X12963039Y-11798984D01*
X13115420Y-11998984D02*
X13115420Y-11865650D01*
X13115420Y-11884698D02*
X13124943Y-11875174D01*
X13124943Y-11875174D02*
X13143991Y-11865650D01*
X13143991Y-11865650D02*
X13172563Y-11865650D01*
X13172563Y-11865650D02*
X13191610Y-11875174D01*
X13191610Y-11875174D02*
X13201134Y-11894222D01*
X13201134Y-11894222D02*
X13201134Y-11998984D01*
X13201134Y-11894222D02*
X13210658Y-11875174D01*
X13210658Y-11875174D02*
X13229705Y-11865650D01*
X13229705Y-11865650D02*
X13258277Y-11865650D01*
X13258277Y-11865650D02*
X13277324Y-11875174D01*
X13277324Y-11875174D02*
X13286848Y-11894222D01*
X13286848Y-11894222D02*
X13286848Y-11998984D01*
X13382086Y-11998984D02*
X13382086Y-11865650D01*
X13382086Y-11884698D02*
X13391610Y-11875174D01*
X13391610Y-11875174D02*
X13410658Y-11865650D01*
X13410658Y-11865650D02*
X13439229Y-11865650D01*
X13439229Y-11865650D02*
X13458277Y-11875174D01*
X13458277Y-11875174D02*
X13467801Y-11894222D01*
X13467801Y-11894222D02*
X13467801Y-11998984D01*
X13467801Y-11894222D02*
X13477324Y-11875174D01*
X13477324Y-11875174D02*
X13496372Y-11865650D01*
X13496372Y-11865650D02*
X13524943Y-11865650D01*
X13524943Y-11865650D02*
X13543991Y-11875174D01*
X13543991Y-11875174D02*
X13553515Y-11894222D01*
X13553515Y-11894222D02*
X13553515Y-11998984D01*
X13943991Y-11789460D02*
X13772563Y-12046603D01*
X14201134Y-11798984D02*
X14220182Y-11798984D01*
X14220182Y-11798984D02*
X14239229Y-11808508D01*
X14239229Y-11808508D02*
X14248753Y-11818031D01*
X14248753Y-11818031D02*
X14258277Y-11837079D01*
X14258277Y-11837079D02*
X14267801Y-11875174D01*
X14267801Y-11875174D02*
X14267801Y-11922793D01*
X14267801Y-11922793D02*
X14258277Y-11960888D01*
X14258277Y-11960888D02*
X14248753Y-11979936D01*
X14248753Y-11979936D02*
X14239229Y-11989460D01*
X14239229Y-11989460D02*
X14220182Y-11998984D01*
X14220182Y-11998984D02*
X14201134Y-11998984D01*
X14201134Y-11998984D02*
X14182086Y-11989460D01*
X14182086Y-11989460D02*
X14172563Y-11979936D01*
X14172563Y-11979936D02*
X14163039Y-11960888D01*
X14163039Y-11960888D02*
X14153515Y-11922793D01*
X14153515Y-11922793D02*
X14153515Y-11875174D01*
X14153515Y-11875174D02*
X14163039Y-11837079D01*
X14163039Y-11837079D02*
X14172563Y-11818031D01*
X14172563Y-11818031D02*
X14182086Y-11808508D01*
X14182086Y-11808508D02*
X14201134Y-11798984D01*
X14353515Y-11979936D02*
X14363039Y-11989460D01*
X14363039Y-11989460D02*
X14353515Y-11998984D01*
X14353515Y-11998984D02*
X14343991Y-11989460D01*
X14343991Y-11989460D02*
X14353515Y-11979936D01*
X14353515Y-11979936D02*
X14353515Y-11998984D01*
X14486848Y-11798984D02*
X14505896Y-11798984D01*
X14505896Y-11798984D02*
X14524944Y-11808508D01*
X14524944Y-11808508D02*
X14534467Y-11818031D01*
X14534467Y-11818031D02*
X14543991Y-11837079D01*
X14543991Y-11837079D02*
X14553515Y-11875174D01*
X14553515Y-11875174D02*
X14553515Y-11922793D01*
X14553515Y-11922793D02*
X14543991Y-11960888D01*
X14543991Y-11960888D02*
X14534467Y-11979936D01*
X14534467Y-11979936D02*
X14524944Y-11989460D01*
X14524944Y-11989460D02*
X14505896Y-11998984D01*
X14505896Y-11998984D02*
X14486848Y-11998984D01*
X14486848Y-11998984D02*
X14467801Y-11989460D01*
X14467801Y-11989460D02*
X14458277Y-11979936D01*
X14458277Y-11979936D02*
X14448753Y-11960888D01*
X14448753Y-11960888D02*
X14439229Y-11922793D01*
X14439229Y-11922793D02*
X14439229Y-11875174D01*
X14439229Y-11875174D02*
X14448753Y-11837079D01*
X14448753Y-11837079D02*
X14458277Y-11818031D01*
X14458277Y-11818031D02*
X14467801Y-11808508D01*
X14467801Y-11808508D02*
X14486848Y-11798984D01*
X14667801Y-11884698D02*
X14648753Y-11875174D01*
X14648753Y-11875174D02*
X14639229Y-11865650D01*
X14639229Y-11865650D02*
X14629706Y-11846603D01*
X14629706Y-11846603D02*
X14629706Y-11837079D01*
X14629706Y-11837079D02*
X14639229Y-11818031D01*
X14639229Y-11818031D02*
X14648753Y-11808508D01*
X14648753Y-11808508D02*
X14667801Y-11798984D01*
X14667801Y-11798984D02*
X14705896Y-11798984D01*
X14705896Y-11798984D02*
X14724944Y-11808508D01*
X14724944Y-11808508D02*
X14734467Y-11818031D01*
X14734467Y-11818031D02*
X14743991Y-11837079D01*
X14743991Y-11837079D02*
X14743991Y-11846603D01*
X14743991Y-11846603D02*
X14734467Y-11865650D01*
X14734467Y-11865650D02*
X14724944Y-11875174D01*
X14724944Y-11875174D02*
X14705896Y-11884698D01*
X14705896Y-11884698D02*
X14667801Y-11884698D01*
X14667801Y-11884698D02*
X14648753Y-11894222D01*
X14648753Y-11894222D02*
X14639229Y-11903746D01*
X14639229Y-11903746D02*
X14629706Y-11922793D01*
X14629706Y-11922793D02*
X14629706Y-11960888D01*
X14629706Y-11960888D02*
X14639229Y-11979936D01*
X14639229Y-11979936D02*
X14648753Y-11989460D01*
X14648753Y-11989460D02*
X14667801Y-11998984D01*
X14667801Y-11998984D02*
X14705896Y-11998984D01*
X14705896Y-11998984D02*
X14724944Y-11989460D01*
X14724944Y-11989460D02*
X14734467Y-11979936D01*
X14734467Y-11979936D02*
X14743991Y-11960888D01*
X14743991Y-11960888D02*
X14743991Y-11922793D01*
X14743991Y-11922793D02*
X14734467Y-11903746D01*
X14734467Y-11903746D02*
X14724944Y-11894222D01*
X14724944Y-11894222D02*
X14705896Y-11884698D01*
X14915420Y-11798984D02*
X14877325Y-11798984D01*
X14877325Y-11798984D02*
X14858277Y-11808508D01*
X14858277Y-11808508D02*
X14848753Y-11818031D01*
X14848753Y-11818031D02*
X14829706Y-11846603D01*
X14829706Y-11846603D02*
X14820182Y-11884698D01*
X14820182Y-11884698D02*
X14820182Y-11960888D01*
X14820182Y-11960888D02*
X14829706Y-11979936D01*
X14829706Y-11979936D02*
X14839229Y-11989460D01*
X14839229Y-11989460D02*
X14858277Y-11998984D01*
X14858277Y-11998984D02*
X14896372Y-11998984D01*
X14896372Y-11998984D02*
X14915420Y-11989460D01*
X14915420Y-11989460D02*
X14924944Y-11979936D01*
X14924944Y-11979936D02*
X14934467Y-11960888D01*
X14934467Y-11960888D02*
X14934467Y-11913269D01*
X14934467Y-11913269D02*
X14924944Y-11894222D01*
X14924944Y-11894222D02*
X14915420Y-11884698D01*
X14915420Y-11884698D02*
X14896372Y-11875174D01*
X14896372Y-11875174D02*
X14858277Y-11875174D01*
X14858277Y-11875174D02*
X14839229Y-11884698D01*
X14839229Y-11884698D02*
X14829706Y-11894222D01*
X14829706Y-11894222D02*
X14820182Y-11913269D01*
X15105896Y-11798984D02*
X15067801Y-11798984D01*
X15067801Y-11798984D02*
X15048753Y-11808508D01*
X15048753Y-11808508D02*
X15039229Y-11818031D01*
X15039229Y-11818031D02*
X15020182Y-11846603D01*
X15020182Y-11846603D02*
X15010658Y-11884698D01*
X15010658Y-11884698D02*
X15010658Y-11960888D01*
X15010658Y-11960888D02*
X15020182Y-11979936D01*
X15020182Y-11979936D02*
X15029706Y-11989460D01*
X15029706Y-11989460D02*
X15048753Y-11998984D01*
X15048753Y-11998984D02*
X15086848Y-11998984D01*
X15086848Y-11998984D02*
X15105896Y-11989460D01*
X15105896Y-11989460D02*
X15115420Y-11979936D01*
X15115420Y-11979936D02*
X15124944Y-11960888D01*
X15124944Y-11960888D02*
X15124944Y-11913269D01*
X15124944Y-11913269D02*
X15115420Y-11894222D01*
X15115420Y-11894222D02*
X15105896Y-11884698D01*
X15105896Y-11884698D02*
X15086848Y-11875174D01*
X15086848Y-11875174D02*
X15048753Y-11875174D01*
X15048753Y-11875174D02*
X15029706Y-11884698D01*
X15029706Y-11884698D02*
X15020182Y-11894222D01*
X15020182Y-11894222D02*
X15010658Y-11913269D01*
X15201134Y-11798984D02*
X15201134Y-11837079D01*
X15277325Y-11798984D02*
X15277325Y-11837079D01*
X15572563Y-12075174D02*
X15563039Y-12065650D01*
X15563039Y-12065650D02*
X15543991Y-12037079D01*
X15543991Y-12037079D02*
X15534468Y-12018031D01*
X15534468Y-12018031D02*
X15524944Y-11989460D01*
X15524944Y-11989460D02*
X15515420Y-11941841D01*
X15515420Y-11941841D02*
X15515420Y-11903746D01*
X15515420Y-11903746D02*
X15524944Y-11856127D01*
X15524944Y-11856127D02*
X15534468Y-11827555D01*
X15534468Y-11827555D02*
X15543991Y-11808508D01*
X15543991Y-11808508D02*
X15563039Y-11779936D01*
X15563039Y-11779936D02*
X15572563Y-11770412D01*
X15629706Y-11798984D02*
X15753515Y-11798984D01*
X15753515Y-11798984D02*
X15686848Y-11875174D01*
X15686848Y-11875174D02*
X15715420Y-11875174D01*
X15715420Y-11875174D02*
X15734468Y-11884698D01*
X15734468Y-11884698D02*
X15743991Y-11894222D01*
X15743991Y-11894222D02*
X15753515Y-11913269D01*
X15753515Y-11913269D02*
X15753515Y-11960888D01*
X15753515Y-11960888D02*
X15743991Y-11979936D01*
X15743991Y-11979936D02*
X15734468Y-11989460D01*
X15734468Y-11989460D02*
X15715420Y-11998984D01*
X15715420Y-11998984D02*
X15658277Y-11998984D01*
X15658277Y-11998984D02*
X15639229Y-11989460D01*
X15639229Y-11989460D02*
X15629706Y-11979936D01*
X15991610Y-11998984D02*
X15991610Y-11798984D01*
X16077325Y-11998984D02*
X16077325Y-11894222D01*
X16077325Y-11894222D02*
X16067801Y-11875174D01*
X16067801Y-11875174D02*
X16048753Y-11865650D01*
X16048753Y-11865650D02*
X16020182Y-11865650D01*
X16020182Y-11865650D02*
X16001134Y-11875174D01*
X16001134Y-11875174D02*
X15991610Y-11884698D01*
X16201134Y-11998984D02*
X16182087Y-11989460D01*
X16182087Y-11989460D02*
X16172563Y-11979936D01*
X16172563Y-11979936D02*
X16163039Y-11960888D01*
X16163039Y-11960888D02*
X16163039Y-11903746D01*
X16163039Y-11903746D02*
X16172563Y-11884698D01*
X16172563Y-11884698D02*
X16182087Y-11875174D01*
X16182087Y-11875174D02*
X16201134Y-11865650D01*
X16201134Y-11865650D02*
X16229706Y-11865650D01*
X16229706Y-11865650D02*
X16248753Y-11875174D01*
X16248753Y-11875174D02*
X16258277Y-11884698D01*
X16258277Y-11884698D02*
X16267801Y-11903746D01*
X16267801Y-11903746D02*
X16267801Y-11960888D01*
X16267801Y-11960888D02*
X16258277Y-11979936D01*
X16258277Y-11979936D02*
X16248753Y-11989460D01*
X16248753Y-11989460D02*
X16229706Y-11998984D01*
X16229706Y-11998984D02*
X16201134Y-11998984D01*
X16382087Y-11998984D02*
X16363039Y-11989460D01*
X16363039Y-11989460D02*
X16353515Y-11970412D01*
X16353515Y-11970412D02*
X16353515Y-11798984D01*
X16534468Y-11989460D02*
X16515420Y-11998984D01*
X16515420Y-11998984D02*
X16477325Y-11998984D01*
X16477325Y-11998984D02*
X16458277Y-11989460D01*
X16458277Y-11989460D02*
X16448753Y-11970412D01*
X16448753Y-11970412D02*
X16448753Y-11894222D01*
X16448753Y-11894222D02*
X16458277Y-11875174D01*
X16458277Y-11875174D02*
X16477325Y-11865650D01*
X16477325Y-11865650D02*
X16515420Y-11865650D01*
X16515420Y-11865650D02*
X16534468Y-11875174D01*
X16534468Y-11875174D02*
X16543991Y-11894222D01*
X16543991Y-11894222D02*
X16543991Y-11913269D01*
X16543991Y-11913269D02*
X16448753Y-11932317D01*
X16620182Y-11989460D02*
X16639230Y-11998984D01*
X16639230Y-11998984D02*
X16677325Y-11998984D01*
X16677325Y-11998984D02*
X16696372Y-11989460D01*
X16696372Y-11989460D02*
X16705896Y-11970412D01*
X16705896Y-11970412D02*
X16705896Y-11960888D01*
X16705896Y-11960888D02*
X16696372Y-11941841D01*
X16696372Y-11941841D02*
X16677325Y-11932317D01*
X16677325Y-11932317D02*
X16648753Y-11932317D01*
X16648753Y-11932317D02*
X16629706Y-11922793D01*
X16629706Y-11922793D02*
X16620182Y-11903746D01*
X16620182Y-11903746D02*
X16620182Y-11894222D01*
X16620182Y-11894222D02*
X16629706Y-11875174D01*
X16629706Y-11875174D02*
X16648753Y-11865650D01*
X16648753Y-11865650D02*
X16677325Y-11865650D01*
X16677325Y-11865650D02*
X16696372Y-11875174D01*
X16772563Y-12075174D02*
X16782087Y-12065650D01*
X16782087Y-12065650D02*
X16801134Y-12037079D01*
X16801134Y-12037079D02*
X16810658Y-12018031D01*
X16810658Y-12018031D02*
X16820182Y-11989460D01*
X16820182Y-11989460D02*
X16829706Y-11941841D01*
X16829706Y-11941841D02*
X16829706Y-11903746D01*
X16829706Y-11903746D02*
X16820182Y-11856127D01*
X16820182Y-11856127D02*
X16810658Y-11827555D01*
X16810658Y-11827555D02*
X16801134Y-11808508D01*
X16801134Y-11808508D02*
X16782087Y-11779936D01*
X16782087Y-11779936D02*
X16772563Y-11770412D01*
X17134468Y-12075174D02*
X17124944Y-12065650D01*
X17124944Y-12065650D02*
X17105896Y-12037079D01*
X17105896Y-12037079D02*
X17096373Y-12018031D01*
X17096373Y-12018031D02*
X17086849Y-11989460D01*
X17086849Y-11989460D02*
X17077325Y-11941841D01*
X17077325Y-11941841D02*
X17077325Y-11903746D01*
X17077325Y-11903746D02*
X17086849Y-11856127D01*
X17086849Y-11856127D02*
X17096373Y-11827555D01*
X17096373Y-11827555D02*
X17105896Y-11808508D01*
X17105896Y-11808508D02*
X17124944Y-11779936D01*
X17124944Y-11779936D02*
X17134468Y-11770412D01*
X17210658Y-11865650D02*
X17210658Y-11998984D01*
X17210658Y-11884698D02*
X17220182Y-11875174D01*
X17220182Y-11875174D02*
X17239230Y-11865650D01*
X17239230Y-11865650D02*
X17267801Y-11865650D01*
X17267801Y-11865650D02*
X17286849Y-11875174D01*
X17286849Y-11875174D02*
X17296373Y-11894222D01*
X17296373Y-11894222D02*
X17296373Y-11998984D01*
X17420182Y-11998984D02*
X17401134Y-11989460D01*
X17401134Y-11989460D02*
X17391611Y-11979936D01*
X17391611Y-11979936D02*
X17382087Y-11960888D01*
X17382087Y-11960888D02*
X17382087Y-11903746D01*
X17382087Y-11903746D02*
X17391611Y-11884698D01*
X17391611Y-11884698D02*
X17401134Y-11875174D01*
X17401134Y-11875174D02*
X17420182Y-11865650D01*
X17420182Y-11865650D02*
X17448754Y-11865650D01*
X17448754Y-11865650D02*
X17467801Y-11875174D01*
X17467801Y-11875174D02*
X17477325Y-11884698D01*
X17477325Y-11884698D02*
X17486849Y-11903746D01*
X17486849Y-11903746D02*
X17486849Y-11960888D01*
X17486849Y-11960888D02*
X17477325Y-11979936D01*
X17477325Y-11979936D02*
X17467801Y-11989460D01*
X17467801Y-11989460D02*
X17448754Y-11998984D01*
X17448754Y-11998984D02*
X17420182Y-11998984D01*
X17543992Y-11865650D02*
X17620182Y-11865650D01*
X17572563Y-11798984D02*
X17572563Y-11970412D01*
X17572563Y-11970412D02*
X17582087Y-11989460D01*
X17582087Y-11989460D02*
X17601134Y-11998984D01*
X17601134Y-11998984D02*
X17620182Y-11998984D01*
X17839230Y-11865650D02*
X17839230Y-12065650D01*
X17839230Y-11875174D02*
X17858277Y-11865650D01*
X17858277Y-11865650D02*
X17896373Y-11865650D01*
X17896373Y-11865650D02*
X17915420Y-11875174D01*
X17915420Y-11875174D02*
X17924944Y-11884698D01*
X17924944Y-11884698D02*
X17934468Y-11903746D01*
X17934468Y-11903746D02*
X17934468Y-11960888D01*
X17934468Y-11960888D02*
X17924944Y-11979936D01*
X17924944Y-11979936D02*
X17915420Y-11989460D01*
X17915420Y-11989460D02*
X17896373Y-11998984D01*
X17896373Y-11998984D02*
X17858277Y-11998984D01*
X17858277Y-11998984D02*
X17839230Y-11989460D01*
X18048754Y-11998984D02*
X18029706Y-11989460D01*
X18029706Y-11989460D02*
X18020182Y-11970412D01*
X18020182Y-11970412D02*
X18020182Y-11798984D01*
X18210658Y-11998984D02*
X18210658Y-11894222D01*
X18210658Y-11894222D02*
X18201135Y-11875174D01*
X18201135Y-11875174D02*
X18182087Y-11865650D01*
X18182087Y-11865650D02*
X18143992Y-11865650D01*
X18143992Y-11865650D02*
X18124944Y-11875174D01*
X18210658Y-11989460D02*
X18191611Y-11998984D01*
X18191611Y-11998984D02*
X18143992Y-11998984D01*
X18143992Y-11998984D02*
X18124944Y-11989460D01*
X18124944Y-11989460D02*
X18115420Y-11970412D01*
X18115420Y-11970412D02*
X18115420Y-11951365D01*
X18115420Y-11951365D02*
X18124944Y-11932317D01*
X18124944Y-11932317D02*
X18143992Y-11922793D01*
X18143992Y-11922793D02*
X18191611Y-11922793D01*
X18191611Y-11922793D02*
X18210658Y-11913269D01*
X18277325Y-11865650D02*
X18353515Y-11865650D01*
X18305896Y-11798984D02*
X18305896Y-11970412D01*
X18305896Y-11970412D02*
X18315420Y-11989460D01*
X18315420Y-11989460D02*
X18334468Y-11998984D01*
X18334468Y-11998984D02*
X18353515Y-11998984D01*
X18496373Y-11989460D02*
X18477325Y-11998984D01*
X18477325Y-11998984D02*
X18439230Y-11998984D01*
X18439230Y-11998984D02*
X18420182Y-11989460D01*
X18420182Y-11989460D02*
X18410658Y-11970412D01*
X18410658Y-11970412D02*
X18410658Y-11894222D01*
X18410658Y-11894222D02*
X18420182Y-11875174D01*
X18420182Y-11875174D02*
X18439230Y-11865650D01*
X18439230Y-11865650D02*
X18477325Y-11865650D01*
X18477325Y-11865650D02*
X18496373Y-11875174D01*
X18496373Y-11875174D02*
X18505896Y-11894222D01*
X18505896Y-11894222D02*
X18505896Y-11913269D01*
X18505896Y-11913269D02*
X18410658Y-11932317D01*
X18677325Y-11998984D02*
X18677325Y-11798984D01*
X18677325Y-11989460D02*
X18658277Y-11998984D01*
X18658277Y-11998984D02*
X18620182Y-11998984D01*
X18620182Y-11998984D02*
X18601135Y-11989460D01*
X18601135Y-11989460D02*
X18591611Y-11979936D01*
X18591611Y-11979936D02*
X18582087Y-11960888D01*
X18582087Y-11960888D02*
X18582087Y-11903746D01*
X18582087Y-11903746D02*
X18591611Y-11884698D01*
X18591611Y-11884698D02*
X18601135Y-11875174D01*
X18601135Y-11875174D02*
X18620182Y-11865650D01*
X18620182Y-11865650D02*
X18658277Y-11865650D01*
X18658277Y-11865650D02*
X18677325Y-11875174D01*
X18753516Y-12075174D02*
X18763039Y-12065650D01*
X18763039Y-12065650D02*
X18782087Y-12037079D01*
X18782087Y-12037079D02*
X18791611Y-12018031D01*
X18791611Y-12018031D02*
X18801135Y-11989460D01*
X18801135Y-11989460D02*
X18810658Y-11941841D01*
X18810658Y-11941841D02*
X18810658Y-11903746D01*
X18810658Y-11903746D02*
X18801135Y-11856127D01*
X18801135Y-11856127D02*
X18791611Y-11827555D01*
X18791611Y-11827555D02*
X18782087Y-11808508D01*
X18782087Y-11808508D02*
X18763039Y-11779936D01*
X18763039Y-11779936D02*
X18753516Y-11770412D01*
M02*
