%TF.GenerationSoftware,KiCad,Pcbnew,9.0.0+1*%
%TF.CreationDate,2025-04-22T18:14:47+02:00*%
%TF.ProjectId,ts13_dev_kit,74733133-5f64-4657-965f-6b69742e6b69,rev?*%
%TF.SameCoordinates,Original*%
%TF.FileFunction,Copper,L1,Top*%
%TF.FilePolarity,Positive*%
%FSLAX46Y46*%
G04 Gerber Fmt 4.6, Leading zero omitted, Abs format (unit mm)*
G04 Created by KiCad (PCBNEW 9.0.0+1) date 2025-04-22 18:14:47*
%MOMM*%
%LPD*%
G01*
G04 APERTURE LIST*
G04 Aperture macros list*
%AMRoundRect*
0 Rectangle with rounded corners*
0 $1 Rounding radius*
0 $2 $3 $4 $5 $6 $7 $8 $9 X,Y pos of 4 corners*
0 Add a 4 corners polygon primitive as box body*
4,1,4,$2,$3,$4,$5,$6,$7,$8,$9,$2,$3,0*
0 Add four circle primitives for the rounded corners*
1,1,$1+$1,$2,$3*
1,1,$1+$1,$4,$5*
1,1,$1+$1,$6,$7*
1,1,$1+$1,$8,$9*
0 Add four rect primitives between the rounded corners*
20,1,$1+$1,$2,$3,$4,$5,0*
20,1,$1+$1,$4,$5,$6,$7,0*
20,1,$1+$1,$6,$7,$8,$9,0*
20,1,$1+$1,$8,$9,$2,$3,0*%
%AMFreePoly0*
4,1,14,0.314644,0.085355,0.385355,0.014644,0.400000,-0.020711,0.400000,-0.050000,0.385355,-0.085355,0.350000,-0.100000,-0.350000,-0.100000,-0.385355,-0.085355,-0.400000,-0.050000,-0.400000,0.050000,-0.385355,0.085355,-0.350000,0.100000,0.279289,0.100000,0.314644,0.085355,0.314644,0.085355,$1*%
%AMFreePoly1*
4,1,14,0.385355,0.085355,0.400000,0.050000,0.400000,0.020711,0.385355,-0.014644,0.314644,-0.085355,0.279289,-0.100000,-0.350000,-0.100000,-0.385355,-0.085355,-0.400000,-0.050000,-0.400000,0.050000,-0.385355,0.085355,-0.350000,0.100000,0.350000,0.100000,0.385355,0.085355,0.385355,0.085355,$1*%
%AMFreePoly2*
4,1,14,0.085355,0.385355,0.100000,0.350000,0.100000,-0.350000,0.085355,-0.385355,0.050000,-0.400000,-0.050000,-0.400000,-0.085355,-0.385355,-0.100000,-0.350000,-0.100000,0.279289,-0.085355,0.314644,-0.014644,0.385355,0.020711,0.400000,0.050000,0.400000,0.085355,0.385355,0.085355,0.385355,$1*%
%AMFreePoly3*
4,1,14,0.014644,0.385355,0.085355,0.314644,0.100000,0.279289,0.100000,-0.350000,0.085355,-0.385355,0.050000,-0.400000,-0.050000,-0.400000,-0.085355,-0.385355,-0.100000,-0.350000,-0.100000,0.350000,-0.085355,0.385355,-0.050000,0.400000,-0.020711,0.400000,0.014644,0.385355,0.014644,0.385355,$1*%
%AMFreePoly4*
4,1,14,0.385355,0.085355,0.400000,0.050000,0.400000,-0.050000,0.385355,-0.085355,0.350000,-0.100000,-0.279289,-0.100000,-0.314644,-0.085355,-0.385355,-0.014644,-0.400000,0.020711,-0.400000,0.050000,-0.385355,0.085355,-0.350000,0.100000,0.350000,0.100000,0.385355,0.085355,0.385355,0.085355,$1*%
%AMFreePoly5*
4,1,14,0.385355,0.085355,0.400000,0.050000,0.400000,-0.050000,0.385355,-0.085355,0.350000,-0.100000,-0.350000,-0.100000,-0.385355,-0.085355,-0.400000,-0.050000,-0.400000,-0.020711,-0.385355,0.014644,-0.314644,0.085355,-0.279289,0.100000,0.350000,0.100000,0.385355,0.085355,0.385355,0.085355,$1*%
%AMFreePoly6*
4,1,14,0.085355,0.385355,0.100000,0.350000,0.100000,-0.279289,0.085355,-0.314644,0.014644,-0.385355,-0.020711,-0.400000,-0.050000,-0.400000,-0.085355,-0.385355,-0.100000,-0.350000,-0.100000,0.350000,-0.085355,0.385355,-0.050000,0.400000,0.050000,0.400000,0.085355,0.385355,0.085355,0.385355,$1*%
%AMFreePoly7*
4,1,14,0.085355,0.385355,0.100000,0.350000,0.100000,-0.350000,0.085355,-0.385355,0.050000,-0.400000,0.020711,-0.400000,-0.014644,-0.385355,-0.085355,-0.314644,-0.100000,-0.279289,-0.100000,0.350000,-0.085355,0.385355,-0.050000,0.400000,0.050000,0.400000,0.085355,0.385355,0.085355,0.385355,$1*%
G04 Aperture macros list end*
%TA.AperFunction,SMDPad,CuDef*%
%ADD10RoundRect,0.135000X-0.185000X0.135000X-0.185000X-0.135000X0.185000X-0.135000X0.185000X0.135000X0*%
%TD*%
%TA.AperFunction,SMDPad,CuDef*%
%ADD11RoundRect,0.250000X-0.250000X-0.475000X0.250000X-0.475000X0.250000X0.475000X-0.250000X0.475000X0*%
%TD*%
%TA.AperFunction,SMDPad,CuDef*%
%ADD12RoundRect,0.225000X-0.225000X-0.250000X0.225000X-0.250000X0.225000X0.250000X-0.225000X0.250000X0*%
%TD*%
%TA.AperFunction,SMDPad,CuDef*%
%ADD13R,0.300000X1.000000*%
%TD*%
%TA.AperFunction,ComponentPad*%
%ADD14O,0.850000X2.250000*%
%TD*%
%TA.AperFunction,SMDPad,CuDef*%
%ADD15R,0.800000X1.000000*%
%TD*%
%TA.AperFunction,SMDPad,CuDef*%
%ADD16RoundRect,0.140000X-0.170000X0.140000X-0.170000X-0.140000X0.170000X-0.140000X0.170000X0.140000X0*%
%TD*%
%TA.AperFunction,SMDPad,CuDef*%
%ADD17RoundRect,0.150000X-0.150000X0.512500X-0.150000X-0.512500X0.150000X-0.512500X0.150000X0.512500X0*%
%TD*%
%TA.AperFunction,ComponentPad*%
%ADD18C,1.600000*%
%TD*%
%TA.AperFunction,SMDPad,CuDef*%
%ADD19RoundRect,0.135000X-0.135000X-0.185000X0.135000X-0.185000X0.135000X0.185000X-0.135000X0.185000X0*%
%TD*%
%TA.AperFunction,SMDPad,CuDef*%
%ADD20R,2.180000X1.600000*%
%TD*%
%TA.AperFunction,SMDPad,CuDef*%
%ADD21RoundRect,0.140000X0.140000X0.170000X-0.140000X0.170000X-0.140000X-0.170000X0.140000X-0.170000X0*%
%TD*%
%TA.AperFunction,SMDPad,CuDef*%
%ADD22FreePoly0,0.000000*%
%TD*%
%TA.AperFunction,SMDPad,CuDef*%
%ADD23RoundRect,0.050000X-0.350000X-0.050000X0.350000X-0.050000X0.350000X0.050000X-0.350000X0.050000X0*%
%TD*%
%TA.AperFunction,SMDPad,CuDef*%
%ADD24FreePoly1,0.000000*%
%TD*%
%TA.AperFunction,SMDPad,CuDef*%
%ADD25FreePoly2,0.000000*%
%TD*%
%TA.AperFunction,SMDPad,CuDef*%
%ADD26RoundRect,0.050000X-0.050000X-0.350000X0.050000X-0.350000X0.050000X0.350000X-0.050000X0.350000X0*%
%TD*%
%TA.AperFunction,SMDPad,CuDef*%
%ADD27FreePoly3,0.000000*%
%TD*%
%TA.AperFunction,SMDPad,CuDef*%
%ADD28FreePoly4,0.000000*%
%TD*%
%TA.AperFunction,SMDPad,CuDef*%
%ADD29FreePoly5,0.000000*%
%TD*%
%TA.AperFunction,SMDPad,CuDef*%
%ADD30FreePoly6,0.000000*%
%TD*%
%TA.AperFunction,SMDPad,CuDef*%
%ADD31FreePoly7,0.000000*%
%TD*%
%TA.AperFunction,HeatsinkPad*%
%ADD32R,2.650000X2.650000*%
%TD*%
%TA.AperFunction,SMDPad,CuDef*%
%ADD33RoundRect,0.250000X0.350000X-0.450000X0.350000X0.450000X-0.350000X0.450000X-0.350000X-0.450000X0*%
%TD*%
%TA.AperFunction,SMDPad,CuDef*%
%ADD34RoundRect,0.243750X0.456250X-0.243750X0.456250X0.243750X-0.456250X0.243750X-0.456250X-0.243750X0*%
%TD*%
%TA.AperFunction,SMDPad,CuDef*%
%ADD35RoundRect,0.225000X0.225000X0.250000X-0.225000X0.250000X-0.225000X-0.250000X0.225000X-0.250000X0*%
%TD*%
%TA.AperFunction,SMDPad,CuDef*%
%ADD36RoundRect,0.225000X0.250000X-0.225000X0.250000X0.225000X-0.250000X0.225000X-0.250000X-0.225000X0*%
%TD*%
%TA.AperFunction,SMDPad,CuDef*%
%ADD37RoundRect,0.075000X0.662500X0.075000X-0.662500X0.075000X-0.662500X-0.075000X0.662500X-0.075000X0*%
%TD*%
%TA.AperFunction,SMDPad,CuDef*%
%ADD38RoundRect,0.075000X0.075000X0.662500X-0.075000X0.662500X-0.075000X-0.662500X0.075000X-0.662500X0*%
%TD*%
%TA.AperFunction,SMDPad,CuDef*%
%ADD39RoundRect,0.135000X0.185000X-0.135000X0.185000X0.135000X-0.185000X0.135000X-0.185000X-0.135000X0*%
%TD*%
%TA.AperFunction,SMDPad,CuDef*%
%ADD40RoundRect,0.250000X-0.350000X-0.450000X0.350000X-0.450000X0.350000X0.450000X-0.350000X0.450000X0*%
%TD*%
%TA.AperFunction,SMDPad,CuDef*%
%ADD41RoundRect,0.250000X0.250000X0.475000X-0.250000X0.475000X-0.250000X-0.475000X0.250000X-0.475000X0*%
%TD*%
%TA.AperFunction,SMDPad,CuDef*%
%ADD42RoundRect,0.150000X0.150000X-0.512500X0.150000X0.512500X-0.150000X0.512500X-0.150000X-0.512500X0*%
%TD*%
%TA.AperFunction,SMDPad,CuDef*%
%ADD43RoundRect,0.140000X-0.140000X-0.170000X0.140000X-0.170000X0.140000X0.170000X-0.140000X0.170000X0*%
%TD*%
%TA.AperFunction,SMDPad,CuDef*%
%ADD44RoundRect,0.135000X0.135000X0.185000X-0.135000X0.185000X-0.135000X-0.185000X0.135000X-0.185000X0*%
%TD*%
%TA.AperFunction,SMDPad,CuDef*%
%ADD45RoundRect,0.175000X-0.175000X-0.325000X0.175000X-0.325000X0.175000X0.325000X-0.175000X0.325000X0*%
%TD*%
%TA.AperFunction,SMDPad,CuDef*%
%ADD46RoundRect,0.150000X-0.200000X-0.150000X0.200000X-0.150000X0.200000X0.150000X-0.200000X0.150000X0*%
%TD*%
%TA.AperFunction,SMDPad,CuDef*%
%ADD47C,0.500000*%
%TD*%
%TA.AperFunction,ViaPad*%
%ADD48C,0.800000*%
%TD*%
%TA.AperFunction,ViaPad*%
%ADD49C,1.000000*%
%TD*%
%TA.AperFunction,Conductor*%
%ADD50C,0.200000*%
%TD*%
%TA.AperFunction,Conductor*%
%ADD51C,0.300000*%
%TD*%
%TA.AperFunction,Conductor*%
%ADD52C,0.500000*%
%TD*%
G04 APERTURE END LIST*
D10*
%TO.P,R7,1*%
%TO.N,Net-(IC1-CSN)*%
X134750000Y-66940000D03*
%TO.P,R7,2*%
%TO.N,/SPI_CS*%
X134750000Y-67960000D03*
%TD*%
%TO.P,R3,1*%
%TO.N,Net-(IC1-SDI)*%
X131750000Y-66940000D03*
%TO.P,R3,2*%
%TO.N,/SPI_MOSI*%
X131750000Y-67960000D03*
%TD*%
%TO.P,R5,1*%
%TO.N,Net-(IC1-SCK)*%
X133750000Y-66940000D03*
%TO.P,R5,2*%
%TO.N,/SPI_SCK*%
X133750000Y-67960000D03*
%TD*%
%TO.P,R2,1*%
%TO.N,Net-(IC1-GPO)*%
X130750000Y-66940000D03*
%TO.P,R2,2*%
%TO.N,/GPO*%
X130750000Y-67960000D03*
%TD*%
%TO.P,R4,1*%
%TO.N,Net-(IC1-SDO)*%
X132750000Y-66940000D03*
%TO.P,R4,2*%
%TO.N,/SPI_MISO*%
X132750000Y-67960000D03*
%TD*%
D11*
%TO.P,C14,1*%
%TO.N,Net-(IC2-VCAP)*%
X127550000Y-67500000D03*
%TO.P,C14,2*%
%TO.N,GND*%
X129450000Y-67500000D03*
%TD*%
D12*
%TO.P,C2,1*%
%TO.N,GND*%
X133725000Y-58500000D03*
%TO.P,C2,2*%
%TO.N,T_VCC*%
X135275000Y-58500000D03*
%TD*%
D13*
%TO.P,J1,A1,GND*%
%TO.N,GND*%
X132750000Y-94440000D03*
%TO.P,J1,A2*%
%TO.N,N/C*%
X132240000Y-94440000D03*
%TO.P,J1,A3*%
X131750000Y-94440000D03*
%TO.P,J1,A4,VBUS*%
%TO.N,Net-(F1-Pad2)*%
X131250000Y-94440000D03*
%TO.P,J1,A5,CC*%
%TO.N,Net-(J1-CC)*%
X128750000Y-94440000D03*
%TO.P,J1,A6,D+*%
%TO.N,Net-(J1-D+)*%
X128250000Y-94440000D03*
%TO.P,J1,A7,D-*%
%TO.N,Net-(J1-D-)*%
X127750000Y-94440000D03*
%TO.P,J1,A12,GND*%
%TO.N,GND*%
X127250000Y-94440000D03*
%TO.P,J1,B9,VBUS*%
%TO.N,Net-(F1-Pad2)*%
X129250000Y-94440000D03*
%TO.P,J1,B10*%
%TO.N,N/C*%
X129750000Y-94440000D03*
%TO.P,J1,B11*%
X130250000Y-94440000D03*
%TO.P,J1,B12,GND*%
%TO.N,GND*%
X130750000Y-94440000D03*
D14*
%TO.P,J1,S1,SHIELD*%
X125700000Y-94600000D03*
D15*
X126300000Y-95250000D03*
X133700000Y-95250000D03*
D14*
X134300000Y-94600000D03*
%TD*%
D16*
%TO.P,C13,1*%
%TO.N,GND*%
X126250000Y-67020000D03*
%TO.P,C13,2*%
%TO.N,VCC*%
X126250000Y-67980000D03*
%TD*%
D17*
%TO.P,IC3,1,GND*%
%TO.N,GND*%
X134950000Y-86112500D03*
%TO.P,IC3,2,VO*%
%TO.N,VCC*%
X133050000Y-86112500D03*
%TO.P,IC3,3,VI*%
%TO.N,/USB_PWR_5V*%
X134000000Y-88387500D03*
%TD*%
D18*
%TO.P,PAD3,1,1*%
%TO.N,Net-(IC1-GPO)*%
X124900000Y-61250000D03*
%TD*%
D19*
%TO.P,R1,1*%
%TO.N,VCC*%
X137240000Y-69250000D03*
%TO.P,R1,2*%
%TO.N,/NRST*%
X138260000Y-69250000D03*
%TD*%
D18*
%TO.P,PAD4,1,1*%
%TO.N,Net-(IC1-CSN)*%
X135060000Y-61250000D03*
%TD*%
D20*
%TO.P,SW1,1,1*%
%TO.N,VCC*%
X134590000Y-82250000D03*
%TO.P,SW1,2,2*%
%TO.N,/BOOT1*%
X125410000Y-82250000D03*
%TD*%
D18*
%TO.P,PAD6,1,1*%
%TO.N,Net-(IC1-SDO)*%
X129980000Y-61250000D03*
%TD*%
D21*
%TO.P,C9,1*%
%TO.N,GND*%
X135480000Y-79250000D03*
%TO.P,C9,2*%
%TO.N,VCC*%
X134520000Y-79250000D03*
%TD*%
D22*
%TO.P,IC1,1,VCC*%
%TO.N,T_VCC*%
X132550000Y-53600000D03*
D23*
%TO.P,IC1,2,GND*%
%TO.N,GND*%
X132550000Y-54000000D03*
%TO.P,IC1,3,PULLDN*%
X132550000Y-54400000D03*
%TO.P,IC1,4,GPO*%
%TO.N,Net-(IC1-GPO)*%
X132550000Y-54800000D03*
%TO.P,IC1,5,SDI*%
%TO.N,Net-(IC1-SDI)*%
X132550000Y-55200000D03*
%TO.P,IC1,6,SDO*%
%TO.N,Net-(IC1-SDO)*%
X132550000Y-55600000D03*
%TO.P,IC1,7,SCK*%
%TO.N,Net-(IC1-SCK)*%
X132550000Y-56000000D03*
D24*
%TO.P,IC1,8,CSN*%
%TO.N,Net-(IC1-CSN)*%
X132550000Y-56400000D03*
D25*
%TO.P,IC1,9,PULLDN*%
%TO.N,GND*%
X133100000Y-56950000D03*
D26*
%TO.P,IC1,10,PULLDN*%
X133500000Y-56950000D03*
%TO.P,IC1,11,VCC*%
%TO.N,T_VCC*%
X133900000Y-56950000D03*
%TO.P,IC1,12,GND*%
%TO.N,GND*%
X134300000Y-56950000D03*
%TO.P,IC1,13,DNC*%
%TO.N,unconnected-(IC1-DNC-Pad13)*%
X134700000Y-56950000D03*
%TO.P,IC1,14,DNC*%
%TO.N,unconnected-(IC1-DNC-Pad14)*%
X135100000Y-56950000D03*
%TO.P,IC1,15*%
%TO.N,N/C*%
X135500000Y-56950000D03*
D27*
%TO.P,IC1,16*%
X135900000Y-56950000D03*
D28*
%TO.P,IC1,17,DNC*%
%TO.N,unconnected-(IC1-DNC-Pad17)*%
X136450000Y-56400000D03*
D23*
%TO.P,IC1,18,DNC*%
%TO.N,unconnected-(IC1-DNC-Pad18)*%
X136450000Y-56000000D03*
%TO.P,IC1,19,DNC*%
%TO.N,unconnected-(IC1-DNC-Pad19)*%
X136450000Y-55600000D03*
%TO.P,IC1,20,DNC*%
%TO.N,unconnected-(IC1-DNC-Pad20)*%
X136450000Y-55200000D03*
%TO.P,IC1,21,DNC*%
%TO.N,unconnected-(IC1-DNC-Pad21)*%
X136450000Y-54800000D03*
%TO.P,IC1,22,PULLUP*%
%TO.N,T_VCC*%
X136450000Y-54400000D03*
%TO.P,IC1,23,GND*%
%TO.N,GND*%
X136450000Y-54000000D03*
D29*
%TO.P,IC1,24,VCC*%
%TO.N,T_VCC*%
X136450000Y-53600000D03*
D30*
%TO.P,IC1,25*%
%TO.N,N/C*%
X135900000Y-53050000D03*
D26*
%TO.P,IC1,26,DNC*%
%TO.N,unconnected-(IC1-DNC-Pad26)*%
X135500000Y-53050000D03*
%TO.P,IC1,27,DNC*%
%TO.N,unconnected-(IC1-DNC-Pad27)*%
X135100000Y-53050000D03*
%TO.P,IC1,28,DNC*%
%TO.N,unconnected-(IC1-DNC-Pad28)*%
X134700000Y-53050000D03*
%TO.P,IC1,29,DNC*%
%TO.N,unconnected-(IC1-DNC-Pad29)*%
X134300000Y-53050000D03*
%TO.P,IC1,30,PULLDN*%
%TO.N,GND*%
X133900000Y-53050000D03*
%TO.P,IC1,31,PULLDN*%
X133500000Y-53050000D03*
D31*
%TO.P,IC1,32*%
%TO.N,N/C*%
X133100000Y-53050000D03*
D32*
%TO.P,IC1,33,TP*%
%TO.N,GND*%
X134500000Y-55000000D03*
%TD*%
D33*
%TO.P,X1,1,1*%
%TO.N,Net-(IC2-PH0)*%
X138350000Y-76600000D03*
%TO.P,X1,2,2*%
%TO.N,GND*%
X138350000Y-74400000D03*
%TO.P,X1,3,3*%
%TO.N,Net-(IC2-PH1)*%
X136650000Y-74400000D03*
%TO.P,X1,4,4*%
%TO.N,GND*%
X136650000Y-76600000D03*
%TD*%
D16*
%TO.P,C5,1*%
%TO.N,/USB_PWR_5V*%
X131750000Y-88020000D03*
%TO.P,C5,2*%
%TO.N,GND*%
X131750000Y-88980000D03*
%TD*%
D34*
%TO.P,D1,1,K*%
%TO.N,GND*%
X123000000Y-76687500D03*
%TO.P,D1,2,A*%
%TO.N,Net-(D1-A)*%
X123000000Y-74812500D03*
%TD*%
D19*
%TO.P,R13,1*%
%TO.N,Net-(D1-A)*%
X122490000Y-73000000D03*
%TO.P,R13,2*%
%TO.N,/LED*%
X123510000Y-73000000D03*
%TD*%
D35*
%TO.P,C1,1*%
%TO.N,GND*%
X134275000Y-51500000D03*
%TO.P,C1,2*%
%TO.N,T_VCC*%
X132725000Y-51500000D03*
%TD*%
D18*
%TO.P,PAD2,1,1*%
%TO.N,GND*%
X137600000Y-61250000D03*
%TD*%
D36*
%TO.P,C3,1*%
%TO.N,GND*%
X138000000Y-54775000D03*
%TO.P,C3,2*%
%TO.N,T_VCC*%
X138000000Y-53225000D03*
%TD*%
D21*
%TO.P,C11,1*%
%TO.N,Net-(IC2-PH0)*%
X137980000Y-78500000D03*
%TO.P,C11,2*%
%TO.N,GND*%
X137020000Y-78500000D03*
%TD*%
D37*
%TO.P,IC2,1,VBAT*%
%TO.N,VCC*%
X134162500Y-77250000D03*
%TO.P,IC2,2,PC13*%
%TO.N,unconnected-(IC2-PC13-Pad2)*%
X134162500Y-76750000D03*
%TO.P,IC2,3,PC14*%
%TO.N,unconnected-(IC2-PC14-Pad3)*%
X134162500Y-76250000D03*
%TO.P,IC2,4,PC15*%
%TO.N,unconnected-(IC2-PC15-Pad4)*%
X134162500Y-75750000D03*
%TO.P,IC2,5,PH0*%
%TO.N,Net-(IC2-PH0)*%
X134162500Y-75250000D03*
%TO.P,IC2,6,PH1*%
%TO.N,Net-(IC2-PH1)*%
X134162500Y-74750000D03*
%TO.P,IC2,7,NRST*%
%TO.N,/NRST*%
X134162500Y-74250000D03*
%TO.P,IC2,8,VSSA*%
%TO.N,GND*%
X134162500Y-73750000D03*
%TO.P,IC2,9,VDDA*%
%TO.N,VCC*%
X134162500Y-73250000D03*
%TO.P,IC2,10,PA0*%
%TO.N,/T_PWR_ON*%
X134162500Y-72750000D03*
%TO.P,IC2,11,PA1*%
%TO.N,unconnected-(IC2-PA1-Pad11)*%
X134162500Y-72250000D03*
%TO.P,IC2,12,PA2*%
%TO.N,/U2_TX*%
X134162500Y-71750000D03*
D38*
%TO.P,IC2,13,PA3*%
%TO.N,/U2_RX*%
X132750000Y-70337500D03*
%TO.P,IC2,14,PA4*%
%TO.N,/SPI_CS*%
X132250000Y-70337500D03*
%TO.P,IC2,15,PA5*%
%TO.N,/SPI_SCK*%
X131750000Y-70337500D03*
%TO.P,IC2,16,PA6*%
%TO.N,/SPI_MISO*%
X131250000Y-70337500D03*
%TO.P,IC2,17,PA7*%
%TO.N,/SPI_MOSI*%
X130750000Y-70337500D03*
%TO.P,IC2,18,PB0*%
%TO.N,/GPO*%
X130250000Y-70337500D03*
%TO.P,IC2,19,PB1*%
%TO.N,unconnected-(IC2-PB1-Pad19)*%
X129750000Y-70337500D03*
%TO.P,IC2,20,PB2*%
%TO.N,Net-(IC2-PB2)*%
X129250000Y-70337500D03*
%TO.P,IC2,21,PB10*%
%TO.N,unconnected-(IC2-PB10-Pad21)*%
X128750000Y-70337500D03*
%TO.P,IC2,22,VCAP*%
%TO.N,Net-(IC2-VCAP)*%
X128250000Y-70337500D03*
%TO.P,IC2,23,VSS*%
%TO.N,GND*%
X127750000Y-70337500D03*
%TO.P,IC2,24,VDD*%
%TO.N,VCC*%
X127250000Y-70337500D03*
D37*
%TO.P,IC2,25,PB12*%
%TO.N,unconnected-(IC2-PB12-Pad25)*%
X125837500Y-71750000D03*
%TO.P,IC2,26,PB13*%
%TO.N,unconnected-(IC2-PB13-Pad26)*%
X125837500Y-72250000D03*
%TO.P,IC2,27,PB14*%
%TO.N,unconnected-(IC2-PB14-Pad27)*%
X125837500Y-72750000D03*
%TO.P,IC2,28,PB15*%
%TO.N,unconnected-(IC2-PB15-Pad28)*%
X125837500Y-73250000D03*
%TO.P,IC2,29,PA8*%
%TO.N,unconnected-(IC2-PA8-Pad29)*%
X125837500Y-73750000D03*
%TO.P,IC2,30,PA9*%
%TO.N,/LED*%
X125837500Y-74250000D03*
%TO.P,IC2,31,PA10*%
%TO.N,unconnected-(IC2-PA10-Pad31)*%
X125837500Y-74750000D03*
%TO.P,IC2,32,PA11*%
%TO.N,/USB_N*%
X125837500Y-75250000D03*
%TO.P,IC2,33,PA12*%
%TO.N,/USB_P*%
X125837500Y-75750000D03*
%TO.P,IC2,34,PA13*%
%TO.N,/SWDIO*%
X125837500Y-76250000D03*
%TO.P,IC2,35,VSS*%
%TO.N,GND*%
X125837500Y-76750000D03*
%TO.P,IC2,36,VDD*%
%TO.N,VCC*%
X125837500Y-77250000D03*
D38*
%TO.P,IC2,37,PA14*%
%TO.N,/SWCLK*%
X127250000Y-78662500D03*
%TO.P,IC2,38,PA15*%
%TO.N,unconnected-(IC2-PA15-Pad38)*%
X127750000Y-78662500D03*
%TO.P,IC2,39,PB3*%
%TO.N,Net-(IC2-PB3)*%
X128250000Y-78662500D03*
%TO.P,IC2,40,PB4*%
%TO.N,Net-(IC2-PB4)*%
X128750000Y-78662500D03*
%TO.P,IC2,41,PB5*%
%TO.N,unconnected-(IC2-PB5-Pad41)*%
X129250000Y-78662500D03*
%TO.P,IC2,42,PB6*%
%TO.N,unconnected-(IC2-PB6-Pad42)*%
X129750000Y-78662500D03*
%TO.P,IC2,43,PB7*%
%TO.N,unconnected-(IC2-PB7-Pad43)*%
X130250000Y-78662500D03*
%TO.P,IC2,44,PH3*%
%TO.N,/BOOT1*%
X130750000Y-78662500D03*
%TO.P,IC2,45,PB8*%
%TO.N,unconnected-(IC2-PB8-Pad45)*%
X131250000Y-78662500D03*
%TO.P,IC2,46,PB9*%
%TO.N,unconnected-(IC2-PB9-Pad46)*%
X131750000Y-78662500D03*
%TO.P,IC2,47,VSS*%
%TO.N,GND*%
X132250000Y-78662500D03*
%TO.P,IC2,48,VDD*%
%TO.N,VCC*%
X132750000Y-78662500D03*
%TD*%
D39*
%TO.P,R12,1*%
%TO.N,Net-(IC4-QOD)*%
X125250000Y-68010000D03*
%TO.P,R12,2*%
%TO.N,T_VCC*%
X125250000Y-66990000D03*
%TD*%
D40*
%TO.P,F1,1*%
%TO.N,/USB_PWR_5V*%
X131959484Y-91208019D03*
%TO.P,F1,2*%
%TO.N,Net-(F1-Pad2)*%
X133959484Y-91208019D03*
%TD*%
D41*
%TO.P,C4,1*%
%TO.N,/USB_PWR_5V*%
X130450000Y-88500000D03*
%TO.P,C4,2*%
%TO.N,GND*%
X128550000Y-88500000D03*
%TD*%
D18*
%TO.P,PAD1,1,1*%
%TO.N,T_VCC*%
X122360000Y-61250000D03*
%TD*%
D42*
%TO.P,IC4,1,VIN*%
%TO.N,VCC*%
X122050000Y-69637500D03*
%TO.P,IC4,2,GND*%
%TO.N,GND*%
X123000000Y-69637500D03*
%TO.P,IC4,3,ON*%
%TO.N,/T_PWR_ON*%
X123950000Y-69637500D03*
%TO.P,IC4,4,CT*%
%TO.N,unconnected-(IC4-CT-Pad4)*%
X123950000Y-67362500D03*
%TO.P,IC4,5,QOD*%
%TO.N,Net-(IC4-QOD)*%
X123000000Y-67362500D03*
%TO.P,IC4,6,VOUT*%
%TO.N,T_VCC*%
X122050000Y-67362500D03*
%TD*%
D39*
%TO.P,R10,1*%
%TO.N,Net-(J1-D+)*%
X126500000Y-91760000D03*
%TO.P,R10,2*%
%TO.N,/USB_P*%
X126500000Y-90740000D03*
%TD*%
D18*
%TO.P,PAD7,1,1*%
%TO.N,Net-(IC1-SDI)*%
X127440000Y-61250000D03*
%TD*%
D43*
%TO.P,C12,1*%
%TO.N,Net-(IC2-PH1)*%
X137020000Y-72500000D03*
%TO.P,C12,2*%
%TO.N,GND*%
X137980000Y-72500000D03*
%TD*%
D10*
%TO.P,R11,1*%
%TO.N,VCC*%
X127750000Y-90740000D03*
%TO.P,R11,2*%
%TO.N,/USB_P*%
X127750000Y-91760000D03*
%TD*%
D43*
%TO.P,C10,1*%
%TO.N,/NRST*%
X137270000Y-70500000D03*
%TO.P,C10,2*%
%TO.N,GND*%
X138230000Y-70500000D03*
%TD*%
D21*
%TO.P,C8,1*%
%TO.N,GND*%
X138230000Y-68000000D03*
%TO.P,C8,2*%
%TO.N,VCC*%
X137270000Y-68000000D03*
%TD*%
D18*
%TO.P,PAD5,1,1*%
%TO.N,Net-(IC1-SCK)*%
X132520000Y-61250000D03*
%TD*%
D41*
%TO.P,C7,1*%
%TO.N,VCC*%
X130450000Y-86250000D03*
%TO.P,C7,2*%
%TO.N,GND*%
X128550000Y-86250000D03*
%TD*%
D16*
%TO.P,C6,1*%
%TO.N,VCC*%
X131750000Y-85770000D03*
%TO.P,C6,2*%
%TO.N,GND*%
X131750000Y-86730000D03*
%TD*%
D39*
%TO.P,R8,1*%
%TO.N,Net-(J1-CC)*%
X129000000Y-91760000D03*
%TO.P,R8,2*%
%TO.N,GND*%
X129000000Y-90740000D03*
%TD*%
%TO.P,R9,1*%
%TO.N,Net-(J1-D-)*%
X125250000Y-91760000D03*
%TO.P,R9,2*%
%TO.N,/USB_N*%
X125250000Y-90740000D03*
%TD*%
D44*
%TO.P,R6,1*%
%TO.N,/BOOT1*%
X123510000Y-79000000D03*
%TO.P,R6,2*%
%TO.N,GND*%
X122490000Y-79000000D03*
%TD*%
D45*
%TO.P,D2,1,GND*%
%TO.N,GND*%
X125000000Y-86500000D03*
D46*
%TO.P,D2,2,I/O1*%
%TO.N,/USB_N*%
X125000000Y-88200000D03*
%TO.P,D2,3,I/O2*%
%TO.N,/USB_P*%
X127000000Y-88200000D03*
%TO.P,D2,4,VCC*%
%TO.N,/USB_PWR_5V*%
X127000000Y-86300000D03*
%TD*%
D47*
%TO.P,FID1,*%
%TO.N,*%
X122750000Y-81750000D03*
%TD*%
D48*
%TO.N,GND*%
X129000000Y-66250000D03*
X126411000Y-66200000D03*
X128000000Y-85000000D03*
X129000000Y-89750000D03*
X121000000Y-65000000D03*
X122750000Y-51000000D03*
X136250000Y-78500000D03*
X138000000Y-55750000D03*
X127250000Y-73500000D03*
X132100000Y-57200000D03*
X132750000Y-76000000D03*
X136800000Y-52600000D03*
X131750000Y-82000000D03*
X139090000Y-81260000D03*
X131000000Y-52750000D03*
X123000000Y-77750000D03*
X126300000Y-57550000D03*
X121000000Y-57500000D03*
X131000000Y-53920000D03*
X123500000Y-71000000D03*
X138900000Y-52300000D03*
X120920000Y-81170000D03*
X132750000Y-73750000D03*
X136600000Y-57800000D03*
X131500000Y-72000000D03*
X120920000Y-70750000D03*
X130000000Y-92000000D03*
X121000000Y-52750000D03*
X128000000Y-72000000D03*
X124910000Y-85150000D03*
X139000000Y-65000000D03*
X135030000Y-92570000D03*
X127500000Y-76500000D03*
X130000000Y-51000000D03*
X132740000Y-58480000D03*
X138750000Y-72500000D03*
X135600000Y-51600000D03*
X120920000Y-78500000D03*
X124940000Y-92850000D03*
X132500000Y-89500000D03*
X139000000Y-57500000D03*
X134990000Y-87240000D03*
X131750000Y-77250000D03*
X139000000Y-68140000D03*
D49*
%TO.N,VCC*%
X137020000Y-79770000D03*
D48*
X127600000Y-89900000D03*
D49*
X126000000Y-69100000D03*
D48*
X129750000Y-84950000D03*
D49*
X136130000Y-70480000D03*
D48*
%TO.N,/NRST*%
X132770000Y-74820000D03*
%TO.N,/USB_P*%
X128200000Y-82580000D03*
X128680000Y-75188280D03*
%TO.N,/USB_N*%
X127750000Y-74500000D03*
X127500000Y-81858611D03*
%TO.N,/SWCLK*%
X126300000Y-78700000D03*
%TO.N,/U2_TX*%
X132750000Y-71930000D03*
%TO.N,/SWDIO*%
X124420000Y-75450000D03*
%TO.N,/U2_RX*%
X133970000Y-70780000D03*
%TO.N,Net-(F1-Pad2)*%
X133520000Y-90110000D03*
%TO.N,Net-(IC2-PB3)*%
X125229975Y-78759975D03*
%TO.N,Net-(IC2-PB2)*%
X125960000Y-65100000D03*
%TO.N,Net-(IC2-PB4)*%
X126810000Y-80710000D03*
%TD*%
D50*
%TO.N,VCC*%
X125975000Y-68225000D02*
X125975000Y-69075000D01*
X125975000Y-69075000D02*
X126000000Y-69100000D01*
X126250000Y-67980000D02*
X126220000Y-67980000D01*
X126220000Y-67980000D02*
X125975000Y-68225000D01*
%TO.N,GND*%
X126250000Y-67020000D02*
X126250000Y-66361000D01*
X126250000Y-66361000D02*
X126411000Y-66200000D01*
%TO.N,VCC*%
X134162500Y-73250000D02*
X135000000Y-73250000D01*
X135000000Y-73250000D02*
X135475000Y-72775000D01*
X135475000Y-72775000D02*
X135475000Y-71135000D01*
X135475000Y-71135000D02*
X136130000Y-70480000D01*
D51*
X137270000Y-68000000D02*
X136800000Y-68000000D01*
X136800000Y-68000000D02*
X136130000Y-68670000D01*
X136130000Y-68670000D02*
X136130000Y-70480000D01*
D50*
%TO.N,Net-(IC1-GPO)*%
X130750000Y-66940000D02*
X130750000Y-66300000D01*
X130750000Y-66300000D02*
X129400000Y-64950000D01*
X129400000Y-64950000D02*
X127850000Y-64950000D01*
X127850000Y-64950000D02*
X127150000Y-64250000D01*
X127150000Y-64250000D02*
X125600000Y-64250000D01*
X125600000Y-64250000D02*
X124900000Y-63550000D01*
X124900000Y-63550000D02*
X124900000Y-61250000D01*
%TO.N,Net-(IC1-SDI)*%
X127440000Y-61250000D02*
X127440000Y-63251694D01*
X127440000Y-63251694D02*
X128438306Y-64250000D01*
X128438306Y-64250000D02*
X129700000Y-64250000D01*
X129700000Y-64250000D02*
X131750000Y-66300000D01*
X131750000Y-66300000D02*
X131750000Y-66940000D01*
%TO.N,Net-(IC1-SDO)*%
X129980000Y-61250000D02*
X129980000Y-63530000D01*
X129980000Y-63530000D02*
X132750000Y-66300000D01*
X132750000Y-66300000D02*
X132750000Y-66940000D01*
%TO.N,Net-(IC1-SCK)*%
X132520000Y-61250000D02*
X132520000Y-64165000D01*
X132520000Y-64165000D02*
X133750000Y-65395000D01*
X133750000Y-65395000D02*
X133750000Y-66940000D01*
%TO.N,Net-(IC1-CSN)*%
X135060000Y-61250000D02*
X135050000Y-61260000D01*
X135050000Y-64750000D02*
X134750000Y-65050000D01*
X135050000Y-61260000D02*
X135050000Y-64750000D01*
X134750000Y-65050000D02*
X134750000Y-66940000D01*
%TO.N,/GPO*%
X130250000Y-70337500D02*
X130250000Y-69150000D01*
X130250000Y-69150000D02*
X130750000Y-68650000D01*
X130750000Y-68650000D02*
X130750000Y-67960000D01*
%TO.N,/SPI_MOSI*%
X130750000Y-70337500D02*
X130750000Y-69300000D01*
X130750000Y-69300000D02*
X131750000Y-68300000D01*
X131750000Y-68300000D02*
X131750000Y-67960000D01*
%TO.N,/SPI_MISO*%
X131250000Y-70337500D02*
X131250000Y-69400340D01*
X131250000Y-69400340D02*
X132153340Y-68497000D01*
X132153340Y-68497000D02*
X132603000Y-68497000D01*
X132603000Y-68497000D02*
X132750000Y-68350000D01*
X132750000Y-68350000D02*
X132750000Y-67960000D01*
%TO.N,Net-(IC2-VCAP)*%
X128250000Y-70337500D02*
X128250000Y-68920000D01*
X128250000Y-68920000D02*
X127550000Y-68220000D01*
X127550000Y-68220000D02*
X127550000Y-67500000D01*
%TO.N,Net-(IC2-PB2)*%
X129250000Y-70337500D02*
X129250000Y-68880000D01*
X128351000Y-66789840D02*
X126661160Y-65100000D01*
X129250000Y-68880000D02*
X128351000Y-67981000D01*
X128351000Y-67981000D02*
X128351000Y-66789840D01*
X126661160Y-65100000D02*
X125960000Y-65100000D01*
%TO.N,/SPI_CS*%
X132250000Y-70337500D02*
X132250000Y-69566176D01*
X132250000Y-69566176D02*
X132517176Y-69299000D01*
X132517176Y-69299000D02*
X134211000Y-69299000D01*
X134211000Y-69299000D02*
X134750000Y-68760000D01*
X134750000Y-68760000D02*
X134750000Y-68010000D01*
%TO.N,/SPI_SCK*%
X131750000Y-70337500D02*
X131750000Y-69499076D01*
X131750000Y-69499076D02*
X132351076Y-68898000D01*
X132351076Y-68898000D02*
X133502000Y-68898000D01*
X133502000Y-68898000D02*
X133750000Y-68650000D01*
X133750000Y-68650000D02*
X133750000Y-68010000D01*
D51*
%TO.N,VCC*%
X126000000Y-69100000D02*
X126000000Y-69000000D01*
D50*
X127250000Y-70337500D02*
X127250000Y-68980000D01*
X127250000Y-68980000D02*
X126250000Y-67980000D01*
%TO.N,/U2_RX*%
X132750000Y-70337500D02*
X132750000Y-71090000D01*
X132750000Y-71090000D02*
X132889000Y-71229000D01*
X132889000Y-71229000D02*
X133751000Y-71229000D01*
X133751000Y-71229000D02*
X133970000Y-71010000D01*
X133970000Y-71010000D02*
X133970000Y-70780000D01*
%TO.N,GND*%
X134300000Y-56950000D02*
X134300000Y-55200000D01*
X126499000Y-95399000D02*
X130100000Y-95399000D01*
X132550000Y-54000000D02*
X131080000Y-54000000D01*
X134300000Y-94650000D02*
X133700000Y-95250000D01*
X131080000Y-54000000D02*
X131000000Y-53920000D01*
X133900000Y-53050000D02*
X133900000Y-54400000D01*
X132250000Y-78662500D02*
X132250000Y-77750000D01*
X127750000Y-71750000D02*
X128000000Y-72000000D01*
X133500000Y-56950000D02*
X133500000Y-56000000D01*
X133500000Y-53050000D02*
X133500000Y-54000000D01*
X132260000Y-87240000D02*
X134990000Y-87240000D01*
X127250000Y-76750000D02*
X125837500Y-76750000D01*
X133500000Y-54000000D02*
X134500000Y-55000000D01*
X133500000Y-52280000D02*
X134070000Y-52280000D01*
X125700000Y-94600000D02*
X125700000Y-94650000D01*
X133500000Y-56950000D02*
X133500000Y-57660000D01*
X126300000Y-95250000D02*
X126350000Y-95250000D01*
X130100000Y-95399000D02*
X130699000Y-95399000D01*
X127500000Y-76500000D02*
X127250000Y-76750000D01*
X132550000Y-54400000D02*
X133900000Y-54400000D01*
X130750000Y-94440000D02*
X130750000Y-95349000D01*
X134300000Y-55200000D02*
X134500000Y-55000000D01*
X134162500Y-73750000D02*
X132750000Y-73750000D01*
X123000000Y-69637500D02*
X123000000Y-70500000D01*
X133100000Y-57730000D02*
X133430000Y-57730000D01*
X131480000Y-54400000D02*
X131000000Y-53920000D01*
X133500000Y-53050000D02*
X133500000Y-52280000D01*
X133500000Y-56000000D02*
X134500000Y-55000000D01*
X134300000Y-94600000D02*
X134300000Y-94650000D01*
X132250000Y-77750000D02*
X131750000Y-77250000D01*
X133900000Y-54400000D02*
X134500000Y-55000000D01*
X133900000Y-53050000D02*
X133900000Y-52290000D01*
X132550000Y-54400000D02*
X131480000Y-54400000D01*
X136450000Y-54000000D02*
X135500000Y-54000000D01*
X133430000Y-57730000D02*
X133500000Y-57660000D01*
X135500000Y-54000000D02*
X134500000Y-55000000D01*
X132550000Y-54000000D02*
X133500000Y-54000000D01*
X134070000Y-52280000D02*
X134080000Y-52290000D01*
X133551000Y-95399000D02*
X130699000Y-95399000D01*
X130699000Y-95399000D02*
X130700000Y-95399000D01*
X127750000Y-70337500D02*
X127750000Y-71750000D01*
X123000000Y-70500000D02*
X123500000Y-71000000D01*
X126350000Y-95250000D02*
X126499000Y-95399000D01*
X133700000Y-95250000D02*
X133551000Y-95399000D01*
X133100000Y-56950000D02*
X133100000Y-57730000D01*
X138000000Y-54000000D02*
X138000000Y-54775000D01*
X131750000Y-86730000D02*
X132260000Y-87240000D01*
X125700000Y-94650000D02*
X126300000Y-95250000D01*
D52*
X137600000Y-64800000D02*
X137600000Y-61350000D01*
D50*
X136450000Y-54000000D02*
X138000000Y-54000000D01*
%TO.N,VCC*%
X133500000Y-78890000D02*
X133860000Y-79250000D01*
D52*
X130705000Y-85045000D02*
X132750000Y-83000000D01*
D50*
X136130000Y-69800000D02*
X136130000Y-70480000D01*
X125837500Y-77250000D02*
X125887500Y-77300000D01*
D51*
X130450000Y-86250000D02*
X130450000Y-85300000D01*
D52*
X137020000Y-79770000D02*
X136080000Y-80710000D01*
D50*
X126568724Y-77223000D02*
X130577000Y-77223000D01*
D51*
X131750000Y-85770000D02*
X130930000Y-85770000D01*
X134250000Y-80000000D02*
X134520000Y-79730000D01*
X134520000Y-79730000D02*
X134520000Y-79250000D01*
D50*
X136680000Y-69250000D02*
X136130000Y-69800000D01*
X132750000Y-79750000D02*
X133000000Y-80000000D01*
X127750000Y-90050000D02*
X127600000Y-89900000D01*
X135260000Y-78060000D02*
X134520000Y-78800000D01*
X135080000Y-77250000D02*
X135260000Y-77430000D01*
X124624000Y-68674000D02*
X125050000Y-69100000D01*
D52*
X132750000Y-80250000D02*
X133000000Y-80000000D01*
X132750000Y-82250000D02*
X132750000Y-80970000D01*
D50*
X134162500Y-77250000D02*
X135080000Y-77250000D01*
X125887500Y-77300000D02*
X126491724Y-77300000D01*
X122351001Y-68674000D02*
X124624000Y-68674000D01*
D51*
X130930000Y-85770000D02*
X130450000Y-86250000D01*
X133050000Y-85300000D02*
X132750000Y-85000000D01*
D50*
X131991364Y-76500000D02*
X133500000Y-78008636D01*
X130577000Y-77223000D02*
X131300000Y-76500000D01*
X132750000Y-78662500D02*
X132750000Y-79750000D01*
D52*
X136080000Y-80710000D02*
X133010000Y-80710000D01*
D50*
X125050000Y-69100000D02*
X126000000Y-69100000D01*
D51*
X132750000Y-85000000D02*
X132520000Y-85000000D01*
D50*
X130620000Y-84950000D02*
X130705000Y-85035000D01*
D51*
X134590000Y-82250000D02*
X132750000Y-82250000D01*
D50*
X127750000Y-90740000D02*
X127750000Y-90050000D01*
D52*
X133010000Y-80710000D02*
X132750000Y-80970000D01*
D50*
X126491724Y-77300000D02*
X126568724Y-77223000D01*
D51*
X133000000Y-80000000D02*
X134250000Y-80000000D01*
D52*
X132750000Y-83000000D02*
X132750000Y-82250000D01*
D50*
X133500000Y-78008636D02*
X133500000Y-78890000D01*
X131300000Y-76500000D02*
X131991364Y-76500000D01*
X122050000Y-69637500D02*
X122050000Y-68975001D01*
X122050000Y-68975001D02*
X122351001Y-68674000D01*
X130705000Y-85035000D02*
X130705000Y-85045000D01*
X134520000Y-78800000D02*
X134520000Y-79250000D01*
D51*
X133050000Y-86112500D02*
X133050000Y-85300000D01*
D50*
X129750000Y-84950000D02*
X130620000Y-84950000D01*
D52*
X132750000Y-80970000D02*
X132750000Y-80250000D01*
D51*
X132520000Y-85000000D02*
X131750000Y-85770000D01*
D50*
X133860000Y-79250000D02*
X134520000Y-79250000D01*
X137240000Y-69250000D02*
X136680000Y-69250000D01*
D52*
X130450000Y-85300000D02*
X130705000Y-85045000D01*
D50*
X135260000Y-77430000D02*
X135260000Y-78060000D01*
D51*
%TO.N,/USB_PWR_5V*%
X133040000Y-88390000D02*
X133042500Y-88387500D01*
X133042500Y-88387500D02*
X134000000Y-88387500D01*
D52*
X131959484Y-91208019D02*
X131348019Y-91208019D01*
D51*
X130930000Y-88020000D02*
X130450000Y-88500000D01*
X129374000Y-87424000D02*
X130450000Y-88500000D01*
X131750000Y-88020000D02*
X130930000Y-88020000D01*
D52*
X130450000Y-90310000D02*
X130450000Y-88500000D01*
D51*
X132670000Y-88020000D02*
X133040000Y-88390000D01*
X128124000Y-87424000D02*
X129374000Y-87424000D01*
X127000000Y-86300000D02*
X128124000Y-87424000D01*
X131750000Y-88020000D02*
X132670000Y-88020000D01*
D52*
X131348019Y-91208019D02*
X130450000Y-90310000D01*
D50*
%TO.N,/NRST*%
X134162500Y-74250000D02*
X133340000Y-74250000D01*
X135510000Y-74020000D02*
X135510000Y-73610000D01*
X135510000Y-73610000D02*
X136060000Y-73060000D01*
X137270000Y-70500000D02*
X137270000Y-70240000D01*
X137270000Y-70890000D02*
X137270000Y-70500000D01*
X134162500Y-74250000D02*
X135280000Y-74250000D01*
X136060000Y-73060000D02*
X136060000Y-72100000D01*
X133340000Y-74250000D02*
X132770000Y-74820000D01*
X137270000Y-70240000D02*
X138260000Y-69250000D01*
X136060000Y-72100000D02*
X137270000Y-70890000D01*
X135280000Y-74250000D02*
X135510000Y-74020000D01*
D51*
%TO.N,T_VCC*%
X122050000Y-64490000D02*
X122050000Y-65750000D01*
D50*
X136875650Y-54400000D02*
X137110000Y-54634350D01*
D51*
X136900000Y-50650000D02*
X138000000Y-51750000D01*
X138850000Y-55269408D02*
X138825000Y-55244408D01*
D50*
X137110000Y-57062082D02*
X137500000Y-57452082D01*
X136450000Y-53600000D02*
X137625000Y-53600000D01*
X131950000Y-53440000D02*
X131950000Y-51740000D01*
X137110000Y-54634350D02*
X137110000Y-57062082D01*
D51*
X122360000Y-61250000D02*
X122360000Y-64180000D01*
X137500000Y-57452082D02*
X137500000Y-58100000D01*
D50*
X131950000Y-51740000D02*
X132190000Y-51500000D01*
D51*
X124410000Y-65750000D02*
X122050000Y-65750000D01*
X133575000Y-50650000D02*
X136900000Y-50650000D01*
X138850000Y-56102082D02*
X138850000Y-55269408D01*
D50*
X132110000Y-53600000D02*
X131950000Y-53440000D01*
D51*
X132725000Y-51500000D02*
X133575000Y-50650000D01*
X135285000Y-58510000D02*
X135275000Y-58500000D01*
D50*
X136450000Y-54400000D02*
X136875650Y-54400000D01*
D51*
X122050000Y-65750000D02*
X122050000Y-67362500D01*
X138825000Y-54050000D02*
X138000000Y-53225000D01*
X125250000Y-66990000D02*
X125250000Y-66590000D01*
X122360000Y-64180000D02*
X122050000Y-64490000D01*
X122360000Y-60140000D02*
X131000000Y-51500000D01*
X138825000Y-55244408D02*
X138825000Y-54050000D01*
X122360000Y-61250000D02*
X122360000Y-60140000D01*
D50*
X137625000Y-53600000D02*
X138000000Y-53225000D01*
D51*
X137500000Y-57452082D02*
X138850000Y-56102082D01*
X136920000Y-58680000D02*
X136200000Y-58680000D01*
D50*
X135024350Y-58500000D02*
X135275000Y-58500000D01*
D51*
X125250000Y-66590000D02*
X124410000Y-65750000D01*
X136200000Y-58680000D02*
X136030000Y-58510000D01*
X131000000Y-51500000D02*
X132725000Y-51500000D01*
D50*
X133900000Y-56950000D02*
X133900000Y-57375650D01*
D51*
X137500000Y-58100000D02*
X136920000Y-58680000D01*
D50*
X133900000Y-57375650D02*
X135024350Y-58500000D01*
D51*
X136030000Y-58510000D02*
X135285000Y-58510000D01*
D50*
X132190000Y-51500000D02*
X132725000Y-51500000D01*
X132550000Y-53600000D02*
X132110000Y-53600000D01*
D51*
X138000000Y-51750000D02*
X138000000Y-53225000D01*
D50*
%TO.N,Net-(D1-A)*%
X123000000Y-74180000D02*
X123000000Y-74812500D01*
X122490000Y-73000000D02*
X122490000Y-73670000D01*
X122490000Y-73670000D02*
X123000000Y-74180000D01*
%TO.N,/USB_P*%
X128680000Y-75320000D02*
X128250000Y-75750000D01*
X127000000Y-89250000D02*
X127000000Y-88200000D01*
X128200000Y-83050000D02*
X126230000Y-85020000D01*
X128680000Y-75188280D02*
X128680000Y-75320000D01*
X126230000Y-87430000D02*
X127000000Y-88200000D01*
X128200000Y-82580000D02*
X128200000Y-83050000D01*
X126230000Y-85020000D02*
X126230000Y-87430000D01*
X127520000Y-91760000D02*
X126500000Y-90740000D01*
X128250000Y-75750000D02*
X125837500Y-75750000D01*
X127750000Y-91760000D02*
X127520000Y-91760000D01*
X126500000Y-90740000D02*
X126500000Y-89750000D01*
X126500000Y-89750000D02*
X127000000Y-89250000D01*
%TO.N,/USB_N*%
X125250000Y-90740000D02*
X125250000Y-89250000D01*
X127750000Y-74500000D02*
X127750000Y-75000000D01*
X127500000Y-75250000D02*
X125837500Y-75250000D01*
X127500000Y-83140000D02*
X125730000Y-84910000D01*
X125730000Y-84910000D02*
X125730000Y-87470000D01*
X127500000Y-81858611D02*
X127500000Y-83140000D01*
X125250000Y-89250000D02*
X125000000Y-89000000D01*
X125000000Y-89000000D02*
X125000000Y-88200000D01*
X127750000Y-75000000D02*
X127500000Y-75250000D01*
X125730000Y-87470000D02*
X125000000Y-88200000D01*
%TO.N,/T_PWR_ON*%
X134162500Y-72750000D02*
X127758636Y-72750000D01*
X127758636Y-72750000D02*
X127299000Y-72290364D01*
X127299000Y-71799000D02*
X125137500Y-69637500D01*
X127299000Y-72290364D02*
X127299000Y-71799000D01*
X125137500Y-69637500D02*
X123950000Y-69637500D01*
%TO.N,/LED*%
X124340000Y-73470000D02*
X123870000Y-73000000D01*
X125837500Y-74250000D02*
X124750000Y-74250000D01*
X124340000Y-73840000D02*
X124340000Y-73470000D01*
X123870000Y-73000000D02*
X123510000Y-73000000D01*
X124750000Y-74250000D02*
X124340000Y-73840000D01*
%TO.N,/SWCLK*%
X126300000Y-79200000D02*
X126700000Y-79600000D01*
X126700000Y-79600000D02*
X127240000Y-79600000D01*
X127240000Y-79600000D02*
X127250000Y-79590000D01*
X127250000Y-79590000D02*
X127250000Y-78662500D01*
X126300000Y-78700000D02*
X126300000Y-79200000D01*
%TO.N,/U2_TX*%
X134162500Y-71750000D02*
X132930000Y-71750000D01*
X132930000Y-71750000D02*
X132750000Y-71930000D01*
%TO.N,/SWDIO*%
X124420000Y-75450000D02*
X124420000Y-75603824D01*
X125066176Y-76250000D02*
X125837500Y-76250000D01*
X124420000Y-75603824D02*
X125066176Y-76250000D01*
%TO.N,Net-(IC4-QOD)*%
X124551000Y-66659032D02*
X124290968Y-66399000D01*
X124290968Y-66399000D02*
X123301001Y-66399000D01*
X124551000Y-67311000D02*
X124551000Y-66659032D01*
X123301001Y-66399000D02*
X123000000Y-66700001D01*
X125250000Y-68010000D02*
X124551000Y-67311000D01*
X123000000Y-66700001D02*
X123000000Y-67362500D01*
%TO.N,Net-(F1-Pad2)*%
X129250000Y-93600000D02*
X129490000Y-93360000D01*
X133959484Y-90549484D02*
X133520000Y-90110000D01*
X133959484Y-91208019D02*
X133959484Y-90549484D01*
D51*
X133959484Y-92040516D02*
X133959484Y-91208019D01*
X129490000Y-93360000D02*
X131220000Y-93360000D01*
D50*
X129250000Y-94440000D02*
X129250000Y-93600000D01*
D51*
X131860000Y-92720000D02*
X133280000Y-92720000D01*
X133280000Y-92720000D02*
X133959484Y-92040516D01*
X131220000Y-93360000D02*
X131860000Y-92720000D01*
D50*
X131250000Y-93390000D02*
X131220000Y-93360000D01*
X131250000Y-94440000D02*
X131250000Y-93390000D01*
%TO.N,Net-(J1-CC)*%
X128750000Y-94440000D02*
X128750000Y-92690000D01*
X129000000Y-92440000D02*
X129000000Y-91760000D01*
X128750000Y-92690000D02*
X129000000Y-92440000D01*
%TO.N,Net-(J1-D+)*%
X128250000Y-94440000D02*
X128250000Y-93510000D01*
X128250000Y-93510000D02*
X126500000Y-91760000D01*
%TO.N,Net-(J1-D-)*%
X126360000Y-92870000D02*
X125250000Y-91760000D01*
X127750000Y-93688000D02*
X126932000Y-92870000D01*
X127750000Y-94440000D02*
X127750000Y-93688000D01*
X126932000Y-92870000D02*
X126360000Y-92870000D01*
%TO.N,/BOOT1*%
X130750000Y-77891176D02*
X130482824Y-77624000D01*
X126359824Y-77999000D02*
X125001000Y-77999000D01*
X124000000Y-79000000D02*
X123510000Y-79000000D01*
X130482824Y-77624000D02*
X126734824Y-77624000D01*
X125410000Y-81590000D02*
X123510000Y-79690000D01*
X130750000Y-78662500D02*
X130750000Y-77891176D01*
X126734824Y-77624000D02*
X126359824Y-77999000D01*
X125001000Y-77999000D02*
X124000000Y-79000000D01*
X125410000Y-82250000D02*
X125410000Y-81590000D01*
X123510000Y-79690000D02*
X123510000Y-79000000D01*
%TO.N,Net-(IC2-PH0)*%
X138380000Y-78100000D02*
X138380000Y-76630000D01*
X138380000Y-76630000D02*
X138350000Y-76600000D01*
X135959000Y-75460000D02*
X137310000Y-75460000D01*
X134162500Y-75250000D02*
X135749000Y-75250000D01*
X138350000Y-76500000D02*
X138350000Y-76600000D01*
X135749000Y-75250000D02*
X135959000Y-75460000D01*
X137310000Y-75460000D02*
X138350000Y-76500000D01*
X137980000Y-78500000D02*
X138380000Y-78100000D01*
%TO.N,Net-(IC2-PH1)*%
X135830000Y-74400000D02*
X136650000Y-74400000D01*
X135480000Y-74750000D02*
X135830000Y-74400000D01*
X136650000Y-72870000D02*
X136650000Y-74400000D01*
X134162500Y-74750000D02*
X135480000Y-74750000D01*
X137020000Y-72500000D02*
X136650000Y-72870000D01*
%TO.N,Net-(IC1-SCK)*%
X132550000Y-56000000D02*
X131325686Y-56000000D01*
X130740000Y-59470000D02*
X132520000Y-61250000D01*
X130740000Y-56585686D02*
X130740000Y-59470000D01*
X131325686Y-56000000D02*
X130740000Y-56585686D01*
%TO.N,Net-(IC1-SDI)*%
X127440000Y-60480000D02*
X127440000Y-61250000D01*
X127440000Y-60060000D02*
X127440000Y-61250000D01*
X129390000Y-58110000D02*
X127440000Y-60060000D01*
X130860000Y-55200000D02*
X129390000Y-56670000D01*
X132550000Y-55200000D02*
X130860000Y-55200000D01*
X129390000Y-56670000D02*
X129390000Y-58110000D01*
%TO.N,Net-(IC1-SDO)*%
X130000000Y-61230000D02*
X130000000Y-59080000D01*
X131160000Y-55600000D02*
X132550000Y-55600000D01*
X130290000Y-58790000D02*
X130290000Y-56470000D01*
X130000000Y-59080000D02*
X130290000Y-58790000D01*
X130290000Y-56470000D02*
X131160000Y-55600000D01*
%TO.N,Net-(IC1-GPO)*%
X130400000Y-54800000D02*
X124900000Y-60300000D01*
D51*
X124900000Y-61350000D02*
X124800000Y-61250000D01*
D50*
X132550000Y-54800000D02*
X130400000Y-54800000D01*
X124900000Y-60694314D02*
X124900000Y-61250000D01*
X124900000Y-60300000D02*
X124900000Y-61250000D01*
%TO.N,Net-(IC1-CSN)*%
X132550000Y-56400000D02*
X131550000Y-56400000D01*
X131140000Y-56810000D02*
X131140000Y-58770000D01*
X131140000Y-58770000D02*
X132310000Y-59940000D01*
X134270000Y-59940000D02*
X134960000Y-60630000D01*
X131550000Y-56400000D02*
X131140000Y-56810000D01*
X135060000Y-60630000D02*
X135060000Y-61250000D01*
X132310000Y-59940000D02*
X134270000Y-59940000D01*
%TO.N,Net-(IC2-PB3)*%
X126490000Y-80010000D02*
X127673824Y-80010000D01*
X128250000Y-79433824D02*
X128250000Y-78662500D01*
X127673824Y-80010000D02*
X128250000Y-79433824D01*
X125229975Y-78759975D02*
X125239975Y-78759975D01*
X125239975Y-78759975D02*
X126490000Y-80010000D01*
%TO.N,Net-(IC2-PB4)*%
X126810000Y-80710000D02*
X127540924Y-80710000D01*
X128750000Y-79500924D02*
X128750000Y-78662500D01*
X127540924Y-80710000D02*
X128750000Y-79500924D01*
%TD*%
%TA.AperFunction,Conductor*%
%TO.N,GND*%
G36*
X137223300Y-62176358D02*
G01*
X137308310Y-62211570D01*
X137308318Y-62211572D01*
X137501504Y-62249999D01*
X137501508Y-62250000D01*
X137698492Y-62250000D01*
X137698495Y-62249999D01*
X137891681Y-62211572D01*
X137891689Y-62211570D01*
X137976699Y-62176358D01*
X138046168Y-62168889D01*
X138108647Y-62200164D01*
X138144300Y-62260252D01*
X138141807Y-62330078D01*
X138115399Y-62372833D01*
X138116145Y-62373445D01*
X138112279Y-62378155D01*
X138067688Y-62444891D01*
X138014076Y-62489696D01*
X137964586Y-62500000D01*
X137235414Y-62500000D01*
X137168375Y-62480315D01*
X137132312Y-62444891D01*
X137087720Y-62378155D01*
X137083855Y-62373445D01*
X137084888Y-62372597D01*
X137054681Y-62317277D01*
X137059665Y-62247585D01*
X137101537Y-62191652D01*
X137167001Y-62167235D01*
X137223300Y-62176358D01*
G37*
%TD.AperFunction*%
%TA.AperFunction,Conductor*%
G36*
X137752895Y-50517075D02*
G01*
X137768953Y-50519190D01*
X137976105Y-50560395D01*
X138009535Y-50567045D01*
X138025202Y-50571243D01*
X138194802Y-50628814D01*
X138257481Y-50650091D01*
X138272458Y-50656294D01*
X138481799Y-50759529D01*
X138492460Y-50764787D01*
X138506508Y-50772897D01*
X138710464Y-50909177D01*
X138723328Y-50919048D01*
X138907749Y-51080781D01*
X138919218Y-51092250D01*
X138990373Y-51173387D01*
X139030840Y-51219531D01*
X139080951Y-51276671D01*
X139090825Y-51289539D01*
X139227102Y-51493492D01*
X139235212Y-51507539D01*
X139343702Y-51727534D01*
X139349909Y-51742520D01*
X139428756Y-51974797D01*
X139432954Y-51990464D01*
X139480807Y-52231035D01*
X139482925Y-52247116D01*
X139497173Y-52464504D01*
X139499235Y-52495956D01*
X139499500Y-52504066D01*
X139499500Y-62019294D01*
X139479815Y-62086333D01*
X139427011Y-62132088D01*
X139357853Y-62142032D01*
X139328048Y-62133855D01*
X139154547Y-62061989D01*
X139154535Y-62061986D01*
X138966081Y-62024500D01*
X138966078Y-62024500D01*
X138773922Y-62024500D01*
X138773919Y-62024500D01*
X138585464Y-62061986D01*
X138585452Y-62061989D01*
X138407931Y-62135520D01*
X138388310Y-62148631D01*
X138321632Y-62169508D01*
X138254252Y-62151023D01*
X138207563Y-62099044D01*
X138201302Y-62063434D01*
X137831539Y-61693670D01*
X137907007Y-61650099D01*
X138000099Y-61557007D01*
X138043670Y-61481538D01*
X138405928Y-61843796D01*
X138486190Y-61723675D01*
X138486191Y-61723673D01*
X138561569Y-61541693D01*
X138561572Y-61541681D01*
X138599999Y-61348495D01*
X138600000Y-61348492D01*
X138600000Y-61151508D01*
X138599999Y-61151504D01*
X138561572Y-60958318D01*
X138561569Y-60958306D01*
X138486192Y-60776328D01*
X138486185Y-60776316D01*
X138405927Y-60656203D01*
X138043670Y-61018460D01*
X138000099Y-60942993D01*
X137907007Y-60849901D01*
X137831538Y-60806329D01*
X138193795Y-60444071D01*
X138193795Y-60444069D01*
X138073679Y-60363811D01*
X138073676Y-60363809D01*
X137891693Y-60288430D01*
X137891681Y-60288427D01*
X137698495Y-60250000D01*
X137501504Y-60250000D01*
X137308318Y-60288427D01*
X137308310Y-60288429D01*
X137126325Y-60363809D01*
X137126318Y-60363813D01*
X137006203Y-60444071D01*
X137006202Y-60444071D01*
X137368461Y-60806329D01*
X137292993Y-60849901D01*
X137199901Y-60942993D01*
X137156329Y-61018460D01*
X136794071Y-60656202D01*
X136794071Y-60656203D01*
X136713813Y-60776318D01*
X136713809Y-60776325D01*
X136638429Y-60958310D01*
X136638427Y-60958318D01*
X136600000Y-61151504D01*
X136600000Y-61348495D01*
X136638427Y-61541681D01*
X136638430Y-61541693D01*
X136713809Y-61723676D01*
X136713811Y-61723679D01*
X136794069Y-61843795D01*
X136794071Y-61843795D01*
X137156329Y-61481538D01*
X137199901Y-61557007D01*
X137292993Y-61650099D01*
X137368460Y-61693670D01*
X136998183Y-62063947D01*
X136990963Y-62102019D01*
X136942898Y-62152729D01*
X136875047Y-62169404D01*
X136811690Y-62148630D01*
X136792073Y-62135523D01*
X136792068Y-62135520D01*
X136614547Y-62061989D01*
X136614535Y-62061986D01*
X136426081Y-62024500D01*
X136426078Y-62024500D01*
X136233922Y-62024500D01*
X136233919Y-62024500D01*
X136045464Y-62061986D01*
X136045461Y-62061987D01*
X136045460Y-62061987D01*
X136045457Y-62061988D01*
X136005311Y-62078617D01*
X135968385Y-62093912D01*
X135898915Y-62101380D01*
X135836436Y-62070104D01*
X135800784Y-62010015D01*
X135803279Y-61940190D01*
X135833255Y-61891665D01*
X135837139Y-61887782D01*
X135946632Y-61723914D01*
X136022051Y-61541835D01*
X136060500Y-61348541D01*
X136060500Y-61151459D01*
X136060500Y-61151456D01*
X136022052Y-60958170D01*
X136022051Y-60958169D01*
X136022051Y-60958165D01*
X136015767Y-60942993D01*
X135946635Y-60776092D01*
X135946628Y-60776079D01*
X135837139Y-60612218D01*
X135837136Y-60612214D01*
X135697785Y-60472863D01*
X135697781Y-60472860D01*
X135533920Y-60363371D01*
X135533907Y-60363364D01*
X135351839Y-60287950D01*
X135351829Y-60287947D01*
X135158543Y-60249500D01*
X135158541Y-60249500D01*
X135055833Y-60249500D01*
X134988794Y-60229815D01*
X134968152Y-60213181D01*
X134454512Y-59699541D01*
X134454504Y-59699535D01*
X134385995Y-59659982D01*
X134385990Y-59659979D01*
X134360513Y-59653152D01*
X134309562Y-59639500D01*
X134309560Y-59639500D01*
X132485833Y-59639500D01*
X132418794Y-59619815D01*
X132398152Y-59603181D01*
X131578420Y-58783449D01*
X133075001Y-58783449D01*
X133090762Y-58882967D01*
X133151883Y-59002923D01*
X133151886Y-59002928D01*
X133247071Y-59098113D01*
X133247076Y-59098116D01*
X133367034Y-59159239D01*
X133367033Y-59159239D01*
X133466543Y-59174999D01*
X133574999Y-59174999D01*
X133875000Y-59174999D01*
X133983449Y-59174999D01*
X134082967Y-59159237D01*
X134202923Y-59098116D01*
X134202928Y-59098113D01*
X134298113Y-59002928D01*
X134298116Y-59002923D01*
X134359239Y-58882966D01*
X134375000Y-58783456D01*
X134375000Y-58650000D01*
X133875000Y-58650000D01*
X133875000Y-59174999D01*
X133574999Y-59174999D01*
X133575000Y-59174998D01*
X133575000Y-58650000D01*
X133075001Y-58650000D01*
X133075001Y-58783449D01*
X131578420Y-58783449D01*
X131476819Y-58681848D01*
X131443334Y-58620525D01*
X131440500Y-58594167D01*
X131440500Y-58216543D01*
X133075000Y-58216543D01*
X133075000Y-58350000D01*
X133575000Y-58350000D01*
X133575000Y-57825000D01*
X133466550Y-57825000D01*
X133367032Y-57840762D01*
X133247076Y-57901883D01*
X133247071Y-57901886D01*
X133151886Y-57997071D01*
X133151883Y-57997076D01*
X133090760Y-58117033D01*
X133075000Y-58216543D01*
X131440500Y-58216543D01*
X131440500Y-56985833D01*
X131460185Y-56918794D01*
X131476819Y-56898152D01*
X131638152Y-56736819D01*
X131699475Y-56703334D01*
X131725833Y-56700500D01*
X132589561Y-56700500D01*
X132589562Y-56700500D01*
X132633905Y-56688618D01*
X132703755Y-56690279D01*
X132761618Y-56729441D01*
X132789123Y-56793669D01*
X132790000Y-56808392D01*
X132790000Y-57300004D01*
X132805602Y-57378440D01*
X132805605Y-57378452D01*
X132821713Y-57417339D01*
X132858253Y-57475493D01*
X132932660Y-57528287D01*
X132971547Y-57544394D01*
X132971559Y-57544397D01*
X133049995Y-57559999D01*
X133049999Y-57560000D01*
X133150001Y-57560000D01*
X133150004Y-57559999D01*
X133228440Y-57544397D01*
X133228448Y-57544395D01*
X133253740Y-57533919D01*
X133323209Y-57526449D01*
X133348651Y-57533919D01*
X133352459Y-57535496D01*
X133425371Y-57549999D01*
X133425374Y-57550000D01*
X133574628Y-57550000D01*
X133580691Y-57549403D01*
X133580836Y-57550877D01*
X133587316Y-57548461D01*
X133614168Y-57554302D01*
X133641542Y-57556747D01*
X133649561Y-57562001D01*
X133655589Y-57563313D01*
X133683843Y-57584464D01*
X133712698Y-57613319D01*
X133739271Y-57661983D01*
X133758427Y-57666151D01*
X133776152Y-57679419D01*
X133780203Y-57681270D01*
X133786681Y-57687302D01*
X133838681Y-57739302D01*
X133872166Y-57800625D01*
X133875000Y-57826983D01*
X133875000Y-58350000D01*
X134398017Y-58350000D01*
X134465056Y-58369685D01*
X134485698Y-58386319D01*
X134588181Y-58488802D01*
X134621666Y-58550125D01*
X134624500Y-58576483D01*
X134624500Y-58783493D01*
X134640279Y-58883121D01*
X134640280Y-58883124D01*
X134640281Y-58883126D01*
X134701472Y-59003220D01*
X134701473Y-59003221D01*
X134701476Y-59003225D01*
X134796774Y-59098523D01*
X134796778Y-59098526D01*
X134796780Y-59098528D01*
X134916874Y-59159719D01*
X134916876Y-59159719D01*
X134916878Y-59159720D01*
X135016507Y-59175500D01*
X135016512Y-59175500D01*
X135533493Y-59175500D01*
X135633121Y-59159720D01*
X135633121Y-59159719D01*
X135633126Y-59159719D01*
X135753220Y-59098528D01*
X135848528Y-59003220D01*
X135848529Y-59003217D01*
X135855428Y-58996319D01*
X135857511Y-58998402D01*
X135900352Y-58965351D01*
X135969964Y-58959356D01*
X136007367Y-58973505D01*
X136027251Y-58984985D01*
X136064709Y-59006613D01*
X136064711Y-59006613D01*
X136064712Y-59006614D01*
X136153856Y-59030500D01*
X136153858Y-59030500D01*
X136966142Y-59030500D01*
X136966144Y-59030500D01*
X137055288Y-59006614D01*
X137135212Y-58960470D01*
X137780470Y-58315212D01*
X137826614Y-58235288D01*
X137836203Y-58199500D01*
X137850500Y-58146144D01*
X137850500Y-57648625D01*
X137870185Y-57581586D01*
X137886819Y-57560944D01*
X138461930Y-56985833D01*
X139130469Y-56317294D01*
X139176614Y-56237370D01*
X139178712Y-56229540D01*
X139200500Y-56148226D01*
X139200500Y-55223264D01*
X139179724Y-55145729D01*
X139175500Y-55113638D01*
X139175500Y-54003858D01*
X139175500Y-54003856D01*
X139151614Y-53914712D01*
X139128975Y-53875500D01*
X139105470Y-53834788D01*
X138711819Y-53441137D01*
X138678334Y-53379814D01*
X138675500Y-53353456D01*
X138675500Y-52966506D01*
X138659720Y-52866878D01*
X138659719Y-52866876D01*
X138659719Y-52866874D01*
X138598528Y-52746780D01*
X138598526Y-52746778D01*
X138598523Y-52746774D01*
X138503225Y-52651476D01*
X138503222Y-52651474D01*
X138503220Y-52651472D01*
X138418204Y-52608154D01*
X138367409Y-52560180D01*
X138350500Y-52497670D01*
X138350500Y-51703858D01*
X138350500Y-51703856D01*
X138326614Y-51614712D01*
X138280470Y-51534788D01*
X137461342Y-50715660D01*
X137427857Y-50654337D01*
X137432841Y-50584645D01*
X137474713Y-50528712D01*
X137540177Y-50504295D01*
X137557122Y-50504244D01*
X137752895Y-50517075D01*
G37*
%TD.AperFunction*%
%TA.AperFunction,Conductor*%
G36*
X132950701Y-50506738D02*
G01*
X132972790Y-50508318D01*
X132983573Y-50516390D01*
X132996495Y-50520185D01*
X133010994Y-50536918D01*
X133028723Y-50550190D01*
X133033430Y-50562810D01*
X133042250Y-50572989D01*
X133045401Y-50594906D01*
X133053140Y-50615654D01*
X133050277Y-50628814D01*
X133052194Y-50642147D01*
X133042994Y-50662290D01*
X133038288Y-50683927D01*
X133025019Y-50701652D01*
X133023169Y-50705703D01*
X133017137Y-50712181D01*
X132941137Y-50788181D01*
X132879814Y-50821666D01*
X132853456Y-50824500D01*
X132466507Y-50824500D01*
X132366878Y-50840279D01*
X132246778Y-50901473D01*
X132246774Y-50901476D01*
X132151476Y-50996774D01*
X132151473Y-50996779D01*
X132151472Y-50996780D01*
X132108155Y-51081795D01*
X132060180Y-51132591D01*
X131997670Y-51149500D01*
X130953856Y-51149500D01*
X130864712Y-51173386D01*
X130864709Y-51173387D01*
X130784791Y-51219527D01*
X130784786Y-51219531D01*
X122079532Y-59924785D01*
X122079527Y-59924791D01*
X122036394Y-59999499D01*
X122036395Y-59999500D01*
X122033387Y-60004708D01*
X122033386Y-60004712D01*
X122009500Y-60093856D01*
X122009500Y-60093858D01*
X122009500Y-60229393D01*
X121989815Y-60296432D01*
X121937011Y-60342187D01*
X121932954Y-60343953D01*
X121886094Y-60363363D01*
X121886079Y-60363371D01*
X121722218Y-60472860D01*
X121722214Y-60472863D01*
X121582863Y-60612214D01*
X121582860Y-60612218D01*
X121473371Y-60776079D01*
X121473364Y-60776092D01*
X121397950Y-60958160D01*
X121397947Y-60958170D01*
X121359500Y-61151456D01*
X121359500Y-61151459D01*
X121359500Y-61348541D01*
X121359500Y-61348543D01*
X121359499Y-61348543D01*
X121397947Y-61541829D01*
X121397950Y-61541839D01*
X121473364Y-61723907D01*
X121473371Y-61723920D01*
X121582860Y-61887781D01*
X121582863Y-61887785D01*
X121586747Y-61891669D01*
X121620232Y-61952992D01*
X121615248Y-62022684D01*
X121573376Y-62078617D01*
X121507912Y-62103034D01*
X121451614Y-62093911D01*
X121374547Y-62061989D01*
X121374535Y-62061986D01*
X121186081Y-62024500D01*
X121186078Y-62024500D01*
X120993922Y-62024500D01*
X120993919Y-62024500D01*
X120805464Y-62061986D01*
X120805452Y-62061989D01*
X120671952Y-62117286D01*
X120602482Y-62124755D01*
X120540003Y-62093479D01*
X120504352Y-62033390D01*
X120500500Y-62002725D01*
X120500500Y-56038226D01*
X120520185Y-55971187D01*
X120572989Y-55925432D01*
X120642147Y-55915488D01*
X120705703Y-55944513D01*
X120742431Y-55999908D01*
X120748444Y-56018414D01*
X120844951Y-56207820D01*
X120969890Y-56379786D01*
X121120213Y-56530109D01*
X121292179Y-56655048D01*
X121292181Y-56655049D01*
X121292184Y-56655051D01*
X121481588Y-56751557D01*
X121683757Y-56817246D01*
X121893713Y-56850500D01*
X121893714Y-56850500D01*
X122106286Y-56850500D01*
X122106287Y-56850500D01*
X122316243Y-56817246D01*
X122518412Y-56751557D01*
X122707816Y-56655051D01*
X122846887Y-56554011D01*
X122879786Y-56530109D01*
X122879788Y-56530106D01*
X122879792Y-56530104D01*
X123030104Y-56379792D01*
X123030106Y-56379788D01*
X123030109Y-56379786D01*
X123155048Y-56207820D01*
X123155047Y-56207820D01*
X123155051Y-56207816D01*
X123251557Y-56018412D01*
X123317246Y-55816243D01*
X123350500Y-55606287D01*
X123350500Y-55393713D01*
X123317246Y-55183757D01*
X123251557Y-54981588D01*
X123155051Y-54792184D01*
X123155049Y-54792181D01*
X123155048Y-54792179D01*
X123030109Y-54620213D01*
X122879786Y-54469890D01*
X122707820Y-54344951D01*
X122518414Y-54248444D01*
X122518413Y-54248443D01*
X122518412Y-54248443D01*
X122316243Y-54182754D01*
X122316241Y-54182753D01*
X122316240Y-54182753D01*
X122154957Y-54157208D01*
X122106287Y-54149500D01*
X121893713Y-54149500D01*
X121845042Y-54157208D01*
X121683760Y-54182753D01*
X121481585Y-54248444D01*
X121292179Y-54344951D01*
X121120213Y-54469890D01*
X120969890Y-54620213D01*
X120844951Y-54792179D01*
X120748445Y-54981582D01*
X120748443Y-54981587D01*
X120748443Y-54981588D01*
X120742429Y-55000094D01*
X120702992Y-55057768D01*
X120638633Y-55084965D01*
X120569787Y-55073050D01*
X120518312Y-55025805D01*
X120500500Y-54961773D01*
X120500500Y-52504066D01*
X120500765Y-52495956D01*
X120502201Y-52474044D01*
X120517075Y-52247102D01*
X120519190Y-52231048D01*
X120567045Y-51990462D01*
X120571243Y-51974797D01*
X120636182Y-51783493D01*
X120650093Y-51742512D01*
X120656291Y-51727547D01*
X120764790Y-51507533D01*
X120772893Y-51493498D01*
X120909182Y-51289527D01*
X120919039Y-51276681D01*
X121080786Y-51092244D01*
X121092244Y-51080786D01*
X121276681Y-50919039D01*
X121289527Y-50909182D01*
X121493498Y-50772893D01*
X121507533Y-50764790D01*
X121727547Y-50656291D01*
X121742512Y-50650093D01*
X121906762Y-50594337D01*
X121974797Y-50571243D01*
X121990464Y-50567045D01*
X122011755Y-50562810D01*
X122231048Y-50519190D01*
X122247102Y-50517075D01*
X122495957Y-50500765D01*
X122504067Y-50500500D01*
X122565892Y-50500500D01*
X132929456Y-50500500D01*
X132950701Y-50506738D01*
G37*
%TD.AperFunction*%
%TA.AperFunction,Conductor*%
G36*
X131592539Y-51870185D02*
G01*
X131638294Y-51922989D01*
X131649500Y-51974500D01*
X131649500Y-53479562D01*
X131669979Y-53555989D01*
X131701450Y-53610498D01*
X131701451Y-53610502D01*
X131709536Y-53624505D01*
X131709542Y-53624513D01*
X131869541Y-53784512D01*
X131913946Y-53828918D01*
X131947431Y-53890241D01*
X131949120Y-53919284D01*
X131950000Y-53919284D01*
X131950000Y-54074626D01*
X131949999Y-54074626D01*
X131964505Y-54147548D01*
X131966578Y-54152553D01*
X131974675Y-54218182D01*
X131948660Y-54393682D01*
X131937685Y-54417438D01*
X131930315Y-54442539D01*
X131923269Y-54448644D01*
X131919358Y-54457111D01*
X131897282Y-54471162D01*
X131877511Y-54488294D01*
X131866656Y-54490655D01*
X131860415Y-54494628D01*
X131848630Y-54494576D01*
X131826000Y-54499500D01*
X130360438Y-54499500D01*
X130284010Y-54519978D01*
X130215489Y-54559540D01*
X130215486Y-54559542D01*
X124659541Y-60115487D01*
X124659535Y-60115495D01*
X124619982Y-60184004D01*
X124619978Y-60184013D01*
X124605952Y-60236356D01*
X124569586Y-60296016D01*
X124533631Y-60318821D01*
X124426089Y-60363366D01*
X124426079Y-60363371D01*
X124262218Y-60472860D01*
X124262214Y-60472863D01*
X124122863Y-60612214D01*
X124122860Y-60612218D01*
X124013371Y-60776079D01*
X124013364Y-60776092D01*
X123937950Y-60958160D01*
X123937947Y-60958170D01*
X123899500Y-61151456D01*
X123899500Y-61151459D01*
X123899500Y-61348541D01*
X123899500Y-61348543D01*
X123899499Y-61348543D01*
X123937947Y-61541829D01*
X123937950Y-61541839D01*
X124013364Y-61723907D01*
X124013371Y-61723920D01*
X124122860Y-61887781D01*
X124122863Y-61887785D01*
X124126747Y-61891669D01*
X124160232Y-61952992D01*
X124155248Y-62022684D01*
X124113376Y-62078617D01*
X124047912Y-62103034D01*
X123991614Y-62093911D01*
X123914547Y-62061989D01*
X123914535Y-62061986D01*
X123726081Y-62024500D01*
X123726078Y-62024500D01*
X123533922Y-62024500D01*
X123533919Y-62024500D01*
X123345464Y-62061986D01*
X123345461Y-62061987D01*
X123345460Y-62061987D01*
X123345457Y-62061988D01*
X123305311Y-62078617D01*
X123268385Y-62093912D01*
X123198915Y-62101380D01*
X123136436Y-62070104D01*
X123100784Y-62010015D01*
X123103279Y-61940190D01*
X123133255Y-61891665D01*
X123137139Y-61887782D01*
X123246632Y-61723914D01*
X123322051Y-61541835D01*
X123360500Y-61348541D01*
X123360500Y-61151459D01*
X123360500Y-61151456D01*
X123322052Y-60958170D01*
X123322051Y-60958169D01*
X123322051Y-60958165D01*
X123315767Y-60942993D01*
X123246635Y-60776092D01*
X123246628Y-60776079D01*
X123137139Y-60612218D01*
X123137136Y-60612214D01*
X122997782Y-60472860D01*
X122838693Y-60366561D01*
X122793888Y-60312949D01*
X122785181Y-60243624D01*
X122815335Y-60180597D01*
X122819884Y-60175797D01*
X131108863Y-51886819D01*
X131170186Y-51853334D01*
X131196544Y-51850500D01*
X131525500Y-51850500D01*
X131592539Y-51870185D01*
G37*
%TD.AperFunction*%
%TA.AperFunction,Conductor*%
G36*
X136752539Y-56680185D02*
G01*
X136798294Y-56732989D01*
X136809500Y-56784500D01*
X136809500Y-57101644D01*
X136823152Y-57152595D01*
X136829979Y-57178072D01*
X136829982Y-57178077D01*
X136869535Y-57246586D01*
X136869541Y-57246594D01*
X137113181Y-57490234D01*
X137146666Y-57551557D01*
X137149500Y-57577915D01*
X137149500Y-57903456D01*
X137129815Y-57970495D01*
X137113181Y-57991137D01*
X136811137Y-58293181D01*
X136749814Y-58326666D01*
X136723456Y-58329500D01*
X136396544Y-58329500D01*
X136329505Y-58309815D01*
X136308863Y-58293181D01*
X136245213Y-58229531D01*
X136245208Y-58229527D01*
X136165290Y-58183387D01*
X136165289Y-58183386D01*
X136165288Y-58183386D01*
X136076144Y-58159500D01*
X136076143Y-58159500D01*
X136007425Y-58159500D01*
X135940386Y-58139815D01*
X135896941Y-58091796D01*
X135848528Y-57996780D01*
X135848524Y-57996776D01*
X135848523Y-57996774D01*
X135753225Y-57901476D01*
X135753221Y-57901473D01*
X135753220Y-57901472D01*
X135633126Y-57840281D01*
X135633124Y-57840280D01*
X135633121Y-57840279D01*
X135533493Y-57824500D01*
X135533488Y-57824500D01*
X135016512Y-57824500D01*
X135016507Y-57824500D01*
X134916875Y-57840280D01*
X134916866Y-57840283D01*
X134912823Y-57842343D01*
X134892058Y-57846240D01*
X134872734Y-57854792D01*
X134858403Y-57852558D01*
X134844152Y-57855234D01*
X134824576Y-57847286D01*
X134803698Y-57844033D01*
X134786122Y-57831675D01*
X134779414Y-57828952D01*
X134776628Y-57825000D01*
X134768856Y-57819535D01*
X134661502Y-57712181D01*
X134628017Y-57650858D01*
X134633001Y-57581166D01*
X134674873Y-57525233D01*
X134740337Y-57500816D01*
X134749183Y-57500500D01*
X134769750Y-57500500D01*
X134769751Y-57500499D01*
X134784568Y-57497552D01*
X134828229Y-57488868D01*
X134828231Y-57488867D01*
X134831108Y-57486945D01*
X134838335Y-57484681D01*
X134839513Y-57484194D01*
X134839556Y-57484299D01*
X134858012Y-57478520D01*
X134883803Y-57467108D01*
X134890916Y-57468216D01*
X134897785Y-57466066D01*
X134924971Y-57473523D01*
X134952839Y-57477867D01*
X134958224Y-57482646D01*
X134965165Y-57484550D01*
X134968892Y-57486945D01*
X134971768Y-57488867D01*
X134971770Y-57488868D01*
X135030247Y-57500499D01*
X135030250Y-57500500D01*
X135030252Y-57500500D01*
X135169750Y-57500500D01*
X135169751Y-57500499D01*
X135184568Y-57497552D01*
X135228229Y-57488868D01*
X135228231Y-57488867D01*
X135231108Y-57486945D01*
X135238335Y-57484681D01*
X135239513Y-57484194D01*
X135239556Y-57484299D01*
X135297785Y-57466066D01*
X135365165Y-57484550D01*
X135368892Y-57486945D01*
X135371768Y-57488867D01*
X135371770Y-57488868D01*
X135430247Y-57500499D01*
X135430250Y-57500500D01*
X135430252Y-57500500D01*
X135569750Y-57500500D01*
X135569751Y-57500499D01*
X135584568Y-57497552D01*
X135628229Y-57488868D01*
X135639513Y-57484194D01*
X135640173Y-57485788D01*
X135693035Y-57469230D01*
X135742978Y-57482138D01*
X135744094Y-57479445D01*
X135751601Y-57482554D01*
X135751602Y-57482555D01*
X135790493Y-57498664D01*
X135850000Y-57510500D01*
X135850001Y-57510500D01*
X135949999Y-57510500D01*
X135950000Y-57510500D01*
X136009507Y-57498664D01*
X136048398Y-57482555D01*
X136083554Y-57462257D01*
X136132555Y-57398398D01*
X136148664Y-57359507D01*
X136160500Y-57300000D01*
X136160500Y-56784500D01*
X136180185Y-56717461D01*
X136232989Y-56671706D01*
X136284500Y-56660500D01*
X136685500Y-56660500D01*
X136752539Y-56680185D01*
G37*
%TD.AperFunction*%
%TA.AperFunction,Conductor*%
G36*
X138170495Y-53895185D02*
G01*
X138191137Y-53911819D01*
X138192637Y-53913319D01*
X138226122Y-53974642D01*
X138221138Y-54044334D01*
X138179266Y-54100267D01*
X138172036Y-54102963D01*
X138150000Y-54125000D01*
X138150000Y-55424999D01*
X138283455Y-55424999D01*
X138356103Y-55413493D01*
X138425396Y-55422448D01*
X138478848Y-55467444D01*
X138499487Y-55534196D01*
X138499500Y-55535966D01*
X138499500Y-55905537D01*
X138479815Y-55972576D01*
X138463181Y-55993218D01*
X137622181Y-56834218D01*
X137560858Y-56867703D01*
X137491166Y-56862719D01*
X137435233Y-56820847D01*
X137410816Y-56755383D01*
X137410500Y-56746537D01*
X137410500Y-55506354D01*
X137430185Y-55439315D01*
X137482989Y-55393560D01*
X137552147Y-55383616D01*
X137590797Y-55395870D01*
X137617034Y-55409239D01*
X137617033Y-55409239D01*
X137716543Y-55424999D01*
X137849999Y-55424999D01*
X137850000Y-55424998D01*
X137850000Y-54125000D01*
X137768585Y-54125000D01*
X137750087Y-54119568D01*
X137730813Y-54119107D01*
X137717254Y-54109927D01*
X137701546Y-54105315D01*
X137688922Y-54090746D01*
X137678735Y-54083849D01*
X137675416Y-54087908D01*
X137667290Y-54105703D01*
X137653263Y-54115003D01*
X137643573Y-54126855D01*
X137625441Y-54135770D01*
X137625727Y-54136332D01*
X137497076Y-54201883D01*
X137497071Y-54201886D01*
X137401884Y-54297073D01*
X137401297Y-54297882D01*
X137400331Y-54298626D01*
X137394981Y-54303977D01*
X137394289Y-54303285D01*
X137386491Y-54309297D01*
X137375289Y-54324263D01*
X137359397Y-54330190D01*
X137345966Y-54340547D01*
X137327341Y-54342146D01*
X137309825Y-54348680D01*
X137293251Y-54345074D01*
X137276353Y-54346526D01*
X137259818Y-54337801D01*
X137241552Y-54333828D01*
X137215914Y-54314635D01*
X137214558Y-54313920D01*
X137213298Y-54312677D01*
X137084464Y-54183843D01*
X137050979Y-54122520D01*
X137050610Y-54080809D01*
X137049403Y-54080691D01*
X137050000Y-54074628D01*
X137050000Y-54024500D01*
X137069685Y-53957461D01*
X137122489Y-53911706D01*
X137174000Y-53900500D01*
X137573577Y-53900500D01*
X137589012Y-53905032D01*
X137605095Y-53904572D01*
X137621849Y-53914674D01*
X137640616Y-53920185D01*
X137651149Y-53932341D01*
X137663458Y-53939763D01*
X137668070Y-53934691D01*
X137674872Y-53919797D01*
X137691091Y-53909373D01*
X137704061Y-53895110D01*
X137731688Y-53883283D01*
X137733650Y-53882023D01*
X137736430Y-53881242D01*
X137740989Y-53880021D01*
X137740990Y-53880020D01*
X137742108Y-53879721D01*
X137774186Y-53875500D01*
X138103456Y-53875500D01*
X138170495Y-53895185D01*
G37*
%TD.AperFunction*%
%TA.AperFunction,Conductor*%
G36*
X135365165Y-53584550D02*
G01*
X135368892Y-53586945D01*
X135371768Y-53588867D01*
X135371770Y-53588868D01*
X135430247Y-53600499D01*
X135430250Y-53600500D01*
X135430252Y-53600500D01*
X135569750Y-53600500D01*
X135569751Y-53600499D01*
X135588636Y-53596743D01*
X135628229Y-53588868D01*
X135639513Y-53584194D01*
X135640173Y-53585788D01*
X135693035Y-53569230D01*
X135736880Y-53576402D01*
X135749393Y-53580860D01*
X135751602Y-53582555D01*
X135790493Y-53598664D01*
X135810574Y-53602658D01*
X135819109Y-53605699D01*
X135840342Y-53621111D01*
X135863594Y-53633274D01*
X135868170Y-53641310D01*
X135875653Y-53646742D01*
X135885183Y-53671187D01*
X135898168Y-53693990D01*
X135899108Y-53698311D01*
X135901336Y-53709510D01*
X135902638Y-53713804D01*
X135903253Y-53783671D01*
X135887077Y-53818672D01*
X135864505Y-53852454D01*
X135864503Y-53852459D01*
X135850000Y-53925371D01*
X135850000Y-54074628D01*
X135864503Y-54147540D01*
X135864504Y-54147543D01*
X135890942Y-54187111D01*
X135911819Y-54253789D01*
X135909457Y-54280190D01*
X135899500Y-54330251D01*
X135899500Y-54469752D01*
X135911131Y-54528229D01*
X135911132Y-54528231D01*
X135913058Y-54531113D01*
X135915322Y-54538344D01*
X135915806Y-54539513D01*
X135915701Y-54539556D01*
X135933933Y-54597791D01*
X135915446Y-54665171D01*
X135913058Y-54668887D01*
X135911132Y-54671768D01*
X135911131Y-54671770D01*
X135899500Y-54730247D01*
X135899500Y-54869752D01*
X135911131Y-54928229D01*
X135911132Y-54928231D01*
X135913058Y-54931113D01*
X135915322Y-54938344D01*
X135915806Y-54939513D01*
X135915701Y-54939556D01*
X135933933Y-54997791D01*
X135915446Y-55065171D01*
X135913058Y-55068887D01*
X135911132Y-55071768D01*
X135911131Y-55071770D01*
X135899500Y-55130247D01*
X135899500Y-55269752D01*
X135911131Y-55328229D01*
X135911132Y-55328231D01*
X135913058Y-55331113D01*
X135915322Y-55338344D01*
X135915806Y-55339513D01*
X135915701Y-55339556D01*
X135933933Y-55397791D01*
X135915446Y-55465171D01*
X135913058Y-55468887D01*
X135911132Y-55471768D01*
X135911131Y-55471770D01*
X135899500Y-55530247D01*
X135899500Y-55669752D01*
X135911131Y-55728229D01*
X135911132Y-55728231D01*
X135913058Y-55731113D01*
X135915322Y-55738344D01*
X135915806Y-55739513D01*
X135915701Y-55739556D01*
X135933933Y-55797791D01*
X135915446Y-55865171D01*
X135913058Y-55868887D01*
X135911132Y-55871768D01*
X135911131Y-55871770D01*
X135899500Y-55930247D01*
X135899500Y-56069752D01*
X135911131Y-56128229D01*
X135915806Y-56139513D01*
X135914212Y-56140173D01*
X135930769Y-56193045D01*
X135923597Y-56236880D01*
X135919137Y-56249395D01*
X135917445Y-56251602D01*
X135901336Y-56290493D01*
X135897343Y-56310567D01*
X135894300Y-56319109D01*
X135878884Y-56340346D01*
X135866720Y-56363599D01*
X135858686Y-56368173D01*
X135853257Y-56375653D01*
X135828810Y-56385183D01*
X135806003Y-56398170D01*
X135801689Y-56399108D01*
X135790500Y-56401334D01*
X135790486Y-56401338D01*
X135751601Y-56417445D01*
X135750265Y-56418104D01*
X135749825Y-56418180D01*
X135747852Y-56418998D01*
X135747669Y-56418556D01*
X135681433Y-56430102D01*
X135639892Y-56414889D01*
X135639513Y-56415806D01*
X135628229Y-56411131D01*
X135569752Y-56399500D01*
X135569748Y-56399500D01*
X135430252Y-56399500D01*
X135430247Y-56399500D01*
X135371770Y-56411131D01*
X135371768Y-56411132D01*
X135368887Y-56413058D01*
X135361655Y-56415322D01*
X135360487Y-56415806D01*
X135360443Y-56415701D01*
X135302209Y-56433933D01*
X135234829Y-56415446D01*
X135231113Y-56413058D01*
X135228231Y-56411132D01*
X135228229Y-56411131D01*
X135169752Y-56399500D01*
X135169748Y-56399500D01*
X135030252Y-56399500D01*
X135030247Y-56399500D01*
X134971770Y-56411131D01*
X134971768Y-56411132D01*
X134968887Y-56413058D01*
X134961655Y-56415322D01*
X134960487Y-56415806D01*
X134960443Y-56415701D01*
X134902209Y-56433933D01*
X134834829Y-56415446D01*
X134831113Y-56413058D01*
X134828231Y-56411132D01*
X134828229Y-56411131D01*
X134769752Y-56399500D01*
X134769748Y-56399500D01*
X134630252Y-56399500D01*
X134630251Y-56399500D01*
X134580190Y-56409457D01*
X134510599Y-56403228D01*
X134487111Y-56390942D01*
X134447543Y-56364504D01*
X134447540Y-56364503D01*
X134374627Y-56350000D01*
X134225373Y-56350000D01*
X134152459Y-56364503D01*
X134152456Y-56364504D01*
X134112887Y-56390943D01*
X134046209Y-56411819D01*
X134019808Y-56409457D01*
X133969748Y-56399500D01*
X133830252Y-56399500D01*
X133830251Y-56399500D01*
X133780190Y-56409457D01*
X133710599Y-56403228D01*
X133687111Y-56390942D01*
X133647543Y-56364504D01*
X133647540Y-56364503D01*
X133574627Y-56350000D01*
X133425374Y-56350000D01*
X133352451Y-56364505D01*
X133348642Y-56366083D01*
X133325176Y-56368604D01*
X133302607Y-56375512D01*
X133287692Y-56372633D01*
X133279172Y-56373549D01*
X133267617Y-56370887D01*
X133172021Y-56343996D01*
X133146342Y-56327903D01*
X133119496Y-56313860D01*
X133116191Y-56309008D01*
X133112817Y-56306894D01*
X133108497Y-56297712D01*
X133091037Y-56272080D01*
X133082556Y-56251605D01*
X133081904Y-56250283D01*
X133081827Y-56249846D01*
X133081001Y-56247850D01*
X133081447Y-56247665D01*
X133069895Y-56181453D01*
X133085113Y-56139893D01*
X133084194Y-56139513D01*
X133088868Y-56128229D01*
X133100499Y-56069752D01*
X133100500Y-56069750D01*
X133100500Y-55930249D01*
X133100499Y-55930247D01*
X133088868Y-55871770D01*
X133088867Y-55871768D01*
X133086945Y-55868892D01*
X133084681Y-55861664D01*
X133084194Y-55860487D01*
X133084299Y-55860443D01*
X133066066Y-55802215D01*
X133084550Y-55734835D01*
X133086945Y-55731108D01*
X133088867Y-55728231D01*
X133088868Y-55728229D01*
X133100499Y-55669752D01*
X133100500Y-55669750D01*
X133100500Y-55530249D01*
X133100499Y-55530247D01*
X133088868Y-55471770D01*
X133088867Y-55471768D01*
X133086945Y-55468892D01*
X133084681Y-55461664D01*
X133084194Y-55460487D01*
X133084299Y-55460443D01*
X133066066Y-55402215D01*
X133084550Y-55334835D01*
X133086945Y-55331108D01*
X133088867Y-55328231D01*
X133088868Y-55328229D01*
X133100499Y-55269752D01*
X133100500Y-55269750D01*
X133100500Y-55130249D01*
X133100499Y-55130247D01*
X133088868Y-55071770D01*
X133088867Y-55071768D01*
X133086945Y-55068892D01*
X133084681Y-55061664D01*
X133084194Y-55060487D01*
X133084299Y-55060443D01*
X133066066Y-55002215D01*
X133084550Y-54934835D01*
X133086945Y-54931108D01*
X133088867Y-54928231D01*
X133088868Y-54928229D01*
X133100499Y-54869752D01*
X133100500Y-54869750D01*
X133100500Y-54730249D01*
X133090543Y-54680193D01*
X133096770Y-54610601D01*
X133109058Y-54587110D01*
X133135494Y-54547544D01*
X133135496Y-54547540D01*
X133149999Y-54474628D01*
X133150000Y-54474626D01*
X133150000Y-54325373D01*
X133149999Y-54325371D01*
X133135496Y-54252459D01*
X133133424Y-54247456D01*
X133125954Y-54177987D01*
X133133424Y-54152544D01*
X133135496Y-54147540D01*
X133149999Y-54074628D01*
X133150000Y-54074626D01*
X133150000Y-53925373D01*
X133149999Y-53925371D01*
X133135496Y-53852459D01*
X133135495Y-53852456D01*
X133112923Y-53818674D01*
X133103095Y-53787284D01*
X133092196Y-53756269D01*
X133092528Y-53753536D01*
X133092046Y-53751996D01*
X133095385Y-53721120D01*
X133097444Y-53712449D01*
X133098664Y-53709507D01*
X133101335Y-53696076D01*
X133101866Y-53693843D01*
X133118094Y-53665424D01*
X133133273Y-53636406D01*
X133135336Y-53635230D01*
X133136514Y-53633169D01*
X133165537Y-53618032D01*
X133193988Y-53601831D01*
X133198291Y-53600894D01*
X133209507Y-53598664D01*
X133209516Y-53598659D01*
X133213793Y-53597364D01*
X133283660Y-53596743D01*
X133318674Y-53612923D01*
X133352456Y-53635495D01*
X133352459Y-53635496D01*
X133425371Y-53649999D01*
X133425374Y-53650000D01*
X133574626Y-53650000D01*
X133574628Y-53649999D01*
X133647540Y-53635496D01*
X133652544Y-53633424D01*
X133722013Y-53625954D01*
X133747456Y-53633424D01*
X133752459Y-53635496D01*
X133825371Y-53649999D01*
X133825374Y-53650000D01*
X133974626Y-53650000D01*
X133974628Y-53649999D01*
X134047540Y-53635496D01*
X134047544Y-53635494D01*
X134087110Y-53609058D01*
X134153787Y-53588180D01*
X134180193Y-53590543D01*
X134230249Y-53600500D01*
X134230252Y-53600500D01*
X134369750Y-53600500D01*
X134369751Y-53600499D01*
X134388636Y-53596743D01*
X134428229Y-53588868D01*
X134428231Y-53588867D01*
X134431108Y-53586945D01*
X134438335Y-53584681D01*
X134439513Y-53584194D01*
X134439556Y-53584299D01*
X134497785Y-53566066D01*
X134565165Y-53584550D01*
X134568892Y-53586945D01*
X134571768Y-53588867D01*
X134571770Y-53588868D01*
X134630247Y-53600499D01*
X134630250Y-53600500D01*
X134630252Y-53600500D01*
X134769750Y-53600500D01*
X134769751Y-53600499D01*
X134788636Y-53596743D01*
X134828229Y-53588868D01*
X134828231Y-53588867D01*
X134831108Y-53586945D01*
X134838335Y-53584681D01*
X134839513Y-53584194D01*
X134839556Y-53584299D01*
X134897785Y-53566066D01*
X134965165Y-53584550D01*
X134968892Y-53586945D01*
X134971768Y-53588867D01*
X134971770Y-53588868D01*
X135030247Y-53600499D01*
X135030250Y-53600500D01*
X135030252Y-53600500D01*
X135169750Y-53600500D01*
X135169751Y-53600499D01*
X135188636Y-53596743D01*
X135228229Y-53588868D01*
X135228231Y-53588867D01*
X135231108Y-53586945D01*
X135238335Y-53584681D01*
X135239513Y-53584194D01*
X135239556Y-53584299D01*
X135297785Y-53566066D01*
X135365165Y-53584550D01*
G37*
%TD.AperFunction*%
%TA.AperFunction,Conductor*%
G36*
X136770495Y-51020185D02*
G01*
X136791137Y-51036819D01*
X137613181Y-51858863D01*
X137646666Y-51920186D01*
X137649500Y-51946544D01*
X137649500Y-52497670D01*
X137629815Y-52564709D01*
X137581795Y-52608154D01*
X137496780Y-52651472D01*
X137496779Y-52651473D01*
X137496774Y-52651476D01*
X137401476Y-52746774D01*
X137401473Y-52746778D01*
X137340279Y-52866878D01*
X137324500Y-52966506D01*
X137324500Y-53175500D01*
X137304815Y-53242539D01*
X137252011Y-53288294D01*
X137200500Y-53299500D01*
X136410438Y-53299500D01*
X136350159Y-53315651D01*
X136334003Y-53319981D01*
X136331945Y-53320834D01*
X136330070Y-53321035D01*
X136326161Y-53322083D01*
X136325997Y-53321473D01*
X136262475Y-53328298D01*
X136199998Y-53297019D01*
X136164350Y-53236928D01*
X136160500Y-53206270D01*
X136160500Y-52700001D01*
X136156572Y-52680252D01*
X136148664Y-52640493D01*
X136132555Y-52601602D01*
X136112257Y-52566446D01*
X136109993Y-52564709D01*
X136048398Y-52517445D01*
X136009513Y-52501338D01*
X136009508Y-52501336D01*
X135979753Y-52495418D01*
X135950000Y-52489500D01*
X135850000Y-52489500D01*
X135830164Y-52493445D01*
X135790491Y-52501336D01*
X135790486Y-52501338D01*
X135751601Y-52517445D01*
X135750265Y-52518104D01*
X135749825Y-52518180D01*
X135747852Y-52518998D01*
X135747669Y-52518556D01*
X135681433Y-52530102D01*
X135639892Y-52514889D01*
X135639513Y-52515806D01*
X135628229Y-52511131D01*
X135569752Y-52499500D01*
X135569748Y-52499500D01*
X135430252Y-52499500D01*
X135430247Y-52499500D01*
X135371770Y-52511131D01*
X135371768Y-52511132D01*
X135368887Y-52513058D01*
X135361655Y-52515322D01*
X135360487Y-52515806D01*
X135360443Y-52515701D01*
X135302209Y-52533933D01*
X135234829Y-52515446D01*
X135231113Y-52513058D01*
X135228231Y-52511132D01*
X135228229Y-52511131D01*
X135169752Y-52499500D01*
X135169748Y-52499500D01*
X135030252Y-52499500D01*
X135030247Y-52499500D01*
X134971770Y-52511131D01*
X134971768Y-52511132D01*
X134968887Y-52513058D01*
X134961655Y-52515322D01*
X134960487Y-52515806D01*
X134960443Y-52515701D01*
X134902209Y-52533933D01*
X134834829Y-52515446D01*
X134831113Y-52513058D01*
X134828231Y-52511132D01*
X134828229Y-52511131D01*
X134769752Y-52499500D01*
X134769748Y-52499500D01*
X134630252Y-52499500D01*
X134630247Y-52499500D01*
X134571770Y-52511131D01*
X134571768Y-52511132D01*
X134568887Y-52513058D01*
X134561655Y-52515322D01*
X134560487Y-52515806D01*
X134560443Y-52515701D01*
X134502209Y-52533933D01*
X134434829Y-52515446D01*
X134431113Y-52513058D01*
X134428231Y-52511132D01*
X134428229Y-52511131D01*
X134369752Y-52499500D01*
X134369748Y-52499500D01*
X134230252Y-52499500D01*
X134230251Y-52499500D01*
X134180190Y-52509457D01*
X134110599Y-52503228D01*
X134087111Y-52490942D01*
X134047543Y-52464504D01*
X134047540Y-52464503D01*
X133974627Y-52450000D01*
X133825374Y-52450000D01*
X133752451Y-52464505D01*
X133747447Y-52466578D01*
X133677978Y-52474044D01*
X133652553Y-52466578D01*
X133647548Y-52464505D01*
X133574626Y-52450000D01*
X133425373Y-52450000D01*
X133352459Y-52464503D01*
X133352454Y-52464505D01*
X133318672Y-52487077D01*
X133251994Y-52507953D01*
X133213804Y-52502638D01*
X133209520Y-52501339D01*
X133209508Y-52501336D01*
X133209507Y-52501336D01*
X133150000Y-52489500D01*
X133050000Y-52489500D01*
X133030164Y-52493445D01*
X132990491Y-52501336D01*
X132990486Y-52501338D01*
X132951608Y-52517442D01*
X132951604Y-52517443D01*
X132916445Y-52537743D01*
X132867445Y-52601600D01*
X132867445Y-52601601D01*
X132851338Y-52640486D01*
X132851336Y-52640491D01*
X132839500Y-52700001D01*
X132839500Y-53206270D01*
X132819815Y-53273309D01*
X132767011Y-53319064D01*
X132697853Y-53329008D01*
X132668055Y-53320834D01*
X132665996Y-53319981D01*
X132662574Y-53319064D01*
X132589562Y-53299500D01*
X132589560Y-53299500D01*
X132374500Y-53299500D01*
X132307461Y-53279815D01*
X132261706Y-53227011D01*
X132250500Y-53175500D01*
X132250500Y-52286472D01*
X132270185Y-52219433D01*
X132322989Y-52173678D01*
X132392147Y-52163734D01*
X132393855Y-52163992D01*
X132417753Y-52167777D01*
X132466508Y-52175500D01*
X132466512Y-52175500D01*
X132983493Y-52175500D01*
X133083121Y-52159720D01*
X133083121Y-52159719D01*
X133083126Y-52159719D01*
X133203220Y-52098528D01*
X133298528Y-52003220D01*
X133359719Y-51883126D01*
X133359744Y-51882967D01*
X133375500Y-51783493D01*
X133375500Y-51783449D01*
X133625001Y-51783449D01*
X133640762Y-51882967D01*
X133701883Y-52002923D01*
X133701886Y-52002928D01*
X133797071Y-52098113D01*
X133797076Y-52098116D01*
X133917034Y-52159239D01*
X133917033Y-52159239D01*
X134016543Y-52174999D01*
X134124999Y-52174999D01*
X134425000Y-52174999D01*
X134533449Y-52174999D01*
X134632967Y-52159237D01*
X134752923Y-52098116D01*
X134752928Y-52098113D01*
X134848113Y-52002928D01*
X134848116Y-52002923D01*
X134909239Y-51882966D01*
X134925000Y-51783456D01*
X134925000Y-51650000D01*
X134425000Y-51650000D01*
X134425000Y-52174999D01*
X134124999Y-52174999D01*
X134125000Y-52174998D01*
X134125000Y-51650000D01*
X133625001Y-51650000D01*
X133625001Y-51783449D01*
X133375500Y-51783449D01*
X133375500Y-51396543D01*
X133395185Y-51329504D01*
X133411814Y-51308867D01*
X133413321Y-51307360D01*
X133474642Y-51273877D01*
X133544334Y-51278861D01*
X133600267Y-51320733D01*
X133602964Y-51327964D01*
X133625000Y-51350000D01*
X134924999Y-51350000D01*
X134924999Y-51216544D01*
X134913493Y-51143897D01*
X134922448Y-51074604D01*
X134967444Y-51021152D01*
X135034196Y-51000513D01*
X135035966Y-51000500D01*
X136703456Y-51000500D01*
X136770495Y-51020185D01*
G37*
%TD.AperFunction*%
%TD*%
%TA.AperFunction,Conductor*%
%TO.N,GND*%
G36*
X137972203Y-63502236D02*
G01*
X137980039Y-63500967D01*
X138005246Y-63511939D01*
X138031625Y-63519685D01*
X138038455Y-63526394D01*
X138044103Y-63528853D01*
X138067688Y-63555109D01*
X138112279Y-63621844D01*
X138112282Y-63621848D01*
X138248151Y-63757717D01*
X138248155Y-63757720D01*
X138407927Y-63864477D01*
X138407928Y-63864477D01*
X138407929Y-63864478D01*
X138407931Y-63864479D01*
X138585452Y-63938010D01*
X138585457Y-63938012D01*
X138746166Y-63969979D01*
X138773917Y-63975499D01*
X138773920Y-63975500D01*
X138773922Y-63975500D01*
X138966080Y-63975500D01*
X138966081Y-63975499D01*
X139154543Y-63938012D01*
X139328049Y-63866143D01*
X139397517Y-63858675D01*
X139459996Y-63889950D01*
X139495648Y-63950039D01*
X139499500Y-63980705D01*
X139499500Y-80745933D01*
X139499235Y-80754043D01*
X139482925Y-81002883D01*
X139480807Y-81018964D01*
X139432954Y-81259535D01*
X139428756Y-81275202D01*
X139349909Y-81507479D01*
X139343702Y-81522465D01*
X139235212Y-81742460D01*
X139227102Y-81756506D01*
X139090825Y-81960460D01*
X139080951Y-81973329D01*
X138919218Y-82157749D01*
X138907749Y-82169218D01*
X138723328Y-82330951D01*
X138710459Y-82340825D01*
X138514648Y-82471661D01*
X138499909Y-82480110D01*
X135835001Y-83773741D01*
X135835000Y-83773741D01*
X135824360Y-83778905D01*
X135806814Y-83783608D01*
X135765312Y-83807567D01*
X135761314Y-83809509D01*
X135761294Y-83809521D01*
X135722154Y-83828521D01*
X135717355Y-83832678D01*
X135698187Y-83846323D01*
X135692693Y-83849495D01*
X135692685Y-83849500D01*
X135661916Y-83880269D01*
X135661915Y-83880268D01*
X135658765Y-83883417D01*
X135622536Y-83914794D01*
X135612351Y-83929831D01*
X135604000Y-83938183D01*
X135603996Y-83938189D01*
X135599500Y-83942685D01*
X135577746Y-83980362D01*
X135573034Y-83987886D01*
X135548642Y-84023905D01*
X135548638Y-84023912D01*
X135546564Y-84029901D01*
X135542692Y-84041079D01*
X135533608Y-84056814D01*
X135521199Y-84103119D01*
X135519745Y-84107319D01*
X135505503Y-84148436D01*
X135505048Y-84154761D01*
X135505049Y-84154762D01*
X135504202Y-84166556D01*
X135499500Y-84184108D01*
X135499500Y-84232049D01*
X135499182Y-84236479D01*
X135499182Y-84236482D01*
X135496066Y-84279880D01*
X135497265Y-84286110D01*
X135499500Y-84309545D01*
X135499500Y-85208338D01*
X135479815Y-85275377D01*
X135427011Y-85321132D01*
X135357853Y-85331076D01*
X135316101Y-85314332D01*
X135315420Y-85315726D01*
X135201251Y-85259912D01*
X135201248Y-85259911D01*
X135133220Y-85250000D01*
X135100000Y-85250000D01*
X135100000Y-86974999D01*
X135133218Y-86974999D01*
X135201249Y-86965087D01*
X135315420Y-86909273D01*
X135316385Y-86911248D01*
X135369439Y-86892809D01*
X135437360Y-86909193D01*
X135485642Y-86959698D01*
X135499500Y-87016661D01*
X135499500Y-95375500D01*
X135479815Y-95442539D01*
X135427011Y-95488294D01*
X135375500Y-95499500D01*
X135048227Y-95499500D01*
X134981188Y-95479815D01*
X134935433Y-95427011D01*
X134925540Y-95367649D01*
X134925000Y-95367649D01*
X134925000Y-95364406D01*
X134924824Y-95363350D01*
X134925000Y-95361562D01*
X134925000Y-94750000D01*
X134525000Y-94750000D01*
X134525000Y-94450000D01*
X134925000Y-94450000D01*
X134925000Y-93838440D01*
X134900982Y-93717699D01*
X134900979Y-93717689D01*
X134853871Y-93603958D01*
X134853864Y-93603945D01*
X134785469Y-93501586D01*
X134785466Y-93501582D01*
X134698417Y-93414533D01*
X134698413Y-93414530D01*
X134596054Y-93346135D01*
X134596041Y-93346128D01*
X134482310Y-93299020D01*
X134450000Y-93292592D01*
X134450000Y-93756802D01*
X134427452Y-93734254D01*
X134344755Y-93700000D01*
X134255245Y-93700000D01*
X134172548Y-93734254D01*
X134150000Y-93756802D01*
X134150000Y-93292592D01*
X134117689Y-93299020D01*
X134003958Y-93346128D01*
X134003945Y-93346135D01*
X133901586Y-93414530D01*
X133901582Y-93414533D01*
X133814533Y-93501582D01*
X133814530Y-93501586D01*
X133746135Y-93603945D01*
X133746128Y-93603958D01*
X133699020Y-93717689D01*
X133699017Y-93717699D01*
X133675000Y-93838440D01*
X133675000Y-94426000D01*
X133655315Y-94493039D01*
X133602511Y-94538794D01*
X133551000Y-94550000D01*
X133280304Y-94550000D01*
X133215971Y-94562795D01*
X133184842Y-94584000D01*
X133146736Y-94590000D01*
X132900000Y-94590000D01*
X132900000Y-95140000D01*
X132919699Y-95140000D01*
X132980348Y-95127935D01*
X132990792Y-95116886D01*
X133004691Y-95113128D01*
X133015156Y-95106001D01*
X133032811Y-95105528D01*
X133053263Y-95100000D01*
X133576000Y-95100000D01*
X133643039Y-95119685D01*
X133688794Y-95172489D01*
X133700000Y-95224000D01*
X133700000Y-95276000D01*
X133680315Y-95343039D01*
X133627511Y-95388794D01*
X133576000Y-95400000D01*
X133102699Y-95400000D01*
X133086464Y-95431835D01*
X133082103Y-95436448D01*
X133080315Y-95442539D01*
X133058398Y-95461530D01*
X133038471Y-95482614D01*
X133032307Y-95484137D01*
X133027511Y-95488294D01*
X132976000Y-95499500D01*
X127024000Y-95499500D01*
X126956961Y-95479815D01*
X126911206Y-95427011D01*
X126906811Y-95406811D01*
X126900000Y-95400000D01*
X126424000Y-95400000D01*
X126415314Y-95397449D01*
X126406353Y-95398738D01*
X126382312Y-95387759D01*
X126356961Y-95380315D01*
X126351033Y-95373474D01*
X126342797Y-95369713D01*
X126328507Y-95347478D01*
X126311206Y-95327511D01*
X126308918Y-95316996D01*
X126305023Y-95310935D01*
X126300000Y-95276000D01*
X126300000Y-95224000D01*
X126319685Y-95156961D01*
X126372489Y-95111206D01*
X126424000Y-95100000D01*
X126946737Y-95100000D01*
X127013776Y-95119685D01*
X127024020Y-95128804D01*
X127080301Y-95140000D01*
X127100000Y-95140000D01*
X127100000Y-94590000D01*
X126853264Y-94590000D01*
X126786225Y-94570315D01*
X126775980Y-94561195D01*
X126719696Y-94550000D01*
X126449000Y-94550000D01*
X126381961Y-94530315D01*
X126336206Y-94477511D01*
X126325000Y-94426000D01*
X126325000Y-93838440D01*
X126300982Y-93717699D01*
X126300979Y-93717689D01*
X126253871Y-93603958D01*
X126253864Y-93603945D01*
X126185469Y-93501586D01*
X126185466Y-93501582D01*
X126098417Y-93414533D01*
X126098413Y-93414530D01*
X125996054Y-93346135D01*
X125996041Y-93346128D01*
X125882310Y-93299020D01*
X125850000Y-93292592D01*
X125850000Y-93756802D01*
X125827452Y-93734254D01*
X125744755Y-93700000D01*
X125655245Y-93700000D01*
X125572548Y-93734254D01*
X125550000Y-93756802D01*
X125550000Y-93292592D01*
X125517689Y-93299020D01*
X125403958Y-93346128D01*
X125403945Y-93346135D01*
X125301586Y-93414530D01*
X125301582Y-93414533D01*
X125214533Y-93501582D01*
X125214530Y-93501586D01*
X125146135Y-93603945D01*
X125146128Y-93603958D01*
X125099020Y-93717689D01*
X125099017Y-93717699D01*
X125075000Y-93838440D01*
X125075000Y-94450000D01*
X125475000Y-94450000D01*
X125475000Y-94750000D01*
X125075000Y-94750000D01*
X125075000Y-95361562D01*
X125075176Y-95363350D01*
X125075000Y-95364277D01*
X125075000Y-95367649D01*
X125074361Y-95367649D01*
X125062155Y-95431996D01*
X125014089Y-95482704D01*
X124951773Y-95499500D01*
X124624500Y-95499500D01*
X124557461Y-95479815D01*
X124511706Y-95427011D01*
X124500500Y-95375500D01*
X124500500Y-92037614D01*
X124520185Y-91970575D01*
X124572989Y-91924820D01*
X124642147Y-91914876D01*
X124705703Y-91943901D01*
X124736880Y-91985206D01*
X124785935Y-92090404D01*
X124869596Y-92174065D01*
X124976827Y-92224068D01*
X125025683Y-92230500D01*
X125025684Y-92230500D01*
X125244167Y-92230500D01*
X125311206Y-92250185D01*
X125331848Y-92266819D01*
X126119540Y-93054511D01*
X126175489Y-93110460D01*
X126175491Y-93110461D01*
X126175495Y-93110464D01*
X126234947Y-93144788D01*
X126244011Y-93150021D01*
X126320438Y-93170500D01*
X126756167Y-93170500D01*
X126823206Y-93190185D01*
X126843848Y-93206819D01*
X127165348Y-93528319D01*
X127198833Y-93589642D01*
X127193849Y-93659334D01*
X127151977Y-93715267D01*
X127086513Y-93739684D01*
X127081800Y-93739852D01*
X127080297Y-93740000D01*
X127021966Y-93751602D01*
X127021965Y-93751603D01*
X126955808Y-93795808D01*
X126911603Y-93861965D01*
X126911602Y-93861966D01*
X126900000Y-93920297D01*
X126900000Y-94290000D01*
X127126000Y-94290000D01*
X127134685Y-94292550D01*
X127143647Y-94291262D01*
X127167687Y-94302240D01*
X127193039Y-94309685D01*
X127198966Y-94316525D01*
X127207203Y-94320287D01*
X127221492Y-94342521D01*
X127238794Y-94362489D01*
X127241081Y-94373003D01*
X127244977Y-94379065D01*
X127250000Y-94414000D01*
X127250000Y-94440000D01*
X127276000Y-94440000D01*
X127343039Y-94459685D01*
X127388794Y-94512489D01*
X127400000Y-94564000D01*
X127400000Y-95140000D01*
X127419696Y-95140000D01*
X127478039Y-95128395D01*
X127489321Y-95123722D01*
X127491006Y-95127790D01*
X127534893Y-95114001D01*
X127561419Y-95116361D01*
X127582223Y-95120500D01*
X127917776Y-95120499D01*
X127970428Y-95110027D01*
X127970429Y-95110025D01*
X127975808Y-95108956D01*
X128024189Y-95108957D01*
X128064054Y-95116886D01*
X128082223Y-95120500D01*
X128417776Y-95120499D01*
X128470428Y-95110027D01*
X128470429Y-95110025D01*
X128475808Y-95108956D01*
X128524189Y-95108957D01*
X128564054Y-95116886D01*
X128582223Y-95120500D01*
X128917776Y-95120499D01*
X128970428Y-95110027D01*
X128970429Y-95110025D01*
X128975808Y-95108956D01*
X129024189Y-95108957D01*
X129064054Y-95116886D01*
X129082223Y-95120500D01*
X129417776Y-95120499D01*
X129470428Y-95110027D01*
X129470429Y-95110025D01*
X129475808Y-95108956D01*
X129524189Y-95108957D01*
X129564054Y-95116886D01*
X129582223Y-95120500D01*
X129917776Y-95120499D01*
X129970428Y-95110027D01*
X129970429Y-95110025D01*
X129975808Y-95108956D01*
X130024189Y-95108957D01*
X130064054Y-95116886D01*
X130082223Y-95120500D01*
X130417776Y-95120499D01*
X130438580Y-95116361D01*
X130508171Y-95122588D01*
X130510620Y-95123870D01*
X130510682Y-95123723D01*
X130521960Y-95128395D01*
X130580304Y-95140000D01*
X130600000Y-95140000D01*
X130600000Y-94564000D01*
X130602550Y-94555314D01*
X130601262Y-94546353D01*
X130612240Y-94522312D01*
X130619685Y-94496961D01*
X130626525Y-94491033D01*
X130630287Y-94482797D01*
X130652521Y-94468507D01*
X130672489Y-94451206D01*
X130683003Y-94448918D01*
X130689065Y-94445023D01*
X130724000Y-94440000D01*
X130776000Y-94440000D01*
X130843039Y-94459685D01*
X130888794Y-94512489D01*
X130900000Y-94564000D01*
X130900000Y-95140000D01*
X130919696Y-95140000D01*
X130978039Y-95128395D01*
X130989321Y-95123722D01*
X130991006Y-95127790D01*
X131034893Y-95114001D01*
X131061419Y-95116361D01*
X131082223Y-95120500D01*
X131417776Y-95120499D01*
X131470428Y-95110027D01*
X131470429Y-95110025D01*
X131475808Y-95108956D01*
X131524189Y-95108957D01*
X131564054Y-95116886D01*
X131582223Y-95120500D01*
X131917776Y-95120499D01*
X131970428Y-95110027D01*
X131970429Y-95110026D01*
X131970807Y-95109951D01*
X132019190Y-95109951D01*
X132019571Y-95110026D01*
X132019572Y-95110027D01*
X132072223Y-95120500D01*
X132407776Y-95120499D01*
X132436287Y-95114828D01*
X132505876Y-95121055D01*
X132512092Y-95124307D01*
X132521960Y-95128395D01*
X132580304Y-95140000D01*
X132600000Y-95140000D01*
X132600000Y-94290000D01*
X132900000Y-94290000D01*
X133100000Y-94290000D01*
X133100000Y-93920301D01*
X133099999Y-93920297D01*
X133088397Y-93861966D01*
X133088396Y-93861965D01*
X133044191Y-93795808D01*
X132978034Y-93751603D01*
X132978033Y-93751602D01*
X132919702Y-93740000D01*
X132900000Y-93740000D01*
X132900000Y-94290000D01*
X132600000Y-94290000D01*
X132600000Y-93740000D01*
X132580297Y-93740000D01*
X132521964Y-93751603D01*
X132510678Y-93756278D01*
X132509296Y-93752942D01*
X132462676Y-93767534D01*
X132436288Y-93765171D01*
X132421133Y-93762156D01*
X132407777Y-93759500D01*
X132407776Y-93759500D01*
X132072224Y-93759500D01*
X132072223Y-93759501D01*
X132019189Y-93770049D01*
X131970810Y-93770048D01*
X131917781Y-93759500D01*
X131674500Y-93759500D01*
X131665814Y-93756949D01*
X131656853Y-93758238D01*
X131632812Y-93747259D01*
X131607461Y-93739815D01*
X131601533Y-93732974D01*
X131593297Y-93729213D01*
X131579007Y-93706978D01*
X131561706Y-93687011D01*
X131559418Y-93676496D01*
X131555523Y-93670435D01*
X131550500Y-93635500D01*
X131550500Y-93576544D01*
X131570185Y-93509505D01*
X131586819Y-93488863D01*
X131968863Y-93106819D01*
X132030186Y-93073334D01*
X132056544Y-93070500D01*
X133326142Y-93070500D01*
X133326144Y-93070500D01*
X133415288Y-93046614D01*
X133495212Y-93000470D01*
X134239953Y-92255729D01*
X134286098Y-92175804D01*
X134286098Y-92175803D01*
X134290162Y-92168765D01*
X134293034Y-92170423D01*
X134327138Y-92128048D01*
X134386347Y-92106399D01*
X134394183Y-92105665D01*
X134394185Y-92105664D01*
X134394187Y-92105664D01*
X134440778Y-92089360D01*
X134522366Y-92060812D01*
X134631634Y-91980169D01*
X134712277Y-91870901D01*
X134734703Y-91806809D01*
X134757130Y-91742720D01*
X134757130Y-91742718D01*
X134759984Y-91712288D01*
X134759984Y-90703749D01*
X134757130Y-90673319D01*
X134757130Y-90673317D01*
X134712277Y-90545138D01*
X134712276Y-90545136D01*
X134689880Y-90514790D01*
X134631634Y-90435869D01*
X134522366Y-90355226D01*
X134522364Y-90355225D01*
X134394184Y-90310372D01*
X134363754Y-90307519D01*
X134363750Y-90307519D01*
X134244500Y-90307519D01*
X134177461Y-90287834D01*
X134131706Y-90235030D01*
X134120500Y-90183519D01*
X134120500Y-90030945D01*
X134120500Y-90030943D01*
X134079577Y-89878216D01*
X134046511Y-89820943D01*
X134000524Y-89741290D01*
X134000518Y-89741282D01*
X133888717Y-89629481D01*
X133888709Y-89629475D01*
X133751790Y-89550426D01*
X133751786Y-89550424D01*
X133751784Y-89550423D01*
X133599057Y-89509500D01*
X133440943Y-89509500D01*
X133288216Y-89550423D01*
X133288209Y-89550426D01*
X133151290Y-89629475D01*
X133151282Y-89629481D01*
X133039481Y-89741282D01*
X133039475Y-89741290D01*
X132960426Y-89878209D01*
X132960423Y-89878216D01*
X132919500Y-90030943D01*
X132919500Y-90189057D01*
X132956177Y-90325935D01*
X132960423Y-90341783D01*
X132960426Y-90341790D01*
X133039475Y-90478709D01*
X133039481Y-90478717D01*
X133126863Y-90566099D01*
X133160348Y-90627422D01*
X133160343Y-90665600D01*
X133162542Y-90665807D01*
X133158984Y-90703749D01*
X133158984Y-91712288D01*
X133161837Y-91742718D01*
X133161837Y-91742720D01*
X133201312Y-91855529D01*
X133206691Y-91870901D01*
X133287334Y-91980169D01*
X133307654Y-91995166D01*
X133349904Y-92050811D01*
X133355363Y-92120467D01*
X133322296Y-92182017D01*
X133321776Y-92182540D01*
X133171135Y-92333182D01*
X133109814Y-92366666D01*
X133083456Y-92369500D01*
X131813856Y-92369500D01*
X131739214Y-92389500D01*
X131739213Y-92389499D01*
X131724714Y-92393385D01*
X131724709Y-92393387D01*
X131644791Y-92439527D01*
X131644786Y-92439531D01*
X131111137Y-92973181D01*
X131049814Y-93006666D01*
X131023456Y-93009500D01*
X129443856Y-93009500D01*
X129354712Y-93033386D01*
X129354711Y-93033386D01*
X129354709Y-93033387D01*
X129354706Y-93033388D01*
X129274794Y-93079526D01*
X129274785Y-93079533D01*
X129262181Y-93092138D01*
X129242744Y-93102750D01*
X129226011Y-93117251D01*
X129212679Y-93119167D01*
X129200858Y-93125623D01*
X129178771Y-93124043D01*
X129156853Y-93127195D01*
X129144601Y-93121599D01*
X129131166Y-93120639D01*
X129113439Y-93107368D01*
X129093297Y-93098170D01*
X129086014Y-93086838D01*
X129075233Y-93078767D01*
X129067495Y-93058021D01*
X129055523Y-93039392D01*
X129052371Y-93017473D01*
X129050816Y-93013303D01*
X129050500Y-93004457D01*
X129050500Y-92865833D01*
X129070185Y-92798794D01*
X129086819Y-92778152D01*
X129240460Y-92624511D01*
X129269620Y-92574004D01*
X129272219Y-92569503D01*
X129272220Y-92569501D01*
X129280020Y-92555991D01*
X129293551Y-92505495D01*
X129300500Y-92479562D01*
X129300500Y-92290321D01*
X129320185Y-92223282D01*
X129372095Y-92177939D01*
X129380404Y-92174065D01*
X129464065Y-92090404D01*
X129514068Y-91983173D01*
X129520500Y-91934316D01*
X129520500Y-91585684D01*
X129514068Y-91536827D01*
X129464065Y-91429596D01*
X129380404Y-91345935D01*
X129372733Y-91338264D01*
X129375447Y-91335549D01*
X129344376Y-91296655D01*
X129337203Y-91227154D01*
X129368743Y-91164808D01*
X129372594Y-91161473D01*
X129372441Y-91161320D01*
X129463648Y-91070112D01*
X129513577Y-90963040D01*
X129519998Y-90914265D01*
X129520000Y-90914248D01*
X129520000Y-90890000D01*
X129124000Y-90890000D01*
X129115314Y-90887449D01*
X129106353Y-90888738D01*
X129082312Y-90877759D01*
X129056961Y-90870315D01*
X129051033Y-90863474D01*
X129042797Y-90859713D01*
X129028507Y-90837478D01*
X129011206Y-90817511D01*
X129008918Y-90806996D01*
X129005023Y-90800935D01*
X129000000Y-90766000D01*
X129000000Y-90740000D01*
X128974000Y-90740000D01*
X128906961Y-90720315D01*
X128861206Y-90667511D01*
X128850000Y-90616000D01*
X128850000Y-90590000D01*
X129150000Y-90590000D01*
X129519999Y-90590000D01*
X129519999Y-90565743D01*
X129513577Y-90516961D01*
X129513575Y-90516954D01*
X129463648Y-90409887D01*
X129380112Y-90326351D01*
X129273039Y-90276422D01*
X129273040Y-90276422D01*
X129224265Y-90270001D01*
X129224248Y-90270000D01*
X129150000Y-90270000D01*
X129150000Y-90590000D01*
X128850000Y-90590000D01*
X128850000Y-90270000D01*
X128849999Y-90269999D01*
X128775744Y-90270000D01*
X128726961Y-90276422D01*
X128726954Y-90276424D01*
X128619887Y-90326351D01*
X128536351Y-90409887D01*
X128487658Y-90514310D01*
X128441485Y-90566749D01*
X128374292Y-90585901D01*
X128307411Y-90565685D01*
X128262894Y-90514310D01*
X128262283Y-90513000D01*
X128214065Y-90409596D01*
X128145115Y-90340646D01*
X128111630Y-90279323D01*
X128116614Y-90209631D01*
X128125409Y-90190965D01*
X128143451Y-90159715D01*
X128159577Y-90131784D01*
X128200500Y-89979057D01*
X128200500Y-89820943D01*
X128159577Y-89668216D01*
X128126195Y-89610397D01*
X128109723Y-89542498D01*
X128132576Y-89476471D01*
X128187497Y-89433280D01*
X128242881Y-89425274D01*
X128242901Y-89424865D01*
X128245026Y-89424964D01*
X128245182Y-89424942D01*
X128245799Y-89424999D01*
X128399999Y-89424999D01*
X128700000Y-89424999D01*
X128854196Y-89424999D01*
X128884606Y-89422148D01*
X129012645Y-89377346D01*
X129121792Y-89296792D01*
X129202346Y-89187645D01*
X129247149Y-89059604D01*
X129247149Y-89059600D01*
X129250000Y-89029206D01*
X129250000Y-88650000D01*
X128700000Y-88650000D01*
X128700000Y-89424999D01*
X128399999Y-89424999D01*
X128400000Y-89424998D01*
X128400000Y-88650000D01*
X127850001Y-88650000D01*
X127850001Y-89029196D01*
X127852851Y-89059606D01*
X127885969Y-89154252D01*
X127889530Y-89224031D01*
X127854801Y-89284658D01*
X127792807Y-89316885D01*
X127736835Y-89314981D01*
X127679058Y-89299500D01*
X127679057Y-89299500D01*
X127520943Y-89299500D01*
X127520941Y-89299500D01*
X127456592Y-89316742D01*
X127386742Y-89315079D01*
X127328880Y-89275915D01*
X127301377Y-89211687D01*
X127300500Y-89196967D01*
X127300500Y-88768414D01*
X127320185Y-88701375D01*
X127370040Y-88657013D01*
X127406483Y-88639198D01*
X127489198Y-88556483D01*
X127540573Y-88451393D01*
X127550500Y-88383260D01*
X127550500Y-88016740D01*
X127540573Y-87948607D01*
X127489198Y-87843517D01*
X127489196Y-87843515D01*
X127489196Y-87843514D01*
X127406485Y-87760803D01*
X127301391Y-87709426D01*
X127233261Y-87699500D01*
X127233260Y-87699500D01*
X126975833Y-87699500D01*
X126908794Y-87679815D01*
X126888152Y-87663181D01*
X126566819Y-87341848D01*
X126533334Y-87280525D01*
X126530500Y-87254167D01*
X126530500Y-86906728D01*
X126550185Y-86839689D01*
X126602989Y-86793934D01*
X126672147Y-86783990D01*
X126691113Y-86788256D01*
X126698598Y-86790568D01*
X126698607Y-86790573D01*
X126721675Y-86793934D01*
X126766739Y-86800500D01*
X126766740Y-86800500D01*
X126953456Y-86800500D01*
X127020495Y-86820185D01*
X127041137Y-86836819D01*
X127874095Y-87669777D01*
X127907580Y-87731100D01*
X127902596Y-87800792D01*
X127898518Y-87809882D01*
X127852850Y-87940395D01*
X127852850Y-87940399D01*
X127850000Y-87970793D01*
X127850000Y-88350000D01*
X129249999Y-88350000D01*
X129249999Y-88095043D01*
X129269684Y-88028004D01*
X129322488Y-87982249D01*
X129391646Y-87972305D01*
X129455202Y-88001330D01*
X129461680Y-88007362D01*
X129713181Y-88258863D01*
X129746666Y-88320186D01*
X129749500Y-88346544D01*
X129749500Y-89029269D01*
X129752353Y-89059699D01*
X129752353Y-89059701D01*
X129780874Y-89141206D01*
X129797207Y-89187882D01*
X129827651Y-89229133D01*
X129877851Y-89297151D01*
X129949133Y-89349759D01*
X129991384Y-89405406D01*
X129999500Y-89449529D01*
X129999500Y-90369309D01*
X130004137Y-90386613D01*
X130030201Y-90483887D01*
X130089511Y-90586614D01*
X130089513Y-90586616D01*
X131071403Y-91568507D01*
X131071405Y-91568509D01*
X131096983Y-91583276D01*
X131145199Y-91633843D01*
X131158984Y-91690664D01*
X131158984Y-91712288D01*
X131161837Y-91742718D01*
X131161837Y-91742720D01*
X131201312Y-91855529D01*
X131206691Y-91870901D01*
X131287334Y-91980169D01*
X131396602Y-92060812D01*
X131431348Y-92072970D01*
X131524783Y-92105665D01*
X131555214Y-92108519D01*
X131555218Y-92108519D01*
X132363754Y-92108519D01*
X132394183Y-92105665D01*
X132394185Y-92105665D01*
X132458274Y-92083238D01*
X132522366Y-92060812D01*
X132631634Y-91980169D01*
X132712277Y-91870901D01*
X132734703Y-91806809D01*
X132757130Y-91742720D01*
X132757130Y-91742718D01*
X132759984Y-91712288D01*
X132759984Y-90703749D01*
X132757130Y-90673319D01*
X132757130Y-90673317D01*
X132712277Y-90545138D01*
X132712276Y-90545136D01*
X132689880Y-90514790D01*
X132631634Y-90435869D01*
X132522366Y-90355226D01*
X132522364Y-90355225D01*
X132394184Y-90310372D01*
X132363754Y-90307519D01*
X132363750Y-90307519D01*
X131555218Y-90307519D01*
X131555214Y-90307519D01*
X131524784Y-90310372D01*
X131524782Y-90310372D01*
X131396603Y-90355225D01*
X131396598Y-90355228D01*
X131330406Y-90404079D01*
X131264777Y-90428049D01*
X131196607Y-90412733D01*
X131169093Y-90391989D01*
X130936819Y-90159715D01*
X130903334Y-90098392D01*
X130900500Y-90072034D01*
X130900500Y-89449529D01*
X130909454Y-89419032D01*
X130916789Y-89388093D01*
X130919403Y-89385152D01*
X130920185Y-89382490D01*
X130938460Y-89360236D01*
X130944314Y-89354595D01*
X131022150Y-89297150D01*
X131067002Y-89236376D01*
X131074520Y-89229133D01*
X131096600Y-89217603D01*
X131116436Y-89202542D01*
X131127032Y-89201711D01*
X131136454Y-89196792D01*
X131161259Y-89199029D01*
X131186092Y-89197083D01*
X131195455Y-89202113D01*
X131206041Y-89203068D01*
X131225698Y-89218360D01*
X131247642Y-89230149D01*
X131255896Y-89241853D01*
X131261189Y-89245970D01*
X131263568Y-89252729D01*
X131272942Y-89266020D01*
X131297193Y-89318025D01*
X131381975Y-89402807D01*
X131490646Y-89453481D01*
X131490645Y-89453481D01*
X131540149Y-89459998D01*
X131540167Y-89460000D01*
X131600000Y-89460000D01*
X131900000Y-89460000D01*
X131959833Y-89460000D01*
X131959850Y-89459998D01*
X132009354Y-89453481D01*
X132118024Y-89402807D01*
X132202807Y-89318024D01*
X132253481Y-89209354D01*
X132259998Y-89159850D01*
X132260000Y-89159833D01*
X132260000Y-89130000D01*
X131900000Y-89130000D01*
X131900000Y-89460000D01*
X131600000Y-89460000D01*
X131600000Y-89104000D01*
X131602550Y-89095314D01*
X131601262Y-89086353D01*
X131612240Y-89062312D01*
X131619685Y-89036961D01*
X131626525Y-89031033D01*
X131630287Y-89022797D01*
X131652521Y-89008507D01*
X131672489Y-88991206D01*
X131683003Y-88988918D01*
X131689065Y-88985023D01*
X131724000Y-88980000D01*
X131750000Y-88980000D01*
X131750000Y-88954000D01*
X131769685Y-88886961D01*
X131822489Y-88841206D01*
X131874000Y-88830000D01*
X132260000Y-88830000D01*
X132260000Y-88800166D01*
X132259998Y-88800149D01*
X132253481Y-88750645D01*
X132202807Y-88641975D01*
X132148867Y-88588035D01*
X132144528Y-88580089D01*
X132137281Y-88574664D01*
X132128046Y-88549904D01*
X132115382Y-88526712D01*
X132116027Y-88517682D01*
X132112864Y-88509200D01*
X132118480Y-88483379D01*
X132120366Y-88457020D01*
X132126184Y-88447966D01*
X132127716Y-88440927D01*
X132148867Y-88412673D01*
X132154721Y-88406819D01*
X132216044Y-88373334D01*
X132242402Y-88370500D01*
X132473456Y-88370500D01*
X132540495Y-88390185D01*
X132561137Y-88406819D01*
X132824788Y-88670470D01*
X132904712Y-88716614D01*
X132904713Y-88716614D01*
X132904714Y-88716615D01*
X132993850Y-88740498D01*
X132993856Y-88740499D01*
X133086144Y-88740499D01*
X133094205Y-88739438D01*
X133094318Y-88740300D01*
X133111797Y-88738000D01*
X133375500Y-88738000D01*
X133442539Y-88757685D01*
X133488294Y-88810489D01*
X133499500Y-88862000D01*
X133499500Y-88933260D01*
X133509426Y-89001391D01*
X133560803Y-89106485D01*
X133643514Y-89189196D01*
X133643515Y-89189196D01*
X133643517Y-89189198D01*
X133748607Y-89240573D01*
X133782673Y-89245536D01*
X133816739Y-89250500D01*
X133816740Y-89250500D01*
X134183261Y-89250500D01*
X134214351Y-89245970D01*
X134251393Y-89240573D01*
X134356483Y-89189198D01*
X134439198Y-89106483D01*
X134490573Y-89001393D01*
X134500500Y-88933260D01*
X134500500Y-87841740D01*
X134490573Y-87773607D01*
X134439198Y-87668517D01*
X134439196Y-87668515D01*
X134439196Y-87668514D01*
X134356485Y-87585803D01*
X134251391Y-87534426D01*
X134183261Y-87524500D01*
X134183260Y-87524500D01*
X133816740Y-87524500D01*
X133816739Y-87524500D01*
X133748608Y-87534426D01*
X133643514Y-87585803D01*
X133560803Y-87668514D01*
X133509426Y-87773608D01*
X133499500Y-87841739D01*
X133499500Y-87913000D01*
X133496949Y-87921685D01*
X133498238Y-87930647D01*
X133487259Y-87954687D01*
X133479815Y-87980039D01*
X133472974Y-87985966D01*
X133469213Y-87994203D01*
X133446978Y-88008492D01*
X133427011Y-88025794D01*
X133416496Y-88028081D01*
X133410435Y-88031977D01*
X133375500Y-88037000D01*
X133234044Y-88037000D01*
X133167005Y-88017315D01*
X133146363Y-88000681D01*
X132885213Y-87739531D01*
X132885208Y-87739527D01*
X132805290Y-87693387D01*
X132805289Y-87693386D01*
X132805288Y-87693386D01*
X132716144Y-87669500D01*
X132716143Y-87669500D01*
X132242402Y-87669500D01*
X132175363Y-87649815D01*
X132154721Y-87633181D01*
X132118316Y-87596776D01*
X132080118Y-87578964D01*
X132009487Y-87546028D01*
X132009485Y-87546027D01*
X132009486Y-87546027D01*
X131959901Y-87539500D01*
X131540105Y-87539500D01*
X131524386Y-87541569D01*
X131490513Y-87546028D01*
X131490511Y-87546029D01*
X131490509Y-87546029D01*
X131381683Y-87596776D01*
X131345279Y-87633181D01*
X131318351Y-87647884D01*
X131292533Y-87664477D01*
X131286332Y-87665368D01*
X131283956Y-87666666D01*
X131257598Y-87669500D01*
X131017765Y-87669500D01*
X130950726Y-87649815D01*
X130944131Y-87645270D01*
X130912882Y-87622207D01*
X130912880Y-87622206D01*
X130784700Y-87577353D01*
X130754270Y-87574500D01*
X130754266Y-87574500D01*
X130145734Y-87574500D01*
X130145730Y-87574500D01*
X130115305Y-87577353D01*
X130107930Y-87578964D01*
X130107328Y-87576211D01*
X130050696Y-87579094D01*
X129991858Y-87546176D01*
X129589213Y-87143531D01*
X129589208Y-87143527D01*
X129509290Y-87097387D01*
X129509289Y-87097386D01*
X129509288Y-87097386D01*
X129420144Y-87073500D01*
X129420143Y-87073500D01*
X129329570Y-87073500D01*
X129262531Y-87053815D01*
X129216776Y-87001011D01*
X129206832Y-86931853D01*
X129212528Y-86908545D01*
X129247149Y-86809601D01*
X129247149Y-86809600D01*
X129250000Y-86779206D01*
X129250000Y-86400000D01*
X127850002Y-86400000D01*
X127831268Y-86418732D01*
X127830305Y-86422012D01*
X127813573Y-86436505D01*
X127800310Y-86454223D01*
X127787683Y-86458932D01*
X127777494Y-86467759D01*
X127755582Y-86470905D01*
X127734846Y-86478640D01*
X127721675Y-86475774D01*
X127708334Y-86477691D01*
X127688201Y-86468492D01*
X127666573Y-86463788D01*
X127648829Y-86450505D01*
X127644782Y-86448656D01*
X127638319Y-86442637D01*
X127586819Y-86391137D01*
X127553334Y-86329814D01*
X127550500Y-86303456D01*
X127550500Y-86116739D01*
X127540573Y-86048608D01*
X127540573Y-86048607D01*
X127489198Y-85943517D01*
X127489196Y-85943515D01*
X127489196Y-85943514D01*
X127406485Y-85860803D01*
X127342042Y-85829299D01*
X127301391Y-85809426D01*
X127233261Y-85799500D01*
X127233260Y-85799500D01*
X126766740Y-85799500D01*
X126766739Y-85799500D01*
X126698611Y-85809426D01*
X126698608Y-85809426D01*
X126698607Y-85809427D01*
X126698605Y-85809427D01*
X126691106Y-85811745D01*
X126621243Y-85812728D01*
X126561939Y-85775785D01*
X126535884Y-85720793D01*
X127850000Y-85720793D01*
X127850000Y-86100000D01*
X128400000Y-86100000D01*
X128400000Y-85325000D01*
X128245804Y-85325000D01*
X128215393Y-85327851D01*
X128087354Y-85372653D01*
X127978207Y-85453207D01*
X127897653Y-85562354D01*
X127852850Y-85690395D01*
X127852850Y-85690399D01*
X127850000Y-85720793D01*
X126535884Y-85720793D01*
X126532023Y-85712644D01*
X126530500Y-85693271D01*
X126530500Y-85195833D01*
X126550185Y-85128794D01*
X126566819Y-85108152D01*
X127496990Y-84177981D01*
X128440460Y-83234511D01*
X128480022Y-83165988D01*
X128483927Y-83151412D01*
X128520289Y-83091751D01*
X128541693Y-83076120D01*
X128568716Y-83060520D01*
X128680520Y-82948716D01*
X128759577Y-82811784D01*
X128800500Y-82659057D01*
X128800500Y-82500943D01*
X128759577Y-82348216D01*
X128749609Y-82330951D01*
X128680524Y-82211290D01*
X128680518Y-82211282D01*
X128568717Y-82099481D01*
X128568709Y-82099475D01*
X128431790Y-82020426D01*
X128431786Y-82020424D01*
X128431784Y-82020423D01*
X128279057Y-81979500D01*
X128224500Y-81979500D01*
X128157461Y-81959815D01*
X128111706Y-81907011D01*
X128100500Y-81855500D01*
X128100500Y-81779556D01*
X128100500Y-81779554D01*
X128059577Y-81626827D01*
X128059573Y-81626820D01*
X127980524Y-81489901D01*
X127980518Y-81489893D01*
X127868717Y-81378092D01*
X127868709Y-81378086D01*
X127731790Y-81299037D01*
X127731786Y-81299035D01*
X127731784Y-81299034D01*
X127579057Y-81258111D01*
X127579055Y-81258111D01*
X127579051Y-81258110D01*
X127573183Y-81257337D01*
X127509288Y-81229067D01*
X127470821Y-81170740D01*
X127469994Y-81100875D01*
X127507070Y-81041654D01*
X127570277Y-81011879D01*
X127573194Y-81011459D01*
X127580473Y-81010500D01*
X127580486Y-81010500D01*
X127656913Y-80990021D01*
X127725435Y-80950460D01*
X127781384Y-80894511D01*
X128990460Y-79685435D01*
X129006232Y-79658116D01*
X129056799Y-79609901D01*
X129125406Y-79596678D01*
X129137810Y-79598500D01*
X129143179Y-79599567D01*
X129147867Y-79600500D01*
X129352132Y-79600499D01*
X129432495Y-79584515D01*
X129432498Y-79584512D01*
X129443778Y-79579841D01*
X129444376Y-79581286D01*
X129497782Y-79564563D01*
X129555943Y-79580516D01*
X129556223Y-79579842D01*
X129561590Y-79582065D01*
X129565162Y-79583045D01*
X129567351Y-79584451D01*
X129567506Y-79584516D01*
X129614621Y-79593887D01*
X129647867Y-79600500D01*
X129852132Y-79600499D01*
X129932495Y-79584515D01*
X129932498Y-79584512D01*
X129943778Y-79579841D01*
X129944376Y-79581286D01*
X129997782Y-79564563D01*
X130055943Y-79580516D01*
X130056223Y-79579842D01*
X130061590Y-79582065D01*
X130065162Y-79583045D01*
X130067351Y-79584451D01*
X130067506Y-79584516D01*
X130114621Y-79593887D01*
X130147867Y-79600500D01*
X130352132Y-79600499D01*
X130432495Y-79584515D01*
X130432498Y-79584512D01*
X130443778Y-79579841D01*
X130444376Y-79581286D01*
X130497782Y-79564563D01*
X130555943Y-79580516D01*
X130556223Y-79579842D01*
X130561590Y-79582065D01*
X130565162Y-79583045D01*
X130567351Y-79584451D01*
X130567506Y-79584516D01*
X130614621Y-79593887D01*
X130647867Y-79600500D01*
X130852132Y-79600499D01*
X130932495Y-79584515D01*
X130932498Y-79584512D01*
X130943778Y-79579841D01*
X130944376Y-79581286D01*
X130997782Y-79564563D01*
X131055943Y-79580516D01*
X131056223Y-79579842D01*
X131061590Y-79582065D01*
X131065162Y-79583045D01*
X131067351Y-79584451D01*
X131067506Y-79584516D01*
X131114621Y-79593887D01*
X131147867Y-79600500D01*
X131352132Y-79600499D01*
X131432495Y-79584515D01*
X131432498Y-79584512D01*
X131443778Y-79579841D01*
X131444376Y-79581286D01*
X131497782Y-79564563D01*
X131555943Y-79580516D01*
X131556223Y-79579842D01*
X131561590Y-79582065D01*
X131565162Y-79583045D01*
X131567351Y-79584451D01*
X131567506Y-79584516D01*
X131614621Y-79593887D01*
X131647867Y-79600500D01*
X131852132Y-79600499D01*
X131932495Y-79584515D01*
X131932498Y-79584512D01*
X131943779Y-79579841D01*
X131944319Y-79581146D01*
X131998223Y-79564262D01*
X132056101Y-79580133D01*
X132056417Y-79579371D01*
X132062484Y-79581884D01*
X132065605Y-79582740D01*
X132067519Y-79583969D01*
X132067699Y-79584044D01*
X132100000Y-79590468D01*
X132100000Y-79363300D01*
X132101490Y-79358226D01*
X132100500Y-79358226D01*
X132100500Y-79010499D01*
X132100499Y-77972868D01*
X132100499Y-77972867D01*
X132100499Y-77966777D01*
X132101103Y-77966777D01*
X132100000Y-77961710D01*
X132100000Y-77734530D01*
X132099999Y-77734529D01*
X132067704Y-77740953D01*
X132056420Y-77745628D01*
X132055788Y-77744103D01*
X132002657Y-77760737D01*
X131943991Y-77744640D01*
X131943777Y-77745158D01*
X131939657Y-77743451D01*
X131935278Y-77742250D01*
X131932597Y-77740527D01*
X131932493Y-77740483D01*
X131852135Y-77724500D01*
X131647870Y-77724500D01*
X131590844Y-77735843D01*
X131567505Y-77740485D01*
X131567504Y-77740485D01*
X131567501Y-77740486D01*
X131556220Y-77745159D01*
X131555621Y-77743714D01*
X131502204Y-77760436D01*
X131444061Y-77744481D01*
X131443781Y-77745159D01*
X131438383Y-77742923D01*
X131434825Y-77741947D01*
X131432648Y-77740547D01*
X131432494Y-77740484D01*
X131352135Y-77724500D01*
X131147869Y-77724500D01*
X131096455Y-77734727D01*
X131088548Y-77734019D01*
X131081112Y-77736793D01*
X131054248Y-77730949D01*
X131026864Y-77728498D01*
X131018856Y-77723249D01*
X131012839Y-77721941D01*
X130984585Y-77700790D01*
X130842064Y-77558269D01*
X130808579Y-77496946D01*
X130813563Y-77427254D01*
X130842064Y-77382907D01*
X131388152Y-76836819D01*
X131449475Y-76803334D01*
X131475833Y-76800500D01*
X131815531Y-76800500D01*
X131882570Y-76820185D01*
X131903212Y-76836819D01*
X132605542Y-77539149D01*
X132618292Y-77562499D01*
X132634175Y-77583852D01*
X132634780Y-77592694D01*
X132639027Y-77600472D01*
X132637129Y-77627011D01*
X132638946Y-77653558D01*
X132634675Y-77661322D01*
X132634043Y-77670164D01*
X132618096Y-77691464D01*
X132605274Y-77714779D01*
X132596039Y-77720929D01*
X132592171Y-77726097D01*
X132576955Y-77735843D01*
X132568905Y-77740206D01*
X132567505Y-77740485D01*
X132563693Y-77743031D01*
X132558644Y-77745769D01*
X132529855Y-77751939D01*
X132501755Y-77760736D01*
X132496079Y-77759178D01*
X132490326Y-77760412D01*
X132462772Y-77750039D01*
X132443899Y-77744860D01*
X132443582Y-77745628D01*
X132437468Y-77743095D01*
X132434376Y-77742247D01*
X132432484Y-77741030D01*
X132432298Y-77740953D01*
X132400000Y-77734529D01*
X132400000Y-77961699D01*
X132399500Y-77971877D01*
X132399500Y-77972866D01*
X132399500Y-77972867D01*
X132399500Y-78655640D01*
X132399501Y-78662500D01*
X132399501Y-79353142D01*
X132400000Y-79363289D01*
X132400000Y-79590468D01*
X132404165Y-79593887D01*
X132443499Y-79651633D01*
X132449500Y-79689740D01*
X132449500Y-79789562D01*
X132457140Y-79818075D01*
X132455477Y-79887925D01*
X132425048Y-79937847D01*
X132389514Y-79973382D01*
X132389509Y-79973389D01*
X132330201Y-80076112D01*
X132330200Y-80076117D01*
X132299500Y-80190691D01*
X132299500Y-82762034D01*
X132279815Y-82829073D01*
X132263181Y-82849715D01*
X130499716Y-84613181D01*
X130472788Y-84627884D01*
X130446970Y-84644477D01*
X130440769Y-84645368D01*
X130438393Y-84646666D01*
X130412035Y-84649500D01*
X130341496Y-84649500D01*
X130274457Y-84629815D01*
X130234108Y-84587499D01*
X130230520Y-84581284D01*
X130118717Y-84469481D01*
X130118709Y-84469475D01*
X129981790Y-84390426D01*
X129981786Y-84390424D01*
X129981784Y-84390423D01*
X129829057Y-84349500D01*
X129670943Y-84349500D01*
X129518216Y-84390423D01*
X129518209Y-84390426D01*
X129381290Y-84469475D01*
X129381282Y-84469481D01*
X129269481Y-84581282D01*
X129269475Y-84581290D01*
X129190426Y-84718209D01*
X129190423Y-84718216D01*
X129149500Y-84870943D01*
X129149500Y-85029057D01*
X129176225Y-85128794D01*
X129190423Y-85181783D01*
X129190426Y-85181790D01*
X129217289Y-85228319D01*
X129233762Y-85296219D01*
X129210909Y-85362246D01*
X129155988Y-85405436D01*
X129086434Y-85412077D01*
X129036269Y-85390088D01*
X129012648Y-85372655D01*
X129012645Y-85372653D01*
X128884602Y-85327850D01*
X128854207Y-85325000D01*
X128700000Y-85325000D01*
X128700000Y-86100000D01*
X129249999Y-86100000D01*
X129249999Y-85720803D01*
X129247148Y-85690393D01*
X129209610Y-85583115D01*
X129206049Y-85513336D01*
X129240778Y-85452709D01*
X129302771Y-85420482D01*
X129372347Y-85426887D01*
X129388653Y-85434774D01*
X129518216Y-85509577D01*
X129662400Y-85548210D01*
X129722058Y-85584574D01*
X129752587Y-85647420D01*
X129751738Y-85682664D01*
X129753058Y-85682788D01*
X129749500Y-85720730D01*
X129749500Y-86779269D01*
X129752353Y-86809699D01*
X129752353Y-86809701D01*
X129795097Y-86931853D01*
X129797207Y-86937882D01*
X129877850Y-87047150D01*
X129987118Y-87127793D01*
X130029845Y-87142744D01*
X130115299Y-87172646D01*
X130145730Y-87175500D01*
X130145734Y-87175500D01*
X130754270Y-87175500D01*
X130784699Y-87172646D01*
X130784701Y-87172646D01*
X130867905Y-87143531D01*
X130912882Y-87127793D01*
X131022150Y-87047150D01*
X131060791Y-86994791D01*
X131116436Y-86952542D01*
X131186092Y-86947083D01*
X131247642Y-86980149D01*
X131272942Y-87016020D01*
X131297193Y-87068025D01*
X131381975Y-87152807D01*
X131490646Y-87203481D01*
X131490645Y-87203481D01*
X131540149Y-87209998D01*
X131540167Y-87210000D01*
X131600000Y-87210000D01*
X131900000Y-87210000D01*
X131959833Y-87210000D01*
X131959850Y-87209998D01*
X132009354Y-87203481D01*
X132118024Y-87152807D01*
X132202807Y-87068024D01*
X132253481Y-86959354D01*
X132259998Y-86909850D01*
X132260000Y-86909833D01*
X132260000Y-86880000D01*
X131900000Y-86880000D01*
X131900000Y-87210000D01*
X131600000Y-87210000D01*
X131600000Y-86854000D01*
X131602550Y-86845314D01*
X131601262Y-86836353D01*
X131612240Y-86812312D01*
X131619685Y-86786961D01*
X131626525Y-86781033D01*
X131630287Y-86772797D01*
X131652521Y-86758507D01*
X131672489Y-86741206D01*
X131683003Y-86738918D01*
X131689065Y-86735023D01*
X131724000Y-86730000D01*
X131750000Y-86730000D01*
X131750000Y-86704000D01*
X131769685Y-86636961D01*
X131822489Y-86591206D01*
X131874000Y-86580000D01*
X132260000Y-86580000D01*
X132260000Y-86550166D01*
X132259998Y-86550149D01*
X132253481Y-86500645D01*
X132202807Y-86391975D01*
X132148867Y-86338035D01*
X132115382Y-86276712D01*
X132120366Y-86207020D01*
X132148867Y-86162673D01*
X132203224Y-86108316D01*
X132253972Y-85999487D01*
X132260500Y-85949901D01*
X132260499Y-85806543D01*
X132269145Y-85777094D01*
X132275668Y-85747115D01*
X132279419Y-85742103D01*
X132280183Y-85739504D01*
X132296814Y-85718866D01*
X132337820Y-85677861D01*
X132399143Y-85644376D01*
X132468835Y-85649362D01*
X132524768Y-85691234D01*
X132549184Y-85756698D01*
X132549500Y-85765543D01*
X132549500Y-86658260D01*
X132559426Y-86726391D01*
X132610803Y-86831485D01*
X132693514Y-86914196D01*
X132693515Y-86914196D01*
X132693517Y-86914198D01*
X132798607Y-86965573D01*
X132832673Y-86970536D01*
X132866739Y-86975500D01*
X132866740Y-86975500D01*
X133233261Y-86975500D01*
X133255971Y-86972191D01*
X133301393Y-86965573D01*
X133406483Y-86914198D01*
X133489198Y-86831483D01*
X133540573Y-86726393D01*
X133550500Y-86658260D01*
X133550500Y-86658217D01*
X134450001Y-86658217D01*
X134459912Y-86726249D01*
X134511215Y-86831191D01*
X134593811Y-86913787D01*
X134698747Y-86965086D01*
X134766786Y-86974999D01*
X134800000Y-86974998D01*
X134800000Y-86262500D01*
X134450001Y-86262500D01*
X134450001Y-86658217D01*
X133550500Y-86658217D01*
X133550500Y-85566780D01*
X134450000Y-85566780D01*
X134450000Y-85962500D01*
X134800000Y-85962500D01*
X134800000Y-85249999D01*
X134766787Y-85250000D01*
X134698751Y-85259912D01*
X134593808Y-85311215D01*
X134511212Y-85393811D01*
X134459912Y-85498748D01*
X134459911Y-85498751D01*
X134450000Y-85566780D01*
X133550500Y-85566780D01*
X133550500Y-85566740D01*
X133540573Y-85498607D01*
X133489198Y-85393517D01*
X133489196Y-85393515D01*
X133489196Y-85393514D01*
X133436819Y-85341137D01*
X133403334Y-85279814D01*
X133400735Y-85255647D01*
X133400500Y-85253863D01*
X133400500Y-85253856D01*
X133376614Y-85164712D01*
X133330470Y-85084788D01*
X132965212Y-84719530D01*
X132965211Y-84719529D01*
X132965208Y-84719527D01*
X132885290Y-84673387D01*
X132885289Y-84673386D01*
X132885288Y-84673386D01*
X132796144Y-84649500D01*
X132473856Y-84649500D01*
X132384711Y-84673386D01*
X132304787Y-84719531D01*
X132304784Y-84719533D01*
X131771135Y-85253181D01*
X131709812Y-85286666D01*
X131683455Y-85289500D01*
X131540105Y-85289500D01*
X131524386Y-85291569D01*
X131490513Y-85296028D01*
X131490511Y-85296029D01*
X131490506Y-85296030D01*
X131379417Y-85347832D01*
X131310340Y-85358324D01*
X131246556Y-85329804D01*
X131208317Y-85271327D01*
X131207763Y-85201460D01*
X131239330Y-85147771D01*
X133110490Y-83276614D01*
X133149750Y-83208612D01*
X133200316Y-83160398D01*
X133268923Y-83147174D01*
X133333788Y-83173142D01*
X133346187Y-83186541D01*
X133346812Y-83185917D01*
X133355446Y-83194551D01*
X133421769Y-83238867D01*
X133421770Y-83238868D01*
X133480247Y-83250499D01*
X133480250Y-83250500D01*
X133480252Y-83250500D01*
X135699750Y-83250500D01*
X135699751Y-83250499D01*
X135714568Y-83247552D01*
X135758229Y-83238868D01*
X135758229Y-83238867D01*
X135758231Y-83238867D01*
X135824552Y-83194552D01*
X135868867Y-83128231D01*
X135868867Y-83128229D01*
X135868868Y-83128229D01*
X135880499Y-83069752D01*
X135880500Y-83069750D01*
X135880500Y-81430249D01*
X135880499Y-81430247D01*
X135868868Y-81371770D01*
X135868867Y-81371768D01*
X135856588Y-81353392D01*
X135835709Y-81286715D01*
X135854193Y-81219334D01*
X135906171Y-81172644D01*
X135959689Y-81160500D01*
X136139308Y-81160500D01*
X136139309Y-81160500D01*
X136229673Y-81136286D01*
X136253887Y-81129799D01*
X136356614Y-81070489D01*
X136920285Y-80506819D01*
X136981608Y-80473334D01*
X137007966Y-80470500D01*
X137088995Y-80470500D01*
X137180041Y-80452389D01*
X137224328Y-80443580D01*
X137351811Y-80390775D01*
X137466542Y-80314114D01*
X137564114Y-80216542D01*
X137640775Y-80101811D01*
X137693580Y-79974328D01*
X137720500Y-79838993D01*
X137720500Y-79701007D01*
X137720500Y-79701004D01*
X137693581Y-79565677D01*
X137693580Y-79565676D01*
X137693580Y-79565672D01*
X137674662Y-79519999D01*
X137640778Y-79438195D01*
X137640771Y-79438182D01*
X137564114Y-79323458D01*
X137564111Y-79323454D01*
X137466545Y-79225888D01*
X137466541Y-79225885D01*
X137362168Y-79156145D01*
X137317363Y-79102533D01*
X137308656Y-79033208D01*
X137338810Y-78970180D01*
X137344746Y-78964015D01*
X137413333Y-78897520D01*
X137443446Y-78881676D01*
X137473288Y-78865382D01*
X137474282Y-78865453D01*
X137475167Y-78864988D01*
X137509059Y-78867940D01*
X137542980Y-78870366D01*
X137543931Y-78870977D01*
X137544773Y-78871051D01*
X137548357Y-78873822D01*
X137587327Y-78898867D01*
X137641684Y-78953224D01*
X137750513Y-79003972D01*
X137800099Y-79010500D01*
X138159900Y-79010499D01*
X138209487Y-79003972D01*
X138318316Y-78953224D01*
X138403224Y-78868316D01*
X138453972Y-78759487D01*
X138460500Y-78709901D01*
X138460499Y-78495834D01*
X138480183Y-78428795D01*
X138496818Y-78408152D01*
X138528970Y-78376000D01*
X138620460Y-78284511D01*
X138623630Y-78279021D01*
X138660021Y-78215989D01*
X138680500Y-78139562D01*
X138680500Y-77620244D01*
X138700185Y-77553205D01*
X138752989Y-77507450D01*
X138778047Y-77499098D01*
X138784692Y-77497646D01*
X138784699Y-77497646D01*
X138784705Y-77497643D01*
X138784709Y-77497643D01*
X138838067Y-77478971D01*
X138912882Y-77452793D01*
X139022150Y-77372150D01*
X139102793Y-77262882D01*
X139128456Y-77189540D01*
X139147646Y-77134701D01*
X139147646Y-77134699D01*
X139150500Y-77104269D01*
X139150500Y-76095730D01*
X139147646Y-76065300D01*
X139147646Y-76065298D01*
X139105333Y-75944378D01*
X139102793Y-75937118D01*
X139022150Y-75827850D01*
X138912882Y-75747207D01*
X138912880Y-75747206D01*
X138784700Y-75702353D01*
X138754270Y-75699500D01*
X138754266Y-75699500D01*
X138025833Y-75699500D01*
X137958794Y-75679815D01*
X137938152Y-75663181D01*
X137771505Y-75496534D01*
X137738020Y-75435211D01*
X137743004Y-75365519D01*
X137784876Y-75309586D01*
X137850340Y-75285169D01*
X137900140Y-75291811D01*
X137915397Y-75297149D01*
X137945792Y-75299999D01*
X138199999Y-75299999D01*
X138500000Y-75299999D01*
X138754196Y-75299999D01*
X138784606Y-75297148D01*
X138912645Y-75252346D01*
X139021792Y-75171792D01*
X139102346Y-75062645D01*
X139147149Y-74934604D01*
X139147149Y-74934600D01*
X139150000Y-74904206D01*
X139150000Y-74550000D01*
X138500000Y-74550000D01*
X138500000Y-75299999D01*
X138199999Y-75299999D01*
X138200000Y-75299998D01*
X138200000Y-74250000D01*
X138500000Y-74250000D01*
X139149999Y-74250000D01*
X139149999Y-73895803D01*
X139147148Y-73865393D01*
X139102346Y-73737354D01*
X139021792Y-73628207D01*
X138912645Y-73547653D01*
X138784602Y-73502850D01*
X138754207Y-73500000D01*
X138500000Y-73500000D01*
X138500000Y-74250000D01*
X138200000Y-74250000D01*
X138200000Y-73500000D01*
X137945804Y-73500000D01*
X137915393Y-73502851D01*
X137787354Y-73547653D01*
X137678207Y-73628207D01*
X137600080Y-73734066D01*
X137544432Y-73776317D01*
X137474776Y-73781775D01*
X137413227Y-73748707D01*
X137400540Y-73734065D01*
X137322151Y-73627851D01*
X137311761Y-73620183D01*
X137212882Y-73547207D01*
X137212880Y-73547206D01*
X137084700Y-73502353D01*
X137062921Y-73500311D01*
X137059983Y-73499140D01*
X137056853Y-73499591D01*
X137027740Y-73486296D01*
X136998013Y-73474453D01*
X136996174Y-73471879D01*
X136993297Y-73470566D01*
X136975996Y-73443645D01*
X136957388Y-73417607D01*
X136956719Y-73413649D01*
X136955523Y-73411788D01*
X136950500Y-73376853D01*
X136950500Y-73134499D01*
X136970185Y-73067460D01*
X137022989Y-73021705D01*
X137074500Y-73010499D01*
X137199895Y-73010499D01*
X137199900Y-73010499D01*
X137249487Y-73003972D01*
X137358316Y-72953224D01*
X137412673Y-72898867D01*
X137473996Y-72865382D01*
X137543688Y-72870366D01*
X137588035Y-72898867D01*
X137641975Y-72952807D01*
X137750646Y-73003481D01*
X137750645Y-73003481D01*
X137800149Y-73009998D01*
X137800167Y-73010000D01*
X137830000Y-73010000D01*
X138130000Y-73010000D01*
X138159833Y-73010000D01*
X138159850Y-73009998D01*
X138209354Y-73003481D01*
X138318024Y-72952807D01*
X138402807Y-72868024D01*
X138453481Y-72759354D01*
X138459998Y-72709850D01*
X138460000Y-72709833D01*
X138460000Y-72650000D01*
X138130000Y-72650000D01*
X138130000Y-73010000D01*
X137830000Y-73010000D01*
X137830000Y-72350000D01*
X138130000Y-72350000D01*
X138460000Y-72350000D01*
X138460000Y-72290166D01*
X138459998Y-72290149D01*
X138453481Y-72240645D01*
X138402807Y-72131975D01*
X138318024Y-72047192D01*
X138209353Y-71996518D01*
X138209354Y-71996518D01*
X138159850Y-71990001D01*
X138159833Y-71990000D01*
X138130000Y-71990000D01*
X138130000Y-72350000D01*
X137830000Y-72350000D01*
X137830000Y-71990000D01*
X137800167Y-71990000D01*
X137800149Y-71990001D01*
X137750645Y-71996518D01*
X137641975Y-72047192D01*
X137588035Y-72101133D01*
X137526712Y-72134618D01*
X137457020Y-72129634D01*
X137412673Y-72101133D01*
X137358316Y-72046776D01*
X137249487Y-71996028D01*
X137249485Y-71996027D01*
X137249486Y-71996027D01*
X137199902Y-71989500D01*
X136894832Y-71989500D01*
X136827793Y-71969815D01*
X136782038Y-71917011D01*
X136772094Y-71847853D01*
X136801119Y-71784297D01*
X136807137Y-71777833D01*
X137510460Y-71074511D01*
X137527793Y-71044489D01*
X137550021Y-71005989D01*
X137550021Y-71005985D01*
X137550684Y-71004839D01*
X137577715Y-70979067D01*
X137601249Y-70956627D01*
X137605657Y-70954463D01*
X137608316Y-70953224D01*
X137662674Y-70898865D01*
X137723995Y-70865382D01*
X137793687Y-70870366D01*
X137838035Y-70898867D01*
X137891975Y-70952807D01*
X138000646Y-71003481D01*
X138000645Y-71003481D01*
X138050149Y-71009998D01*
X138050167Y-71010000D01*
X138080000Y-71010000D01*
X138380000Y-71010000D01*
X138409833Y-71010000D01*
X138409850Y-71009998D01*
X138459354Y-71003481D01*
X138568024Y-70952807D01*
X138652807Y-70868024D01*
X138703481Y-70759354D01*
X138709998Y-70709850D01*
X138710000Y-70709833D01*
X138710000Y-70650000D01*
X138380000Y-70650000D01*
X138380000Y-71010000D01*
X138080000Y-71010000D01*
X138080000Y-70624000D01*
X138082550Y-70615314D01*
X138081262Y-70606353D01*
X138092240Y-70582312D01*
X138099685Y-70556961D01*
X138106525Y-70551033D01*
X138110287Y-70542797D01*
X138132521Y-70528507D01*
X138152489Y-70511206D01*
X138163003Y-70508918D01*
X138169065Y-70505023D01*
X138204000Y-70500000D01*
X138230000Y-70500000D01*
X138230000Y-70474000D01*
X138249685Y-70406961D01*
X138302489Y-70361206D01*
X138354000Y-70350000D01*
X138710000Y-70350000D01*
X138710000Y-70290166D01*
X138709998Y-70290149D01*
X138703481Y-70240645D01*
X138652807Y-70131975D01*
X138568024Y-70047192D01*
X138460356Y-69996985D01*
X138407917Y-69950812D01*
X138388765Y-69883619D01*
X138408981Y-69816737D01*
X138462147Y-69771403D01*
X138478066Y-69765556D01*
X138483166Y-69764068D01*
X138483173Y-69764068D01*
X138590404Y-69714065D01*
X138674065Y-69630404D01*
X138724068Y-69523173D01*
X138730500Y-69474316D01*
X138730500Y-69025684D01*
X138724068Y-68976827D01*
X138674065Y-68869596D01*
X138590404Y-68785935D01*
X138578101Y-68780198D01*
X138483171Y-68735931D01*
X138478058Y-68734441D01*
X138419206Y-68696781D01*
X138390058Y-68633282D01*
X138399866Y-68564104D01*
X138445518Y-68511211D01*
X138460356Y-68503014D01*
X138568024Y-68452807D01*
X138652807Y-68368024D01*
X138703481Y-68259354D01*
X138709998Y-68209850D01*
X138710000Y-68209833D01*
X138710000Y-68150000D01*
X138354000Y-68150000D01*
X138345314Y-68147449D01*
X138336353Y-68148738D01*
X138312312Y-68137759D01*
X138286961Y-68130315D01*
X138281033Y-68123474D01*
X138272797Y-68119713D01*
X138258507Y-68097478D01*
X138241206Y-68077511D01*
X138238918Y-68066996D01*
X138235023Y-68060935D01*
X138230000Y-68026000D01*
X138230000Y-68000000D01*
X138204000Y-68000000D01*
X138136961Y-67980315D01*
X138091206Y-67927511D01*
X138080000Y-67876000D01*
X138080000Y-67850000D01*
X138380000Y-67850000D01*
X138710000Y-67850000D01*
X138710000Y-67790166D01*
X138709998Y-67790149D01*
X138703481Y-67740645D01*
X138652807Y-67631975D01*
X138568024Y-67547192D01*
X138459353Y-67496518D01*
X138459354Y-67496518D01*
X138409850Y-67490001D01*
X138409833Y-67490000D01*
X138380000Y-67490000D01*
X138380000Y-67850000D01*
X138080000Y-67850000D01*
X138080000Y-67490000D01*
X138050167Y-67490000D01*
X138050149Y-67490001D01*
X138000645Y-67496518D01*
X137891975Y-67547192D01*
X137838035Y-67601133D01*
X137776712Y-67634618D01*
X137707020Y-67629634D01*
X137662673Y-67601133D01*
X137608316Y-67546776D01*
X137582818Y-67534886D01*
X137499487Y-67496028D01*
X137499485Y-67496027D01*
X137499486Y-67496027D01*
X137449902Y-67489500D01*
X137090105Y-67489500D01*
X137074386Y-67491569D01*
X137040513Y-67496028D01*
X137040511Y-67496029D01*
X137040509Y-67496029D01*
X136931683Y-67546776D01*
X136865279Y-67613181D01*
X136803956Y-67646666D01*
X136777598Y-67649500D01*
X136753856Y-67649500D01*
X136664712Y-67673386D01*
X136664709Y-67673387D01*
X136584791Y-67719527D01*
X136584786Y-67719531D01*
X135849531Y-68454786D01*
X135849527Y-68454791D01*
X135817365Y-68510499D01*
X135817365Y-68510500D01*
X135803386Y-68534710D01*
X135779500Y-68623856D01*
X135779500Y-69805432D01*
X135759815Y-69872471D01*
X135724392Y-69908533D01*
X135683461Y-69935883D01*
X135683454Y-69935888D01*
X135585888Y-70033454D01*
X135585885Y-70033458D01*
X135509228Y-70148182D01*
X135509221Y-70148195D01*
X135456421Y-70275667D01*
X135456418Y-70275677D01*
X135429500Y-70411004D01*
X135429500Y-70548997D01*
X135450835Y-70656256D01*
X135450127Y-70664161D01*
X135452902Y-70671600D01*
X135447058Y-70698465D01*
X135444608Y-70725848D01*
X135439359Y-70733856D01*
X135438051Y-70739873D01*
X135416900Y-70768128D01*
X135290489Y-70894540D01*
X135290488Y-70894540D01*
X135290487Y-70894541D01*
X135234541Y-70950487D01*
X135234535Y-70950495D01*
X135194982Y-71019004D01*
X135194979Y-71019009D01*
X135192535Y-71028132D01*
X135180108Y-71074511D01*
X135174500Y-71095439D01*
X135174500Y-71345200D01*
X135154815Y-71412239D01*
X135102011Y-71457994D01*
X135032853Y-71467938D01*
X134981610Y-71448302D01*
X134932497Y-71415486D01*
X134932490Y-71415483D01*
X134852137Y-71399500D01*
X134852133Y-71399500D01*
X134499098Y-71399500D01*
X134432059Y-71379815D01*
X134386304Y-71327011D01*
X134376360Y-71257853D01*
X134405385Y-71194297D01*
X134411417Y-71187819D01*
X134427269Y-71171967D01*
X134450520Y-71148716D01*
X134529577Y-71011784D01*
X134570500Y-70859057D01*
X134570500Y-70700943D01*
X134529577Y-70548216D01*
X134518198Y-70528507D01*
X134450524Y-70411290D01*
X134450518Y-70411282D01*
X134338717Y-70299481D01*
X134338709Y-70299475D01*
X134201790Y-70220426D01*
X134201786Y-70220424D01*
X134201784Y-70220423D01*
X134049057Y-70179500D01*
X133890943Y-70179500D01*
X133738216Y-70220423D01*
X133738209Y-70220426D01*
X133601290Y-70299475D01*
X133601282Y-70299481D01*
X133489481Y-70411282D01*
X133489475Y-70411290D01*
X133410426Y-70548209D01*
X133410423Y-70548216D01*
X133369500Y-70700943D01*
X133369500Y-70804500D01*
X133366949Y-70813185D01*
X133368238Y-70822147D01*
X133357259Y-70846187D01*
X133349815Y-70871539D01*
X133342974Y-70877466D01*
X133339213Y-70885703D01*
X133316978Y-70899992D01*
X133297011Y-70917294D01*
X133286496Y-70919581D01*
X133280435Y-70923477D01*
X133245500Y-70928500D01*
X133224500Y-70928500D01*
X133157461Y-70908815D01*
X133111706Y-70856011D01*
X133100500Y-70804500D01*
X133100499Y-69723500D01*
X133120183Y-69656461D01*
X133172987Y-69610706D01*
X133224499Y-69599500D01*
X134250560Y-69599500D01*
X134250562Y-69599500D01*
X134326989Y-69579021D01*
X134395511Y-69539460D01*
X134451460Y-69483511D01*
X134990460Y-68944511D01*
X135004864Y-68919562D01*
X135030021Y-68875989D01*
X135050500Y-68799562D01*
X135050500Y-68490321D01*
X135070185Y-68423282D01*
X135122095Y-68377939D01*
X135130404Y-68374065D01*
X135214065Y-68290404D01*
X135264068Y-68183173D01*
X135270500Y-68134316D01*
X135270500Y-67785684D01*
X135264068Y-67736827D01*
X135214065Y-67629596D01*
X135130404Y-67545935D01*
X135122733Y-67538264D01*
X135125561Y-67535435D01*
X135094843Y-67497023D01*
X135087635Y-67427526D01*
X135119143Y-67365165D01*
X135122903Y-67361906D01*
X135122733Y-67361736D01*
X135165855Y-67318614D01*
X135214065Y-67270404D01*
X135264068Y-67163173D01*
X135270500Y-67114316D01*
X135270500Y-66765684D01*
X135264068Y-66716827D01*
X135214065Y-66609596D01*
X135130404Y-66525935D01*
X135130401Y-66525932D01*
X135122089Y-66522056D01*
X135069652Y-66475881D01*
X135050500Y-66409677D01*
X135050500Y-65225833D01*
X135070185Y-65158794D01*
X135086819Y-65138152D01*
X135090460Y-65134511D01*
X135290460Y-64934511D01*
X135328732Y-64868220D01*
X135328737Y-64868216D01*
X135328735Y-64868215D01*
X135330021Y-64865989D01*
X135350500Y-64789562D01*
X135350500Y-63698162D01*
X135370185Y-63631123D01*
X135422989Y-63585368D01*
X135492147Y-63575424D01*
X135555703Y-63604449D01*
X135570357Y-63619502D01*
X135572282Y-63621848D01*
X135708151Y-63757717D01*
X135708155Y-63757720D01*
X135867927Y-63864477D01*
X135867928Y-63864477D01*
X135867929Y-63864478D01*
X135867931Y-63864479D01*
X136045452Y-63938010D01*
X136045457Y-63938012D01*
X136206166Y-63969979D01*
X136233917Y-63975499D01*
X136233920Y-63975500D01*
X136233922Y-63975500D01*
X136426080Y-63975500D01*
X136426081Y-63975499D01*
X136614543Y-63938012D01*
X136792073Y-63864477D01*
X136951845Y-63757720D01*
X137087720Y-63621845D01*
X137132312Y-63555109D01*
X137185924Y-63510304D01*
X137235414Y-63500000D01*
X137964586Y-63500000D01*
X137972203Y-63502236D01*
G37*
%TD.AperFunction*%
%TA.AperFunction,Conductor*%
G36*
X121928834Y-63643246D02*
G01*
X121984767Y-63685118D01*
X122009184Y-63750582D01*
X122009500Y-63759428D01*
X122009500Y-63983456D01*
X121989815Y-64050495D01*
X121973181Y-64071137D01*
X121769531Y-64274786D01*
X121769529Y-64274788D01*
X121744013Y-64318984D01*
X121726389Y-64349511D01*
X121726386Y-64349514D01*
X121726386Y-64349516D01*
X121723386Y-64354710D01*
X121699500Y-64443856D01*
X121699500Y-66503456D01*
X121679815Y-66570495D01*
X121663181Y-66591137D01*
X121610803Y-66643514D01*
X121559426Y-66748608D01*
X121549500Y-66816739D01*
X121549500Y-67908260D01*
X121559426Y-67976391D01*
X121610803Y-68081485D01*
X121693514Y-68164196D01*
X121693515Y-68164196D01*
X121693517Y-68164198D01*
X121798607Y-68215573D01*
X121832673Y-68220536D01*
X121866739Y-68225500D01*
X122075168Y-68225500D01*
X122142207Y-68245185D01*
X122187962Y-68297989D01*
X122197906Y-68367147D01*
X122168881Y-68430703D01*
X122162849Y-68437181D01*
X121865489Y-68734541D01*
X121855733Y-68744297D01*
X121844921Y-68755108D01*
X121806359Y-68778360D01*
X121807258Y-68780198D01*
X121798607Y-68784426D01*
X121798607Y-68784427D01*
X121783036Y-68792039D01*
X121693514Y-68835803D01*
X121610803Y-68918514D01*
X121559426Y-69023608D01*
X121549500Y-69091739D01*
X121549500Y-70183260D01*
X121559426Y-70251391D01*
X121610803Y-70356485D01*
X121693514Y-70439196D01*
X121693515Y-70439196D01*
X121693517Y-70439198D01*
X121798607Y-70490573D01*
X121832673Y-70495536D01*
X121866739Y-70500500D01*
X121866740Y-70500500D01*
X122233261Y-70500500D01*
X122255971Y-70497191D01*
X122301393Y-70490573D01*
X122406483Y-70439198D01*
X122406897Y-70438784D01*
X122437672Y-70408010D01*
X122498995Y-70374525D01*
X122568687Y-70379509D01*
X122613034Y-70408010D01*
X122643811Y-70438787D01*
X122748747Y-70490086D01*
X122816786Y-70499999D01*
X122850000Y-70499998D01*
X122850000Y-69761500D01*
X122852550Y-69752814D01*
X122851262Y-69743853D01*
X122862240Y-69719812D01*
X122869685Y-69694461D01*
X122876525Y-69688533D01*
X122880287Y-69680297D01*
X122902521Y-69666007D01*
X122922489Y-69648706D01*
X122933003Y-69646418D01*
X122939065Y-69642523D01*
X122974000Y-69637500D01*
X123026000Y-69637500D01*
X123093039Y-69657185D01*
X123138794Y-69709989D01*
X123150000Y-69761500D01*
X123150000Y-70499999D01*
X123183218Y-70499999D01*
X123251249Y-70490087D01*
X123356191Y-70438784D01*
X123386966Y-70408010D01*
X123448289Y-70374525D01*
X123517981Y-70379509D01*
X123562328Y-70408010D01*
X123593514Y-70439196D01*
X123593515Y-70439196D01*
X123593517Y-70439198D01*
X123698607Y-70490573D01*
X123732673Y-70495536D01*
X123766739Y-70500500D01*
X123766740Y-70500500D01*
X124133261Y-70500500D01*
X124155971Y-70497191D01*
X124201393Y-70490573D01*
X124306483Y-70439198D01*
X124389198Y-70356483D01*
X124440573Y-70251393D01*
X124450500Y-70183260D01*
X124450500Y-70062000D01*
X124470185Y-69994961D01*
X124522989Y-69949206D01*
X124574500Y-69938000D01*
X124961667Y-69938000D01*
X125028706Y-69957685D01*
X125049348Y-69974319D01*
X126262848Y-71187819D01*
X126296333Y-71249142D01*
X126291349Y-71318834D01*
X126249477Y-71374767D01*
X126184013Y-71399184D01*
X126175167Y-71399500D01*
X125147870Y-71399500D01*
X125067504Y-71415485D01*
X124976375Y-71476375D01*
X124915485Y-71567505D01*
X124915483Y-71567509D01*
X124899500Y-71647863D01*
X124899500Y-71852129D01*
X124899501Y-71852132D01*
X124912405Y-71917011D01*
X124915486Y-71932498D01*
X124920159Y-71943780D01*
X124918714Y-71944378D01*
X124935436Y-71997788D01*
X124919482Y-72055938D01*
X124920159Y-72056219D01*
X124917926Y-72061609D01*
X124916950Y-72065168D01*
X124915550Y-72067345D01*
X124915484Y-72067505D01*
X124899500Y-72147863D01*
X124899500Y-72352129D01*
X124905704Y-72383319D01*
X124911643Y-72413181D01*
X124915486Y-72432498D01*
X124920159Y-72443780D01*
X124918714Y-72444378D01*
X124935436Y-72497788D01*
X124919482Y-72555938D01*
X124920159Y-72556219D01*
X124917926Y-72561609D01*
X124916950Y-72565168D01*
X124915550Y-72567345D01*
X124915484Y-72567505D01*
X124899500Y-72647863D01*
X124899500Y-72852129D01*
X124903905Y-72874273D01*
X124908796Y-72898867D01*
X124915486Y-72932498D01*
X124918561Y-72939922D01*
X124921678Y-72943192D01*
X124927010Y-72970877D01*
X124935436Y-72997788D01*
X124933531Y-73004730D01*
X124934893Y-73011800D01*
X124920519Y-73052157D01*
X124919482Y-73055938D01*
X124920159Y-73056219D01*
X124917926Y-73061609D01*
X124916950Y-73065168D01*
X124916058Y-73066120D01*
X124915484Y-73067505D01*
X124899500Y-73147863D01*
X124899500Y-73352129D01*
X124901111Y-73360228D01*
X124915436Y-73432250D01*
X124915486Y-73432498D01*
X124920159Y-73443780D01*
X124918714Y-73444378D01*
X124935436Y-73497788D01*
X124930675Y-73534099D01*
X124925337Y-73552759D01*
X124915485Y-73567505D01*
X124902618Y-73632189D01*
X124902616Y-73632198D01*
X124899500Y-73647863D01*
X124899500Y-73675167D01*
X124879815Y-73742206D01*
X124827011Y-73787961D01*
X124757853Y-73797905D01*
X124694297Y-73768880D01*
X124687819Y-73762848D01*
X124676819Y-73751848D01*
X124670570Y-73740405D01*
X124660657Y-73731936D01*
X124654147Y-73710328D01*
X124643334Y-73690525D01*
X124640643Y-73665504D01*
X124640503Y-73665037D01*
X124640553Y-73664666D01*
X124640500Y-73664167D01*
X124640500Y-73430439D01*
X124640500Y-73430438D01*
X124620021Y-73354011D01*
X124620017Y-73354004D01*
X124580464Y-73285495D01*
X124580458Y-73285487D01*
X124524511Y-73229540D01*
X124054513Y-72759541D01*
X124054511Y-72759540D01*
X124044933Y-72754010D01*
X124044933Y-72754009D01*
X124044931Y-72754009D01*
X123999165Y-72727586D01*
X123950949Y-72677019D01*
X123948783Y-72672604D01*
X123924065Y-72619596D01*
X123840404Y-72535935D01*
X123733173Y-72485932D01*
X123733171Y-72485931D01*
X123733172Y-72485931D01*
X123684317Y-72479500D01*
X123684316Y-72479500D01*
X123335684Y-72479500D01*
X123335683Y-72479500D01*
X123286828Y-72485931D01*
X123179595Y-72535935D01*
X123088264Y-72627267D01*
X123085440Y-72624443D01*
X123046958Y-72655183D01*
X122977458Y-72662352D01*
X122915114Y-72630808D01*
X122911901Y-72627101D01*
X122911736Y-72627267D01*
X122820404Y-72535935D01*
X122748083Y-72502211D01*
X122713173Y-72485932D01*
X122713171Y-72485931D01*
X122713172Y-72485931D01*
X122664317Y-72479500D01*
X122664316Y-72479500D01*
X122315684Y-72479500D01*
X122315683Y-72479500D01*
X122266828Y-72485931D01*
X122159595Y-72535935D01*
X122075935Y-72619595D01*
X122025931Y-72726828D01*
X122019500Y-72775683D01*
X122019500Y-73224316D01*
X122025931Y-73273171D01*
X122075935Y-73380404D01*
X122153181Y-73457650D01*
X122186666Y-73518973D01*
X122189500Y-73545331D01*
X122189500Y-73709562D01*
X122196884Y-73737118D01*
X122209979Y-73785989D01*
X122248162Y-73852125D01*
X122249540Y-73854512D01*
X122367290Y-73972262D01*
X122400775Y-74033585D01*
X122395791Y-74103277D01*
X122353919Y-74159210D01*
X122337553Y-74169572D01*
X122333821Y-74171544D01*
X122226069Y-74251069D01*
X122146545Y-74358819D01*
X122146544Y-74358821D01*
X122102315Y-74485218D01*
X122102313Y-74485230D01*
X122099500Y-74515231D01*
X122099500Y-75109768D01*
X122102313Y-75139769D01*
X122102315Y-75139781D01*
X122146544Y-75266178D01*
X122146545Y-75266180D01*
X122226069Y-75373930D01*
X122333819Y-75453454D01*
X122333821Y-75453455D01*
X122460218Y-75497684D01*
X122460222Y-75497684D01*
X122460226Y-75497686D01*
X122475231Y-75499093D01*
X122490232Y-75500500D01*
X122490236Y-75500500D01*
X123509768Y-75500500D01*
X123523101Y-75499249D01*
X123539774Y-75497686D01*
X123539778Y-75497684D01*
X123539781Y-75497684D01*
X123661695Y-75455024D01*
X123731473Y-75451461D01*
X123792101Y-75486190D01*
X123822423Y-75539968D01*
X123860423Y-75681784D01*
X123860424Y-75681785D01*
X123860426Y-75681790D01*
X123939475Y-75818709D01*
X123939479Y-75818714D01*
X123939480Y-75818716D01*
X124051284Y-75930520D01*
X124051286Y-75930521D01*
X124051290Y-75930524D01*
X124176497Y-76002811D01*
X124188216Y-76009577D01*
X124340943Y-76050500D01*
X124390343Y-76050500D01*
X124457382Y-76070185D01*
X124478024Y-76086819D01*
X124876213Y-76485008D01*
X124909698Y-76546331D01*
X124910150Y-76596878D01*
X124909529Y-76599998D01*
X124909530Y-76600000D01*
X125136699Y-76600000D01*
X125141776Y-76601490D01*
X125141776Y-76600500D01*
X125147866Y-76600499D01*
X125147867Y-76600500D01*
X126527132Y-76600499D01*
X126533223Y-76600499D01*
X126533223Y-76601102D01*
X126538289Y-76600000D01*
X126765470Y-76600000D01*
X126765470Y-76599999D01*
X126759046Y-76567701D01*
X126754372Y-76556418D01*
X126755896Y-76555786D01*
X126739263Y-76502664D01*
X126755358Y-76443990D01*
X126754842Y-76443777D01*
X126756544Y-76439667D01*
X126757747Y-76435283D01*
X126759472Y-76432597D01*
X126759516Y-76432493D01*
X126769088Y-76384365D01*
X126775500Y-76352133D01*
X126775499Y-76174500D01*
X126795183Y-76107461D01*
X126847987Y-76061706D01*
X126899499Y-76050500D01*
X128289560Y-76050500D01*
X128289562Y-76050500D01*
X128365989Y-76030021D01*
X128434511Y-75990460D01*
X128490460Y-75934511D01*
X128599872Y-75825099D01*
X128661195Y-75791614D01*
X128687553Y-75788780D01*
X128759055Y-75788780D01*
X128759057Y-75788780D01*
X128911784Y-75747857D01*
X129048716Y-75668800D01*
X129160520Y-75556996D01*
X129239577Y-75420064D01*
X129280500Y-75267337D01*
X129280500Y-75109223D01*
X129239577Y-74956496D01*
X129231651Y-74942767D01*
X129160524Y-74819570D01*
X129160518Y-74819562D01*
X129048717Y-74707761D01*
X129048709Y-74707755D01*
X128911790Y-74628706D01*
X128911786Y-74628704D01*
X128911784Y-74628703D01*
X128759057Y-74587780D01*
X128600943Y-74587780D01*
X128506593Y-74613061D01*
X128436743Y-74611398D01*
X128378881Y-74572235D01*
X128351377Y-74508007D01*
X128350500Y-74493286D01*
X128350500Y-74420945D01*
X128350500Y-74420943D01*
X128309577Y-74268216D01*
X128309573Y-74268209D01*
X128230524Y-74131290D01*
X128230518Y-74131282D01*
X128118717Y-74019481D01*
X128118709Y-74019475D01*
X127981790Y-73940426D01*
X127981786Y-73940424D01*
X127981784Y-73940423D01*
X127829057Y-73899500D01*
X127670943Y-73899500D01*
X127518216Y-73940423D01*
X127518209Y-73940426D01*
X127381290Y-74019475D01*
X127381282Y-74019481D01*
X127269481Y-74131282D01*
X127269475Y-74131290D01*
X127190426Y-74268209D01*
X127190423Y-74268216D01*
X127149500Y-74420943D01*
X127149500Y-74579057D01*
X127183985Y-74707755D01*
X127190423Y-74731783D01*
X127190424Y-74731786D01*
X127208734Y-74763500D01*
X127210165Y-74769401D01*
X127214141Y-74773989D01*
X127218305Y-74802955D01*
X127225207Y-74831401D01*
X127223221Y-74837138D01*
X127224085Y-74843147D01*
X127211926Y-74869770D01*
X127202354Y-74897427D01*
X127197582Y-74901179D01*
X127195060Y-74906703D01*
X127170437Y-74922526D01*
X127147433Y-74940618D01*
X127140082Y-74942034D01*
X127136282Y-74944477D01*
X127101347Y-74949500D01*
X126899500Y-74949500D01*
X126832461Y-74929815D01*
X126786706Y-74877011D01*
X126775500Y-74825501D01*
X126775499Y-74647870D01*
X126775499Y-74647868D01*
X126759515Y-74567505D01*
X126759513Y-74567502D01*
X126754841Y-74556222D01*
X126756285Y-74555623D01*
X126739563Y-74502211D01*
X126755517Y-74444056D01*
X126754842Y-74443777D01*
X126757070Y-74438396D01*
X126758049Y-74434831D01*
X126759452Y-74432647D01*
X126759516Y-74432493D01*
X126769088Y-74384365D01*
X126775500Y-74352133D01*
X126775499Y-74147868D01*
X126759515Y-74067505D01*
X126759513Y-74067502D01*
X126754841Y-74056222D01*
X126756285Y-74055623D01*
X126739563Y-74002211D01*
X126755517Y-73944056D01*
X126754842Y-73943777D01*
X126757070Y-73938396D01*
X126758049Y-73934831D01*
X126759452Y-73932647D01*
X126759516Y-73932493D01*
X126775500Y-73852135D01*
X126775499Y-73852134D01*
X126775500Y-73852133D01*
X126775499Y-73647868D01*
X126759515Y-73567505D01*
X126759513Y-73567502D01*
X126754841Y-73556222D01*
X126756285Y-73555623D01*
X126739563Y-73502211D01*
X126755517Y-73444056D01*
X126754842Y-73443777D01*
X126757070Y-73438396D01*
X126758049Y-73434831D01*
X126759452Y-73432647D01*
X126759516Y-73432493D01*
X126769088Y-73384365D01*
X126775500Y-73352133D01*
X126775499Y-73147868D01*
X126759515Y-73067505D01*
X126759513Y-73067502D01*
X126754841Y-73056222D01*
X126756285Y-73055623D01*
X126739563Y-73002211D01*
X126755517Y-72944056D01*
X126754842Y-72943777D01*
X126757070Y-72938396D01*
X126758049Y-72934831D01*
X126759452Y-72932647D01*
X126759516Y-72932493D01*
X126772339Y-72868024D01*
X126775500Y-72852133D01*
X126775499Y-72647868D01*
X126759515Y-72567505D01*
X126759513Y-72567502D01*
X126757684Y-72563087D01*
X126755649Y-72561114D01*
X126748690Y-72531365D01*
X126739563Y-72502211D01*
X126740809Y-72497668D01*
X126739736Y-72493080D01*
X126752773Y-72454061D01*
X126755517Y-72444056D01*
X126754842Y-72443777D01*
X126757070Y-72438396D01*
X126758049Y-72434831D01*
X126758843Y-72434117D01*
X126759515Y-72432495D01*
X126763886Y-72410520D01*
X126769297Y-72383316D01*
X126801681Y-72321408D01*
X126862396Y-72286833D01*
X126932166Y-72290572D01*
X126988838Y-72331438D01*
X127010688Y-72375413D01*
X127018978Y-72406350D01*
X127018979Y-72406353D01*
X127034072Y-72432495D01*
X127058540Y-72474875D01*
X127518176Y-72934511D01*
X127574125Y-72990460D01*
X127574127Y-72990461D01*
X127574131Y-72990464D01*
X127611087Y-73011800D01*
X127642647Y-73030021D01*
X127719074Y-73050500D01*
X127798198Y-73050500D01*
X133100500Y-73050500D01*
X133167539Y-73070185D01*
X133213294Y-73122989D01*
X133224500Y-73174499D01*
X133224500Y-73352129D01*
X133240485Y-73432495D01*
X133245159Y-73443778D01*
X133243855Y-73444317D01*
X133260737Y-73498238D01*
X133244861Y-73556102D01*
X133245628Y-73556420D01*
X133243100Y-73562520D01*
X133242251Y-73565618D01*
X133241032Y-73567514D01*
X133240953Y-73567704D01*
X133234529Y-73599999D01*
X133234530Y-73600000D01*
X133461699Y-73600000D01*
X133466776Y-73601490D01*
X133466776Y-73600500D01*
X133472866Y-73600499D01*
X133472867Y-73600500D01*
X134038502Y-73600499D01*
X134105539Y-73620183D01*
X134151294Y-73672987D01*
X134162500Y-73724499D01*
X134162500Y-73775500D01*
X134142815Y-73842539D01*
X134090011Y-73888294D01*
X134038500Y-73899500D01*
X133471870Y-73899500D01*
X133461711Y-73900000D01*
X133234530Y-73900000D01*
X133224874Y-73911765D01*
X133222368Y-73939766D01*
X133179504Y-73994943D01*
X133168981Y-74001750D01*
X133155492Y-74009537D01*
X133155490Y-74009539D01*
X132975764Y-74189264D01*
X132914440Y-74222748D01*
X132855992Y-74221358D01*
X132849057Y-74219500D01*
X132690943Y-74219500D01*
X132538216Y-74260423D01*
X132538209Y-74260426D01*
X132401290Y-74339475D01*
X132401282Y-74339481D01*
X132289481Y-74451282D01*
X132289475Y-74451290D01*
X132210426Y-74588209D01*
X132210423Y-74588216D01*
X132169500Y-74740943D01*
X132169500Y-74899057D01*
X132192194Y-74983750D01*
X132210423Y-75051783D01*
X132210426Y-75051790D01*
X132289475Y-75188709D01*
X132289479Y-75188714D01*
X132289480Y-75188716D01*
X132401284Y-75300520D01*
X132401286Y-75300521D01*
X132401290Y-75300524D01*
X132523261Y-75370943D01*
X132538216Y-75379577D01*
X132690943Y-75420500D01*
X132690945Y-75420500D01*
X132849055Y-75420500D01*
X132849057Y-75420500D01*
X133001784Y-75379577D01*
X133056596Y-75347931D01*
X133124494Y-75331458D01*
X133190521Y-75354310D01*
X133233712Y-75409231D01*
X133233736Y-75409291D01*
X133237982Y-75419914D01*
X133240485Y-75432495D01*
X133246774Y-75441907D01*
X133251597Y-75453972D01*
X133253721Y-75476341D01*
X133260436Y-75497788D01*
X133256961Y-75510453D01*
X133258203Y-75523529D01*
X133247895Y-75543497D01*
X133244482Y-75555938D01*
X133245159Y-75556219D01*
X133242926Y-75561609D01*
X133241950Y-75565168D01*
X133240550Y-75567345D01*
X133240484Y-75567505D01*
X133224500Y-75647863D01*
X133224500Y-75852129D01*
X133224680Y-75853033D01*
X133240205Y-75931088D01*
X133240486Y-75932498D01*
X133245159Y-75943780D01*
X133243714Y-75944378D01*
X133260436Y-75997788D01*
X133244482Y-76055938D01*
X133245159Y-76056219D01*
X133242926Y-76061609D01*
X133241950Y-76065168D01*
X133240550Y-76067345D01*
X133240484Y-76067505D01*
X133224500Y-76147863D01*
X133224500Y-76352129D01*
X133240486Y-76432498D01*
X133245159Y-76443780D01*
X133243714Y-76444378D01*
X133260436Y-76497788D01*
X133244482Y-76555938D01*
X133245159Y-76556219D01*
X133242926Y-76561609D01*
X133241950Y-76565168D01*
X133240550Y-76567345D01*
X133240484Y-76567505D01*
X133224500Y-76647863D01*
X133224500Y-76852129D01*
X133231273Y-76886181D01*
X133238520Y-76922617D01*
X133240486Y-76932498D01*
X133245159Y-76943780D01*
X133244491Y-76944056D01*
X133250541Y-76951413D01*
X133253321Y-76975062D01*
X133260436Y-76997788D01*
X133257532Y-77010886D01*
X133258698Y-77020805D01*
X133251102Y-77039888D01*
X133247885Y-77054402D01*
X133244208Y-77061932D01*
X133240485Y-77067505D01*
X133239795Y-77070970D01*
X133233201Y-77084478D01*
X133212121Y-77107572D01*
X133192493Y-77131931D01*
X133188753Y-77133175D01*
X133186099Y-77136084D01*
X133155879Y-77144117D01*
X133126199Y-77153996D01*
X133122382Y-77153021D01*
X133118575Y-77154034D01*
X133088799Y-77144450D01*
X133058500Y-77136717D01*
X133054062Y-77133269D01*
X133052065Y-77132627D01*
X133049996Y-77130111D01*
X133034091Y-77117756D01*
X132175876Y-76259541D01*
X132175868Y-76259535D01*
X132107359Y-76219982D01*
X132107354Y-76219979D01*
X132081877Y-76213152D01*
X132030926Y-76199500D01*
X131260438Y-76199500D01*
X131222224Y-76209739D01*
X131184009Y-76219979D01*
X131184004Y-76219982D01*
X131115495Y-76259535D01*
X131115487Y-76259541D01*
X130488848Y-76886181D01*
X130427525Y-76919666D01*
X130401167Y-76922500D01*
X126842583Y-76922500D01*
X126775544Y-76902815D01*
X126772382Y-76900000D01*
X126538301Y-76900000D01*
X126528123Y-76899500D01*
X125146870Y-76899500D01*
X125136711Y-76900000D01*
X124909529Y-76900000D01*
X124915953Y-76932298D01*
X124920628Y-76943582D01*
X124919103Y-76944213D01*
X124935737Y-76997336D01*
X124919641Y-77056010D01*
X124920158Y-77056224D01*
X124918455Y-77060335D01*
X124917253Y-77064717D01*
X124915527Y-77067402D01*
X124915483Y-77067507D01*
X124899500Y-77147863D01*
X124899500Y-77352129D01*
X124903490Y-77372188D01*
X124915485Y-77432495D01*
X124969103Y-77512740D01*
X124977075Y-77524670D01*
X124997953Y-77591347D01*
X124979469Y-77658728D01*
X124927490Y-77705418D01*
X124906070Y-77713335D01*
X124885011Y-77718978D01*
X124816489Y-77758540D01*
X124816486Y-77758542D01*
X124027429Y-78547598D01*
X123966106Y-78581083D01*
X123896414Y-78576099D01*
X123852067Y-78547598D01*
X123840404Y-78535935D01*
X123837964Y-78534797D01*
X123733173Y-78485932D01*
X123733171Y-78485931D01*
X123733172Y-78485931D01*
X123684317Y-78479500D01*
X123684316Y-78479500D01*
X123335684Y-78479500D01*
X123335683Y-78479500D01*
X123286828Y-78485931D01*
X123179595Y-78535935D01*
X123088264Y-78627267D01*
X123085552Y-78624555D01*
X123046612Y-78655640D01*
X122977109Y-78662788D01*
X122914775Y-78631225D01*
X122911470Y-78627408D01*
X122911320Y-78627559D01*
X122820112Y-78536351D01*
X122713039Y-78486422D01*
X122713040Y-78486422D01*
X122664265Y-78480001D01*
X122664248Y-78480000D01*
X122640000Y-78480000D01*
X122640000Y-79519999D01*
X122664256Y-79519999D01*
X122713038Y-79513577D01*
X122713045Y-79513575D01*
X122820112Y-79463648D01*
X122911320Y-79372441D01*
X122914115Y-79375236D01*
X122952612Y-79344422D01*
X123022106Y-79337181D01*
X123084482Y-79368661D01*
X123087565Y-79371652D01*
X123095632Y-79379755D01*
X123095935Y-79380404D01*
X123173376Y-79457845D01*
X123190015Y-79488480D01*
X123206666Y-79518973D01*
X123206687Y-79519175D01*
X123206724Y-79519242D01*
X123206712Y-79519402D01*
X123209500Y-79545331D01*
X123209500Y-79729562D01*
X123217656Y-79760000D01*
X123229979Y-79805990D01*
X123236957Y-79818075D01*
X123244107Y-79830460D01*
X123249032Y-79838989D01*
X123249033Y-79838993D01*
X123269535Y-79874504D01*
X123269541Y-79874512D01*
X124432848Y-81037819D01*
X124466333Y-81099142D01*
X124461349Y-81168834D01*
X124419477Y-81224767D01*
X124354013Y-81249184D01*
X124345167Y-81249500D01*
X124300247Y-81249500D01*
X124241770Y-81261131D01*
X124241769Y-81261132D01*
X124175447Y-81305447D01*
X124131132Y-81371769D01*
X124131131Y-81371770D01*
X124119500Y-81430247D01*
X124119500Y-83069752D01*
X124131131Y-83128229D01*
X124131132Y-83128230D01*
X124175447Y-83194552D01*
X124241769Y-83238867D01*
X124241770Y-83238868D01*
X124300247Y-83250499D01*
X124300250Y-83250500D01*
X124300252Y-83250500D01*
X126519750Y-83250500D01*
X126519751Y-83250499D01*
X126534568Y-83247552D01*
X126578229Y-83238868D01*
X126578229Y-83238867D01*
X126578231Y-83238867D01*
X126644552Y-83194552D01*
X126688867Y-83128231D01*
X126688867Y-83128229D01*
X126688868Y-83128229D01*
X126700499Y-83069752D01*
X126700500Y-83069750D01*
X126700500Y-82134559D01*
X126720185Y-82067520D01*
X126772989Y-82021765D01*
X126842147Y-82011821D01*
X126905703Y-82040846D01*
X126936357Y-82083358D01*
X126936359Y-82083357D01*
X126936368Y-82083374D01*
X126939062Y-82087109D01*
X126940424Y-82090399D01*
X127019475Y-82227320D01*
X127019481Y-82227328D01*
X127131284Y-82339131D01*
X127137499Y-82342719D01*
X127185715Y-82393286D01*
X127199500Y-82450107D01*
X127199500Y-82964167D01*
X127179815Y-83031206D01*
X127163181Y-83051848D01*
X125489541Y-84725487D01*
X125489535Y-84725495D01*
X125449982Y-84794004D01*
X125449979Y-84794009D01*
X125429500Y-84870439D01*
X125429500Y-85688519D01*
X125409815Y-85755558D01*
X125357011Y-85801313D01*
X125287853Y-85811257D01*
X125287623Y-85811224D01*
X125210582Y-85800000D01*
X125150000Y-85800000D01*
X125150000Y-87200000D01*
X125210588Y-87200000D01*
X125267355Y-87191729D01*
X125336532Y-87201542D01*
X125389422Y-87247197D01*
X125409233Y-87314200D01*
X125389674Y-87381276D01*
X125372914Y-87402114D01*
X125111848Y-87663181D01*
X125050525Y-87696666D01*
X125024167Y-87699500D01*
X124766739Y-87699500D01*
X124698607Y-87709426D01*
X124698605Y-87709427D01*
X124678957Y-87719032D01*
X124610084Y-87730789D01*
X124545787Y-87703444D01*
X124506482Y-87645679D01*
X124500500Y-87607630D01*
X124500500Y-87282419D01*
X124520185Y-87215380D01*
X124572989Y-87169625D01*
X124642147Y-87159681D01*
X124678961Y-87171019D01*
X124716516Y-87189379D01*
X124789418Y-87200000D01*
X124850000Y-87200000D01*
X124850000Y-85800000D01*
X124789418Y-85800000D01*
X124716516Y-85810620D01*
X124678959Y-85828981D01*
X124610086Y-85840739D01*
X124545789Y-85813395D01*
X124506482Y-85755631D01*
X124500500Y-85717580D01*
X124500500Y-84297724D01*
X124503934Y-84279881D01*
X124500500Y-84232049D01*
X124500500Y-84184108D01*
X124498857Y-84177978D01*
X124494951Y-84154763D01*
X124494497Y-84148439D01*
X124494497Y-84148436D01*
X124478801Y-84103127D01*
X124466392Y-84056814D01*
X124457306Y-84041078D01*
X124451360Y-84023911D01*
X124426960Y-83987881D01*
X124422262Y-83980379D01*
X124400500Y-83942686D01*
X124387652Y-83929838D01*
X124377464Y-83914794D01*
X124341217Y-83883403D01*
X124307314Y-83849500D01*
X124307313Y-83849499D01*
X124307310Y-83849497D01*
X124301822Y-83846329D01*
X124282644Y-83832677D01*
X124282040Y-83832154D01*
X124277845Y-83828521D01*
X124277843Y-83828520D01*
X124277843Y-83828519D01*
X124238712Y-83809524D01*
X124230863Y-83805360D01*
X124193188Y-83783608D01*
X124187051Y-83781964D01*
X124165000Y-83773742D01*
X121500089Y-82480110D01*
X121485349Y-82471661D01*
X121342692Y-82376340D01*
X121289537Y-82340824D01*
X121276671Y-82330951D01*
X121092250Y-82169218D01*
X121080781Y-82157749D01*
X120992701Y-82057314D01*
X120919045Y-81973325D01*
X120909174Y-81960460D01*
X120772897Y-81756506D01*
X120764788Y-81742462D01*
X120759050Y-81730827D01*
X120759049Y-81730825D01*
X120736011Y-81684108D01*
X122249500Y-81684108D01*
X122249500Y-81815891D01*
X122283608Y-81943187D01*
X122293581Y-81960460D01*
X122349500Y-82057314D01*
X122442686Y-82150500D01*
X122556814Y-82216392D01*
X122684108Y-82250500D01*
X122684110Y-82250500D01*
X122815890Y-82250500D01*
X122815892Y-82250500D01*
X122943186Y-82216392D01*
X123057314Y-82150500D01*
X123150500Y-82057314D01*
X123216392Y-81943186D01*
X123250500Y-81815892D01*
X123250500Y-81684108D01*
X123216392Y-81556814D01*
X123150500Y-81442686D01*
X123057314Y-81349500D01*
X122969905Y-81299034D01*
X122943187Y-81283608D01*
X122859307Y-81261133D01*
X122815892Y-81249500D01*
X122684108Y-81249500D01*
X122556812Y-81283608D01*
X122442686Y-81349500D01*
X122442683Y-81349502D01*
X122349502Y-81442683D01*
X122349500Y-81442686D01*
X122283608Y-81556812D01*
X122249500Y-81684108D01*
X120736011Y-81684108D01*
X120707763Y-81626827D01*
X120656294Y-81522458D01*
X120650090Y-81507479D01*
X120644120Y-81489893D01*
X120604023Y-81371769D01*
X120571243Y-81275202D01*
X120567045Y-81259535D01*
X120549761Y-81172644D01*
X120519190Y-81018953D01*
X120517075Y-81002895D01*
X120500765Y-80754043D01*
X120500500Y-80745933D01*
X120500500Y-79224256D01*
X122020001Y-79224256D01*
X122026422Y-79273038D01*
X122026424Y-79273045D01*
X122076351Y-79380112D01*
X122159887Y-79463648D01*
X122266960Y-79513577D01*
X122266958Y-79513577D01*
X122315737Y-79519998D01*
X122315750Y-79519999D01*
X122340000Y-79519998D01*
X122340000Y-79150000D01*
X122020001Y-79150000D01*
X122020001Y-79224256D01*
X120500500Y-79224256D01*
X120500500Y-78775751D01*
X122020000Y-78775751D01*
X122020000Y-78850000D01*
X122340000Y-78850000D01*
X122340000Y-78479999D01*
X122315743Y-78480000D01*
X122266962Y-78486422D01*
X122266954Y-78486424D01*
X122159887Y-78536351D01*
X122076351Y-78619887D01*
X122026422Y-78726959D01*
X122020001Y-78775734D01*
X122020000Y-78775751D01*
X120500500Y-78775751D01*
X120500500Y-76984688D01*
X122100001Y-76984688D01*
X122102813Y-77014683D01*
X122102813Y-77014685D01*
X122146993Y-77140942D01*
X122146995Y-77140946D01*
X122226426Y-77248572D01*
X122226427Y-77248573D01*
X122334053Y-77328004D01*
X122334057Y-77328006D01*
X122460318Y-77372188D01*
X122490301Y-77374999D01*
X122849999Y-77374999D01*
X123150000Y-77374999D01*
X123509688Y-77374999D01*
X123539683Y-77372186D01*
X123539685Y-77372186D01*
X123665942Y-77328006D01*
X123665946Y-77328004D01*
X123773572Y-77248573D01*
X123773573Y-77248572D01*
X123853004Y-77140946D01*
X123853006Y-77140942D01*
X123897188Y-77014682D01*
X123897188Y-77014680D01*
X123900000Y-76984698D01*
X123900000Y-76837500D01*
X123150000Y-76837500D01*
X123150000Y-77374999D01*
X122849999Y-77374999D01*
X122850000Y-77374998D01*
X122850000Y-76837500D01*
X122100001Y-76837500D01*
X122100001Y-76984688D01*
X120500500Y-76984688D01*
X120500500Y-76390301D01*
X122100000Y-76390301D01*
X122100000Y-76537500D01*
X122850000Y-76537500D01*
X123150000Y-76537500D01*
X123899999Y-76537500D01*
X123899999Y-76390311D01*
X123897186Y-76360316D01*
X123897186Y-76360314D01*
X123853006Y-76234057D01*
X123853004Y-76234053D01*
X123773573Y-76126427D01*
X123773572Y-76126426D01*
X123665946Y-76046995D01*
X123665942Y-76046993D01*
X123539681Y-76002811D01*
X123509699Y-76000000D01*
X123150000Y-76000000D01*
X123150000Y-76537500D01*
X122850000Y-76537500D01*
X122850000Y-76000000D01*
X122490312Y-76000000D01*
X122460316Y-76002813D01*
X122460314Y-76002813D01*
X122334057Y-76046993D01*
X122334053Y-76046995D01*
X122226427Y-76126426D01*
X122226426Y-76126427D01*
X122146995Y-76234053D01*
X122146993Y-76234057D01*
X122102811Y-76360317D01*
X122102811Y-76360319D01*
X122100000Y-76390301D01*
X120500500Y-76390301D01*
X120500500Y-63997274D01*
X120520185Y-63930235D01*
X120572989Y-63884480D01*
X120642147Y-63874536D01*
X120671952Y-63882713D01*
X120805452Y-63938010D01*
X120805457Y-63938012D01*
X120966166Y-63969979D01*
X120993917Y-63975499D01*
X120993920Y-63975500D01*
X120993922Y-63975500D01*
X121186080Y-63975500D01*
X121186081Y-63975499D01*
X121374543Y-63938012D01*
X121552073Y-63864477D01*
X121711845Y-63757720D01*
X121750137Y-63719428D01*
X121797819Y-63671747D01*
X121859142Y-63638262D01*
X121928834Y-63643246D01*
G37*
%TD.AperFunction*%
%TA.AperFunction,Conductor*%
G36*
X135640206Y-75570185D02*
G01*
X135660848Y-75586819D01*
X135718540Y-75644511D01*
X135774489Y-75700460D01*
X135843011Y-75740021D01*
X135850668Y-75742072D01*
X135864571Y-75750111D01*
X135883259Y-75769735D01*
X135904360Y-75786739D01*
X135906996Y-75794661D01*
X135912755Y-75800708D01*
X135917866Y-75827320D01*
X135926425Y-75853033D01*
X135924360Y-75861123D01*
X135925935Y-75869323D01*
X135915847Y-75894475D01*
X135909146Y-75920732D01*
X135902278Y-75931088D01*
X135897654Y-75937353D01*
X135897653Y-75937354D01*
X135852850Y-76065395D01*
X135852850Y-76065399D01*
X135850000Y-76095793D01*
X135850000Y-76450000D01*
X136526000Y-76450000D01*
X136534685Y-76452550D01*
X136543647Y-76451262D01*
X136567687Y-76462240D01*
X136593039Y-76469685D01*
X136598966Y-76476525D01*
X136607203Y-76480287D01*
X136621492Y-76502521D01*
X136638794Y-76522489D01*
X136641081Y-76533003D01*
X136644977Y-76539065D01*
X136650000Y-76574000D01*
X136650000Y-76600000D01*
X136676000Y-76600000D01*
X136743039Y-76619685D01*
X136788794Y-76672489D01*
X136800000Y-76724000D01*
X136800000Y-77499999D01*
X137054196Y-77499999D01*
X137084606Y-77497148D01*
X137212645Y-77452346D01*
X137321793Y-77371791D01*
X137399919Y-77265934D01*
X137455566Y-77223683D01*
X137525222Y-77218224D01*
X137586772Y-77251291D01*
X137599457Y-77265930D01*
X137677850Y-77372150D01*
X137787118Y-77452793D01*
X137817603Y-77463460D01*
X137915299Y-77497646D01*
X137945730Y-77500500D01*
X137945734Y-77500500D01*
X137955500Y-77500500D01*
X137964185Y-77503050D01*
X137973147Y-77501762D01*
X137997187Y-77512740D01*
X138022539Y-77520185D01*
X138028466Y-77527025D01*
X138036703Y-77530787D01*
X138050992Y-77553021D01*
X138068294Y-77572989D01*
X138070581Y-77583503D01*
X138074477Y-77589565D01*
X138079500Y-77624500D01*
X138079500Y-77865500D01*
X138059815Y-77932539D01*
X138007011Y-77978294D01*
X137955501Y-77989500D01*
X137800105Y-77989500D01*
X137784386Y-77991569D01*
X137750513Y-77996028D01*
X137750511Y-77996029D01*
X137750509Y-77996029D01*
X137641683Y-78046776D01*
X137587327Y-78101133D01*
X137526004Y-78134618D01*
X137456312Y-78129634D01*
X137411965Y-78101133D01*
X137358024Y-78047192D01*
X137249353Y-77996518D01*
X137249354Y-77996518D01*
X137199850Y-77990001D01*
X137199833Y-77990000D01*
X137170000Y-77990000D01*
X137170000Y-78376000D01*
X137167449Y-78384685D01*
X137168738Y-78393647D01*
X137157759Y-78417687D01*
X137150315Y-78443039D01*
X137143474Y-78448966D01*
X137139713Y-78457203D01*
X137117478Y-78471492D01*
X137097511Y-78488794D01*
X137086996Y-78491081D01*
X137080935Y-78494977D01*
X137046000Y-78500000D01*
X137020000Y-78500000D01*
X137020000Y-78526000D01*
X137000315Y-78593039D01*
X136947511Y-78638794D01*
X136896000Y-78650000D01*
X136540000Y-78650000D01*
X136540000Y-78709833D01*
X136540001Y-78709850D01*
X136546518Y-78759354D01*
X136597192Y-78868024D01*
X136689647Y-78960479D01*
X136688323Y-78961802D01*
X136723687Y-79006042D01*
X136730882Y-79075541D01*
X136699361Y-79137896D01*
X136677831Y-79156145D01*
X136573458Y-79225885D01*
X136573454Y-79225888D01*
X136475888Y-79323454D01*
X136475885Y-79323458D01*
X136399228Y-79438182D01*
X136399221Y-79438195D01*
X136346421Y-79565667D01*
X136346418Y-79565677D01*
X136319500Y-79701004D01*
X136319500Y-79782034D01*
X136299815Y-79849073D01*
X136283181Y-79869715D01*
X135929716Y-80223181D01*
X135868393Y-80256666D01*
X135842035Y-80259500D01*
X134785544Y-80259500D01*
X134718505Y-80239815D01*
X134672750Y-80187011D01*
X134662806Y-80117853D01*
X134691831Y-80054297D01*
X134697863Y-80047819D01*
X134800470Y-79945212D01*
X134846614Y-79865288D01*
X134853661Y-79838989D01*
X134855947Y-79830459D01*
X134863223Y-79803302D01*
X134870500Y-79776144D01*
X134870500Y-79742402D01*
X134879144Y-79712961D01*
X134885668Y-79682975D01*
X134889422Y-79677959D01*
X134890185Y-79675363D01*
X134906819Y-79654721D01*
X134912673Y-79648867D01*
X134973996Y-79615382D01*
X135043688Y-79620366D01*
X135088035Y-79648867D01*
X135141975Y-79702807D01*
X135250646Y-79753481D01*
X135250645Y-79753481D01*
X135300149Y-79759998D01*
X135300167Y-79760000D01*
X135330000Y-79760000D01*
X135630000Y-79760000D01*
X135659833Y-79760000D01*
X135659850Y-79759998D01*
X135709354Y-79753481D01*
X135818024Y-79702807D01*
X135902807Y-79618024D01*
X135953481Y-79509354D01*
X135959998Y-79459850D01*
X135960000Y-79459833D01*
X135960000Y-79400000D01*
X135630000Y-79400000D01*
X135630000Y-79760000D01*
X135330000Y-79760000D01*
X135330000Y-79100000D01*
X135630000Y-79100000D01*
X135960000Y-79100000D01*
X135960000Y-79040166D01*
X135959998Y-79040149D01*
X135953481Y-78990645D01*
X135902807Y-78881975D01*
X135818024Y-78797192D01*
X135709353Y-78746518D01*
X135709354Y-78746518D01*
X135659850Y-78740001D01*
X135659833Y-78740000D01*
X135630000Y-78740000D01*
X135630000Y-79100000D01*
X135330000Y-79100000D01*
X135330000Y-78740000D01*
X135304333Y-78740000D01*
X135237294Y-78720315D01*
X135191539Y-78667511D01*
X135181595Y-78598353D01*
X135210620Y-78534797D01*
X135216652Y-78528319D01*
X135353712Y-78391259D01*
X135454805Y-78290166D01*
X136540000Y-78290166D01*
X136540000Y-78350000D01*
X136870000Y-78350000D01*
X136870000Y-77990000D01*
X136840167Y-77990000D01*
X136840149Y-77990001D01*
X136790645Y-77996518D01*
X136681975Y-78047192D01*
X136597192Y-78131975D01*
X136546518Y-78240645D01*
X136540001Y-78290149D01*
X136540000Y-78290166D01*
X135454805Y-78290166D01*
X135500460Y-78244511D01*
X135503376Y-78239460D01*
X135540021Y-78175989D01*
X135560500Y-78099562D01*
X135560500Y-77390438D01*
X135540021Y-77314011D01*
X135512264Y-77265934D01*
X135500464Y-77245495D01*
X135500458Y-77245487D01*
X135359167Y-77104196D01*
X135850001Y-77104196D01*
X135852851Y-77134606D01*
X135897653Y-77262645D01*
X135978207Y-77371792D01*
X136087354Y-77452346D01*
X136215397Y-77497149D01*
X136245792Y-77499999D01*
X136499999Y-77499999D01*
X136500000Y-77499998D01*
X136500000Y-76750000D01*
X135850001Y-76750000D01*
X135850001Y-77104196D01*
X135359167Y-77104196D01*
X135264512Y-77009541D01*
X135264507Y-77009537D01*
X135222322Y-76985182D01*
X135222317Y-76985179D01*
X135217745Y-76982540D01*
X135195989Y-76969979D01*
X135181791Y-76966174D01*
X135171849Y-76961512D01*
X135153574Y-76945350D01*
X135132745Y-76932654D01*
X135127869Y-76922617D01*
X135119511Y-76915225D01*
X135112874Y-76891749D01*
X135102216Y-76869807D01*
X135100499Y-76849255D01*
X135100499Y-76647868D01*
X135084515Y-76567505D01*
X135084513Y-76567502D01*
X135079841Y-76556222D01*
X135081285Y-76555623D01*
X135064563Y-76502211D01*
X135080517Y-76444056D01*
X135079842Y-76443777D01*
X135082070Y-76438396D01*
X135083049Y-76434831D01*
X135084452Y-76432647D01*
X135084516Y-76432493D01*
X135094088Y-76384365D01*
X135100500Y-76352133D01*
X135100499Y-76147868D01*
X135084515Y-76067505D01*
X135084513Y-76067502D01*
X135079841Y-76056222D01*
X135081285Y-76055623D01*
X135064563Y-76002211D01*
X135080517Y-75944056D01*
X135079842Y-75943777D01*
X135082070Y-75938396D01*
X135083049Y-75934831D01*
X135084452Y-75932647D01*
X135084516Y-75932493D01*
X135097081Y-75869323D01*
X135100500Y-75852133D01*
X135100499Y-75674500D01*
X135120183Y-75607461D01*
X135172987Y-75561706D01*
X135224499Y-75550500D01*
X135573167Y-75550500D01*
X135640206Y-75570185D01*
G37*
%TD.AperFunction*%
%TA.AperFunction,Conductor*%
G36*
X127755703Y-68851120D02*
G01*
X127762181Y-68857152D01*
X127913181Y-69008152D01*
X127946666Y-69069475D01*
X127949500Y-69095833D01*
X127949500Y-69310258D01*
X127929815Y-69377297D01*
X127904165Y-69406111D01*
X127900000Y-69409529D01*
X127900000Y-69636699D01*
X127898509Y-69641776D01*
X127899500Y-69641776D01*
X127899500Y-69647866D01*
X127899500Y-69647867D01*
X127899500Y-70299481D01*
X127899501Y-70337500D01*
X127899501Y-71033225D01*
X127898898Y-71033225D01*
X127900000Y-71038289D01*
X127900000Y-71265468D01*
X127932300Y-71259044D01*
X127943586Y-71254370D01*
X127944218Y-71255896D01*
X127997329Y-71239263D01*
X128056009Y-71255356D01*
X128056223Y-71254842D01*
X128060319Y-71256538D01*
X128064710Y-71257743D01*
X128067402Y-71259472D01*
X128067506Y-71259516D01*
X128120957Y-71270147D01*
X128147867Y-71275500D01*
X128352132Y-71275499D01*
X128432495Y-71259515D01*
X128432498Y-71259512D01*
X128443778Y-71254841D01*
X128444376Y-71256286D01*
X128497782Y-71239563D01*
X128555943Y-71255516D01*
X128556223Y-71254842D01*
X128561590Y-71257065D01*
X128565162Y-71258045D01*
X128567351Y-71259451D01*
X128567506Y-71259516D01*
X128620957Y-71270147D01*
X128647867Y-71275500D01*
X128852132Y-71275499D01*
X128932495Y-71259515D01*
X128932498Y-71259512D01*
X128943778Y-71254841D01*
X128944376Y-71256286D01*
X128997782Y-71239563D01*
X129055943Y-71255516D01*
X129056223Y-71254842D01*
X129061590Y-71257065D01*
X129065162Y-71258045D01*
X129067351Y-71259451D01*
X129067506Y-71259516D01*
X129120957Y-71270147D01*
X129147867Y-71275500D01*
X129352132Y-71275499D01*
X129432495Y-71259515D01*
X129432498Y-71259512D01*
X129443778Y-71254841D01*
X129444376Y-71256286D01*
X129497782Y-71239563D01*
X129555943Y-71255516D01*
X129556223Y-71254842D01*
X129561590Y-71257065D01*
X129565162Y-71258045D01*
X129567351Y-71259451D01*
X129567506Y-71259516D01*
X129620957Y-71270147D01*
X129647867Y-71275500D01*
X129852132Y-71275499D01*
X129932495Y-71259515D01*
X129932498Y-71259512D01*
X129943778Y-71254841D01*
X129944376Y-71256286D01*
X129997782Y-71239563D01*
X130055943Y-71255516D01*
X130056223Y-71254842D01*
X130061590Y-71257065D01*
X130065162Y-71258045D01*
X130067351Y-71259451D01*
X130067506Y-71259516D01*
X130120957Y-71270147D01*
X130147867Y-71275500D01*
X130352132Y-71275499D01*
X130432495Y-71259515D01*
X130432498Y-71259512D01*
X130443778Y-71254841D01*
X130444376Y-71256286D01*
X130497782Y-71239563D01*
X130555943Y-71255516D01*
X130556223Y-71254842D01*
X130561590Y-71257065D01*
X130565162Y-71258045D01*
X130567351Y-71259451D01*
X130567506Y-71259516D01*
X130620957Y-71270147D01*
X130647867Y-71275500D01*
X130852132Y-71275499D01*
X130932495Y-71259515D01*
X130932498Y-71259512D01*
X130943778Y-71254841D01*
X130944376Y-71256286D01*
X130997782Y-71239563D01*
X131055943Y-71255516D01*
X131056223Y-71254842D01*
X131061590Y-71257065D01*
X131065162Y-71258045D01*
X131067351Y-71259451D01*
X131067506Y-71259516D01*
X131120957Y-71270147D01*
X131147867Y-71275500D01*
X131352132Y-71275499D01*
X131432495Y-71259515D01*
X131432498Y-71259512D01*
X131443778Y-71254841D01*
X131444376Y-71256286D01*
X131497782Y-71239563D01*
X131555943Y-71255516D01*
X131556223Y-71254842D01*
X131561590Y-71257065D01*
X131565162Y-71258045D01*
X131567351Y-71259451D01*
X131567506Y-71259516D01*
X131620957Y-71270147D01*
X131647867Y-71275500D01*
X131852132Y-71275499D01*
X131932495Y-71259515D01*
X131932498Y-71259512D01*
X131943778Y-71254841D01*
X131944376Y-71256286D01*
X131997782Y-71239563D01*
X132055943Y-71255516D01*
X132056223Y-71254842D01*
X132061590Y-71257065D01*
X132065162Y-71258045D01*
X132067351Y-71259451D01*
X132067506Y-71259516D01*
X132120957Y-71270147D01*
X132147867Y-71275500D01*
X132255902Y-71275499D01*
X132322941Y-71295183D01*
X132368696Y-71347987D01*
X132378640Y-71417145D01*
X132349616Y-71480701D01*
X132343584Y-71487180D01*
X132269478Y-71561286D01*
X132269475Y-71561290D01*
X132190426Y-71698209D01*
X132190423Y-71698216D01*
X132149500Y-71850943D01*
X132149500Y-72009057D01*
X132181809Y-72129634D01*
X132190423Y-72161783D01*
X132190426Y-72161790D01*
X132249148Y-72263501D01*
X132265621Y-72331401D01*
X132242768Y-72397428D01*
X132187847Y-72440618D01*
X132141761Y-72449500D01*
X127934469Y-72449500D01*
X127867430Y-72429815D01*
X127846788Y-72413181D01*
X127635819Y-72202212D01*
X127602334Y-72140889D01*
X127599500Y-72114531D01*
X127599500Y-71759437D01*
X127595762Y-71745488D01*
X127595761Y-71745484D01*
X127579023Y-71683014D01*
X127579022Y-71683013D01*
X127579022Y-71683012D01*
X127539460Y-71614489D01*
X127388350Y-71463379D01*
X127374882Y-71438714D01*
X127358678Y-71415751D01*
X127358362Y-71408460D01*
X127354865Y-71402056D01*
X127356869Y-71374023D01*
X127355653Y-71345947D01*
X127359328Y-71339643D01*
X127359849Y-71332364D01*
X127376691Y-71309865D01*
X127390847Y-71285589D01*
X127398651Y-71280531D01*
X127401721Y-71276431D01*
X127419684Y-71265240D01*
X127429892Y-71260032D01*
X127432495Y-71259515D01*
X127437619Y-71256090D01*
X127444102Y-71252784D01*
X127471558Y-71247614D01*
X127498223Y-71239262D01*
X127505425Y-71241237D01*
X127512766Y-71239855D01*
X127538662Y-71250351D01*
X127556101Y-71255133D01*
X127556417Y-71254371D01*
X127562484Y-71256884D01*
X127565605Y-71257740D01*
X127567519Y-71258969D01*
X127567699Y-71259044D01*
X127600000Y-71265468D01*
X127600000Y-71038300D01*
X127600499Y-71028132D01*
X127600499Y-71027138D01*
X127600500Y-71027133D01*
X127600499Y-69647868D01*
X127600499Y-69647867D01*
X127600499Y-69646868D01*
X127600000Y-69636710D01*
X127600000Y-69409529D01*
X127595835Y-69406111D01*
X127556501Y-69348365D01*
X127550500Y-69310258D01*
X127550500Y-68944833D01*
X127570185Y-68877794D01*
X127622989Y-68832039D01*
X127692147Y-68822095D01*
X127755703Y-68851120D01*
G37*
%TD.AperFunction*%
%TA.AperFunction,Conductor*%
G36*
X127041206Y-64570185D02*
G01*
X127061848Y-64586819D01*
X127609540Y-65134511D01*
X127665489Y-65190460D01*
X127665491Y-65190461D01*
X127665495Y-65190464D01*
X127700175Y-65210486D01*
X127734011Y-65230021D01*
X127810438Y-65250500D01*
X127889562Y-65250500D01*
X129224167Y-65250500D01*
X129291206Y-65270185D01*
X129311848Y-65286819D01*
X130372599Y-66347570D01*
X130406084Y-66408893D01*
X130401100Y-66478585D01*
X130372599Y-66522932D01*
X130285936Y-66609594D01*
X130285935Y-66609595D01*
X130285935Y-66609596D01*
X130280055Y-66622206D01*
X130245120Y-66697123D01*
X130198947Y-66749562D01*
X130131753Y-66768713D01*
X130064872Y-66748497D01*
X130032967Y-66718350D01*
X130021791Y-66703207D01*
X129912645Y-66622653D01*
X129784602Y-66577850D01*
X129754207Y-66575000D01*
X129600000Y-66575000D01*
X129600000Y-67350000D01*
X130149999Y-67350000D01*
X130170084Y-67329915D01*
X130177819Y-67325691D01*
X130183075Y-67318614D01*
X130208014Y-67309203D01*
X130231407Y-67296430D01*
X130240199Y-67297058D01*
X130248446Y-67293947D01*
X130274511Y-67299512D01*
X130301099Y-67301414D01*
X130309952Y-67307080D01*
X130316775Y-67308537D01*
X130344310Y-67329068D01*
X130345110Y-67329580D01*
X130345241Y-67329710D01*
X130369596Y-67354065D01*
X130369949Y-67354229D01*
X130377763Y-67361984D01*
X130389719Y-67383683D01*
X130405183Y-67403042D01*
X130406287Y-67413751D01*
X130411482Y-67423178D01*
X130409809Y-67447894D01*
X130412352Y-67472542D01*
X130407491Y-67482147D01*
X130406765Y-67492889D01*
X130391992Y-67512780D01*
X130380808Y-67534886D01*
X130377100Y-67538098D01*
X130377267Y-67538265D01*
X130369597Y-67545934D01*
X130369596Y-67545935D01*
X130319596Y-67595935D01*
X130295446Y-67620085D01*
X130234122Y-67653569D01*
X130184217Y-67650000D01*
X129600000Y-67650000D01*
X129600000Y-68424999D01*
X129754196Y-68424999D01*
X129784606Y-68422148D01*
X129912645Y-68377346D01*
X130021791Y-68296792D01*
X130061543Y-68242930D01*
X130117190Y-68200679D01*
X130186846Y-68195220D01*
X130248396Y-68228287D01*
X130253100Y-68233188D01*
X130265746Y-68247110D01*
X130285935Y-68290404D01*
X130369596Y-68374065D01*
X130389495Y-68383344D01*
X130406268Y-68401809D01*
X130411071Y-68411708D01*
X130419330Y-68418980D01*
X130426056Y-68442586D01*
X130436773Y-68464668D01*
X130435462Y-68475592D01*
X130438478Y-68486175D01*
X130431374Y-68509670D01*
X130428451Y-68534041D01*
X130421442Y-68542522D01*
X130418258Y-68553055D01*
X130402163Y-68572865D01*
X130065489Y-68909540D01*
X130009541Y-68965487D01*
X130009535Y-68965495D01*
X129969982Y-69034004D01*
X129969979Y-69034009D01*
X129962715Y-69061120D01*
X129953414Y-69095833D01*
X129949500Y-69110439D01*
X129949500Y-69275500D01*
X129946949Y-69284185D01*
X129948238Y-69293147D01*
X129937259Y-69317187D01*
X129929815Y-69342539D01*
X129922974Y-69348466D01*
X129919213Y-69356703D01*
X129896978Y-69370992D01*
X129877011Y-69388294D01*
X129866496Y-69390581D01*
X129860435Y-69394477D01*
X129825500Y-69399500D01*
X129674500Y-69399500D01*
X129607461Y-69379815D01*
X129561706Y-69327011D01*
X129550500Y-69275500D01*
X129550500Y-68840439D01*
X129550500Y-68840438D01*
X129530021Y-68764011D01*
X129515328Y-68738562D01*
X129490464Y-68695495D01*
X129490458Y-68695487D01*
X129336319Y-68541348D01*
X129302834Y-68480025D01*
X129300000Y-68453667D01*
X129300000Y-66575000D01*
X129145804Y-66575000D01*
X129115393Y-66577851D01*
X128987354Y-66622653D01*
X128878206Y-66703208D01*
X128855532Y-66733931D01*
X128799884Y-66776181D01*
X128730228Y-66781638D01*
X128668679Y-66748570D01*
X128635989Y-66692391D01*
X128631022Y-66673852D01*
X128591460Y-66605329D01*
X126845671Y-64859540D01*
X126845669Y-64859539D01*
X126845664Y-64859535D01*
X126777155Y-64819982D01*
X126777150Y-64819979D01*
X126751673Y-64813152D01*
X126700722Y-64799500D01*
X126700720Y-64799500D01*
X126551496Y-64799500D01*
X126539963Y-64796113D01*
X126527997Y-64797253D01*
X126507058Y-64786451D01*
X126484457Y-64779815D01*
X126475036Y-64769932D01*
X126465903Y-64765221D01*
X126444093Y-64737472D01*
X126443516Y-64736472D01*
X126427061Y-64668567D01*
X126449930Y-64602546D01*
X126504863Y-64559370D01*
X126550919Y-64550500D01*
X126974167Y-64550500D01*
X127041206Y-64570185D01*
G37*
%TD.AperFunction*%
%TA.AperFunction,Conductor*%
G36*
X124498611Y-63562588D02*
G01*
X124515940Y-63560411D01*
X124532351Y-63568261D01*
X124550290Y-63571278D01*
X124563213Y-63583024D01*
X124578969Y-63590562D01*
X124588529Y-63606037D01*
X124601992Y-63618274D01*
X124615328Y-63649412D01*
X124615692Y-63650002D01*
X124615887Y-63650718D01*
X124619979Y-63665989D01*
X124647993Y-63714511D01*
X124659540Y-63734511D01*
X125359540Y-64434511D01*
X125415489Y-64490460D01*
X125415490Y-64490461D01*
X125415492Y-64490462D01*
X125468784Y-64521230D01*
X125516999Y-64571797D01*
X125530223Y-64640404D01*
X125504255Y-64705268D01*
X125494467Y-64716296D01*
X125479482Y-64731281D01*
X125479475Y-64731290D01*
X125400426Y-64868209D01*
X125400424Y-64868213D01*
X125400423Y-64868216D01*
X125359500Y-65020943D01*
X125359500Y-65179057D01*
X125386283Y-65279010D01*
X125400423Y-65331783D01*
X125400426Y-65331790D01*
X125479475Y-65468709D01*
X125479479Y-65468714D01*
X125479480Y-65468716D01*
X125591284Y-65580520D01*
X125591286Y-65580521D01*
X125591290Y-65580524D01*
X125728209Y-65659573D01*
X125728216Y-65659577D01*
X125880943Y-65700500D01*
X125880945Y-65700500D01*
X126039055Y-65700500D01*
X126039057Y-65700500D01*
X126191784Y-65659577D01*
X126328716Y-65580520D01*
X126435034Y-65474201D01*
X126496353Y-65440719D01*
X126566045Y-65445703D01*
X126610393Y-65474204D01*
X127499008Y-66362819D01*
X127532493Y-66424142D01*
X127527509Y-66493834D01*
X127485637Y-66549767D01*
X127420173Y-66574184D01*
X127411327Y-66574500D01*
X127245730Y-66574500D01*
X127215300Y-66577353D01*
X127215298Y-66577353D01*
X127087119Y-66622206D01*
X127087117Y-66622207D01*
X126977850Y-66702850D01*
X126939209Y-66755207D01*
X126883561Y-66797458D01*
X126813905Y-66802916D01*
X126752356Y-66769848D01*
X126727057Y-66733978D01*
X126702807Y-66681975D01*
X126618024Y-66597192D01*
X126509353Y-66546518D01*
X126509354Y-66546518D01*
X126459850Y-66540001D01*
X126459833Y-66540000D01*
X126400000Y-66540000D01*
X126400000Y-66896000D01*
X126397449Y-66904685D01*
X126398738Y-66913647D01*
X126387759Y-66937687D01*
X126380315Y-66963039D01*
X126373474Y-66968966D01*
X126369713Y-66977203D01*
X126347478Y-66991492D01*
X126327511Y-67008794D01*
X126316996Y-67011081D01*
X126310935Y-67014977D01*
X126276000Y-67020000D01*
X126224000Y-67020000D01*
X126156961Y-67000315D01*
X126111206Y-66947511D01*
X126100000Y-66896000D01*
X126100000Y-66540000D01*
X126040167Y-66540000D01*
X126040149Y-66540001D01*
X125990645Y-66546518D01*
X125881975Y-66597192D01*
X125854498Y-66624669D01*
X125846552Y-66629007D01*
X125841128Y-66636254D01*
X125816369Y-66645488D01*
X125793174Y-66658154D01*
X125784144Y-66657507D01*
X125775664Y-66660671D01*
X125749842Y-66655053D01*
X125723483Y-66653168D01*
X125714430Y-66647350D01*
X125707391Y-66645819D01*
X125679137Y-66624668D01*
X125624790Y-66570321D01*
X125592697Y-66514734D01*
X125576614Y-66454712D01*
X125576611Y-66454706D01*
X125530473Y-66374794D01*
X125530470Y-66374791D01*
X125530469Y-66374788D01*
X125465212Y-66309531D01*
X124625212Y-65469530D01*
X124625211Y-65469529D01*
X124625208Y-65469527D01*
X124545290Y-65423387D01*
X124545289Y-65423386D01*
X124545288Y-65423386D01*
X124456144Y-65399500D01*
X124456143Y-65399500D01*
X122524500Y-65399500D01*
X122457461Y-65379815D01*
X122411706Y-65327011D01*
X122400500Y-65275500D01*
X122400500Y-64686544D01*
X122420185Y-64619505D01*
X122436819Y-64598863D01*
X122536540Y-64499142D01*
X122640470Y-64395212D01*
X122686614Y-64315288D01*
X122695804Y-64280989D01*
X122710500Y-64226144D01*
X122710500Y-63759428D01*
X122730185Y-63692389D01*
X122782989Y-63646634D01*
X122852147Y-63636690D01*
X122915703Y-63665715D01*
X122922181Y-63671747D01*
X123008151Y-63757717D01*
X123008155Y-63757720D01*
X123167927Y-63864477D01*
X123167928Y-63864477D01*
X123167929Y-63864478D01*
X123167931Y-63864479D01*
X123345452Y-63938010D01*
X123345457Y-63938012D01*
X123506166Y-63969979D01*
X123533917Y-63975499D01*
X123533920Y-63975500D01*
X123533922Y-63975500D01*
X123726080Y-63975500D01*
X123726081Y-63975499D01*
X123914543Y-63938012D01*
X124092073Y-63864477D01*
X124251845Y-63757720D01*
X124387720Y-63621845D01*
X124393009Y-63613929D01*
X124406964Y-63602264D01*
X124417160Y-63587200D01*
X124433215Y-63580324D01*
X124446615Y-63569124D01*
X124464663Y-63566855D01*
X124481388Y-63559693D01*
X124498611Y-63562588D01*
G37*
%TD.AperFunction*%
%TD*%
M02*
