%TF.GenerationSoftware,KiCad,Pcbnew,8.0.7+1*%
%TF.CreationDate,2025-02-11T11:57:01+01:00*%
%TF.ProjectId,ts13_dev_kit,74733133-5f64-4657-965f-6b69742e6b69,rev?*%
%TF.SameCoordinates,Original*%
%TF.FileFunction,Soldermask,Top*%
%TF.FilePolarity,Negative*%
%FSLAX46Y46*%
G04 Gerber Fmt 4.6, Leading zero omitted, Abs format (unit mm)*
G04 Created by KiCad (PCBNEW 8.0.7+1) date 2025-02-11 11:57:01*
%MOMM*%
%LPD*%
G01*
G04 APERTURE LIST*
G04 Aperture macros list*
%AMRoundRect*
0 Rectangle with rounded corners*
0 $1 Rounding radius*
0 $2 $3 $4 $5 $6 $7 $8 $9 X,Y pos of 4 corners*
0 Add a 4 corners polygon primitive as box body*
4,1,4,$2,$3,$4,$5,$6,$7,$8,$9,$2,$3,0*
0 Add four circle primitives for the rounded corners*
1,1,$1+$1,$2,$3*
1,1,$1+$1,$4,$5*
1,1,$1+$1,$6,$7*
1,1,$1+$1,$8,$9*
0 Add four rect primitives between the rounded corners*
20,1,$1+$1,$2,$3,$4,$5,0*
20,1,$1+$1,$4,$5,$6,$7,0*
20,1,$1+$1,$6,$7,$8,$9,0*
20,1,$1+$1,$8,$9,$2,$3,0*%
%AMFreePoly0*
4,1,19,0.500000,-0.750000,0.000000,-0.750000,0.000000,-0.744911,-0.071157,-0.744911,-0.207708,-0.704816,-0.327430,-0.627875,-0.420627,-0.520320,-0.479746,-0.390866,-0.500000,-0.250000,-0.500000,0.250000,-0.479746,0.390866,-0.420627,0.520320,-0.327430,0.627875,-0.207708,0.704816,-0.071157,0.744911,0.000000,0.744911,0.000000,0.750000,0.500000,0.750000,0.500000,-0.750000,0.500000,-0.750000,
$1*%
%AMFreePoly1*
4,1,19,0.000000,0.744911,0.071157,0.744911,0.207708,0.704816,0.327430,0.627875,0.420627,0.520320,0.479746,0.390866,0.500000,0.250000,0.500000,-0.250000,0.479746,-0.390866,0.420627,-0.520320,0.327430,-0.627875,0.207708,-0.704816,0.071157,-0.744911,0.000000,-0.744911,0.000000,-0.750000,-0.500000,-0.750000,-0.500000,0.750000,0.000000,0.750000,0.000000,0.744911,0.000000,0.744911,
$1*%
%AMFreePoly2*
4,1,14,0.314644,0.085355,0.385355,0.014644,0.400000,-0.020711,0.400000,-0.050000,0.385355,-0.085355,0.350000,-0.100000,-0.350000,-0.100000,-0.385355,-0.085355,-0.400000,-0.050000,-0.400000,0.050000,-0.385355,0.085355,-0.350000,0.100000,0.279289,0.100000,0.314644,0.085355,0.314644,0.085355,$1*%
%AMFreePoly3*
4,1,14,0.385355,0.085355,0.400000,0.050000,0.400000,0.020711,0.385355,-0.014644,0.314644,-0.085355,0.279289,-0.100000,-0.350000,-0.100000,-0.385355,-0.085355,-0.400000,-0.050000,-0.400000,0.050000,-0.385355,0.085355,-0.350000,0.100000,0.350000,0.100000,0.385355,0.085355,0.385355,0.085355,$1*%
%AMFreePoly4*
4,1,14,0.085355,0.385355,0.100000,0.350000,0.100000,-0.350000,0.085355,-0.385355,0.050000,-0.400000,-0.050000,-0.400000,-0.085355,-0.385355,-0.100000,-0.350000,-0.100000,0.279289,-0.085355,0.314644,-0.014644,0.385355,0.020711,0.400000,0.050000,0.400000,0.085355,0.385355,0.085355,0.385355,$1*%
%AMFreePoly5*
4,1,14,0.014644,0.385355,0.085355,0.314644,0.100000,0.279289,0.100000,-0.350000,0.085355,-0.385355,0.050000,-0.400000,-0.050000,-0.400000,-0.085355,-0.385355,-0.100000,-0.350000,-0.100000,0.350000,-0.085355,0.385355,-0.050000,0.400000,-0.020711,0.400000,0.014644,0.385355,0.014644,0.385355,$1*%
%AMFreePoly6*
4,1,14,0.385355,0.085355,0.400000,0.050000,0.400000,-0.050000,0.385355,-0.085355,0.350000,-0.100000,-0.279289,-0.100000,-0.314644,-0.085355,-0.385355,-0.014644,-0.400000,0.020711,-0.400000,0.050000,-0.385355,0.085355,-0.350000,0.100000,0.350000,0.100000,0.385355,0.085355,0.385355,0.085355,$1*%
%AMFreePoly7*
4,1,14,0.385355,0.085355,0.400000,0.050000,0.400000,-0.050000,0.385355,-0.085355,0.350000,-0.100000,-0.350000,-0.100000,-0.385355,-0.085355,-0.400000,-0.050000,-0.400000,-0.020711,-0.385355,0.014644,-0.314644,0.085355,-0.279289,0.100000,0.350000,0.100000,0.385355,0.085355,0.385355,0.085355,$1*%
%AMFreePoly8*
4,1,14,0.085355,0.385355,0.100000,0.350000,0.100000,-0.279289,0.085355,-0.314644,0.014644,-0.385355,-0.020711,-0.400000,-0.050000,-0.400000,-0.085355,-0.385355,-0.100000,-0.350000,-0.100000,0.350000,-0.085355,0.385355,-0.050000,0.400000,0.050000,0.400000,0.085355,0.385355,0.085355,0.385355,$1*%
%AMFreePoly9*
4,1,14,0.085355,0.385355,0.100000,0.350000,0.100000,-0.350000,0.085355,-0.385355,0.050000,-0.400000,0.020711,-0.400000,-0.014644,-0.385355,-0.085355,-0.314644,-0.100000,-0.279289,-0.100000,0.350000,-0.085355,0.385355,-0.050000,0.400000,0.050000,0.400000,0.085355,0.385355,0.085355,0.385355,$1*%
G04 Aperture macros list end*
%ADD10C,0.150000*%
%ADD11C,0.000000*%
%ADD12FreePoly0,90.000000*%
%ADD13FreePoly1,90.000000*%
%ADD14RoundRect,0.250000X-0.262500X-0.450000X0.262500X-0.450000X0.262500X0.450000X-0.262500X0.450000X0*%
%ADD15RoundRect,0.225000X-0.225000X-0.250000X0.225000X-0.250000X0.225000X0.250000X-0.225000X0.250000X0*%
%ADD16RoundRect,0.075000X0.662500X0.075000X-0.662500X0.075000X-0.662500X-0.075000X0.662500X-0.075000X0*%
%ADD17RoundRect,0.075000X0.075000X0.662500X-0.075000X0.662500X-0.075000X-0.662500X0.075000X-0.662500X0*%
%ADD18RoundRect,0.250000X0.450000X-0.262500X0.450000X0.262500X-0.450000X0.262500X-0.450000X-0.262500X0*%
%ADD19C,1.600000*%
%ADD20C,1.450000*%
%ADD21RoundRect,0.250000X0.250000X0.475000X-0.250000X0.475000X-0.250000X-0.475000X0.250000X-0.475000X0*%
%ADD22FreePoly2,0.000000*%
%ADD23RoundRect,0.050000X-0.350000X-0.050000X0.350000X-0.050000X0.350000X0.050000X-0.350000X0.050000X0*%
%ADD24FreePoly3,0.000000*%
%ADD25FreePoly4,0.000000*%
%ADD26RoundRect,0.050000X-0.050000X-0.350000X0.050000X-0.350000X0.050000X0.350000X-0.050000X0.350000X0*%
%ADD27FreePoly5,0.000000*%
%ADD28FreePoly6,0.000000*%
%ADD29FreePoly7,0.000000*%
%ADD30FreePoly8,0.000000*%
%ADD31FreePoly9,0.000000*%
%ADD32R,2.650000X2.650000*%
%ADD33R,1.400000X1.800000*%
%ADD34RoundRect,0.250000X0.262500X0.450000X-0.262500X0.450000X-0.262500X-0.450000X0.262500X-0.450000X0*%
%ADD35RoundRect,0.250000X0.475000X-0.250000X0.475000X0.250000X-0.475000X0.250000X-0.475000X-0.250000X0*%
%ADD36RoundRect,0.243750X0.456250X-0.243750X0.456250X0.243750X-0.456250X0.243750X-0.456250X-0.243750X0*%
%ADD37RoundRect,0.225000X0.225000X0.250000X-0.225000X0.250000X-0.225000X-0.250000X0.225000X-0.250000X0*%
%ADD38C,2.200000*%
%ADD39RoundRect,0.225000X0.250000X-0.225000X0.250000X0.225000X-0.250000X0.225000X-0.250000X-0.225000X0*%
%ADD40RoundRect,0.250000X-0.350000X-0.450000X0.350000X-0.450000X0.350000X0.450000X-0.350000X0.450000X0*%
%ADD41RoundRect,0.150000X0.150000X-0.512500X0.150000X0.512500X-0.150000X0.512500X-0.150000X-0.512500X0*%
%ADD42RoundRect,0.250000X-0.250000X-0.475000X0.250000X-0.475000X0.250000X0.475000X-0.250000X0.475000X0*%
%ADD43RoundRect,0.375000X-0.375000X0.625000X-0.375000X-0.625000X0.375000X-0.625000X0.375000X0.625000X0*%
%ADD44RoundRect,0.500000X-1.400000X0.500000X-1.400000X-0.500000X1.400000X-0.500000X1.400000X0.500000X0*%
%ADD45RoundRect,0.250000X-0.475000X0.250000X-0.475000X-0.250000X0.475000X-0.250000X0.475000X0.250000X0*%
%ADD46R,0.300000X0.800000*%
%ADD47O,1.000000X1.800000*%
%ADD48RoundRect,0.175000X-0.175000X-0.325000X0.175000X-0.325000X0.175000X0.325000X-0.175000X0.325000X0*%
%ADD49RoundRect,0.150000X-0.200000X-0.150000X0.200000X-0.150000X0.200000X0.150000X-0.200000X0.150000X0*%
%ADD50C,1.000000*%
G04 APERTURE END LIST*
D10*
X120609819Y-101706077D02*
X120609819Y-101134649D01*
X121609819Y-101420363D02*
X120609819Y-101420363D01*
X121562200Y-100848934D02*
X121609819Y-100706077D01*
X121609819Y-100706077D02*
X121609819Y-100467982D01*
X121609819Y-100467982D02*
X121562200Y-100372744D01*
X121562200Y-100372744D02*
X121514580Y-100325125D01*
X121514580Y-100325125D02*
X121419342Y-100277506D01*
X121419342Y-100277506D02*
X121324104Y-100277506D01*
X121324104Y-100277506D02*
X121228866Y-100325125D01*
X121228866Y-100325125D02*
X121181247Y-100372744D01*
X121181247Y-100372744D02*
X121133628Y-100467982D01*
X121133628Y-100467982D02*
X121086009Y-100658458D01*
X121086009Y-100658458D02*
X121038390Y-100753696D01*
X121038390Y-100753696D02*
X120990771Y-100801315D01*
X120990771Y-100801315D02*
X120895533Y-100848934D01*
X120895533Y-100848934D02*
X120800295Y-100848934D01*
X120800295Y-100848934D02*
X120705057Y-100801315D01*
X120705057Y-100801315D02*
X120657438Y-100753696D01*
X120657438Y-100753696D02*
X120609819Y-100658458D01*
X120609819Y-100658458D02*
X120609819Y-100420363D01*
X120609819Y-100420363D02*
X120657438Y-100277506D01*
X121609819Y-99325125D02*
X121609819Y-99896553D01*
X121609819Y-99610839D02*
X120609819Y-99610839D01*
X120609819Y-99610839D02*
X120752676Y-99706077D01*
X120752676Y-99706077D02*
X120847914Y-99801315D01*
X120847914Y-99801315D02*
X120895533Y-99896553D01*
X120609819Y-98991791D02*
X120609819Y-98372744D01*
X120609819Y-98372744D02*
X120990771Y-98706077D01*
X120990771Y-98706077D02*
X120990771Y-98563220D01*
X120990771Y-98563220D02*
X121038390Y-98467982D01*
X121038390Y-98467982D02*
X121086009Y-98420363D01*
X121086009Y-98420363D02*
X121181247Y-98372744D01*
X121181247Y-98372744D02*
X121419342Y-98372744D01*
X121419342Y-98372744D02*
X121514580Y-98420363D01*
X121514580Y-98420363D02*
X121562200Y-98467982D01*
X121562200Y-98467982D02*
X121609819Y-98563220D01*
X121609819Y-98563220D02*
X121609819Y-98848934D01*
X121609819Y-98848934D02*
X121562200Y-98944172D01*
X121562200Y-98944172D02*
X121514580Y-98991791D01*
X120609819Y-97753696D02*
X120609819Y-97658458D01*
X120609819Y-97658458D02*
X120657438Y-97563220D01*
X120657438Y-97563220D02*
X120705057Y-97515601D01*
X120705057Y-97515601D02*
X120800295Y-97467982D01*
X120800295Y-97467982D02*
X120990771Y-97420363D01*
X120990771Y-97420363D02*
X121228866Y-97420363D01*
X121228866Y-97420363D02*
X121419342Y-97467982D01*
X121419342Y-97467982D02*
X121514580Y-97515601D01*
X121514580Y-97515601D02*
X121562200Y-97563220D01*
X121562200Y-97563220D02*
X121609819Y-97658458D01*
X121609819Y-97658458D02*
X121609819Y-97753696D01*
X121609819Y-97753696D02*
X121562200Y-97848934D01*
X121562200Y-97848934D02*
X121514580Y-97896553D01*
X121514580Y-97896553D02*
X121419342Y-97944172D01*
X121419342Y-97944172D02*
X121228866Y-97991791D01*
X121228866Y-97991791D02*
X120990771Y-97991791D01*
X120990771Y-97991791D02*
X120800295Y-97944172D01*
X120800295Y-97944172D02*
X120705057Y-97896553D01*
X120705057Y-97896553D02*
X120657438Y-97848934D01*
X120657438Y-97848934D02*
X120609819Y-97753696D01*
X121609819Y-96467982D02*
X121609819Y-97039410D01*
X121609819Y-96753696D02*
X120609819Y-96753696D01*
X120609819Y-96753696D02*
X120752676Y-96848934D01*
X120752676Y-96848934D02*
X120847914Y-96944172D01*
X120847914Y-96944172D02*
X120895533Y-97039410D01*
D11*
%TO.C,JP5*%
G36*
X135450000Y-68850000D02*
G01*
X134750000Y-68850000D01*
X134750000Y-68650000D01*
X135450000Y-68650000D01*
X135450000Y-68850000D01*
G37*
%TO.C,JP4*%
G36*
X132950000Y-68850000D02*
G01*
X132250000Y-68850000D01*
X132250000Y-68650000D01*
X132950000Y-68650000D01*
X132950000Y-68850000D01*
G37*
%TO.C,JP6*%
G36*
X137950000Y-68850000D02*
G01*
X137250000Y-68850000D01*
X137250000Y-68650000D01*
X137950000Y-68650000D01*
X137950000Y-68850000D01*
G37*
%TO.C,JP1*%
G36*
X125250000Y-68850000D02*
G01*
X124550000Y-68850000D01*
X124550000Y-68650000D01*
X125250000Y-68650000D01*
X125250000Y-68850000D01*
G37*
%TO.C,JP2*%
G36*
X127750000Y-68850000D02*
G01*
X127050000Y-68850000D01*
X127050000Y-68650000D01*
X127750000Y-68650000D01*
X127750000Y-68850000D01*
G37*
%TO.C,JP7*%
G36*
X122700000Y-68850000D02*
G01*
X122000000Y-68850000D01*
X122000000Y-68650000D01*
X122700000Y-68650000D01*
X122700000Y-68850000D01*
G37*
%TO.C,JP3*%
G36*
X130350000Y-68850000D02*
G01*
X129650000Y-68850000D01*
X129650000Y-68650000D01*
X130350000Y-68650000D01*
X130350000Y-68850000D01*
G37*
%TD*%
D12*
%TO.C,JP5*%
X135100000Y-69350000D03*
D13*
X135100000Y-68150000D03*
%TD*%
D14*
%TO.C,R7*%
X122837500Y-92000000D03*
X124662500Y-92000000D03*
%TD*%
D15*
%TO.C,C2*%
X133725000Y-58500000D03*
X135275000Y-58500000D03*
%TD*%
D12*
%TO.C,JP4*%
X132600000Y-69350000D03*
D13*
X132600000Y-68150000D03*
%TD*%
D12*
%TO.C,JP6*%
X137600000Y-69350000D03*
D13*
X137600000Y-68150000D03*
%TD*%
D16*
%TO.C,IC3*%
X132912500Y-86000000D03*
X132912500Y-85500000D03*
X132912500Y-85000000D03*
X132912500Y-84500000D03*
X132912500Y-84000000D03*
X132912500Y-83500000D03*
X132912500Y-83000000D03*
X132912500Y-82500000D03*
X132912500Y-82000000D03*
X132912500Y-81500000D03*
X132912500Y-81000000D03*
X132912500Y-80500000D03*
D17*
X131500000Y-79087500D03*
X131000000Y-79087500D03*
X130500000Y-79087500D03*
X130000000Y-79087500D03*
X129500000Y-79087500D03*
X129000000Y-79087500D03*
X128500000Y-79087500D03*
X128000000Y-79087500D03*
X127500000Y-79087500D03*
X127000000Y-79087500D03*
X126500000Y-79087500D03*
X126000000Y-79087500D03*
D16*
X124587500Y-80500000D03*
X124587500Y-81000000D03*
X124587500Y-81500000D03*
X124587500Y-82000000D03*
X124587500Y-82500000D03*
X124587500Y-83000000D03*
X124587500Y-83500000D03*
X124587500Y-84000000D03*
X124587500Y-84500000D03*
X124587500Y-85000000D03*
X124587500Y-85500000D03*
X124587500Y-86000000D03*
D17*
X126000000Y-87412500D03*
X126500000Y-87412500D03*
X127000000Y-87412500D03*
X127500000Y-87412500D03*
X128000000Y-87412500D03*
X128500000Y-87412500D03*
X129000000Y-87412500D03*
X129500000Y-87412500D03*
X130000000Y-87412500D03*
X130500000Y-87412500D03*
X131000000Y-87412500D03*
X131500000Y-87412500D03*
%TD*%
D18*
%TO.C,R11*%
X121750000Y-84952500D03*
X121750000Y-83127500D03*
%TD*%
D19*
%TO.C,PAD3*%
X124900000Y-61250000D03*
%TD*%
D18*
%TO.C,R8*%
X124250000Y-101412500D03*
X124250000Y-99587500D03*
%TD*%
D20*
%TO.C,H4*%
X136330000Y-63000000D03*
%TD*%
%TO.C,H1*%
X121090000Y-63000000D03*
%TD*%
D18*
%TO.C,R1*%
X134850000Y-76162500D03*
X134850000Y-74337500D03*
%TD*%
D19*
%TO.C,PAD4*%
X135060000Y-61250000D03*
%TD*%
%TO.C,PAD6*%
X129980000Y-61250000D03*
%TD*%
D21*
%TO.C,C9*%
X128700000Y-92000000D03*
X126800000Y-92000000D03*
%TD*%
D22*
%TO.C,IC1*%
X132550000Y-53600000D03*
D23*
X132550000Y-54000000D03*
X132550000Y-54400000D03*
X132550000Y-54800000D03*
X132550000Y-55200000D03*
X132550000Y-55600000D03*
X132550000Y-56000000D03*
D24*
X132550000Y-56400000D03*
D25*
X133100000Y-56950000D03*
D26*
X133500000Y-56950000D03*
X133900000Y-56950000D03*
X134300000Y-56950000D03*
X134700000Y-56950000D03*
X135100000Y-56950000D03*
X135500000Y-56950000D03*
D27*
X135900000Y-56950000D03*
D28*
X136450000Y-56400000D03*
D23*
X136450000Y-56000000D03*
X136450000Y-55600000D03*
X136450000Y-55200000D03*
X136450000Y-54800000D03*
X136450000Y-54400000D03*
X136450000Y-54000000D03*
D29*
X136450000Y-53600000D03*
D30*
X135900000Y-53050000D03*
D26*
X135500000Y-53050000D03*
X135100000Y-53050000D03*
X134700000Y-53050000D03*
X134300000Y-53050000D03*
X133900000Y-53050000D03*
X133500000Y-53050000D03*
D31*
X133100000Y-53050000D03*
D32*
X134500000Y-55000000D03*
%TD*%
D33*
%TO.C,X1*%
X137950000Y-85450000D03*
X137950000Y-81050000D03*
X135550000Y-81050000D03*
X135550000Y-85450000D03*
%TD*%
D34*
%TO.C,R5*%
X134412500Y-71500000D03*
X132587500Y-71500000D03*
%TD*%
D35*
%TO.C,C5*%
X127000000Y-97450000D03*
X127000000Y-95550000D03*
%TD*%
D36*
%TO.C,D1*%
X121750000Y-88727500D03*
X121750000Y-86852500D03*
%TD*%
D34*
%TO.C,R6*%
X137912500Y-71500000D03*
X136087500Y-71500000D03*
%TD*%
%TO.C,R3*%
X127412500Y-71500000D03*
X125587500Y-71500000D03*
%TD*%
D37*
%TO.C,C1*%
X134275000Y-51500000D03*
X132725000Y-51500000D03*
%TD*%
D19*
%TO.C,PAD2*%
X137600000Y-61250000D03*
%TD*%
D12*
%TO.C,JP1*%
X124900000Y-69350000D03*
D13*
X124900000Y-68150000D03*
%TD*%
D38*
%TO.C,H11*%
X140000000Y-95000000D03*
%TD*%
D34*
%TO.C,R2*%
X123912500Y-71500000D03*
X122087500Y-71500000D03*
%TD*%
%TO.C,R4*%
X130912500Y-71500000D03*
X129087500Y-71500000D03*
%TD*%
D39*
%TO.C,C3*%
X138000000Y-54775000D03*
X138000000Y-53225000D03*
%TD*%
D21*
%TO.C,C11*%
X137700000Y-88000000D03*
X135800000Y-88000000D03*
%TD*%
D12*
%TO.C,JP2*%
X127400000Y-69350000D03*
D13*
X127400000Y-68150000D03*
%TD*%
D18*
%TO.C,R9*%
X126750000Y-101412500D03*
X126750000Y-99587500D03*
%TD*%
D20*
%TO.C,H6*%
X133790000Y-63000000D03*
%TD*%
D18*
%TO.C,R10*%
X127300000Y-76162500D03*
X127300000Y-74337500D03*
%TD*%
D40*
%TO.C,F1*%
X131250000Y-104250000D03*
X133250000Y-104250000D03*
%TD*%
D35*
%TO.C,C4*%
X129250000Y-97450000D03*
X129250000Y-95550000D03*
%TD*%
D20*
%TO.C,H3*%
X126170000Y-63000000D03*
%TD*%
D19*
%TO.C,PAD1*%
X122360000Y-61250000D03*
%TD*%
D20*
%TO.C,H2*%
X123630000Y-63000000D03*
%TD*%
D41*
%TO.C,IC4*%
X123600000Y-76387500D03*
X124550000Y-76387500D03*
X125500000Y-76387500D03*
X125500000Y-74112500D03*
X124550000Y-74112500D03*
X123600000Y-74112500D03*
%TD*%
D20*
%TO.C,H5*%
X138870000Y-63000000D03*
%TD*%
D19*
%TO.C,PAD7*%
X127440000Y-61250000D03*
%TD*%
D20*
%TO.C,H8*%
X131250000Y-63000000D03*
%TD*%
D42*
%TO.C,C12*%
X135800000Y-78500000D03*
X137700000Y-78500000D03*
%TD*%
D34*
%TO.C,R13*%
X123662500Y-106750000D03*
X121837500Y-106750000D03*
%TD*%
D43*
%TO.C,IC2*%
X136800000Y-94850000D03*
X134500000Y-94850000D03*
X132200000Y-94850000D03*
D44*
X134500000Y-101150000D03*
%TD*%
D45*
%TO.C,C14*%
X121800000Y-74262500D03*
X121800000Y-76162500D03*
%TD*%
D35*
%TO.C,C10*%
X137000000Y-76200000D03*
X137000000Y-74300000D03*
%TD*%
D38*
%TO.C,H9*%
X122000000Y-55500000D03*
%TD*%
D46*
%TO.C,J1*%
X132875000Y-107800000D03*
X132375000Y-107800000D03*
X131875000Y-107800000D03*
X131375000Y-107800000D03*
X130875000Y-107800000D03*
X130375000Y-107800000D03*
X129875000Y-107800000D03*
X129375000Y-107800000D03*
X128875000Y-107800000D03*
X128375000Y-107800000D03*
X127875000Y-107800000D03*
X127375000Y-107800000D03*
X127125000Y-109300000D03*
X127625000Y-109300000D03*
X128125000Y-109300000D03*
X128625000Y-109300000D03*
X129125000Y-109300000D03*
X129625000Y-109300000D03*
X130125000Y-109300000D03*
X130625000Y-109300000D03*
X131125000Y-109300000D03*
X131625000Y-109300000D03*
X132125000Y-109300000D03*
X132625000Y-109300000D03*
D47*
X126300000Y-107600000D03*
X133700000Y-107600000D03*
%TD*%
D35*
%TO.C,C8*%
X121750000Y-80200000D03*
X121750000Y-78300000D03*
%TD*%
D19*
%TO.C,PAD5*%
X132520000Y-61250000D03*
%TD*%
D42*
%TO.C,C7*%
X135300000Y-92000000D03*
X137200000Y-92000000D03*
%TD*%
D12*
%TO.C,JP7*%
X122350000Y-69350000D03*
D13*
X122350000Y-68150000D03*
%TD*%
D12*
%TO.C,JP3*%
X130000000Y-69350000D03*
D13*
X130000000Y-68150000D03*
%TD*%
D45*
%TO.C,C13*%
X132750000Y-74300000D03*
X132750000Y-76200000D03*
%TD*%
D21*
%TO.C,C6*%
X132950000Y-92000000D03*
X131050000Y-92000000D03*
%TD*%
D38*
%TO.C,H10*%
X120000000Y-95000000D03*
%TD*%
D34*
%TO.C,R12*%
X123662500Y-104250000D03*
X121837500Y-104250000D03*
%TD*%
D20*
%TO.C,H7*%
X128710000Y-63000000D03*
%TD*%
D48*
%TO.C,D2*%
X122500000Y-95750000D03*
D49*
X122500000Y-97450000D03*
X124500000Y-97450000D03*
X124500000Y-95550000D03*
%TD*%
D50*
%TO.C,FID1*%
X137500000Y-107500000D03*
%TD*%
M02*
